<?xml version="1.0" encoding="utf-8" standalone="no"?>
<!DOCTYPE svg PUBLIC "-//W3C//DTD SVG 1.1//EN"
  "http://www.w3.org/Graphics/SVG/1.1/DTD/svg11.dtd">
<svg xmlns:xlink="http://www.w3.org/1999/xlink" width="432pt" height="288pt" viewBox="0 0 432 288" xmlns="http://www.w3.org/2000/svg" version="1.1">
 <metadata>
  <rdf:RDF xmlns:dc="http://purl.org/dc/elements/1.1/" xmlns:cc="http://creativecommons.org/ns#" xmlns:rdf="http://www.w3.org/1999/02/22-rdf-syntax-ns#">
   <cc:Work>
    <dc:type rdf:resource="http://purl.org/dc/dcmitype/StillImage"/>
    <dc:date>2025-11-07T11:24:50.807142</dc:date>
    <dc:format>image/svg+xml</dc:format>
    <dc:creator>
     <cc:Agent>
      <dc:title>Matplotlib v3.10.6, https://matplotlib.org/</dc:title>
     </cc:Agent>
    </dc:creator>
   </cc:Work>
  </rdf:RDF>
 </metadata>
 <defs>
  <style type="text/css">*{stroke-linejoin: round; stroke-linecap: butt}</style>
 </defs>
 <g id="figure_1">
  <g id="patch_1">
   <path d="M 0 288 
L 432 288 
L 432 0 
L 0 0 
z
" style="fill: #ffffff"/>
  </g>
  <g id="axes_1">
   <g id="patch_2">
    <path d="M 140.298449 31.18822 
Q 133.355629 34.146108 127.955676 36.446679 
" clip-path="url(#pd8483f6d0d)" style="fill: none; stroke: #555555; stroke-width: 1.5; stroke-linecap: round"/>
    <path d="M 132.419522 36.718865 
L 127.955676 36.446679 
L 130.851732 33.038915 
z
" clip-path="url(#pd8483f6d0d)" style="fill: #555555; stroke: #555555; stroke-width: 1.5; stroke-linecap: round"/>
   </g>
   <g id="patch_3">
    <path d="M 169.431941 31.089881 
Q 176.744028 34.146312 182.508799 36.55597 
" clip-path="url(#pd8483f6d0d)" style="fill: none; stroke: #555555; stroke-width: 1.5; stroke-linecap: round"/>
    <path d="M 179.589559 33.168044 
L 182.508799 36.55597 
L 178.046915 36.858607 
z
" clip-path="url(#pd8483f6d0d)" style="fill: #555555; stroke: #555555; stroke-width: 1.5; stroke-linecap: round"/>
   </g>
   <g id="patch_4">
    <path d="M 198.644628 77.419918 
Q 198.644628 78.669272 198.644628 78.241576 
" clip-path="url(#pd8483f6d0d)" style="fill: none; stroke: #555555; stroke-width: 1.5; stroke-linecap: round"/>
    <path d="M 200.644628 74.241576 
L 198.644628 78.241576 
L 196.644628 74.241576 
z
" clip-path="url(#pd8483f6d0d)" style="fill: #555555; stroke: #555555; stroke-width: 1.5; stroke-linecap: round"/>
   </g>
   <g id="patch_5">
    <path d="M 198.644628 95.728882 
Q 198.644628 96.978236 198.644628 96.55054 
" clip-path="url(#pd8483f6d0d)" style="fill: none; stroke: #555555; stroke-width: 1.5; stroke-linecap: round"/>
    <path d="M 200.644628 92.55054 
L 198.644628 96.55054 
L 196.644628 92.55054 
z
" clip-path="url(#pd8483f6d0d)" style="fill: #555555; stroke: #555555; stroke-width: 1.5; stroke-linecap: round"/>
   </g>
   <g id="patch_6">
    <path d="M 198.644628 114.037846 
Q 198.644628 115.2872 198.644628 114.859503 
" clip-path="url(#pd8483f6d0d)" style="fill: none; stroke: #555555; stroke-width: 1.5; stroke-linecap: round"/>
    <path d="M 200.644628 110.859503 
L 198.644628 114.859503 
L 196.644628 110.859503 
z
" clip-path="url(#pd8483f6d0d)" style="fill: #555555; stroke: #555555; stroke-width: 1.5; stroke-linecap: round"/>
   </g>
   <g id="patch_7">
    <path d="M 198.644628 132.346809 
Q 198.644628 133.596164 198.644628 133.168467 
" clip-path="url(#pd8483f6d0d)" style="fill: none; stroke: #555555; stroke-width: 1.5; stroke-linecap: round"/>
    <path d="M 200.644628 129.168467 
L 198.644628 133.168467 
L 196.644628 129.168467 
z
" clip-path="url(#pd8483f6d0d)" style="fill: #555555; stroke: #555555; stroke-width: 1.5; stroke-linecap: round"/>
   </g>
   <g id="patch_8">
    <path d="M 184.460007 141.828716 
Q 180.049597 143.999995 177.143789 145.430547 
" clip-path="url(#pd8483f6d0d)" style="fill: none; stroke: #555555; stroke-width: 1.5; stroke-linecap: round"/>
    <path d="M 181.615839 145.458152 
L 177.143789 145.430547 
L 179.849103 141.869469 
z
" clip-path="url(#pd8483f6d0d)" style="fill: #555555; stroke: #555555; stroke-width: 1.5; stroke-linecap: round"/>
   </g>
   <g id="patch_9">
    <path d="M 212.829249 141.828716 
Q 217.239659 143.999995 220.145468 145.430547 
" clip-path="url(#pd8483f6d0d)" style="fill: none; stroke: #555555; stroke-width: 1.5; stroke-linecap: round"/>
    <path d="M 217.440153 141.869469 
L 220.145468 145.430547 
L 215.673417 145.458152 
z
" clip-path="url(#pd8483f6d0d)" style="fill: #555555; stroke: #555555; stroke-width: 1.5; stroke-linecap: round"/>
   </g>
   <g id="patch_10">
    <path d="M 161.454545 168.964737 
Q 161.454545 170.214091 161.454545 169.786395 
" clip-path="url(#pd8483f6d0d)" style="fill: none; stroke: #555555; stroke-width: 1.5; stroke-linecap: round"/>
    <path d="M 163.454545 165.786395 
L 161.454545 169.786395 
L 159.454545 165.786395 
z
" clip-path="url(#pd8483f6d0d)" style="fill: #555555; stroke: #555555; stroke-width: 1.5; stroke-linecap: round"/>
   </g>
   <g id="patch_11">
    <path d="M 161.454545 187.273701 
Q 161.454545 188.523055 161.454545 188.095358 
" clip-path="url(#pd8483f6d0d)" style="fill: none; stroke: #555555; stroke-width: 1.5; stroke-linecap: round"/>
    <path d="M 163.454545 184.095358 
L 161.454545 188.095358 
L 159.454545 184.095358 
z
" clip-path="url(#pd8483f6d0d)" style="fill: #555555; stroke: #555555; stroke-width: 1.5; stroke-linecap: round"/>
   </g>
   <g id="patch_12">
    <path d="M 145.811134 192.082821 
Q 99.469172 198.927172 54.786264 205.526494 
" clip-path="url(#pd8483f6d0d)" style="fill: none; stroke: #555555; stroke-width: 1.5; stroke-linecap: round"/>
    <path d="M 59.035554 206.920602 
L 54.786264 205.526494 
L 58.451124 202.963527 
z
" clip-path="url(#pd8483f6d0d)" style="fill: #555555; stroke: #555555; stroke-width: 1.5; stroke-linecap: round"/>
   </g>
   <g id="patch_13">
    <path d="M 146.910019 195.968894 
Q 139.9672 198.926782 134.567247 201.227353 
" clip-path="url(#pd8483f6d0d)" style="fill: none; stroke: #555555; stroke-width: 1.5; stroke-linecap: round"/>
    <path d="M 139.031092 201.499539 
L 134.567247 201.227353 
L 137.463302 197.819588 
z
" clip-path="url(#pd8483f6d0d)" style="fill: #555555; stroke: #555555; stroke-width: 1.5; stroke-linecap: round"/>
   </g>
   <g id="patch_14">
    <path d="M 176.043512 195.870555 
Q 183.355598 198.926986 189.12037 201.336644 
" clip-path="url(#pd8483f6d0d)" style="fill: none; stroke: #555555; stroke-width: 1.5; stroke-linecap: round"/>
    <path d="M 186.20113 197.948718 
L 189.12037 201.336644 
L 184.658485 201.63928 
z
" clip-path="url(#pd8483f6d0d)" style="fill: #555555; stroke: #555555; stroke-width: 1.5; stroke-linecap: round"/>
   </g>
   <g id="patch_15">
    <path d="M 177.155764 191.64253 
Q 238.315655 198.927083 297.810266 206.013289 
" clip-path="url(#pd8483f6d0d)" style="fill: none; stroke: #555555; stroke-width: 1.5; stroke-linecap: round"/>
    <path d="M 294.074882 203.554244 
L 297.810266 206.013289 
L 293.601799 207.526169 
z
" clip-path="url(#pd8483f6d0d)" style="fill: #555555; stroke: #555555; stroke-width: 1.5; stroke-linecap: round"/>
   </g>
   <g id="patch_16">
    <path d="M 313.751889 242.138013 
Q 313.636275 243.418657 313.671448 243.029042 
" clip-path="url(#pd8483f6d0d)" style="fill: none; stroke: #555555; stroke-width: 1.5; stroke-linecap: round"/>
    <path d="M 316.022996 239.225068 
L 313.671448 243.029042 
L 312.039197 238.865419 
z
" clip-path="url(#pd8483f6d0d)" style="fill: #555555; stroke: #555555; stroke-width: 1.5; stroke-linecap: round"/>
   </g>
   <g id="patch_17">
    <path d="M 166.413223 242.200592 
Q 166.413223 243.449946 166.413223 243.02225 
" clip-path="url(#pd8483f6d0d)" style="fill: none; stroke: #555555; stroke-width: 1.5; stroke-linecap: round"/>
    <path d="M 168.413223 239.02225 
L 166.413223 243.02225 
L 164.413223 239.02225 
z
" clip-path="url(#pd8483f6d0d)" style="fill: #555555; stroke: #555555; stroke-width: 1.5; stroke-linecap: round"/>
   </g>
   <g id="patch_18">
    <path d="M 394.281169 242.138013 
Q 394.396783 243.418657 394.361609 243.029042 
" clip-path="url(#pd8483f6d0d)" style="fill: none; stroke: #555555; stroke-width: 1.5; stroke-linecap: round"/>
    <path d="M 395.99386 238.865419 
L 394.361609 243.029042 
L 392.010062 239.225068 
z
" clip-path="url(#pd8483f6d0d)" style="fill: #555555; stroke: #555555; stroke-width: 1.5; stroke-linecap: round"/>
   </g>
   <g id="patch_19">
    <path d="M 394.512397 260.509556 
Q 394.512397 261.75891 394.512397 261.331213 
" clip-path="url(#pd8483f6d0d)" style="fill: none; stroke: #555555; stroke-width: 1.5; stroke-linecap: round"/>
    <path d="M 396.512397 257.331213 
L 394.512397 261.331213 
L 392.512397 257.331213 
z
" clip-path="url(#pd8483f6d0d)" style="fill: #555555; stroke: #555555; stroke-width: 1.5; stroke-linecap: round"/>
   </g>
   <g id="patch_20">
    <path d="M 105.478951 217.081641 
Q 105.25737 217.235044 106.414647 216.433852 
" clip-path="url(#pd8483f6d0d)" style="fill: none; stroke: #555555; stroke-width: 1.5; stroke-linecap: round"/>
    <path d="M 110.841835 215.801397 
L 106.414647 216.433852 
L 108.564995 212.512628 
z
" clip-path="url(#pd8483f6d0d)" style="fill: #555555; stroke: #555555; stroke-width: 1.5; stroke-linecap: round"/>
   </g>
   <g id="patch_21">
    <path d="M 219.315773 215.324946 
Q 223.026901 217.236941 225.247207 218.380855 
" clip-path="url(#pd8483f6d0d)" style="fill: none; stroke: #555555; stroke-width: 1.5; stroke-linecap: round"/>
    <path d="M 222.607377 214.770967 
L 225.247207 218.380855 
L 220.775398 218.326786 
z
" clip-path="url(#pd8483f6d0d)" style="fill: #555555; stroke: #555555; stroke-width: 1.5; stroke-linecap: round"/>
   </g>
   <g id="patch_22">
    <path d="M 190.95324 214.823193 
Q 185.835245 217.235603 182.234226 218.932974 
" clip-path="url(#pd8483f6d0d)" style="fill: none; stroke: #555555; stroke-width: 1.5; stroke-linecap: round"/>
    <path d="M 186.705161 219.036605 
L 182.234226 218.932974 
L 184.999692 215.418404 
z
" clip-path="url(#pd8483f6d0d)" style="fill: #555555; stroke: #555555; stroke-width: 1.5; stroke-linecap: round"/>
   </g>
   <g id="patch_23">
    <path d="M 198.644628 59.110954 
Q 198.644628 60.360309 198.644628 59.932612 
" clip-path="url(#pd8483f6d0d)" style="fill: none; stroke: #555555; stroke-width: 1.5; stroke-linecap: round"/>
    <path d="M 200.644628 55.932612 
L 198.644628 59.932612 
L 196.644628 55.932612 
z
" clip-path="url(#pd8483f6d0d)" style="fill: #555555; stroke: #555555; stroke-width: 1.5; stroke-linecap: round"/>
   </g>
   <g id="patch_24">
    <path d="M 315.173554 223.891628 
Q 315.173554 225.140983 315.173554 224.713286 
" clip-path="url(#pd8483f6d0d)" style="fill: none; stroke: #555555; stroke-width: 1.5; stroke-linecap: round"/>
    <path d="M 317.173554 220.713286 
L 315.173554 224.713286 
L 313.173554 220.713286 
z
" clip-path="url(#pd8483f6d0d)" style="fill: #555555; stroke: #555555; stroke-width: 1.5; stroke-linecap: round"/>
   </g>
   <g id="patch_25">
    <path d="M 330.559962 211.70763 
Q 354.01545 217.235601 375.838609 222.378866 
" clip-path="url(#pd8483f6d0d)" style="fill: none; stroke: #555555; stroke-width: 1.5; stroke-linecap: round"/>
    <path d="M 372.404064 219.514621 
L 375.838609 222.378866 
L 371.486486 223.407955 
z
" clip-path="url(#pd8483f6d0d)" style="fill: #555555; stroke: #555555; stroke-width: 1.5; stroke-linecap: round"/>
   </g>
   <g id="PathCollection_1">
    <defs>
     <path id="C0_0_0913fae1bf" d="M 0 15.811388 
C 4.193229 15.811388 8.215279 14.145401 11.18034 11.18034 
C 14.145401 8.215279 15.811388 4.193229 15.811388 -0 
C 15.811388 -4.193229 14.145401 -8.215279 11.18034 -11.18034 
C 8.215279 -14.145401 4.193229 -15.811388 0 -15.811388 
C -4.193229 -15.811388 -8.215279 -14.145401 -11.18034 -11.18034 
C -14.145401 -8.215279 -15.811388 -4.193229 -15.811388 0 
C -15.811388 4.193229 -14.145401 8.215279 -11.18034 11.18034 
C -8.215279 14.145401 -4.193229 15.811388 0 15.811388 
z
"/>
    </defs>
    <g clip-path="url(#pd8483f6d0d)">
     <use xlink:href="#C0_0_0913fae1bf" x="154.842975" y="24.991736" style="fill: #cccccc; stroke: #cccccc"/>
    </g>
    <g clip-path="url(#pd8483f6d0d)">
     <use xlink:href="#C0_0_0913fae1bf" x="198.644628" y="61.609663" style="fill: #e377c2; stroke: #e377c2"/>
    </g>
    <g clip-path="url(#pd8483f6d0d)">
     <use xlink:href="#C0_0_0913fae1bf" x="198.644628" y="79.918627" style="fill: #e377c2; stroke: #e377c2"/>
    </g>
    <g clip-path="url(#pd8483f6d0d)">
     <use xlink:href="#C0_0_0913fae1bf" x="198.644628" y="98.227591" style="fill: #e377c2; stroke: #e377c2"/>
    </g>
    <g clip-path="url(#pd8483f6d0d)">
     <use xlink:href="#C0_0_0913fae1bf" x="198.644628" y="116.536554" style="fill: #e377c2; stroke: #e377c2"/>
    </g>
    <g clip-path="url(#pd8483f6d0d)">
     <use xlink:href="#C0_0_0913fae1bf" x="198.644628" y="134.845518" style="fill: #e377c2; stroke: #e377c2"/>
    </g>
    <g clip-path="url(#pd8483f6d0d)">
     <use xlink:href="#C0_0_0913fae1bf" x="161.454545" y="153.154482" style="fill: #e377c2; stroke: #e377c2"/>
    </g>
    <g clip-path="url(#pd8483f6d0d)">
     <use xlink:href="#C0_0_0913fae1bf" x="161.454545" y="171.463446" style="fill: #e377c2; stroke: #e377c2"/>
    </g>
    <g clip-path="url(#pd8483f6d0d)">
     <use xlink:href="#C0_0_0913fae1bf" x="235.834711" y="153.154482" style="fill: #e377c2; stroke: #e377c2"/>
    </g>
    <g clip-path="url(#pd8483f6d0d)">
     <use xlink:href="#C0_0_0913fae1bf" x="161.454545" y="189.772409" style="fill: #e377c2; stroke: #e377c2"/>
    </g>
    <g clip-path="url(#pd8483f6d0d)">
     <use xlink:href="#C0_0_0913fae1bf" x="240.793388" y="226.390337" style="fill: #d62728; stroke: #d62728"/>
    </g>
    <g clip-path="url(#pd8483f6d0d)">
     <use xlink:href="#C0_0_0913fae1bf" x="92.033058" y="226.390337" style="fill: #1f77b4; stroke: #1f77b4"/>
    </g>
    <g clip-path="url(#pd8483f6d0d)">
     <use xlink:href="#C0_0_0913fae1bf" x="315.173554" y="226.390337" style="fill: #bcbd22; stroke: #bcbd22"/>
    </g>
    <g clip-path="url(#pd8483f6d0d)">
     <use xlink:href="#C0_0_0913fae1bf" x="166.413223" y="226.390337" style="fill: #d62728; stroke: #d62728"/>
    </g>
    <g clip-path="url(#pd8483f6d0d)">
     <use xlink:href="#C0_0_0913fae1bf" x="37.487603" y="208.081373" style="fill: #e377c2; stroke: #e377c2"/>
    </g>
    <g clip-path="url(#pd8483f6d0d)">
     <use xlink:href="#C0_0_0913fae1bf" x="392.859504" y="226.390337" style="fill: #bcbd22; stroke: #bcbd22"/>
    </g>
    <g clip-path="url(#pd8483f6d0d)">
     <use xlink:href="#C0_0_0913fae1bf" x="394.512397" y="244.699301" style="fill: #bcbd22; stroke: #bcbd22"/>
    </g>
    <g clip-path="url(#pd8483f6d0d)">
     <use xlink:href="#C0_0_0913fae1bf" x="394.512397" y="263.008264" style="fill: #bcbd22; stroke: #bcbd22"/>
    </g>
    <g clip-path="url(#pd8483f6d0d)">
     <use xlink:href="#C0_0_0913fae1bf" x="118.479339" y="208.081373" style="fill: #1f77b4; stroke: #1f77b4"/>
    </g>
    <g clip-path="url(#pd8483f6d0d)">
     <use xlink:href="#C0_0_0913fae1bf" x="111.867769" y="43.300699" style="fill: #ff7f0e; stroke: #ff7f0e"/>
    </g>
    <g clip-path="url(#pd8483f6d0d)">
     <use xlink:href="#C0_0_0913fae1bf" x="205.256198" y="208.081373" style="fill: #d62728; stroke: #d62728"/>
    </g>
    <g clip-path="url(#pd8483f6d0d)">
     <use xlink:href="#C0_0_0913fae1bf" x="166.413223" y="244.699301" style="fill: #8c564b; stroke: #8c564b"/>
    </g>
    <g clip-path="url(#pd8483f6d0d)">
     <use xlink:href="#C0_0_0913fae1bf" x="198.644628" y="43.300699" style="fill: #e377c2; stroke: #e377c2"/>
    </g>
    <g clip-path="url(#pd8483f6d0d)">
     <use xlink:href="#C0_0_0913fae1bf" x="315.173554" y="208.081373" style="fill: #bcbd22; stroke: #bcbd22"/>
    </g>
    <g clip-path="url(#pd8483f6d0d)">
     <use xlink:href="#C0_0_0913fae1bf" x="313.520661" y="244.699301" style="fill: #17becf; stroke: #17becf"/>
    </g>
   </g>
   <g id="text_1">
    <g clip-path="url(#pd8483f6d0d)">
     <!-- root -->
     <g transform="translate(146.634928 26.923298) scale(0.07 -0.07)">
      <defs>
       <path id="DejaVuSans-Bold-72" d="M 3138 2547 
Q 2991 2616 2845 2648 
Q 2700 2681 2553 2681 
Q 2122 2681 1889 2404 
Q 1656 2128 1656 1613 
L 1656 0 
L 538 0 
L 538 3500 
L 1656 3500 
L 1656 2925 
Q 1872 3269 2151 3426 
Q 2431 3584 2822 3584 
Q 2878 3584 2943 3579 
Q 3009 3575 3134 3559 
L 3138 2547 
z
" transform="scale(0.015625)"/>
       <path id="DejaVuSans-Bold-6f" d="M 2203 2784 
Q 1831 2784 1636 2517 
Q 1441 2250 1441 1747 
Q 1441 1244 1636 976 
Q 1831 709 2203 709 
Q 2569 709 2762 976 
Q 2956 1244 2956 1747 
Q 2956 2250 2762 2517 
Q 2569 2784 2203 2784 
z
M 2203 3584 
Q 3106 3584 3614 3096 
Q 4122 2609 4122 1747 
Q 4122 884 3614 396 
Q 3106 -91 2203 -91 
Q 1297 -91 786 396 
Q 275 884 275 1747 
Q 275 2609 786 3096 
Q 1297 3584 2203 3584 
z
" transform="scale(0.015625)"/>
       <path id="DejaVuSans-Bold-74" d="M 1759 4494 
L 1759 3500 
L 2913 3500 
L 2913 2700 
L 1759 2700 
L 1759 1216 
Q 1759 972 1856 886 
Q 1953 800 2241 800 
L 2816 800 
L 2816 0 
L 1856 0 
Q 1194 0 917 276 
Q 641 553 641 1216 
L 641 2700 
L 84 2700 
L 84 3500 
L 641 3500 
L 641 4494 
L 1759 4494 
z
" transform="scale(0.015625)"/>
      </defs>
      <use xlink:href="#DejaVuSans-Bold-72"/>
      <use xlink:href="#DejaVuSans-Bold-6f" transform="translate(49.316406 0)"/>
      <use xlink:href="#DejaVuSans-Bold-6f" transform="translate(118.017578 0)"/>
      <use xlink:href="#DejaVuSans-Bold-74" transform="translate(186.71875 0)"/>
     </g>
    </g>
   </g>
   <g id="text_2">
    <g clip-path="url(#pd8483f6d0d)">
     <!-- 0 -->
     <g transform="translate(196.209394 63.541226) scale(0.07 -0.07)">
      <defs>
       <path id="DejaVuSans-Bold-30" d="M 2944 2338 
Q 2944 3213 2780 3570 
Q 2616 3928 2228 3928 
Q 1841 3928 1675 3570 
Q 1509 3213 1509 2338 
Q 1509 1453 1675 1090 
Q 1841 728 2228 728 
Q 2613 728 2778 1090 
Q 2944 1453 2944 2338 
z
M 4147 2328 
Q 4147 1169 3647 539 
Q 3147 -91 2228 -91 
Q 1306 -91 806 539 
Q 306 1169 306 2328 
Q 306 3491 806 4120 
Q 1306 4750 2228 4750 
Q 3147 4750 3647 4120 
Q 4147 3491 4147 2328 
z
" transform="scale(0.015625)"/>
      </defs>
      <use xlink:href="#DejaVuSans-Bold-30"/>
     </g>
    </g>
   </g>
   <g id="text_3">
    <g clip-path="url(#pd8483f6d0d)">
     <!-- 9 -->
     <g transform="translate(196.209394 81.850189) scale(0.07 -0.07)">
      <defs>
       <path id="DejaVuSans-Bold-39" d="M 641 103 
L 641 966 
Q 928 831 1190 764 
Q 1453 697 1709 697 
Q 2247 697 2547 995 
Q 2847 1294 2900 1881 
Q 2688 1725 2447 1647 
Q 2206 1569 1925 1569 
Q 1209 1569 770 1986 
Q 331 2403 331 3084 
Q 331 3838 820 4291 
Q 1309 4744 2131 4744 
Q 3044 4744 3544 4128 
Q 4044 3513 4044 2388 
Q 4044 1231 3459 570 
Q 2875 -91 1856 -91 
Q 1528 -91 1228 -42 
Q 928 6 641 103 
z
M 2125 2350 
Q 2441 2350 2600 2554 
Q 2759 2759 2759 3169 
Q 2759 3575 2600 3781 
Q 2441 3988 2125 3988 
Q 1809 3988 1650 3781 
Q 1491 3575 1491 3169 
Q 1491 2759 1650 2554 
Q 1809 2350 2125 2350 
z
" transform="scale(0.015625)"/>
      </defs>
      <use xlink:href="#DejaVuSans-Bold-39"/>
     </g>
    </g>
   </g>
   <g id="text_4">
    <g clip-path="url(#pd8483f6d0d)">
     <!-- 7 -->
     <g transform="translate(196.209394 100.159153) scale(0.07 -0.07)">
      <defs>
       <path id="DejaVuSans-Bold-37" d="M 428 4666 
L 3944 4666 
L 3944 3988 
L 2125 0 
L 953 0 
L 2675 3781 
L 428 3781 
L 428 4666 
z
" transform="scale(0.015625)"/>
      </defs>
      <use xlink:href="#DejaVuSans-Bold-37"/>
     </g>
    </g>
   </g>
   <g id="text_5">
    <g clip-path="url(#pd8483f6d0d)">
     <!-- 13 -->
     <g transform="translate(193.774159 118.468117) scale(0.07 -0.07)">
      <defs>
       <path id="DejaVuSans-Bold-31" d="M 750 831 
L 1813 831 
L 1813 3847 
L 722 3622 
L 722 4441 
L 1806 4666 
L 2950 4666 
L 2950 831 
L 4013 831 
L 4013 0 
L 750 0 
L 750 831 
z
" transform="scale(0.015625)"/>
       <path id="DejaVuSans-Bold-33" d="M 2981 2516 
Q 3453 2394 3698 2092 
Q 3944 1791 3944 1325 
Q 3944 631 3412 270 
Q 2881 -91 1863 -91 
Q 1503 -91 1142 -33 
Q 781 25 428 141 
L 428 1069 
Q 766 900 1098 814 
Q 1431 728 1753 728 
Q 2231 728 2486 893 
Q 2741 1059 2741 1369 
Q 2741 1688 2480 1852 
Q 2219 2016 1709 2016 
L 1228 2016 
L 1228 2791 
L 1734 2791 
Q 2188 2791 2409 2933 
Q 2631 3075 2631 3366 
Q 2631 3634 2415 3781 
Q 2200 3928 1806 3928 
Q 1516 3928 1219 3862 
Q 922 3797 628 3669 
L 628 4550 
Q 984 4650 1334 4700 
Q 1684 4750 2022 4750 
Q 2931 4750 3382 4451 
Q 3834 4153 3834 3553 
Q 3834 3144 3618 2883 
Q 3403 2622 2981 2516 
z
" transform="scale(0.015625)"/>
      </defs>
      <use xlink:href="#DejaVuSans-Bold-31"/>
      <use xlink:href="#DejaVuSans-Bold-33" transform="translate(69.580078 0)"/>
     </g>
    </g>
   </g>
   <g id="text_6">
    <g clip-path="url(#pd8483f6d0d)">
     <!-- 14 -->
     <g transform="translate(193.774159 136.777081) scale(0.07 -0.07)">
      <defs>
       <path id="DejaVuSans-Bold-34" d="M 2356 3675 
L 1038 1722 
L 2356 1722 
L 2356 3675 
z
M 2156 4666 
L 3494 4666 
L 3494 1722 
L 4159 1722 
L 4159 850 
L 3494 850 
L 3494 0 
L 2356 0 
L 2356 850 
L 288 850 
L 288 1881 
L 2156 4666 
z
" transform="scale(0.015625)"/>
      </defs>
      <use xlink:href="#DejaVuSans-Bold-31"/>
      <use xlink:href="#DejaVuSans-Bold-34" transform="translate(69.580078 0)"/>
     </g>
    </g>
   </g>
   <g id="text_7">
    <g clip-path="url(#pd8483f6d0d)">
     <!-- 6 -->
     <g transform="translate(159.019311 155.086044) scale(0.07 -0.07)">
      <defs>
       <path id="DejaVuSans-Bold-36" d="M 2316 2303 
Q 2000 2303 1842 2098 
Q 1684 1894 1684 1484 
Q 1684 1075 1842 870 
Q 2000 666 2316 666 
Q 2634 666 2792 870 
Q 2950 1075 2950 1484 
Q 2950 1894 2792 2098 
Q 2634 2303 2316 2303 
z
M 3803 4544 
L 3803 3681 
Q 3506 3822 3243 3889 
Q 2981 3956 2731 3956 
Q 2194 3956 1894 3657 
Q 1594 3359 1544 2772 
Q 1750 2925 1990 3001 
Q 2231 3078 2516 3078 
Q 3231 3078 3670 2659 
Q 4109 2241 4109 1563 
Q 4109 813 3618 361 
Q 3128 -91 2303 -91 
Q 1394 -91 895 523 
Q 397 1138 397 2266 
Q 397 3422 980 4083 
Q 1563 4744 2578 4744 
Q 2900 4744 3203 4694 
Q 3506 4644 3803 4544 
z
" transform="scale(0.015625)"/>
      </defs>
      <use xlink:href="#DejaVuSans-Bold-36"/>
     </g>
    </g>
   </g>
   <g id="text_8">
    <g clip-path="url(#pd8483f6d0d)">
     <!-- 5 -->
     <g transform="translate(159.019311 173.395008) scale(0.07 -0.07)">
      <defs>
       <path id="DejaVuSans-Bold-35" d="M 678 4666 
L 3669 4666 
L 3669 3781 
L 1638 3781 
L 1638 3059 
Q 1775 3097 1914 3117 
Q 2053 3138 2203 3138 
Q 3056 3138 3531 2711 
Q 4006 2284 4006 1522 
Q 4006 766 3489 337 
Q 2972 -91 2053 -91 
Q 1656 -91 1267 -14 
Q 878 63 494 219 
L 494 1166 
Q 875 947 1217 837 
Q 1559 728 1863 728 
Q 2300 728 2551 942 
Q 2803 1156 2803 1522 
Q 2803 1891 2551 2103 
Q 2300 2316 1863 2316 
Q 1603 2316 1309 2248 
Q 1016 2181 678 2041 
L 678 4666 
z
" transform="scale(0.015625)"/>
      </defs>
      <use xlink:href="#DejaVuSans-Bold-35"/>
     </g>
    </g>
   </g>
   <g id="text_9">
    <g clip-path="url(#pd8483f6d0d)">
     <!-- 12 -->
     <g transform="translate(230.964242 155.086044) scale(0.07 -0.07)">
      <defs>
       <path id="DejaVuSans-Bold-32" d="M 1844 884 
L 3897 884 
L 3897 0 
L 506 0 
L 506 884 
L 2209 2388 
Q 2438 2594 2547 2791 
Q 2656 2988 2656 3200 
Q 2656 3528 2436 3728 
Q 2216 3928 1850 3928 
Q 1569 3928 1234 3808 
Q 900 3688 519 3450 
L 519 4475 
Q 925 4609 1322 4679 
Q 1719 4750 2100 4750 
Q 2938 4750 3402 4381 
Q 3866 4013 3866 3353 
Q 3866 2972 3669 2642 
Q 3472 2313 2841 1759 
L 1844 884 
z
" transform="scale(0.015625)"/>
      </defs>
      <use xlink:href="#DejaVuSans-Bold-31"/>
      <use xlink:href="#DejaVuSans-Bold-32" transform="translate(69.580078 0)"/>
     </g>
    </g>
   </g>
   <g id="text_10">
    <g clip-path="url(#pd8483f6d0d)">
     <!-- 16 -->
     <g transform="translate(156.584077 191.703972) scale(0.07 -0.07)">
      <use xlink:href="#DejaVuSans-Bold-31"/>
      <use xlink:href="#DejaVuSans-Bold-36" transform="translate(69.580078 0)"/>
     </g>
    </g>
   </g>
   <g id="text_11">
    <g clip-path="url(#pd8483f6d0d)">
     <!-- 1 -->
     <g transform="translate(238.358154 228.321899) scale(0.07 -0.07)">
      <use xlink:href="#DejaVuSans-Bold-31"/>
     </g>
    </g>
   </g>
   <g id="text_12">
    <g clip-path="url(#pd8483f6d0d)">
     <!-- 3 -->
     <g transform="translate(89.597823 228.321899) scale(0.07 -0.07)">
      <use xlink:href="#DejaVuSans-Bold-33"/>
     </g>
    </g>
   </g>
   <g id="text_13">
    <g clip-path="url(#pd8483f6d0d)">
     <!-- 4 -->
     <g transform="translate(312.738319 228.321899) scale(0.07 -0.07)">
      <use xlink:href="#DejaVuSans-Bold-34"/>
     </g>
    </g>
   </g>
   <g id="text_14">
    <g clip-path="url(#pd8483f6d0d)">
     <!-- 8 -->
     <g transform="translate(163.977989 228.321899) scale(0.07 -0.07)">
      <defs>
       <path id="DejaVuSans-Bold-38" d="M 2228 2088 
Q 1891 2088 1709 1903 
Q 1528 1719 1528 1375 
Q 1528 1031 1709 848 
Q 1891 666 2228 666 
Q 2563 666 2741 848 
Q 2919 1031 2919 1375 
Q 2919 1722 2741 1905 
Q 2563 2088 2228 2088 
z
M 1350 2484 
Q 925 2613 709 2878 
Q 494 3144 494 3541 
Q 494 4131 934 4440 
Q 1375 4750 2228 4750 
Q 3075 4750 3515 4442 
Q 3956 4134 3956 3541 
Q 3956 3144 3739 2878 
Q 3522 2613 3097 2484 
Q 3572 2353 3814 2058 
Q 4056 1763 4056 1313 
Q 4056 619 3595 264 
Q 3134 -91 2228 -91 
Q 1319 -91 855 264 
Q 391 619 391 1313 
Q 391 1763 633 2058 
Q 875 2353 1350 2484 
z
M 1631 3419 
Q 1631 3141 1786 2991 
Q 1941 2841 2228 2841 
Q 2509 2841 2662 2991 
Q 2816 3141 2816 3419 
Q 2816 3697 2662 3845 
Q 2509 3994 2228 3994 
Q 1941 3994 1786 3844 
Q 1631 3694 1631 3419 
z
" transform="scale(0.015625)"/>
      </defs>
      <use xlink:href="#DejaVuSans-Bold-38"/>
     </g>
    </g>
   </g>
   <g id="text_15">
    <g clip-path="url(#pd8483f6d0d)">
     <!-- 10 -->
     <g transform="translate(32.617135 210.012936) scale(0.07 -0.07)">
      <use xlink:href="#DejaVuSans-Bold-31"/>
      <use xlink:href="#DejaVuSans-Bold-30" transform="translate(69.580078 0)"/>
     </g>
    </g>
   </g>
   <g id="text_16">
    <g clip-path="url(#pd8483f6d0d)">
     <!-- 15 -->
     <g transform="translate(387.989035 228.321899) scale(0.07 -0.07)">
      <use xlink:href="#DejaVuSans-Bold-31"/>
      <use xlink:href="#DejaVuSans-Bold-35" transform="translate(69.580078 0)"/>
     </g>
    </g>
   </g>
   <g id="text_17">
    <g clip-path="url(#pd8483f6d0d)">
     <!-- 17 -->
     <g transform="translate(389.641928 246.630863) scale(0.07 -0.07)">
      <use xlink:href="#DejaVuSans-Bold-31"/>
      <use xlink:href="#DejaVuSans-Bold-37" transform="translate(69.580078 0)"/>
     </g>
    </g>
   </g>
   <g id="text_18">
    <g clip-path="url(#pd8483f6d0d)">
     <!-- 11 -->
     <g transform="translate(389.641928 264.939827) scale(0.07 -0.07)">
      <use xlink:href="#DejaVuSans-Bold-31"/>
      <use xlink:href="#DejaVuSans-Bold-31" transform="translate(69.580078 0)"/>
     </g>
    </g>
   </g>
   <g id="text_19">
    <g clip-path="url(#pd8483f6d0d)">
     <!-- CN_A -->
     <g transform="translate(108.522933 209.853795) scale(0.07 -0.07)">
      <defs>
       <path id="DejaVuSans-Bold-43" d="M 4288 256 
Q 3956 84 3597 -3 
Q 3238 -91 2847 -91 
Q 1681 -91 1000 561 
Q 319 1213 319 2328 
Q 319 3447 1000 4098 
Q 1681 4750 2847 4750 
Q 3238 4750 3597 4662 
Q 3956 4575 4288 4403 
L 4288 3438 
Q 3953 3666 3628 3772 
Q 3303 3878 2944 3878 
Q 2300 3878 1931 3465 
Q 1563 3053 1563 2328 
Q 1563 1606 1931 1193 
Q 2300 781 2944 781 
Q 3303 781 3628 887 
Q 3953 994 4288 1222 
L 4288 256 
z
" transform="scale(0.015625)"/>
       <path id="DejaVuSans-Bold-4e" d="M 588 4666 
L 1931 4666 
L 3628 1466 
L 3628 4666 
L 4769 4666 
L 4769 0 
L 3425 0 
L 1728 3200 
L 1728 0 
L 588 0 
L 588 4666 
z
" transform="scale(0.015625)"/>
       <path id="DejaVuSans-Bold-5f" d="M 3200 -916 
L 3200 -1509 
L 0 -1509 
L 0 -916 
L 3200 -916 
z
" transform="scale(0.015625)"/>
       <path id="DejaVuSans-Bold-41" d="M 3419 850 
L 1538 850 
L 1241 0 
L 31 0 
L 1759 4666 
L 3194 4666 
L 4922 0 
L 3713 0 
L 3419 850 
z
M 1838 1716 
L 3116 1716 
L 2478 3572 
L 1838 1716 
z
" transform="scale(0.015625)"/>
      </defs>
      <use xlink:href="#DejaVuSans-Bold-43"/>
      <use xlink:href="#DejaVuSans-Bold-4e" transform="translate(73.388672 0)"/>
      <use xlink:href="#DejaVuSans-Bold-5f" transform="translate(157.080078 0)"/>
      <use xlink:href="#DejaVuSans-Bold-41" transform="translate(207.080078 0)"/>
     </g>
    </g>
   </g>
   <g id="text_20">
    <g clip-path="url(#pd8483f6d0d)">
     <!-- CN_B -->
     <g transform="translate(101.952378 45.073121) scale(0.07 -0.07)">
      <defs>
       <path id="DejaVuSans-Bold-42" d="M 2456 2859 
Q 2741 2859 2887 2984 
Q 3034 3109 3034 3353 
Q 3034 3594 2887 3720 
Q 2741 3847 2456 3847 
L 1791 3847 
L 1791 2859 
L 2456 2859 
z
M 2497 819 
Q 2859 819 3042 972 
Q 3225 1125 3225 1434 
Q 3225 1738 3044 1889 
Q 2863 2041 2497 2041 
L 1791 2041 
L 1791 819 
L 2497 819 
z
M 3616 2497 
Q 4003 2384 4215 2081 
Q 4428 1778 4428 1338 
Q 4428 663 3972 331 
Q 3516 0 2584 0 
L 588 0 
L 588 4666 
L 2394 4666 
Q 3366 4666 3802 4372 
Q 4238 4078 4238 3431 
Q 4238 3091 4078 2852 
Q 3919 2613 3616 2497 
z
" transform="scale(0.015625)"/>
      </defs>
      <use xlink:href="#DejaVuSans-Bold-43"/>
      <use xlink:href="#DejaVuSans-Bold-4e" transform="translate(73.388672 0)"/>
      <use xlink:href="#DejaVuSans-Bold-5f" transform="translate(157.080078 0)"/>
      <use xlink:href="#DejaVuSans-Bold-42" transform="translate(207.080078 0)"/>
     </g>
    </g>
   </g>
   <g id="text_21">
    <g clip-path="url(#pd8483f6d0d)">
     <!-- CN_C -->
     <g transform="translate(195.439792 209.853795) scale(0.07 -0.07)">
      <use xlink:href="#DejaVuSans-Bold-43"/>
      <use xlink:href="#DejaVuSans-Bold-4e" transform="translate(73.388672 0)"/>
      <use xlink:href="#DejaVuSans-Bold-5f" transform="translate(157.080078 0)"/>
      <use xlink:href="#DejaVuSans-Bold-43" transform="translate(207.080078 0)"/>
     </g>
    </g>
   </g>
   <g id="text_22">
    <g clip-path="url(#pd8483f6d0d)">
     <!-- CN_D -->
     <g transform="translate(156.259942 246.471723) scale(0.07 -0.07)">
      <defs>
       <path id="DejaVuSans-Bold-44" d="M 1791 3756 
L 1791 909 
L 2222 909 
Q 2959 909 3348 1275 
Q 3738 1641 3738 2338 
Q 3738 3031 3350 3393 
Q 2963 3756 2222 3756 
L 1791 3756 
z
M 588 4666 
L 1856 4666 
Q 2919 4666 3439 4514 
Q 3959 4363 4331 4000 
Q 4659 3684 4818 3271 
Q 4978 2859 4978 2338 
Q 4978 1809 4818 1395 
Q 4659 981 4331 666 
Q 3956 303 3431 151 
Q 2906 0 1856 0 
L 588 0 
L 588 4666 
z
" transform="scale(0.015625)"/>
      </defs>
      <use xlink:href="#DejaVuSans-Bold-43"/>
      <use xlink:href="#DejaVuSans-Bold-4e" transform="translate(73.388672 0)"/>
      <use xlink:href="#DejaVuSans-Bold-5f" transform="translate(157.080078 0)"/>
      <use xlink:href="#DejaVuSans-Bold-44" transform="translate(207.080078 0)"/>
     </g>
    </g>
   </g>
   <g id="text_23">
    <g clip-path="url(#pd8483f6d0d)">
     <!-- CN_H -->
     <g transform="translate(188.467831 45.073121) scale(0.07 -0.07)">
      <defs>
       <path id="DejaVuSans-Bold-48" d="M 588 4666 
L 1791 4666 
L 1791 2888 
L 3566 2888 
L 3566 4666 
L 4769 4666 
L 4769 0 
L 3566 0 
L 3566 1978 
L 1791 1978 
L 1791 0 
L 588 0 
L 588 4666 
z
" transform="scale(0.015625)"/>
      </defs>
      <use xlink:href="#DejaVuSans-Bold-43"/>
      <use xlink:href="#DejaVuSans-Bold-4e" transform="translate(73.388672 0)"/>
      <use xlink:href="#DejaVuSans-Bold-5f" transform="translate(157.080078 0)"/>
      <use xlink:href="#DejaVuSans-Bold-48" transform="translate(207.080078 0)"/>
     </g>
    </g>
   </g>
   <g id="text_24">
    <g clip-path="url(#pd8483f6d0d)">
     <!-- CN_J -->
     <g transform="translate(306.62371 209.853795) scale(0.07 -0.07)">
      <defs>
       <path id="DejaVuSans-Bold-4a" d="M 588 4666 
L 1791 4666 
L 1791 453 
Q 1791 -419 1317 -850 
Q 844 -1281 -116 -1281 
L -359 -1281 
L -359 -372 
L -172 -372 
Q 203 -372 395 -162 
Q 588 47 588 453 
L 588 4666 
z
" transform="scale(0.015625)"/>
      </defs>
      <use xlink:href="#DejaVuSans-Bold-43"/>
      <use xlink:href="#DejaVuSans-Bold-4e" transform="translate(73.388672 0)"/>
      <use xlink:href="#DejaVuSans-Bold-5f" transform="translate(157.080078 0)"/>
      <use xlink:href="#DejaVuSans-Bold-4a" transform="translate(207.080078 0)"/>
     </g>
    </g>
   </g>
   <g id="text_25">
    <g clip-path="url(#pd8483f6d0d)">
     <!-- CN_K -->
     <g transform="translate(303.560974 246.471723) scale(0.07 -0.07)">
      <defs>
       <path id="DejaVuSans-Bold-4b" d="M 588 4666 
L 1791 4666 
L 1791 2963 
L 3525 4666 
L 4922 4666 
L 2675 2456 
L 5153 0 
L 3647 0 
L 1791 1838 
L 1791 0 
L 588 0 
L 588 4666 
z
" transform="scale(0.015625)"/>
      </defs>
      <use xlink:href="#DejaVuSans-Bold-43"/>
      <use xlink:href="#DejaVuSans-Bold-4e" transform="translate(73.388672 0)"/>
      <use xlink:href="#DejaVuSans-Bold-5f" transform="translate(157.080078 0)"/>
      <use xlink:href="#DejaVuSans-Bold-4b" transform="translate(207.080078 0)"/>
     </g>
    </g>
   </g>
  </g>
 </g>
 <defs>
  <clipPath id="pd8483f6d0d">
   <rect x="0" y="0" width="432" height="288"/>
  </clipPath>
 </defs>
</svg>
