<?xml version="1.0" encoding="utf-8" standalone="no"?>
<!DOCTYPE svg PUBLIC "-//W3C//DTD SVG 1.1//EN"
  "http://www.w3.org/Graphics/SVG/1.1/DTD/svg11.dtd">
<svg xmlns:xlink="http://www.w3.org/1999/xlink" width="432pt" height="288pt" viewBox="0 0 432 288" xmlns="http://www.w3.org/2000/svg" version="1.1">
 <metadata>
  <rdf:RDF xmlns:dc="http://purl.org/dc/elements/1.1/" xmlns:cc="http://creativecommons.org/ns#" xmlns:rdf="http://www.w3.org/1999/02/22-rdf-syntax-ns#">
   <cc:Work>
    <dc:type rdf:resource="http://purl.org/dc/dcmitype/StillImage"/>
    <dc:date>2025-11-12T23:44:13.721914</dc:date>
    <dc:format>image/svg+xml</dc:format>
    <dc:creator>
     <cc:Agent>
      <dc:title>Matplotlib v3.10.7, https://matplotlib.org/</dc:title>
     </cc:Agent>
    </dc:creator>
   </cc:Work>
  </rdf:RDF>
 </metadata>
 <defs>
  <style type="text/css">*{stroke-linejoin: round; stroke-linecap: butt}</style>
 </defs>
 <g id="figure_1">
  <g id="patch_1">
   <path d="M 0 288 
L 432 288 
L 432 0 
L 0 0 
z
" style="fill: #ffffff"/>
  </g>
  <g id="axes_1">
   <g id="patch_2">
    <path d="M 201.493971 24.991736 
Q 201.493971 32.429752 201.493971 38.190718 
" clip-path="url(#p3916a8a574)" style="fill: none; stroke: #555555; stroke-width: 1.5; stroke-linecap: round"/>
    <path d="M 203.493971 34.190718 
L 201.493971 38.190718 
L 199.493971 34.190718 
z
" clip-path="url(#p3916a8a574)" style="fill: #555555; stroke: #555555; stroke-width: 1.5; stroke-linecap: round"/>
   </g>
   <g id="patch_3">
    <path d="M 201.493971 39.867769 
Q 201.493971 47.305785 201.493971 53.066751 
" clip-path="url(#p3916a8a574)" style="fill: none; stroke: #555555; stroke-width: 1.5; stroke-linecap: round"/>
    <path d="M 203.493971 49.066751 
L 201.493971 53.066751 
L 199.493971 49.066751 
z
" clip-path="url(#p3916a8a574)" style="fill: #555555; stroke: #555555; stroke-width: 1.5; stroke-linecap: round"/>
   </g>
   <g id="patch_4">
    <path d="M 201.493971 54.743802 
Q 201.493971 62.181818 201.493971 67.942784 
" clip-path="url(#p3916a8a574)" style="fill: none; stroke: #555555; stroke-width: 1.5; stroke-linecap: round"/>
    <path d="M 203.493971 63.942784 
L 201.493971 67.942784 
L 199.493971 63.942784 
z
" clip-path="url(#p3916a8a574)" style="fill: #555555; stroke: #555555; stroke-width: 1.5; stroke-linecap: round"/>
   </g>
   <g id="patch_5">
    <path d="M 201.493971 69.619835 
Q 201.493971 77.057851 201.493971 82.818817 
" clip-path="url(#p3916a8a574)" style="fill: none; stroke: #555555; stroke-width: 1.5; stroke-linecap: round"/>
    <path d="M 203.493971 78.818817 
L 201.493971 82.818817 
L 199.493971 78.818817 
z
" clip-path="url(#p3916a8a574)" style="fill: #555555; stroke: #555555; stroke-width: 1.5; stroke-linecap: round"/>
   </g>
   <g id="patch_6">
    <path d="M 201.493971 84.495868 
Q 201.493971 91.933884 201.493971 97.69485 
" clip-path="url(#p3916a8a574)" style="fill: none; stroke: #555555; stroke-width: 1.5; stroke-linecap: round"/>
    <path d="M 203.493971 93.69485 
L 201.493971 97.69485 
L 199.493971 93.69485 
z
" clip-path="url(#p3916a8a574)" style="fill: #555555; stroke: #555555; stroke-width: 1.5; stroke-linecap: round"/>
   </g>
   <g id="patch_7">
    <path d="M 201.493971 99.371901 
Q 201.493971 106.809917 201.493971 112.570883 
" clip-path="url(#p3916a8a574)" style="fill: none; stroke: #555555; stroke-width: 1.5; stroke-linecap: round"/>
    <path d="M 203.493971 108.570883 
L 201.493971 112.570883 
L 199.493971 108.570883 
z
" clip-path="url(#p3916a8a574)" style="fill: #555555; stroke: #555555; stroke-width: 1.5; stroke-linecap: round"/>
   </g>
   <g id="patch_8">
    <path d="M 201.493971 114.247934 
Q 201.493971 121.68595 201.493971 127.446916 
" clip-path="url(#p3916a8a574)" style="fill: none; stroke: #555555; stroke-width: 1.5; stroke-linecap: round"/>
    <path d="M 203.493971 123.446916 
L 201.493971 127.446916 
L 199.493971 123.446916 
z
" clip-path="url(#p3916a8a574)" style="fill: #555555; stroke: #555555; stroke-width: 1.5; stroke-linecap: round"/>
   </g>
   <g id="patch_9">
    <path d="M 201.493971 129.123967 
Q 201.493971 136.561983 201.493971 142.322949 
" clip-path="url(#p3916a8a574)" style="fill: none; stroke: #555555; stroke-width: 1.5; stroke-linecap: round"/>
    <path d="M 203.493971 138.322949 
L 201.493971 142.322949 
L 199.493971 138.322949 
z
" clip-path="url(#p3916a8a574)" style="fill: #555555; stroke: #555555; stroke-width: 1.5; stroke-linecap: round"/>
   </g>
   <g id="patch_10">
    <path d="M 186.063829 147.433001 
Q 168.065297 151.437433 151.703789 155.07765 
" clip-path="url(#p3916a8a574)" style="fill: none; stroke: #555555; stroke-width: 1.5; stroke-linecap: round"/>
    <path d="M 156.042671 156.161209 
L 151.703789 155.07765 
L 155.173965 152.25668 
z
" clip-path="url(#p3916a8a574)" style="fill: #555555; stroke: #555555; stroke-width: 1.5; stroke-linecap: round"/>
   </g>
   <g id="patch_11">
    <path d="M 216.924114 147.433001 
Q 234.922646 151.437433 251.284154 155.07765 
" clip-path="url(#p3916a8a574)" style="fill: none; stroke: #555555; stroke-width: 1.5; stroke-linecap: round"/>
    <path d="M 247.813978 152.25668 
L 251.284154 155.07765 
L 246.945272 156.161209 
z
" clip-path="url(#p3916a8a574)" style="fill: #555555; stroke: #555555; stroke-width: 1.5; stroke-linecap: round"/>
   </g>
   <g id="patch_12">
    <path d="M 252.677558 175.806328 
Q 211.584974 181.190274 172.155229 186.356356 
" clip-path="url(#p3916a8a574)" style="fill: none; stroke: #555555; stroke-width: 1.5; stroke-linecap: round"/>
    <path d="M 176.381152 187.819769 
L 172.155229 186.356356 
L 175.861513 183.853666 
z
" clip-path="url(#p3916a8a574)" style="fill: #555555; stroke: #555555; stroke-width: 1.5; stroke-linecap: round"/>
   </g>
   <g id="patch_13">
    <path d="M 268.356563 173.752066 
Q 268.356563 181.190083 268.356563 186.951048 
" clip-path="url(#p3916a8a574)" style="fill: none; stroke: #555555; stroke-width: 1.5; stroke-linecap: round"/>
    <path d="M 270.356563 182.951048 
L 268.356563 186.951048 
L 266.356563 182.951048 
z
" clip-path="url(#p3916a8a574)" style="fill: #555555; stroke: #555555; stroke-width: 1.5; stroke-linecap: round"/>
   </g>
   <g id="patch_14">
    <path d="M 284.044808 175.720072 
Q 327.651265 181.190266 369.593713 186.451719 
" clip-path="url(#p3916a8a574)" style="fill: none; stroke: #555555; stroke-width: 1.5; stroke-linecap: round"/>
    <path d="M 365.873757 183.969396 
L 369.593713 186.451719 
L 365.375881 187.93829 
z
" clip-path="url(#p3916a8a574)" style="fill: #555555; stroke: #555555; stroke-width: 1.5; stroke-linecap: round"/>
   </g>
   <g id="patch_15">
    <path d="M 139.458591 192.400677 
Q 124.534637 196.066701 111.239315 199.332657 
" clip-path="url(#p3916a8a574)" style="fill: none; stroke: #555555; stroke-width: 1.5; stroke-linecap: round"/>
    <path d="M 115.600941 200.320695 
L 111.239315 199.332657 
L 114.646722 196.436179 
z
" clip-path="url(#p3916a8a574)" style="fill: #555555; stroke: #555555; stroke-width: 1.5; stroke-linecap: round"/>
   </g>
   <g id="patch_16">
    <path d="M 170.19117 192.32804 
Q 185.726 196.066478 199.630327 199.412538 
" clip-path="url(#p3916a8a574)" style="fill: none; stroke: #555555; stroke-width: 1.5; stroke-linecap: round"/>
    <path d="M 196.20929 196.532173 
L 199.630327 199.412538 
L 195.273412 200.421149 
z
" clip-path="url(#p3916a8a574)" style="fill: #555555; stroke: #555555; stroke-width: 1.5; stroke-linecap: round"/>
   </g>
   <g id="patch_17">
    <path d="M 200.876748 219.726444 
Q 129.584263 225.818096 59.962741 231.76697 
" clip-path="url(#p3916a8a574)" style="fill: none; stroke: #555555; stroke-width: 1.5; stroke-linecap: round"/>
    <path d="M 64.118489 233.419166 
L 59.962741 231.76697 
L 63.777947 229.433688 
z
" clip-path="url(#p3916a8a574)" style="fill: #555555; stroke: #555555; stroke-width: 1.5; stroke-linecap: round"/>
   </g>
   <g id="patch_18">
    <path d="M 201.334814 222.388813 
Q 188.246901 225.818367 176.781268 228.82282 
" clip-path="url(#p3916a8a574)" style="fill: none; stroke: #555555; stroke-width: 1.5; stroke-linecap: round"/>
    <path d="M 181.157592 229.743574 
L 176.781268 228.82282 
L 180.143665 225.874213 
z
" clip-path="url(#p3916a8a574)" style="fill: #555555; stroke: #555555; stroke-width: 1.5; stroke-linecap: round"/>
   </g>
   <g id="patch_19">
    <path d="M 231.930529 222.388813 
Q 245.018442 225.818367 256.484075 228.82282 
" clip-path="url(#p3916a8a574)" style="fill: none; stroke: #555555; stroke-width: 1.5; stroke-linecap: round"/>
    <path d="M 253.121678 225.874213 
L 256.484075 228.82282 
L 252.107751 229.743574 
z
" clip-path="url(#p3916a8a574)" style="fill: #555555; stroke: #555555; stroke-width: 1.5; stroke-linecap: round"/>
   </g>
   <g id="patch_20">
    <path d="M 232.388772 219.697844 
Q 305.571499 225.818095 377.083009 231.798583 
" clip-path="url(#p3916a8a574)" style="fill: none; stroke: #555555; stroke-width: 1.5; stroke-linecap: round"/>
    <path d="M 373.263601 229.472186 
L 377.083009 231.798583 
L 372.930246 233.458271 
z
" clip-path="url(#p3916a8a574)" style="fill: #555555; stroke: #555555; stroke-width: 1.5; stroke-linecap: round"/>
   </g>
   <g id="patch_21">
    <path d="M 42.533837 233.256198 
Q 40.01072 240.694215 38.026339 246.544068 
" clip-path="url(#p3916a8a574)" style="fill: none; stroke: #555555; stroke-width: 1.5; stroke-linecap: round"/>
    <path d="M 41.205293 243.398555 
L 38.026339 246.544068 
L 37.417302 242.113597 
z
" clip-path="url(#p3916a8a574)" style="fill: #555555; stroke: #555555; stroke-width: 1.5; stroke-linecap: round"/>
   </g>
   <g id="patch_22">
    <path d="M 159.862546 233.256198 
Q 159.862546 240.694215 159.862546 246.45518 
" clip-path="url(#p3916a8a574)" style="fill: none; stroke: #555555; stroke-width: 1.5; stroke-linecap: round"/>
    <path d="M 161.862546 242.45518 
L 159.862546 246.45518 
L 157.862546 242.45518 
z
" clip-path="url(#p3916a8a574)" style="fill: #555555; stroke: #555555; stroke-width: 1.5; stroke-linecap: round"/>
   </g>
   <g id="patch_23">
    <path d="M 175.55853 235.164278 
Q 221.048812 240.694298 264.874299 246.021938 
" clip-path="url(#p3916a8a574)" style="fill: none; stroke: #555555; stroke-width: 1.5; stroke-linecap: round"/>
    <path d="M 261.144884 243.553848 
L 264.874299 246.021938 
L 260.662178 247.524616 
z
" clip-path="url(#p3916a8a574)" style="fill: #555555; stroke: #555555; stroke-width: 1.5; stroke-linecap: round"/>
   </g>
   <g id="patch_24">
    <path d="M 159.862546 248.132231 
Q 159.862546 255.570248 159.862546 261.331213 
" clip-path="url(#p3916a8a574)" style="fill: none; stroke: #555555; stroke-width: 1.5; stroke-linecap: round"/>
    <path d="M 161.862546 257.331213 
L 159.862546 261.331213 
L 157.862546 257.331213 
z
" clip-path="url(#p3916a8a574)" style="fill: #555555; stroke: #555555; stroke-width: 1.5; stroke-linecap: round"/>
   </g>
   <g id="patch_25">
    <path d="M 94.257728 203.504132 
Q 94.257728 210.942149 94.257728 216.703114 
" clip-path="url(#p3916a8a574)" style="fill: none; stroke: #555555; stroke-width: 1.5; stroke-linecap: round"/>
    <path d="M 96.257728 212.703114 
L 94.257728 216.703114 
L 92.257728 212.703114 
z
" clip-path="url(#p3916a8a574)" style="fill: #555555; stroke: #555555; stroke-width: 1.5; stroke-linecap: round"/>
   </g>
   <g id="patch_26">
    <path d="M 216.632672 203.504132 
Q 216.632672 210.942149 216.632672 216.703114 
" clip-path="url(#p3916a8a574)" style="fill: none; stroke: #555555; stroke-width: 1.5; stroke-linecap: round"/>
    <path d="M 218.632672 212.703114 
L 216.632672 216.703114 
L 214.632672 212.703114 
z
" clip-path="url(#p3916a8a574)" style="fill: #555555; stroke: #555555; stroke-width: 1.5; stroke-linecap: round"/>
   </g>
   <g id="patch_27">
    <path d="M 268.356563 158.876033 
Q 268.356563 166.31405 268.356563 172.075015 
" clip-path="url(#p3916a8a574)" style="fill: none; stroke: #555555; stroke-width: 1.5; stroke-linecap: round"/>
    <path d="M 270.356563 168.075015 
L 268.356563 172.075015 
L 266.356563 168.075015 
z
" clip-path="url(#p3916a8a574)" style="fill: #555555; stroke: #555555; stroke-width: 1.5; stroke-linecap: round"/>
   </g>
   <g id="patch_28">
    <path d="M 282.233705 248.132231 
Q 282.233705 255.570248 282.233705 261.331213 
" clip-path="url(#p3916a8a574)" style="fill: none; stroke: #555555; stroke-width: 1.5; stroke-linecap: round"/>
    <path d="M 284.233705 257.331213 
L 282.233705 261.331213 
L 280.233705 257.331213 
z
" clip-path="url(#p3916a8a574)" style="fill: #555555; stroke: #555555; stroke-width: 1.5; stroke-linecap: round"/>
   </g>
   <g id="PathCollection_1">
    <defs>
     <path id="C0_0_c0e345cc76" d="M 0 15.811388 
C 4.193229 15.811388 8.215279 14.145401 11.18034 11.18034 
C 14.145401 8.215279 15.811388 4.193229 15.811388 -0 
C 15.811388 -4.193229 14.145401 -8.215279 11.18034 -11.18034 
C 8.215279 -14.145401 4.193229 -15.811388 0 -15.811388 
C -4.193229 -15.811388 -8.215279 -14.145401 -11.18034 -11.18034 
C -14.145401 -8.215279 -15.811388 -4.193229 -15.811388 0 
C -15.811388 4.193229 -14.145401 8.215279 -11.18034 11.18034 
C -8.215279 14.145401 -4.193229 15.811388 0 15.811388 
z
"/>
    </defs>
    <g clip-path="url(#p3916a8a574)">
     <use xlink:href="#C0_0_c0e345cc76" x="201.493971" y="24.991736" style="fill: #cccccc; stroke: #cccccc"/>
    </g>
    <g clip-path="url(#p3916a8a574)">
     <use xlink:href="#C0_0_c0e345cc76" x="201.493971" y="39.867769" style="fill: #cccccc; stroke: #cccccc"/>
    </g>
    <g clip-path="url(#p3916a8a574)">
     <use xlink:href="#C0_0_c0e345cc76" x="201.493971" y="54.743802" style="fill: #cccccc; stroke: #cccccc"/>
    </g>
    <g clip-path="url(#p3916a8a574)">
     <use xlink:href="#C0_0_c0e345cc76" x="201.493971" y="69.619835" style="fill: #cccccc; stroke: #cccccc"/>
    </g>
    <g clip-path="url(#p3916a8a574)">
     <use xlink:href="#C0_0_c0e345cc76" x="201.493971" y="84.495868" style="fill: #cccccc; stroke: #cccccc"/>
    </g>
    <g clip-path="url(#p3916a8a574)">
     <use xlink:href="#C0_0_c0e345cc76" x="201.493971" y="99.371901" style="fill: #cccccc; stroke: #cccccc"/>
    </g>
    <g clip-path="url(#p3916a8a574)">
     <use xlink:href="#C0_0_c0e345cc76" x="201.493971" y="114.247934" style="fill: #cccccc; stroke: #cccccc"/>
    </g>
    <g clip-path="url(#p3916a8a574)">
     <use xlink:href="#C0_0_c0e345cc76" x="201.493971" y="129.123967" style="fill: #cccccc; stroke: #cccccc"/>
    </g>
    <g clip-path="url(#p3916a8a574)">
     <use xlink:href="#C0_0_c0e345cc76" x="201.493971" y="144" style="fill: #cccccc; stroke: #cccccc"/>
    </g>
    <g clip-path="url(#p3916a8a574)">
     <use xlink:href="#C0_0_c0e345cc76" x="268.356563" y="173.752066" style="fill: #9467bd; stroke: #9467bd"/>
    </g>
    <g clip-path="url(#p3916a8a574)">
     <use xlink:href="#C0_0_c0e345cc76" x="154.816313" y="188.628099" style="fill: #9467bd; stroke: #9467bd"/>
    </g>
    <g clip-path="url(#p3916a8a574)">
     <use xlink:href="#C0_0_c0e345cc76" x="216.632672" y="218.380165" style="fill: #1f77b4; stroke: #1f77b4"/>
    </g>
    <g clip-path="url(#p3916a8a574)">
     <use xlink:href="#C0_0_c0e345cc76" x="42.533837" y="233.256198" style="fill: #1f77b4; stroke: #1f77b4"/>
    </g>
    <g clip-path="url(#p3916a8a574)">
     <use xlink:href="#C0_0_c0e345cc76" x="159.862546" y="233.256198" style="fill: #1f77b4; stroke: #1f77b4"/>
    </g>
    <g clip-path="url(#p3916a8a574)">
     <use xlink:href="#C0_0_c0e345cc76" x="282.233705" y="263.008264" style="fill: #8c564b; stroke: #8c564b"/>
    </g>
    <g clip-path="url(#p3916a8a574)">
     <use xlink:href="#C0_0_c0e345cc76" x="159.862546" y="248.132231" style="fill: #1f77b4; stroke: #1f77b4"/>
    </g>
    <g clip-path="url(#p3916a8a574)">
     <use xlink:href="#C0_0_c0e345cc76" x="94.257728" y="203.504132" style="fill: #9467bd; stroke: #9467bd"/>
    </g>
    <g clip-path="url(#p3916a8a574)">
     <use xlink:href="#C0_0_c0e345cc76" x="94.257728" y="218.380165" style="fill: #9467bd; stroke: #9467bd"/>
    </g>
    <g clip-path="url(#p3916a8a574)">
     <use xlink:href="#C0_0_c0e345cc76" x="273.402797" y="233.256198" style="fill: #1f77b4; stroke: #1f77b4"/>
    </g>
    <g clip-path="url(#p3916a8a574)">
     <use xlink:href="#C0_0_c0e345cc76" x="268.356563" y="188.628099" style="fill: #9467bd; stroke: #9467bd"/>
    </g>
    <g clip-path="url(#p3916a8a574)">
     <use xlink:href="#C0_0_c0e345cc76" x="216.632672" y="203.504132" style="fill: #1f77b4; stroke: #1f77b4"/>
    </g>
    <g clip-path="url(#p3916a8a574)">
     <use xlink:href="#C0_0_c0e345cc76" x="37.487603" y="248.132231" style="fill: #ff7f0e; stroke: #ff7f0e"/>
    </g>
    <g clip-path="url(#p3916a8a574)">
     <use xlink:href="#C0_0_c0e345cc76" x="134.63138" y="158.876033" style="fill: #2ca02c; stroke: #2ca02c"/>
    </g>
    <g clip-path="url(#p3916a8a574)">
     <use xlink:href="#C0_0_c0e345cc76" x="268.356563" y="158.876033" style="fill: #9467bd; stroke: #9467bd"/>
    </g>
    <g clip-path="url(#p3916a8a574)">
     <use xlink:href="#C0_0_c0e345cc76" x="282.233705" y="248.132231" style="fill: #8c564b; stroke: #8c564b"/>
    </g>
    <g clip-path="url(#p3916a8a574)">
     <use xlink:href="#C0_0_c0e345cc76" x="159.862546" y="263.008264" style="fill: #7f7f7f; stroke: #7f7f7f"/>
    </g>
    <g clip-path="url(#p3916a8a574)">
     <use xlink:href="#C0_0_c0e345cc76" x="386.943047" y="188.628099" style="fill: #bcbd22; stroke: #bcbd22"/>
    </g>
    <g clip-path="url(#p3916a8a574)">
     <use xlink:href="#C0_0_c0e345cc76" x="394.512397" y="233.256198" style="fill: #17becf; stroke: #17becf"/>
    </g>
   </g>
   <g id="text_1">
    <g clip-path="url(#p3916a8a574)">
     <!-- root -->
     <g transform="translate(193.285925 26.923298) scale(0.07 -0.07)">
      <defs>
       <path id="DejaVuSans-Bold-72" d="M 3138 2547 
Q 2991 2616 2845 2648 
Q 2700 2681 2553 2681 
Q 2122 2681 1889 2404 
Q 1656 2128 1656 1613 
L 1656 0 
L 538 0 
L 538 3500 
L 1656 3500 
L 1656 2925 
Q 1872 3269 2151 3426 
Q 2431 3584 2822 3584 
Q 2878 3584 2943 3579 
Q 3009 3575 3134 3559 
L 3138 2547 
z
" transform="scale(0.015625)"/>
       <path id="DejaVuSans-Bold-6f" d="M 2203 2784 
Q 1831 2784 1636 2517 
Q 1441 2250 1441 1747 
Q 1441 1244 1636 976 
Q 1831 709 2203 709 
Q 2569 709 2762 976 
Q 2956 1244 2956 1747 
Q 2956 2250 2762 2517 
Q 2569 2784 2203 2784 
z
M 2203 3584 
Q 3106 3584 3614 3096 
Q 4122 2609 4122 1747 
Q 4122 884 3614 396 
Q 3106 -91 2203 -91 
Q 1297 -91 786 396 
Q 275 884 275 1747 
Q 275 2609 786 3096 
Q 1297 3584 2203 3584 
z
" transform="scale(0.015625)"/>
       <path id="DejaVuSans-Bold-74" d="M 1759 4494 
L 1759 3500 
L 2913 3500 
L 2913 2700 
L 1759 2700 
L 1759 1216 
Q 1759 972 1856 886 
Q 1953 800 2241 800 
L 2816 800 
L 2816 0 
L 1856 0 
Q 1194 0 917 276 
Q 641 553 641 1216 
L 641 2700 
L 84 2700 
L 84 3500 
L 641 3500 
L 641 4494 
L 1759 4494 
z
" transform="scale(0.015625)"/>
      </defs>
      <use xlink:href="#DejaVuSans-Bold-72"/>
      <use xlink:href="#DejaVuSans-Bold-6f" transform="translate(49.316406 0)"/>
      <use xlink:href="#DejaVuSans-Bold-6f" transform="translate(118.017578 0)"/>
      <use xlink:href="#DejaVuSans-Bold-74" transform="translate(186.71875 0)"/>
     </g>
    </g>
   </g>
   <g id="text_2">
    <g clip-path="url(#p3916a8a574)">
     <!-- 17 -->
     <g transform="translate(196.623503 41.799331) scale(0.07 -0.07)">
      <defs>
       <path id="DejaVuSans-Bold-31" d="M 750 831 
L 1813 831 
L 1813 3847 
L 722 3622 
L 722 4441 
L 1806 4666 
L 2950 4666 
L 2950 831 
L 4013 831 
L 4013 0 
L 750 0 
L 750 831 
z
" transform="scale(0.015625)"/>
       <path id="DejaVuSans-Bold-37" d="M 428 4666 
L 3944 4666 
L 3944 3988 
L 2125 0 
L 953 0 
L 2675 3781 
L 428 3781 
L 428 4666 
z
" transform="scale(0.015625)"/>
      </defs>
      <use xlink:href="#DejaVuSans-Bold-31"/>
      <use xlink:href="#DejaVuSans-Bold-37" transform="translate(69.580078 0)"/>
     </g>
    </g>
   </g>
   <g id="text_3">
    <g clip-path="url(#p3916a8a574)">
     <!-- 0 -->
     <g transform="translate(199.058737 56.675364) scale(0.07 -0.07)">
      <defs>
       <path id="DejaVuSans-Bold-30" d="M 2944 2338 
Q 2944 3213 2780 3570 
Q 2616 3928 2228 3928 
Q 1841 3928 1675 3570 
Q 1509 3213 1509 2338 
Q 1509 1453 1675 1090 
Q 1841 728 2228 728 
Q 2613 728 2778 1090 
Q 2944 1453 2944 2338 
z
M 4147 2328 
Q 4147 1169 3647 539 
Q 3147 -91 2228 -91 
Q 1306 -91 806 539 
Q 306 1169 306 2328 
Q 306 3491 806 4120 
Q 1306 4750 2228 4750 
Q 3147 4750 3647 4120 
Q 4147 3491 4147 2328 
z
" transform="scale(0.015625)"/>
      </defs>
      <use xlink:href="#DejaVuSans-Bold-30"/>
     </g>
    </g>
   </g>
   <g id="text_4">
    <g clip-path="url(#p3916a8a574)">
     <!-- 4 -->
     <g transform="translate(199.058737 71.551397) scale(0.07 -0.07)">
      <defs>
       <path id="DejaVuSans-Bold-34" d="M 2356 3675 
L 1038 1722 
L 2356 1722 
L 2356 3675 
z
M 2156 4666 
L 3494 4666 
L 3494 1722 
L 4159 1722 
L 4159 850 
L 3494 850 
L 3494 0 
L 2356 0 
L 2356 850 
L 288 850 
L 288 1881 
L 2156 4666 
z
" transform="scale(0.015625)"/>
      </defs>
      <use xlink:href="#DejaVuSans-Bold-34"/>
     </g>
    </g>
   </g>
   <g id="text_5">
    <g clip-path="url(#p3916a8a574)">
     <!-- 3 -->
     <g transform="translate(199.058737 86.42743) scale(0.07 -0.07)">
      <defs>
       <path id="DejaVuSans-Bold-33" d="M 2981 2516 
Q 3453 2394 3698 2092 
Q 3944 1791 3944 1325 
Q 3944 631 3412 270 
Q 2881 -91 1863 -91 
Q 1503 -91 1142 -33 
Q 781 25 428 141 
L 428 1069 
Q 766 900 1098 814 
Q 1431 728 1753 728 
Q 2231 728 2486 893 
Q 2741 1059 2741 1369 
Q 2741 1688 2480 1852 
Q 2219 2016 1709 2016 
L 1228 2016 
L 1228 2791 
L 1734 2791 
Q 2188 2791 2409 2933 
Q 2631 3075 2631 3366 
Q 2631 3634 2415 3781 
Q 2200 3928 1806 3928 
Q 1516 3928 1219 3862 
Q 922 3797 628 3669 
L 628 4550 
Q 984 4650 1334 4700 
Q 1684 4750 2022 4750 
Q 2931 4750 3382 4451 
Q 3834 4153 3834 3553 
Q 3834 3144 3618 2883 
Q 3403 2622 2981 2516 
z
" transform="scale(0.015625)"/>
      </defs>
      <use xlink:href="#DejaVuSans-Bold-33"/>
     </g>
    </g>
   </g>
   <g id="text_6">
    <g clip-path="url(#p3916a8a574)">
     <!-- 13 -->
     <g transform="translate(196.623503 101.303463) scale(0.07 -0.07)">
      <use xlink:href="#DejaVuSans-Bold-31"/>
      <use xlink:href="#DejaVuSans-Bold-33" transform="translate(69.580078 0)"/>
     </g>
    </g>
   </g>
   <g id="text_7">
    <g clip-path="url(#p3916a8a574)">
     <!-- 18 -->
     <g transform="translate(196.623503 116.179496) scale(0.07 -0.07)">
      <defs>
       <path id="DejaVuSans-Bold-38" d="M 2228 2088 
Q 1891 2088 1709 1903 
Q 1528 1719 1528 1375 
Q 1528 1031 1709 848 
Q 1891 666 2228 666 
Q 2563 666 2741 848 
Q 2919 1031 2919 1375 
Q 2919 1722 2741 1905 
Q 2563 2088 2228 2088 
z
M 1350 2484 
Q 925 2613 709 2878 
Q 494 3144 494 3541 
Q 494 4131 934 4440 
Q 1375 4750 2228 4750 
Q 3075 4750 3515 4442 
Q 3956 4134 3956 3541 
Q 3956 3144 3739 2878 
Q 3522 2613 3097 2484 
Q 3572 2353 3814 2058 
Q 4056 1763 4056 1313 
Q 4056 619 3595 264 
Q 3134 -91 2228 -91 
Q 1319 -91 855 264 
Q 391 619 391 1313 
Q 391 1763 633 2058 
Q 875 2353 1350 2484 
z
M 1631 3419 
Q 1631 3141 1786 2991 
Q 1941 2841 2228 2841 
Q 2509 2841 2662 2991 
Q 2816 3141 2816 3419 
Q 2816 3697 2662 3845 
Q 2509 3994 2228 3994 
Q 1941 3994 1786 3844 
Q 1631 3694 1631 3419 
z
" transform="scale(0.015625)"/>
      </defs>
      <use xlink:href="#DejaVuSans-Bold-31"/>
      <use xlink:href="#DejaVuSans-Bold-38" transform="translate(69.580078 0)"/>
     </g>
    </g>
   </g>
   <g id="text_8">
    <g clip-path="url(#p3916a8a574)">
     <!-- 6 -->
     <g transform="translate(199.058737 131.055529) scale(0.07 -0.07)">
      <defs>
       <path id="DejaVuSans-Bold-36" d="M 2316 2303 
Q 2000 2303 1842 2098 
Q 1684 1894 1684 1484 
Q 1684 1075 1842 870 
Q 2000 666 2316 666 
Q 2634 666 2792 870 
Q 2950 1075 2950 1484 
Q 2950 1894 2792 2098 
Q 2634 2303 2316 2303 
z
M 3803 4544 
L 3803 3681 
Q 3506 3822 3243 3889 
Q 2981 3956 2731 3956 
Q 2194 3956 1894 3657 
Q 1594 3359 1544 2772 
Q 1750 2925 1990 3001 
Q 2231 3078 2516 3078 
Q 3231 3078 3670 2659 
Q 4109 2241 4109 1563 
Q 4109 813 3618 361 
Q 3128 -91 2303 -91 
Q 1394 -91 895 523 
Q 397 1138 397 2266 
Q 397 3422 980 4083 
Q 1563 4744 2578 4744 
Q 2900 4744 3203 4694 
Q 3506 4644 3803 4544 
z
" transform="scale(0.015625)"/>
      </defs>
      <use xlink:href="#DejaVuSans-Bold-36"/>
     </g>
    </g>
   </g>
   <g id="text_9">
    <g clip-path="url(#p3916a8a574)">
     <!-- 5 -->
     <g transform="translate(199.058737 145.931563) scale(0.07 -0.07)">
      <defs>
       <path id="DejaVuSans-Bold-35" d="M 678 4666 
L 3669 4666 
L 3669 3781 
L 1638 3781 
L 1638 3059 
Q 1775 3097 1914 3117 
Q 2053 3138 2203 3138 
Q 3056 3138 3531 2711 
Q 4006 2284 4006 1522 
Q 4006 766 3489 337 
Q 2972 -91 2053 -91 
Q 1656 -91 1267 -14 
Q 878 63 494 219 
L 494 1166 
Q 875 947 1217 837 
Q 1559 728 1863 728 
Q 2300 728 2551 942 
Q 2803 1156 2803 1522 
Q 2803 1891 2551 2103 
Q 2300 2316 1863 2316 
Q 1603 2316 1309 2248 
Q 1016 2181 678 2041 
L 678 4666 
z
" transform="scale(0.015625)"/>
      </defs>
      <use xlink:href="#DejaVuSans-Bold-35"/>
     </g>
    </g>
   </g>
   <g id="text_10">
    <g clip-path="url(#p3916a8a574)">
     <!-- 10 -->
     <g transform="translate(263.486094 175.683629) scale(0.07 -0.07)">
      <use xlink:href="#DejaVuSans-Bold-31"/>
      <use xlink:href="#DejaVuSans-Bold-30" transform="translate(69.580078 0)"/>
     </g>
    </g>
   </g>
   <g id="text_11">
    <g clip-path="url(#p3916a8a574)">
     <!-- 15 -->
     <g transform="translate(149.945844 190.559662) scale(0.07 -0.07)">
      <use xlink:href="#DejaVuSans-Bold-31"/>
      <use xlink:href="#DejaVuSans-Bold-35" transform="translate(69.580078 0)"/>
     </g>
    </g>
   </g>
   <g id="text_12">
    <g clip-path="url(#p3916a8a574)">
     <!-- 9 -->
     <g transform="translate(214.197437 220.311728) scale(0.07 -0.07)">
      <defs>
       <path id="DejaVuSans-Bold-39" d="M 641 103 
L 641 966 
Q 928 831 1190 764 
Q 1453 697 1709 697 
Q 2247 697 2547 995 
Q 2847 1294 2900 1881 
Q 2688 1725 2447 1647 
Q 2206 1569 1925 1569 
Q 1209 1569 770 1986 
Q 331 2403 331 3084 
Q 331 3838 820 4291 
Q 1309 4744 2131 4744 
Q 3044 4744 3544 4128 
Q 4044 3513 4044 2388 
Q 4044 1231 3459 570 
Q 2875 -91 1856 -91 
Q 1528 -91 1228 -42 
Q 928 6 641 103 
z
M 2125 2350 
Q 2441 2350 2600 2554 
Q 2759 2759 2759 3169 
Q 2759 3575 2600 3781 
Q 2441 3988 2125 3988 
Q 1809 3988 1650 3781 
Q 1491 3575 1491 3169 
Q 1491 2759 1650 2554 
Q 1809 2350 2125 2350 
z
" transform="scale(0.015625)"/>
      </defs>
      <use xlink:href="#DejaVuSans-Bold-39"/>
     </g>
    </g>
   </g>
   <g id="text_13">
    <g clip-path="url(#p3916a8a574)">
     <!-- 7 -->
     <g transform="translate(40.098602 235.187761) scale(0.07 -0.07)">
      <use xlink:href="#DejaVuSans-Bold-37"/>
     </g>
    </g>
   </g>
   <g id="text_14">
    <g clip-path="url(#p3916a8a574)">
     <!-- 11 -->
     <g transform="translate(154.992078 235.187761) scale(0.07 -0.07)">
      <use xlink:href="#DejaVuSans-Bold-31"/>
      <use xlink:href="#DejaVuSans-Bold-31" transform="translate(69.580078 0)"/>
     </g>
    </g>
   </g>
   <g id="text_15">
    <g clip-path="url(#p3916a8a574)">
     <!-- 1 -->
     <g transform="translate(279.798471 264.939827) scale(0.07 -0.07)">
      <use xlink:href="#DejaVuSans-Bold-31"/>
     </g>
    </g>
   </g>
   <g id="text_16">
    <g clip-path="url(#p3916a8a574)">
     <!-- 8 -->
     <g transform="translate(157.427312 250.063794) scale(0.07 -0.07)">
      <use xlink:href="#DejaVuSans-Bold-38"/>
     </g>
    </g>
   </g>
   <g id="text_17">
    <g clip-path="url(#p3916a8a574)">
     <!-- 2 -->
     <g transform="translate(91.822494 205.435695) scale(0.07 -0.07)">
      <defs>
       <path id="DejaVuSans-Bold-32" d="M 1844 884 
L 3897 884 
L 3897 0 
L 506 0 
L 506 884 
L 2209 2388 
Q 2438 2594 2547 2791 
Q 2656 2988 2656 3200 
Q 2656 3528 2436 3728 
Q 2216 3928 1850 3928 
Q 1569 3928 1234 3808 
Q 900 3688 519 3450 
L 519 4475 
Q 925 4609 1322 4679 
Q 1719 4750 2100 4750 
Q 2938 4750 3402 4381 
Q 3866 4013 3866 3353 
Q 3866 2972 3669 2642 
Q 3472 2313 2841 1759 
L 1844 884 
z
" transform="scale(0.015625)"/>
      </defs>
      <use xlink:href="#DejaVuSans-Bold-32"/>
     </g>
    </g>
   </g>
   <g id="text_18">
    <g clip-path="url(#p3916a8a574)">
     <!-- 14 -->
     <g transform="translate(89.38726 220.311728) scale(0.07 -0.07)">
      <use xlink:href="#DejaVuSans-Bold-31"/>
      <use xlink:href="#DejaVuSans-Bold-34" transform="translate(69.580078 0)"/>
     </g>
    </g>
   </g>
   <g id="text_19">
    <g clip-path="url(#p3916a8a574)">
     <!-- 16 -->
     <g transform="translate(268.532328 235.187761) scale(0.07 -0.07)">
      <use xlink:href="#DejaVuSans-Bold-31"/>
      <use xlink:href="#DejaVuSans-Bold-36" transform="translate(69.580078 0)"/>
     </g>
    </g>
   </g>
   <g id="text_20">
    <g clip-path="url(#p3916a8a574)">
     <!-- 19 -->
     <g transform="translate(263.486094 190.559662) scale(0.07 -0.07)">
      <use xlink:href="#DejaVuSans-Bold-31"/>
      <use xlink:href="#DejaVuSans-Bold-39" transform="translate(69.580078 0)"/>
     </g>
    </g>
   </g>
   <g id="text_21">
    <g clip-path="url(#p3916a8a574)">
     <!-- CN_A -->
     <g transform="translate(206.676265 205.276554) scale(0.07 -0.07)">
      <defs>
       <path id="DejaVuSans-Bold-43" d="M 4288 256 
Q 3956 84 3597 -3 
Q 3238 -91 2847 -91 
Q 1681 -91 1000 561 
Q 319 1213 319 2328 
Q 319 3447 1000 4098 
Q 1681 4750 2847 4750 
Q 3238 4750 3597 4662 
Q 3956 4575 4288 4403 
L 4288 3438 
Q 3953 3666 3628 3772 
Q 3303 3878 2944 3878 
Q 2300 3878 1931 3465 
Q 1563 3053 1563 2328 
Q 1563 1606 1931 1193 
Q 2300 781 2944 781 
Q 3303 781 3628 887 
Q 3953 994 4288 1222 
L 4288 256 
z
" transform="scale(0.015625)"/>
       <path id="DejaVuSans-Bold-4e" d="M 588 4666 
L 1931 4666 
L 3628 1466 
L 3628 4666 
L 4769 4666 
L 4769 0 
L 3425 0 
L 1728 3200 
L 1728 0 
L 588 0 
L 588 4666 
z
" transform="scale(0.015625)"/>
       <path id="DejaVuSans-Bold-5f" d="M 3200 -916 
L 3200 -1509 
L 0 -1509 
L 0 -916 
L 3200 -916 
z
" transform="scale(0.015625)"/>
       <path id="DejaVuSans-Bold-41" d="M 3419 850 
L 1538 850 
L 1241 0 
L 31 0 
L 1759 4666 
L 3194 4666 
L 4922 0 
L 3713 0 
L 3419 850 
z
M 1838 1716 
L 3116 1716 
L 2478 3572 
L 1838 1716 
z
" transform="scale(0.015625)"/>
      </defs>
      <use xlink:href="#DejaVuSans-Bold-43"/>
      <use xlink:href="#DejaVuSans-Bold-4e" transform="translate(73.388672 0)"/>
      <use xlink:href="#DejaVuSans-Bold-5f" transform="translate(157.080078 0)"/>
      <use xlink:href="#DejaVuSans-Bold-41" transform="translate(207.080078 0)"/>
     </g>
    </g>
   </g>
   <g id="text_22">
    <g clip-path="url(#p3916a8a574)">
     <!-- CN_B -->
     <g transform="translate(27.572213 249.904653) scale(0.07 -0.07)">
      <defs>
       <path id="DejaVuSans-Bold-42" d="M 2456 2859 
Q 2741 2859 2887 2984 
Q 3034 3109 3034 3353 
Q 3034 3594 2887 3720 
Q 2741 3847 2456 3847 
L 1791 3847 
L 1791 2859 
L 2456 2859 
z
M 2497 819 
Q 2859 819 3042 972 
Q 3225 1125 3225 1434 
Q 3225 1738 3044 1889 
Q 2863 2041 2497 2041 
L 1791 2041 
L 1791 819 
L 2497 819 
z
M 3616 2497 
Q 4003 2384 4215 2081 
Q 4428 1778 4428 1338 
Q 4428 663 3972 331 
Q 3516 0 2584 0 
L 588 0 
L 588 4666 
L 2394 4666 
Q 3366 4666 3802 4372 
Q 4238 4078 4238 3431 
Q 4238 3091 4078 2852 
Q 3919 2613 3616 2497 
z
" transform="scale(0.015625)"/>
      </defs>
      <use xlink:href="#DejaVuSans-Bold-43"/>
      <use xlink:href="#DejaVuSans-Bold-4e" transform="translate(73.388672 0)"/>
      <use xlink:href="#DejaVuSans-Bold-5f" transform="translate(157.080078 0)"/>
      <use xlink:href="#DejaVuSans-Bold-42" transform="translate(207.080078 0)"/>
     </g>
    </g>
   </g>
   <g id="text_23">
    <g clip-path="url(#p3916a8a574)">
     <!-- CN_C -->
     <g transform="translate(124.814974 160.648455) scale(0.07 -0.07)">
      <use xlink:href="#DejaVuSans-Bold-43"/>
      <use xlink:href="#DejaVuSans-Bold-4e" transform="translate(73.388672 0)"/>
      <use xlink:href="#DejaVuSans-Bold-5f" transform="translate(157.080078 0)"/>
      <use xlink:href="#DejaVuSans-Bold-43" transform="translate(207.080078 0)"/>
     </g>
    </g>
   </g>
   <g id="text_24">
    <g clip-path="url(#p3916a8a574)">
     <!-- CN_D -->
     <g transform="translate(258.203282 160.648455) scale(0.07 -0.07)">
      <defs>
       <path id="DejaVuSans-Bold-44" d="M 1791 3756 
L 1791 909 
L 2222 909 
Q 2959 909 3348 1275 
Q 3738 1641 3738 2338 
Q 3738 3031 3350 3393 
Q 2963 3756 2222 3756 
L 1791 3756 
z
M 588 4666 
L 1856 4666 
Q 2919 4666 3439 4514 
Q 3959 4363 4331 4000 
Q 4659 3684 4818 3271 
Q 4978 2859 4978 2338 
Q 4978 1809 4818 1395 
Q 4659 981 4331 666 
Q 3956 303 3431 151 
Q 2906 0 1856 0 
L 588 0 
L 588 4666 
z
" transform="scale(0.015625)"/>
      </defs>
      <use xlink:href="#DejaVuSans-Bold-43"/>
      <use xlink:href="#DejaVuSans-Bold-4e" transform="translate(73.388672 0)"/>
      <use xlink:href="#DejaVuSans-Bold-5f" transform="translate(157.080078 0)"/>
      <use xlink:href="#DejaVuSans-Bold-44" transform="translate(207.080078 0)"/>
     </g>
    </g>
   </g>
   <g id="text_25">
    <g clip-path="url(#p3916a8a574)">
     <!-- CN_E -->
     <g transform="translate(272.595033 249.904653) scale(0.07 -0.07)">
      <defs>
       <path id="DejaVuSans-Bold-45" d="M 588 4666 
L 3834 4666 
L 3834 3756 
L 1791 3756 
L 1791 2888 
L 3713 2888 
L 3713 1978 
L 1791 1978 
L 1791 909 
L 3903 909 
L 3903 0 
L 588 0 
L 588 4666 
z
" transform="scale(0.015625)"/>
      </defs>
      <use xlink:href="#DejaVuSans-Bold-43"/>
      <use xlink:href="#DejaVuSans-Bold-4e" transform="translate(73.388672 0)"/>
      <use xlink:href="#DejaVuSans-Bold-5f" transform="translate(157.080078 0)"/>
      <use xlink:href="#DejaVuSans-Bold-45" transform="translate(207.080078 0)"/>
     </g>
    </g>
   </g>
   <g id="text_26">
    <g clip-path="url(#p3916a8a574)">
     <!-- CN_F -->
     <g transform="translate(150.223875 264.780686) scale(0.07 -0.07)">
      <defs>
       <path id="DejaVuSans-Bold-46" d="M 588 4666 
L 3834 4666 
L 3834 3756 
L 1791 3756 
L 1791 2888 
L 3713 2888 
L 3713 1978 
L 1791 1978 
L 1791 0 
L 588 0 
L 588 4666 
z
" transform="scale(0.015625)"/>
      </defs>
      <use xlink:href="#DejaVuSans-Bold-43"/>
      <use xlink:href="#DejaVuSans-Bold-4e" transform="translate(73.388672 0)"/>
      <use xlink:href="#DejaVuSans-Bold-5f" transform="translate(157.080078 0)"/>
      <use xlink:href="#DejaVuSans-Bold-46" transform="translate(207.080078 0)"/>
     </g>
    </g>
   </g>
   <g id="text_27">
    <g clip-path="url(#p3916a8a574)">
     <!-- CN_J -->
     <g transform="translate(378.393203 190.400521) scale(0.07 -0.07)">
      <defs>
       <path id="DejaVuSans-Bold-4a" d="M 588 4666 
L 1791 4666 
L 1791 453 
Q 1791 -419 1317 -850 
Q 844 -1281 -116 -1281 
L -359 -1281 
L -359 -372 
L -172 -372 
Q 203 -372 395 -162 
Q 588 47 588 453 
L 588 4666 
z
" transform="scale(0.015625)"/>
      </defs>
      <use xlink:href="#DejaVuSans-Bold-43"/>
      <use xlink:href="#DejaVuSans-Bold-4e" transform="translate(73.388672 0)"/>
      <use xlink:href="#DejaVuSans-Bold-5f" transform="translate(157.080078 0)"/>
      <use xlink:href="#DejaVuSans-Bold-4a" transform="translate(207.080078 0)"/>
     </g>
    </g>
   </g>
   <g id="text_28">
    <g clip-path="url(#p3916a8a574)">
     <!-- CN_L -->
     <g transform="translate(385.034506 235.02862) scale(0.07 -0.07)">
      <defs>
       <path id="DejaVuSans-Bold-4c" d="M 588 4666 
L 1791 4666 
L 1791 909 
L 3903 909 
L 3903 0 
L 588 0 
L 588 4666 
z
" transform="scale(0.015625)"/>
      </defs>
      <use xlink:href="#DejaVuSans-Bold-43"/>
      <use xlink:href="#DejaVuSans-Bold-4e" transform="translate(73.388672 0)"/>
      <use xlink:href="#DejaVuSans-Bold-5f" transform="translate(157.080078 0)"/>
      <use xlink:href="#DejaVuSans-Bold-4c" transform="translate(207.080078 0)"/>
     </g>
    </g>
   </g>
  </g>
 </g>
 <defs>
  <clipPath id="p3916a8a574">
   <rect x="0" y="0" width="432" height="288"/>
  </clipPath>
 </defs>
</svg>
