<?xml version="1.0" encoding="utf-8" standalone="no"?>
<!DOCTYPE svg PUBLIC "-//W3C//DTD SVG 1.1//EN"
  "http://www.w3.org/Graphics/SVG/1.1/DTD/svg11.dtd">
<svg xmlns:xlink="http://www.w3.org/1999/xlink" width="288pt" height="216pt" viewBox="0 0 288 216" xmlns="http://www.w3.org/2000/svg" version="1.1">
 <metadata>
  <rdf:RDF xmlns:dc="http://purl.org/dc/elements/1.1/" xmlns:cc="http://creativecommons.org/ns#" xmlns:rdf="http://www.w3.org/1999/02/22-rdf-syntax-ns#">
   <cc:Work>
    <dc:type rdf:resource="http://purl.org/dc/dcmitype/StillImage"/>
    <dc:date>2026-03-29T16:48:27.053720</dc:date>
    <dc:format>image/svg+xml</dc:format>
    <dc:creator>
     <cc:Agent>
      <dc:title>Matplotlib v3.10.6, https://matplotlib.org/</dc:title>
     </cc:Agent>
    </dc:creator>
   </cc:Work>
  </rdf:RDF>
 </metadata>
 <defs>
  <style type="text/css">*{stroke-linejoin: round; stroke-linecap: butt}</style>
 </defs>
 <g id="figure_1">
  <g id="patch_1">
   <path d="M 0 216 
L 288 216 
L 288 0 
L 0 0 
z
" style="fill: #ffffff"/>
  </g>
  <g id="axes_1">
   <g id="patch_2">
    <path d="M 14.3 174.04 
L 277.2 174.04 
L 277.2 10.8 
L 14.3 10.8 
z
" style="fill: #ffffff"/>
   </g>
   <g id="PathCollection_1">
    <defs>
     <path id="C0_0_d7caf20b85" d="M 0 5 
C 1.326016 5 2.597899 4.473168 3.535534 3.535534 
C 4.473168 2.597899 5 1.326016 5 -0 
C 5 -1.326016 4.473168 -2.597899 3.535534 -3.535534 
C 2.597899 -4.473168 1.326016 -5 0 -5 
C -1.326016 -5 -2.597899 -4.473168 -3.535534 -3.535534 
C -4.473168 -2.597899 -5 -1.326016 -5 0 
C -5 1.326016 -4.473168 2.597899 -3.535534 3.535534 
C -2.597899 4.473168 -1.326016 5 0 5 
z
"/>
    </defs>
    <g clip-path="url(#pb808318993)">
     <use xlink:href="#C0_0_d7caf20b85" x="145.75" y="166.077073" style="fill: #889dc5; stroke: #000000; stroke-width: 0.8"/>
    </g>
    <g clip-path="url(#pb808318993)">
     <use xlink:href="#C0_0_d7caf20b85" x="145.75" y="162.09561" style="fill: #005eff; stroke: #000000; stroke-width: 0.8"/>
    </g>
    <g clip-path="url(#pb808318993)">
     <use xlink:href="#C0_0_d7caf20b85" x="123.841667" y="162.09561" style="fill: #889dc5; stroke: #000000; stroke-width: 0.8"/>
    </g>
    <g clip-path="url(#pb808318993)">
     <use xlink:href="#C0_0_d7caf20b85" x="145.75" y="154.132683" style="fill: #889dc5; stroke: #000000; stroke-width: 0.8"/>
    </g>
    <g clip-path="url(#pb808318993)">
     <use xlink:href="#C0_0_d7caf20b85" x="255.291667" y="154.132683" style="fill: #005eff; stroke: #000000; stroke-width: 0.8"/>
    </g>
    <g clip-path="url(#pb808318993)">
     <use xlink:href="#C0_0_d7caf20b85" x="36.208333" y="154.132683" style="fill: #ff0004; stroke: #000000; stroke-width: 0.8"/>
    </g>
    <g clip-path="url(#pb808318993)">
     <use xlink:href="#C0_0_d7caf20b85" x="58.116667" y="122.280976" style="fill: #002560; stroke: #000000; stroke-width: 0.8"/>
    </g>
    <g clip-path="url(#pb808318993)">
     <use xlink:href="#C0_0_d7caf20b85" x="101.933333" y="114.318049" style="fill: #889dc5; stroke: #000000; stroke-width: 0.8"/>
    </g>
    <g clip-path="url(#pb808318993)">
     <use xlink:href="#C0_0_d7caf20b85" x="80.025" y="90.429268" style="fill: #005eff; stroke: #000000; stroke-width: 0.8"/>
    </g>
    <g clip-path="url(#pb808318993)">
     <use xlink:href="#C0_0_d7caf20b85" x="145.75" y="82.466341" style="fill: #810000; stroke: #000000; stroke-width: 0.8"/>
    </g>
    <g clip-path="url(#pb808318993)">
     <use xlink:href="#C0_0_d7caf20b85" x="123.841667" y="42.651707" style="fill: #ff0004; stroke: #000000; stroke-width: 0.8"/>
    </g>
    <g clip-path="url(#pb808318993)">
     <use xlink:href="#C0_0_d7caf20b85" x="58.116667" y="26.725854" style="fill: #810000; stroke: #000000; stroke-width: 0.8"/>
    </g>
   </g>
   <g id="FillBetweenPolyCollection_1">
    <path d="M 36.208333 34.165318 
L 36.208333 139.155882 
L 38.421296 138.815525 
L 40.634259 138.859665 
L 42.847222 138.551729 
L 45.060185 138.415025 
L 47.273148 138.189626 
L 49.486111 138.155999 
L 51.699074 138.077219 
L 53.912037 137.928836 
L 56.125 137.770016 
L 58.337963 137.893231 
L 60.550926 138.019896 
L 62.763889 138.161315 
L 64.976852 138.384445 
L 67.189815 138.55602 
L 69.402778 138.707877 
L 71.615741 138.821302 
L 73.828704 138.810757 
L 76.041667 139.038886 
L 78.25463 139.158404 
L 80.467593 139.273776 
L 82.680556 139.386414 
L 84.893519 139.494331 
L 87.106481 139.539873 
L 89.319444 139.666538 
L 91.532407 139.836481 
L 93.74537 140.049944 
L 95.958333 140.188 
L 98.171296 140.320069 
L 100.384259 140.464881 
L 102.597222 140.528003 
L 104.810185 140.591124 
L 107.023148 140.994016 
L 109.236111 141.33423 
L 111.449074 141.532311 
L 113.662037 141.745668 
L 115.875 142.245661 
L 118.087963 142.326884 
L 120.300926 143.4674 
L 122.513889 143.899334 
L 124.726852 144.513359 
L 126.939815 145.355156 
L 129.152778 146.327676 
L 131.365741 146.608159 
L 133.578704 147.405127 
L 135.791667 147.936316 
L 138.00463 148.936634 
L 140.217593 150.15809 
L 142.430556 152.444653 
L 144.643519 153.303881 
L 146.856481 154.928051 
L 149.069444 156.687705 
L 151.282407 157.956648 
L 153.49537 159.893833 
L 155.708333 161.012159 
L 157.921296 163.128098 
L 160.134259 164.430297 
L 162.347222 166.140075 
L 164.560185 168.090084 
L 166.773148 170.052494 
L 168.986111 171.790711 
L 171.199074 172.720604 
L 173.412037 174.617577 
L 175.625 177.068668 
L 177.837963 179.430263 
L 180.050926 180.948127 
L 182.263889 183.183039 
L 184.476852 185.074625 
L 186.689815 187.456248 
L 188.902778 190.065021 
L 191.115741 191.908151 
L 193.328704 193.424843 
L 195.541667 195.53256 
L 197.75463 197.636765 
L 199.967593 199.737184 
L 202.180556 201.855118 
L 204.393519 203.939053 
L 206.606481 206.049522 
L 208.819444 208.157012 
L 211.032407 210.115972 
L 213.24537 212.02418 
L 215.458333 213.932388 
L 217.671296 215.840596 
L 219.884259 217.764474 
L 222.097222 220.173318 
L 224.310185 222.487291 
L 226.523148 224.474639 
L 228.736111 226.778683 
L 230.949074 229.082122 
L 233.162037 231.3924 
L 235.375 233.680583 
L 237.587963 235.736809 
L 239.800926 237.793035 
L 242.013889 239.849261 
L 244.226852 241.927501 
L 246.439815 244.037971 
L 248.652778 246.567261 
L 250.865741 249.365446 
L 253.078704 251.424865 
L 255.291667 253.381143 
L 255.291667 93.202847 
L 255.291667 93.202847 
L 253.078704 93.539698 
L 250.865741 93.647078 
L 248.652778 93.754457 
L 246.439815 93.861837 
L 244.226852 93.969217 
L 242.013889 94.076597 
L 239.800926 94.183977 
L 237.587963 94.291356 
L 235.375 94.398736 
L 233.162037 94.511943 
L 230.949074 94.626975 
L 228.736111 94.742007 
L 226.523148 94.995434 
L 224.310185 95.420642 
L 222.097222 95.84585 
L 219.884259 96.271058 
L 217.671296 96.697486 
L 215.458333 96.744835 
L 213.24537 96.666292 
L 211.032407 97.088744 
L 208.819444 97.607714 
L 206.606481 97.666476 
L 204.393519 98.084697 
L 202.180556 98.535138 
L 199.967593 98.706556 
L 197.75463 98.465473 
L 195.541667 98.712352 
L 193.328704 99.032501 
L 191.115741 99.076328 
L 188.902778 99.120177 
L 186.689815 99.164026 
L 184.476852 99.208125 
L 182.263889 99.257813 
L 180.050926 99.307502 
L 177.837963 99.35719 
L 175.625 99.583285 
L 173.412037 99.926357 
L 171.199074 100.400663 
L 168.986111 100.134208 
L 166.773148 100.397347 
L 164.560185 100.624178 
L 162.347222 100.308236 
L 160.134259 99.926607 
L 157.921296 99.747001 
L 155.708333 99.449258 
L 153.49537 99.154753 
L 151.282407 99.211842 
L 149.069444 98.922594 
L 146.856481 98.968709 
L 144.643519 98.80717 
L 142.430556 98.914178 
L 140.217593 98.402106 
L 138.00463 97.47602 
L 135.791667 96.794568 
L 133.578704 96.487839 
L 131.365741 96.18111 
L 129.152778 95.460388 
L 126.939815 94.397582 
L 124.726852 93.573978 
L 122.513889 92.681975 
L 120.300926 91.991844 
L 118.087963 91.478693 
L 115.875 91.123344 
L 113.662037 90.591036 
L 111.449074 89.956745 
L 109.236111 89.085945 
L 107.023148 88.575745 
L 104.810185 87.680342 
L 102.597222 86.695826 
L 100.384259 85.169486 
L 98.171296 84.202653 
L 95.958333 83.426915 
L 93.74537 82.297603 
L 91.532407 80.977463 
L 89.319444 80.032334 
L 87.106481 78.342343 
L 84.893519 76.343465 
L 82.680556 73.556466 
L 80.467593 71.209706 
L 78.25463 69.796025 
L 76.041667 68.466246 
L 73.828704 66.387625 
L 71.615741 63.856448 
L 69.402778 61.993475 
L 67.189815 59.284593 
L 64.976852 57.929325 
L 62.763889 56.611832 
L 60.550926 54.837555 
L 58.337963 52.405187 
L 56.125 51.160053 
L 53.912037 48.543442 
L 51.699074 45.926831 
L 49.486111 44.196184 
L 47.273148 42.890385 
L 45.060185 41.584586 
L 42.847222 39.794797 
L 40.634259 37.917352 
L 38.421296 36.446534 
L 36.208333 34.165318 
z
" clip-path="url(#pb808318993)" style="fill: #808080; fill-opacity: 0.15"/>
   </g>
   <g id="matplotlib.axis_1">
    <g id="xtick_1">
     <g id="line2d_1">
      <path d="M 14.3 174.04 
L 14.3 10.8 
" clip-path="url(#pb808318993)" style="fill: none; stroke: #b0b0b0; stroke-opacity: 0.3; stroke-width: 0.8; stroke-linecap: square"/>
     </g>
     <g id="line2d_2">
      <defs>
       <path id="me015a3c348" d="M 0 0 
L 0 3.5 
" style="stroke: #000000; stroke-width: 0.8"/>
      </defs>
      <g>
       <use xlink:href="#me015a3c348" x="14.3" y="174.04" style="stroke: #000000; stroke-width: 0.8"/>
      </g>
     </g>
     <g id="text_1">
      <!-- 2 -->
      <g transform="translate(11.11875 188.638438) scale(0.1 -0.1)">
       <defs>
        <path id="DejaVuSans-32" d="M 1228 531 
L 3431 531 
L 3431 0 
L 469 0 
L 469 531 
Q 828 903 1448 1529 
Q 2069 2156 2228 2338 
Q 2531 2678 2651 2914 
Q 2772 3150 2772 3378 
Q 2772 3750 2511 3984 
Q 2250 4219 1831 4219 
Q 1534 4219 1204 4116 
Q 875 4013 500 3803 
L 500 4441 
Q 881 4594 1212 4672 
Q 1544 4750 1819 4750 
Q 2544 4750 2975 4387 
Q 3406 4025 3406 3419 
Q 3406 3131 3298 2873 
Q 3191 2616 2906 2266 
Q 2828 2175 2409 1742 
Q 1991 1309 1228 531 
z
" transform="scale(0.015625)"/>
       </defs>
       <use xlink:href="#DejaVuSans-32"/>
      </g>
     </g>
    </g>
    <g id="xtick_2">
     <g id="line2d_3">
      <path d="M 58.116667 174.04 
L 58.116667 10.8 
" clip-path="url(#pb808318993)" style="fill: none; stroke: #b0b0b0; stroke-opacity: 0.3; stroke-width: 0.8; stroke-linecap: square"/>
     </g>
     <g id="line2d_4">
      <g>
       <use xlink:href="#me015a3c348" x="58.116667" y="174.04" style="stroke: #000000; stroke-width: 0.8"/>
      </g>
     </g>
     <g id="text_2">
      <!-- 4 -->
      <g transform="translate(54.935417 188.638438) scale(0.1 -0.1)">
       <defs>
        <path id="DejaVuSans-34" d="M 2419 4116 
L 825 1625 
L 2419 1625 
L 2419 4116 
z
M 2253 4666 
L 3047 4666 
L 3047 1625 
L 3713 1625 
L 3713 1100 
L 3047 1100 
L 3047 0 
L 2419 0 
L 2419 1100 
L 313 1100 
L 313 1709 
L 2253 4666 
z
" transform="scale(0.015625)"/>
       </defs>
       <use xlink:href="#DejaVuSans-34"/>
      </g>
     </g>
    </g>
    <g id="xtick_3">
     <g id="line2d_5">
      <path d="M 101.933333 174.04 
L 101.933333 10.8 
" clip-path="url(#pb808318993)" style="fill: none; stroke: #b0b0b0; stroke-opacity: 0.3; stroke-width: 0.8; stroke-linecap: square"/>
     </g>
     <g id="line2d_6">
      <g>
       <use xlink:href="#me015a3c348" x="101.933333" y="174.04" style="stroke: #000000; stroke-width: 0.8"/>
      </g>
     </g>
     <g id="text_3">
      <!-- 6 -->
      <g transform="translate(98.752083 188.638438) scale(0.1 -0.1)">
       <defs>
        <path id="DejaVuSans-36" d="M 2113 2584 
Q 1688 2584 1439 2293 
Q 1191 2003 1191 1497 
Q 1191 994 1439 701 
Q 1688 409 2113 409 
Q 2538 409 2786 701 
Q 3034 994 3034 1497 
Q 3034 2003 2786 2293 
Q 2538 2584 2113 2584 
z
M 3366 4563 
L 3366 3988 
Q 3128 4100 2886 4159 
Q 2644 4219 2406 4219 
Q 1781 4219 1451 3797 
Q 1122 3375 1075 2522 
Q 1259 2794 1537 2939 
Q 1816 3084 2150 3084 
Q 2853 3084 3261 2657 
Q 3669 2231 3669 1497 
Q 3669 778 3244 343 
Q 2819 -91 2113 -91 
Q 1303 -91 875 529 
Q 447 1150 447 2328 
Q 447 3434 972 4092 
Q 1497 4750 2381 4750 
Q 2619 4750 2861 4703 
Q 3103 4656 3366 4563 
z
" transform="scale(0.015625)"/>
       </defs>
       <use xlink:href="#DejaVuSans-36"/>
      </g>
     </g>
    </g>
    <g id="xtick_4">
     <g id="line2d_7">
      <path d="M 145.75 174.04 
L 145.75 10.8 
" clip-path="url(#pb808318993)" style="fill: none; stroke: #b0b0b0; stroke-opacity: 0.3; stroke-width: 0.8; stroke-linecap: square"/>
     </g>
     <g id="line2d_8">
      <g>
       <use xlink:href="#me015a3c348" x="145.75" y="174.04" style="stroke: #000000; stroke-width: 0.8"/>
      </g>
     </g>
     <g id="text_4">
      <!-- 8 -->
      <g transform="translate(142.56875 188.638438) scale(0.1 -0.1)">
       <defs>
        <path id="DejaVuSans-38" d="M 2034 2216 
Q 1584 2216 1326 1975 
Q 1069 1734 1069 1313 
Q 1069 891 1326 650 
Q 1584 409 2034 409 
Q 2484 409 2743 651 
Q 3003 894 3003 1313 
Q 3003 1734 2745 1975 
Q 2488 2216 2034 2216 
z
M 1403 2484 
Q 997 2584 770 2862 
Q 544 3141 544 3541 
Q 544 4100 942 4425 
Q 1341 4750 2034 4750 
Q 2731 4750 3128 4425 
Q 3525 4100 3525 3541 
Q 3525 3141 3298 2862 
Q 3072 2584 2669 2484 
Q 3125 2378 3379 2068 
Q 3634 1759 3634 1313 
Q 3634 634 3220 271 
Q 2806 -91 2034 -91 
Q 1263 -91 848 271 
Q 434 634 434 1313 
Q 434 1759 690 2068 
Q 947 2378 1403 2484 
z
M 1172 3481 
Q 1172 3119 1398 2916 
Q 1625 2713 2034 2713 
Q 2441 2713 2670 2916 
Q 2900 3119 2900 3481 
Q 2900 3844 2670 4047 
Q 2441 4250 2034 4250 
Q 1625 4250 1398 4047 
Q 1172 3844 1172 3481 
z
" transform="scale(0.015625)"/>
       </defs>
       <use xlink:href="#DejaVuSans-38"/>
      </g>
     </g>
    </g>
    <g id="xtick_5">
     <g id="line2d_9">
      <path d="M 189.566667 174.04 
L 189.566667 10.8 
" clip-path="url(#pb808318993)" style="fill: none; stroke: #b0b0b0; stroke-opacity: 0.3; stroke-width: 0.8; stroke-linecap: square"/>
     </g>
     <g id="line2d_10">
      <g>
       <use xlink:href="#me015a3c348" x="189.566667" y="174.04" style="stroke: #000000; stroke-width: 0.8"/>
      </g>
     </g>
     <g id="text_5">
      <!-- 10 -->
      <g transform="translate(183.204167 188.638438) scale(0.1 -0.1)">
       <defs>
        <path id="DejaVuSans-31" d="M 794 531 
L 1825 531 
L 1825 4091 
L 703 3866 
L 703 4441 
L 1819 4666 
L 2450 4666 
L 2450 531 
L 3481 531 
L 3481 0 
L 794 0 
L 794 531 
z
" transform="scale(0.015625)"/>
        <path id="DejaVuSans-30" d="M 2034 4250 
Q 1547 4250 1301 3770 
Q 1056 3291 1056 2328 
Q 1056 1369 1301 889 
Q 1547 409 2034 409 
Q 2525 409 2770 889 
Q 3016 1369 3016 2328 
Q 3016 3291 2770 3770 
Q 2525 4250 2034 4250 
z
M 2034 4750 
Q 2819 4750 3233 4129 
Q 3647 3509 3647 2328 
Q 3647 1150 3233 529 
Q 2819 -91 2034 -91 
Q 1250 -91 836 529 
Q 422 1150 422 2328 
Q 422 3509 836 4129 
Q 1250 4750 2034 4750 
z
" transform="scale(0.015625)"/>
       </defs>
       <use xlink:href="#DejaVuSans-31"/>
       <use xlink:href="#DejaVuSans-30" transform="translate(63.623047 0)"/>
      </g>
     </g>
    </g>
    <g id="xtick_6">
     <g id="line2d_11">
      <path d="M 233.383333 174.04 
L 233.383333 10.8 
" clip-path="url(#pb808318993)" style="fill: none; stroke: #b0b0b0; stroke-opacity: 0.3; stroke-width: 0.8; stroke-linecap: square"/>
     </g>
     <g id="line2d_12">
      <g>
       <use xlink:href="#me015a3c348" x="233.383333" y="174.04" style="stroke: #000000; stroke-width: 0.8"/>
      </g>
     </g>
     <g id="text_6">
      <!-- 12 -->
      <g transform="translate(227.020833 188.638438) scale(0.1 -0.1)">
       <use xlink:href="#DejaVuSans-31"/>
       <use xlink:href="#DejaVuSans-32" transform="translate(63.623047 0)"/>
      </g>
     </g>
    </g>
    <g id="xtick_7">
     <g id="line2d_13">
      <path d="M 277.2 174.04 
L 277.2 10.8 
" clip-path="url(#pb808318993)" style="fill: none; stroke: #b0b0b0; stroke-opacity: 0.3; stroke-width: 0.8; stroke-linecap: square"/>
     </g>
     <g id="line2d_14">
      <g>
       <use xlink:href="#me015a3c348" x="277.2" y="174.04" style="stroke: #000000; stroke-width: 0.8"/>
      </g>
     </g>
     <g id="text_7">
      <!-- 14 -->
      <g transform="translate(270.8375 188.638438) scale(0.1 -0.1)">
       <use xlink:href="#DejaVuSans-31"/>
       <use xlink:href="#DejaVuSans-34" transform="translate(63.623047 0)"/>
      </g>
     </g>
    </g>
    <g id="text_8">
     <!-- Number of Copy Number Clusters -->
     <g transform="translate(61.367188 202.316563) scale(0.1 -0.1)">
      <defs>
       <path id="DejaVuSans-4e" d="M 628 4666 
L 1478 4666 
L 3547 763 
L 3547 4666 
L 4159 4666 
L 4159 0 
L 3309 0 
L 1241 3903 
L 1241 0 
L 628 0 
L 628 4666 
z
" transform="scale(0.015625)"/>
       <path id="DejaVuSans-75" d="M 544 1381 
L 544 3500 
L 1119 3500 
L 1119 1403 
Q 1119 906 1312 657 
Q 1506 409 1894 409 
Q 2359 409 2629 706 
Q 2900 1003 2900 1516 
L 2900 3500 
L 3475 3500 
L 3475 0 
L 2900 0 
L 2900 538 
Q 2691 219 2414 64 
Q 2138 -91 1772 -91 
Q 1169 -91 856 284 
Q 544 659 544 1381 
z
M 1991 3584 
L 1991 3584 
z
" transform="scale(0.015625)"/>
       <path id="DejaVuSans-6d" d="M 3328 2828 
Q 3544 3216 3844 3400 
Q 4144 3584 4550 3584 
Q 5097 3584 5394 3201 
Q 5691 2819 5691 2113 
L 5691 0 
L 5113 0 
L 5113 2094 
Q 5113 2597 4934 2840 
Q 4756 3084 4391 3084 
Q 3944 3084 3684 2787 
Q 3425 2491 3425 1978 
L 3425 0 
L 2847 0 
L 2847 2094 
Q 2847 2600 2669 2842 
Q 2491 3084 2119 3084 
Q 1678 3084 1418 2786 
Q 1159 2488 1159 1978 
L 1159 0 
L 581 0 
L 581 3500 
L 1159 3500 
L 1159 2956 
Q 1356 3278 1631 3431 
Q 1906 3584 2284 3584 
Q 2666 3584 2933 3390 
Q 3200 3197 3328 2828 
z
" transform="scale(0.015625)"/>
       <path id="DejaVuSans-62" d="M 3116 1747 
Q 3116 2381 2855 2742 
Q 2594 3103 2138 3103 
Q 1681 3103 1420 2742 
Q 1159 2381 1159 1747 
Q 1159 1113 1420 752 
Q 1681 391 2138 391 
Q 2594 391 2855 752 
Q 3116 1113 3116 1747 
z
M 1159 2969 
Q 1341 3281 1617 3432 
Q 1894 3584 2278 3584 
Q 2916 3584 3314 3078 
Q 3713 2572 3713 1747 
Q 3713 922 3314 415 
Q 2916 -91 2278 -91 
Q 1894 -91 1617 61 
Q 1341 213 1159 525 
L 1159 0 
L 581 0 
L 581 4863 
L 1159 4863 
L 1159 2969 
z
" transform="scale(0.015625)"/>
       <path id="DejaVuSans-65" d="M 3597 1894 
L 3597 1613 
L 953 1613 
Q 991 1019 1311 708 
Q 1631 397 2203 397 
Q 2534 397 2845 478 
Q 3156 559 3463 722 
L 3463 178 
Q 3153 47 2828 -22 
Q 2503 -91 2169 -91 
Q 1331 -91 842 396 
Q 353 884 353 1716 
Q 353 2575 817 3079 
Q 1281 3584 2069 3584 
Q 2775 3584 3186 3129 
Q 3597 2675 3597 1894 
z
M 3022 2063 
Q 3016 2534 2758 2815 
Q 2500 3097 2075 3097 
Q 1594 3097 1305 2825 
Q 1016 2553 972 2059 
L 3022 2063 
z
" transform="scale(0.015625)"/>
       <path id="DejaVuSans-72" d="M 2631 2963 
Q 2534 3019 2420 3045 
Q 2306 3072 2169 3072 
Q 1681 3072 1420 2755 
Q 1159 2438 1159 1844 
L 1159 0 
L 581 0 
L 581 3500 
L 1159 3500 
L 1159 2956 
Q 1341 3275 1631 3429 
Q 1922 3584 2338 3584 
Q 2397 3584 2469 3576 
Q 2541 3569 2628 3553 
L 2631 2963 
z
" transform="scale(0.015625)"/>
       <path id="DejaVuSans-20" transform="scale(0.015625)"/>
       <path id="DejaVuSans-6f" d="M 1959 3097 
Q 1497 3097 1228 2736 
Q 959 2375 959 1747 
Q 959 1119 1226 758 
Q 1494 397 1959 397 
Q 2419 397 2687 759 
Q 2956 1122 2956 1747 
Q 2956 2369 2687 2733 
Q 2419 3097 1959 3097 
z
M 1959 3584 
Q 2709 3584 3137 3096 
Q 3566 2609 3566 1747 
Q 3566 888 3137 398 
Q 2709 -91 1959 -91 
Q 1206 -91 779 398 
Q 353 888 353 1747 
Q 353 2609 779 3096 
Q 1206 3584 1959 3584 
z
" transform="scale(0.015625)"/>
       <path id="DejaVuSans-66" d="M 2375 4863 
L 2375 4384 
L 1825 4384 
Q 1516 4384 1395 4259 
Q 1275 4134 1275 3809 
L 1275 3500 
L 2222 3500 
L 2222 3053 
L 1275 3053 
L 1275 0 
L 697 0 
L 697 3053 
L 147 3053 
L 147 3500 
L 697 3500 
L 697 3744 
Q 697 4328 969 4595 
Q 1241 4863 1831 4863 
L 2375 4863 
z
" transform="scale(0.015625)"/>
       <path id="DejaVuSans-43" d="M 4122 4306 
L 4122 3641 
Q 3803 3938 3442 4084 
Q 3081 4231 2675 4231 
Q 1875 4231 1450 3742 
Q 1025 3253 1025 2328 
Q 1025 1406 1450 917 
Q 1875 428 2675 428 
Q 3081 428 3442 575 
Q 3803 722 4122 1019 
L 4122 359 
Q 3791 134 3420 21 
Q 3050 -91 2638 -91 
Q 1578 -91 968 557 
Q 359 1206 359 2328 
Q 359 3453 968 4101 
Q 1578 4750 2638 4750 
Q 3056 4750 3426 4639 
Q 3797 4528 4122 4306 
z
" transform="scale(0.015625)"/>
       <path id="DejaVuSans-70" d="M 1159 525 
L 1159 -1331 
L 581 -1331 
L 581 3500 
L 1159 3500 
L 1159 2969 
Q 1341 3281 1617 3432 
Q 1894 3584 2278 3584 
Q 2916 3584 3314 3078 
Q 3713 2572 3713 1747 
Q 3713 922 3314 415 
Q 2916 -91 2278 -91 
Q 1894 -91 1617 61 
Q 1341 213 1159 525 
z
M 3116 1747 
Q 3116 2381 2855 2742 
Q 2594 3103 2138 3103 
Q 1681 3103 1420 2742 
Q 1159 2381 1159 1747 
Q 1159 1113 1420 752 
Q 1681 391 2138 391 
Q 2594 391 2855 752 
Q 3116 1113 3116 1747 
z
" transform="scale(0.015625)"/>
       <path id="DejaVuSans-79" d="M 2059 -325 
Q 1816 -950 1584 -1140 
Q 1353 -1331 966 -1331 
L 506 -1331 
L 506 -850 
L 844 -850 
Q 1081 -850 1212 -737 
Q 1344 -625 1503 -206 
L 1606 56 
L 191 3500 
L 800 3500 
L 1894 763 
L 2988 3500 
L 3597 3500 
L 2059 -325 
z
" transform="scale(0.015625)"/>
       <path id="DejaVuSans-6c" d="M 603 4863 
L 1178 4863 
L 1178 0 
L 603 0 
L 603 4863 
z
" transform="scale(0.015625)"/>
       <path id="DejaVuSans-73" d="M 2834 3397 
L 2834 2853 
Q 2591 2978 2328 3040 
Q 2066 3103 1784 3103 
Q 1356 3103 1142 2972 
Q 928 2841 928 2578 
Q 928 2378 1081 2264 
Q 1234 2150 1697 2047 
L 1894 2003 
Q 2506 1872 2764 1633 
Q 3022 1394 3022 966 
Q 3022 478 2636 193 
Q 2250 -91 1575 -91 
Q 1294 -91 989 -36 
Q 684 19 347 128 
L 347 722 
Q 666 556 975 473 
Q 1284 391 1588 391 
Q 1994 391 2212 530 
Q 2431 669 2431 922 
Q 2431 1156 2273 1281 
Q 2116 1406 1581 1522 
L 1381 1569 
Q 847 1681 609 1914 
Q 372 2147 372 2553 
Q 372 3047 722 3315 
Q 1072 3584 1716 3584 
Q 2034 3584 2315 3537 
Q 2597 3491 2834 3397 
z
" transform="scale(0.015625)"/>
       <path id="DejaVuSans-74" d="M 1172 4494 
L 1172 3500 
L 2356 3500 
L 2356 3053 
L 1172 3053 
L 1172 1153 
Q 1172 725 1289 603 
Q 1406 481 1766 481 
L 2356 481 
L 2356 0 
L 1766 0 
Q 1100 0 847 248 
Q 594 497 594 1153 
L 594 3053 
L 172 3053 
L 172 3500 
L 594 3500 
L 594 4494 
L 1172 4494 
z
" transform="scale(0.015625)"/>
      </defs>
      <use xlink:href="#DejaVuSans-4e"/>
      <use xlink:href="#DejaVuSans-75" transform="translate(74.804688 0)"/>
      <use xlink:href="#DejaVuSans-6d" transform="translate(138.183594 0)"/>
      <use xlink:href="#DejaVuSans-62" transform="translate(235.595703 0)"/>
      <use xlink:href="#DejaVuSans-65" transform="translate(299.072266 0)"/>
      <use xlink:href="#DejaVuSans-72" transform="translate(360.595703 0)"/>
      <use xlink:href="#DejaVuSans-20" transform="translate(401.708984 0)"/>
      <use xlink:href="#DejaVuSans-6f" transform="translate(433.496094 0)"/>
      <use xlink:href="#DejaVuSans-66" transform="translate(494.677734 0)"/>
      <use xlink:href="#DejaVuSans-20" transform="translate(529.882812 0)"/>
      <use xlink:href="#DejaVuSans-43" transform="translate(561.669922 0)"/>
      <use xlink:href="#DejaVuSans-6f" transform="translate(631.494141 0)"/>
      <use xlink:href="#DejaVuSans-70" transform="translate(692.675781 0)"/>
      <use xlink:href="#DejaVuSans-79" transform="translate(756.152344 0)"/>
      <use xlink:href="#DejaVuSans-20" transform="translate(815.332031 0)"/>
      <use xlink:href="#DejaVuSans-4e" transform="translate(847.119141 0)"/>
      <use xlink:href="#DejaVuSans-75" transform="translate(921.923828 0)"/>
      <use xlink:href="#DejaVuSans-6d" transform="translate(985.302734 0)"/>
      <use xlink:href="#DejaVuSans-62" transform="translate(1082.714844 0)"/>
      <use xlink:href="#DejaVuSans-65" transform="translate(1146.191406 0)"/>
      <use xlink:href="#DejaVuSans-72" transform="translate(1207.714844 0)"/>
      <use xlink:href="#DejaVuSans-20" transform="translate(1248.828125 0)"/>
      <use xlink:href="#DejaVuSans-43" transform="translate(1280.615234 0)"/>
      <use xlink:href="#DejaVuSans-6c" transform="translate(1350.439453 0)"/>
      <use xlink:href="#DejaVuSans-75" transform="translate(1378.222656 0)"/>
      <use xlink:href="#DejaVuSans-73" transform="translate(1441.601562 0)"/>
      <use xlink:href="#DejaVuSans-74" transform="translate(1493.701172 0)"/>
      <use xlink:href="#DejaVuSans-65" transform="translate(1532.910156 0)"/>
      <use xlink:href="#DejaVuSans-72" transform="translate(1594.433594 0)"/>
      <use xlink:href="#DejaVuSans-73" transform="translate(1635.546875 0)"/>
     </g>
    </g>
   </g>
   <g id="matplotlib.axis_2">
    <g id="ytick_1">
     <g id="line2d_15">
      <path d="M 14.3 170.058537 
L 277.2 170.058537 
" clip-path="url(#pb808318993)" style="fill: none; stroke: #b0b0b0; stroke-opacity: 0.3; stroke-width: 0.8; stroke-linecap: square"/>
     </g>
     <g id="line2d_16">
      <defs>
       <path id="ma2a282e5ea" d="M 0 0 
L -3.5 0 
" style="stroke: #000000; stroke-width: 0.8"/>
      </defs>
      <g>
       <use xlink:href="#ma2a282e5ea" x="14.3" y="170.058537" style="stroke: #000000; stroke-width: 0.8"/>
      </g>
     </g>
    </g>
    <g id="ytick_2">
     <g id="line2d_17">
      <path d="M 14.3 130.243902 
L 277.2 130.243902 
" clip-path="url(#pb808318993)" style="fill: none; stroke: #b0b0b0; stroke-opacity: 0.3; stroke-width: 0.8; stroke-linecap: square"/>
     </g>
     <g id="line2d_18">
      <g>
       <use xlink:href="#ma2a282e5ea" x="14.3" y="130.243902" style="stroke: #000000; stroke-width: 0.8"/>
      </g>
     </g>
    </g>
    <g id="ytick_3">
     <g id="line2d_19">
      <path d="M 14.3 90.429268 
L 277.2 90.429268 
" clip-path="url(#pb808318993)" style="fill: none; stroke: #b0b0b0; stroke-opacity: 0.3; stroke-width: 0.8; stroke-linecap: square"/>
     </g>
     <g id="line2d_20">
      <g>
       <use xlink:href="#ma2a282e5ea" x="14.3" y="90.429268" style="stroke: #000000; stroke-width: 0.8"/>
      </g>
     </g>
    </g>
    <g id="ytick_4">
     <g id="line2d_21">
      <path d="M 14.3 50.614634 
L 277.2 50.614634 
" clip-path="url(#pb808318993)" style="fill: none; stroke: #b0b0b0; stroke-opacity: 0.3; stroke-width: 0.8; stroke-linecap: square"/>
     </g>
     <g id="line2d_22">
      <g>
       <use xlink:href="#ma2a282e5ea" x="14.3" y="50.614634" style="stroke: #000000; stroke-width: 0.8"/>
      </g>
     </g>
    </g>
    <g id="ytick_5">
     <g id="line2d_23">
      <path d="M 14.3 10.8 
L 277.2 10.8 
" clip-path="url(#pb808318993)" style="fill: none; stroke: #b0b0b0; stroke-opacity: 0.3; stroke-width: 0.8; stroke-linecap: square"/>
     </g>
     <g id="line2d_24">
      <g>
       <use xlink:href="#ma2a282e5ea" x="14.3" y="10.8" style="stroke: #000000; stroke-width: 0.8"/>
      </g>
     </g>
    </g>
   </g>
   <g id="line2d_25"/>
   <g id="line2d_26"/>
   <g id="line2d_27"/>
   <g id="line2d_28"/>
   <g id="line2d_29"/>
   <g id="line2d_30">
    <path d="M 36.208333 95.87357 
L 38.421296 96.504447 
L 40.634259 97.135324 
L 42.847222 97.766201 
L 45.060185 98.397078 
L 47.273148 99.027955 
L 49.486111 99.658832 
L 51.699074 100.289709 
L 53.912037 100.920586 
L 56.125 101.551463 
L 58.337963 102.18234 
L 60.550926 102.813217 
L 62.763889 103.444094 
L 64.976852 104.074971 
L 67.189815 104.705848 
L 69.402778 105.336725 
L 71.615741 105.967602 
L 73.828704 106.598479 
L 76.041667 107.229356 
L 78.25463 107.860233 
L 80.467593 108.49111 
L 82.680556 109.121987 
L 84.893519 109.752864 
L 87.106481 110.383741 
L 89.319444 111.014618 
L 91.532407 111.645495 
L 93.74537 112.276372 
L 95.958333 112.907248 
L 98.171296 113.538125 
L 100.384259 114.169002 
L 102.597222 114.799879 
L 104.810185 115.430756 
L 107.023148 116.061633 
L 109.236111 116.69251 
L 111.449074 117.323387 
L 113.662037 117.954264 
L 115.875 118.585141 
L 118.087963 119.216018 
L 120.300926 119.846895 
L 122.513889 120.477772 
L 124.726852 121.108649 
L 126.939815 121.739526 
L 129.152778 122.370403 
L 131.365741 123.00128 
L 133.578704 123.632157 
L 135.791667 124.263034 
L 138.00463 124.893911 
L 140.217593 125.524788 
L 142.430556 126.155665 
L 144.643519 126.786542 
L 146.856481 127.417419 
L 149.069444 128.048296 
L 151.282407 128.679173 
L 153.49537 129.31005 
L 155.708333 129.940927 
L 157.921296 130.571804 
L 160.134259 131.202681 
L 162.347222 131.833558 
L 164.560185 132.464435 
L 166.773148 133.095312 
L 168.986111 133.726189 
L 171.199074 134.357066 
L 173.412037 134.987943 
L 175.625 135.61882 
L 177.837963 136.249697 
L 180.050926 136.880574 
L 182.263889 137.511451 
L 184.476852 138.142328 
L 186.689815 138.773205 
L 188.902778 139.404082 
L 191.115741 140.034959 
L 193.328704 140.665836 
L 195.541667 141.296713 
L 197.75463 141.92759 
L 199.967593 142.558467 
L 202.180556 143.189344 
L 204.393519 143.820221 
L 206.606481 144.451098 
L 208.819444 145.081975 
L 211.032407 145.712852 
L 213.24537 146.343729 
L 215.458333 146.974606 
L 217.671296 147.605483 
L 219.884259 148.23636 
L 222.097222 148.867237 
L 224.310185 149.498114 
L 226.523148 150.128991 
L 228.736111 150.759868 
L 230.949074 151.390745 
L 233.162037 152.021622 
L 235.375 152.652499 
L 237.587963 153.283376 
L 239.800926 153.914253 
L 242.013889 154.54513 
L 244.226852 155.176007 
L 246.439815 155.806884 
L 248.652778 156.437761 
L 250.865741 157.068638 
L 253.078704 157.699515 
L 255.291667 158.330392 
" clip-path="url(#pb808318993)" style="fill: none; stroke-dasharray: 8.325,3.6; stroke-dashoffset: 0; stroke: #808080; stroke-opacity: 0.6; stroke-width: 2.25"/>
   </g>
   <g id="patch_3">
    <path d="M 14.3 174.04 
L 14.3 10.8 
" style="fill: none; stroke: #000000; stroke-width: 0.8; stroke-linejoin: miter; stroke-linecap: square"/>
   </g>
   <g id="patch_4">
    <path d="M 277.2 174.04 
L 277.2 10.8 
" style="fill: none; stroke: #000000; stroke-width: 0.8; stroke-linejoin: miter; stroke-linecap: square"/>
   </g>
   <g id="patch_5">
    <path d="M 14.3 174.04 
L 277.2 174.04 
" style="fill: none; stroke: #000000; stroke-width: 0.8; stroke-linejoin: miter; stroke-linecap: square"/>
   </g>
   <g id="patch_6">
    <path d="M 14.3 10.8 
L 277.2 10.8 
" style="fill: none; stroke: #000000; stroke-width: 0.8; stroke-linejoin: miter; stroke-linecap: square"/>
   </g>
   <g id="text_9">
    <g id="patch_7">
     <path d="M 206.602 45.907875 
L 275.902 45.907875 
L 275.902 15.024344 
L 206.602 15.024344 
z
" style="fill: #ffffff; opacity: 0.7"/>
    </g>
    <!-- $R^2$ = 0.117 -->
    <g transform="translate(210.562 27.320281) scale(0.11 -0.11)">
     <defs>
      <path id="DejaVuSans-Oblique-52" d="M 1613 4147 
L 1294 2491 
L 2106 2491 
Q 2584 2491 2879 2755 
Q 3175 3019 3175 3444 
Q 3175 3784 2976 3965 
Q 2778 4147 2406 4147 
L 1613 4147 
z
M 2772 2241 
Q 2972 2194 3105 2009 
Q 3238 1825 3413 1275 
L 3809 0 
L 3144 0 
L 2778 1197 
Q 2638 1659 2453 1815 
Q 2269 1972 1888 1972 
L 1191 1972 
L 806 0 
L 172 0 
L 1081 4666 
L 2503 4666 
Q 3150 4666 3495 4373 
Q 3841 4081 3841 3531 
Q 3841 3044 3547 2687 
Q 3253 2331 2772 2241 
z
" transform="scale(0.015625)"/>
      <path id="DejaVuSans-3d" d="M 678 2906 
L 4684 2906 
L 4684 2381 
L 678 2381 
L 678 2906 
z
M 678 1631 
L 4684 1631 
L 4684 1100 
L 678 1100 
L 678 1631 
z
" transform="scale(0.015625)"/>
      <path id="DejaVuSans-2e" d="M 684 794 
L 1344 794 
L 1344 0 
L 684 0 
L 684 794 
z
" transform="scale(0.015625)"/>
      <path id="DejaVuSans-37" d="M 525 4666 
L 3525 4666 
L 3525 4397 
L 1831 0 
L 1172 0 
L 2766 4134 
L 525 4134 
L 525 4666 
z
" transform="scale(0.015625)"/>
     </defs>
     <use xlink:href="#DejaVuSans-Oblique-52" transform="translate(0 0.765625)"/>
     <use xlink:href="#DejaVuSans-32" transform="translate(76.499193 39.046875) scale(0.7)"/>
     <use xlink:href="#DejaVuSans-20" transform="translate(123.769701 0.765625)"/>
     <use xlink:href="#DejaVuSans-3d" transform="translate(155.55681 0.765625)"/>
     <use xlink:href="#DejaVuSans-20" transform="translate(239.345872 0.765625)"/>
     <use xlink:href="#DejaVuSans-30" transform="translate(271.132982 0.765625)"/>
     <use xlink:href="#DejaVuSans-2e" transform="translate(334.756029 0.765625)"/>
     <use xlink:href="#DejaVuSans-31" transform="translate(366.543138 0.765625)"/>
     <use xlink:href="#DejaVuSans-31" transform="translate(430.166185 0.765625)"/>
     <use xlink:href="#DejaVuSans-37" transform="translate(493.789232 0.765625)"/>
    </g>
    <!-- $p$ = 0.277 -->
    <g transform="translate(218.042 39.637875) scale(0.11 -0.11)">
     <defs>
      <path id="DejaVuSans-Oblique-70" d="M 3175 2156 
Q 3175 2616 2975 2859 
Q 2775 3103 2400 3103 
Q 2144 3103 1911 2972 
Q 1678 2841 1497 2591 
Q 1319 2344 1212 1994 
Q 1106 1644 1106 1300 
Q 1106 863 1306 627 
Q 1506 391 1875 391 
Q 2147 391 2380 519 
Q 2613 647 2778 891 
Q 2956 1147 3065 1494 
Q 3175 1841 3175 2156 
z
M 1394 2969 
Q 1625 3272 1939 3428 
Q 2253 3584 2638 3584 
Q 3175 3584 3472 3232 
Q 3769 2881 3769 2247 
Q 3769 1728 3584 1258 
Q 3400 788 3053 416 
Q 2822 169 2531 39 
Q 2241 -91 1919 -91 
Q 1547 -91 1294 64 
Q 1041 219 916 525 
L 556 -1331 
L -19 -1331 
L 922 3500 
L 1497 3500 
L 1394 2969 
z
" transform="scale(0.015625)"/>
     </defs>
     <use xlink:href="#DejaVuSans-Oblique-70" transform="translate(0 0.78125)"/>
     <use xlink:href="#DejaVuSans-20" transform="translate(63.476562 0.78125)"/>
     <use xlink:href="#DejaVuSans-3d" transform="translate(95.263672 0.78125)"/>
     <use xlink:href="#DejaVuSans-20" transform="translate(179.052734 0.78125)"/>
     <use xlink:href="#DejaVuSans-30" transform="translate(210.839844 0.78125)"/>
     <use xlink:href="#DejaVuSans-2e" transform="translate(274.462891 0.78125)"/>
     <use xlink:href="#DejaVuSans-32" transform="translate(300.75 0.78125)"/>
     <use xlink:href="#DejaVuSans-37" transform="translate(364.373047 0.78125)"/>
     <use xlink:href="#DejaVuSans-37" transform="translate(426.246094 0.78125)"/>
    </g>
   </g>
   <g id="legend_1"/>
  </g>
 </g>
 <defs>
  <clipPath id="pb808318993">
   <rect x="14.3" y="10.8" width="262.9" height="163.24"/>
  </clipPath>
 </defs>
</svg>
