<?xml version="1.0" encoding="utf-8" standalone="no"?>
<!DOCTYPE svg PUBLIC "-//W3C//DTD SVG 1.1//EN"
  "http://www.w3.org/Graphics/SVG/1.1/DTD/svg11.dtd">
<svg xmlns:xlink="http://www.w3.org/1999/xlink" width="288pt" height="216pt" viewBox="0 0 288 216" xmlns="http://www.w3.org/2000/svg" version="1.1">
 <metadata>
  <rdf:RDF xmlns:dc="http://purl.org/dc/elements/1.1/" xmlns:cc="http://creativecommons.org/ns#" xmlns:rdf="http://www.w3.org/1999/02/22-rdf-syntax-ns#">
   <cc:Work>
    <dc:type rdf:resource="http://purl.org/dc/dcmitype/StillImage"/>
    <dc:date>2026-03-11T13:49:56.392471</dc:date>
    <dc:format>image/svg+xml</dc:format>
    <dc:creator>
     <cc:Agent>
      <dc:title>Matplotlib v3.10.6, https://matplotlib.org/</dc:title>
     </cc:Agent>
    </dc:creator>
   </cc:Work>
  </rdf:RDF>
 </metadata>
 <defs>
  <style type="text/css">*{stroke-linejoin: round; stroke-linecap: butt}</style>
 </defs>
 <g id="figure_1">
  <g id="patch_1">
   <path d="M 0 216 
L 288 216 
L 288 0 
L 0 0 
z
" style="fill: #ffffff"/>
  </g>
  <g id="axes_1">
   <g id="patch_2">
    <path d="M 14.3 174.04 
L 277.2 174.04 
L 277.2 10.8 
L 14.3 10.8 
z
" style="fill: #ffffff"/>
   </g>
   <g id="PathCollection_1">
    <defs>
     <path id="C0_0_373c38cae7" d="M 0 4.1833 
C 1.109424 4.1833 2.173559 3.742521 2.95804 2.95804 
C 3.742521 2.173559 4.1833 1.109424 4.1833 -0 
C 4.1833 -1.109424 3.742521 -2.173559 2.95804 -2.95804 
C 2.173559 -3.742521 1.109424 -4.1833 0 -4.1833 
C -1.109424 -4.1833 -2.173559 -3.742521 -2.95804 -2.95804 
C -3.742521 -2.173559 -4.1833 -1.109424 -4.1833 0 
C -4.1833 1.109424 -3.742521 2.173559 -2.95804 2.95804 
C -2.173559 3.742521 -1.109424 4.1833 0 4.1833 
z
"/>
    </defs>
    <g clip-path="url(#pb120fb3073)">
     <use xlink:href="#C0_0_373c38cae7" x="178.308649" y="166.077073" style="fill: #889dc5; stroke: #000000; stroke-width: 0.669328"/>
    </g>
    <g clip-path="url(#pb120fb3073)">
     <use xlink:href="#C0_0_373c38cae7" x="195.696919" y="166.077073" style="fill: #005eff; stroke: #000000; stroke-width: 0.669328"/>
    </g>
    <g clip-path="url(#pb120fb3073)">
     <use xlink:href="#C0_0_373c38cae7" x="139.80605" y="162.09561" style="fill: #889dc5; stroke: #000000; stroke-width: 0.669328"/>
    </g>
    <g clip-path="url(#pb120fb3073)">
     <use xlink:href="#C0_0_373c38cae7" x="265.25" y="154.132683" style="fill: #889dc5; stroke: #000000; stroke-width: 0.669328"/>
    </g>
    <g clip-path="url(#pb120fb3073)">
     <use xlink:href="#C0_0_373c38cae7" x="154.386916" y="154.132683" style="fill: #005eff; stroke: #000000; stroke-width: 0.669328"/>
    </g>
    <g clip-path="url(#pb120fb3073)">
     <use xlink:href="#C0_0_373c38cae7" x="88.93294" y="90.429268" style="fill: #005eff; stroke: #000000; stroke-width: 0.669328"/>
    </g>
    <g clip-path="url(#pb120fb3073)">
     <use xlink:href="#C0_0_373c38cae7" x="134.837973" y="82.466341" style="fill: #810000; stroke: #000000; stroke-width: 0.669328"/>
    </g>
    <g clip-path="url(#pb120fb3073)">
     <use xlink:href="#C0_0_373c38cae7" x="26.25" y="42.651707" style="fill: #ff0004; stroke: #000000; stroke-width: 0.669328"/>
    </g>
    <g clip-path="url(#pb120fb3073)">
     <use xlink:href="#C0_0_373c38cae7" x="169.614514" y="26.725854" style="fill: #810000; stroke: #000000; stroke-width: 0.669328"/>
    </g>
   </g>
   <g id="FillBetweenPolyCollection_1">
    <path d="M 26.25 23.815317 
L 26.25 123.025159 
L 28.664141 122.900534 
L 31.078283 122.337154 
L 33.492424 122.435836 
L 35.906566 122.553372 
L 38.320707 122.10892 
L 40.734848 122.290802 
L 43.14899 122.775555 
L 45.563131 123.088617 
L 47.977273 123.227039 
L 50.391414 123.358677 
L 52.805556 123.503754 
L 55.219697 123.648831 
L 57.633838 124.09539 
L 60.04798 124.608092 
L 62.462121 124.559582 
L 64.876263 125.010906 
L 67.290404 125.462229 
L 69.704545 125.72221 
L 72.118687 126.220939 
L 74.532828 126.719669 
L 76.94697 127.218399 
L 79.361111 127.718397 
L 81.775253 128.220645 
L 84.189394 128.721714 
L 86.603535 129.218178 
L 89.017677 129.723155 
L 91.431818 130.228132 
L 93.84596 130.723872 
L 96.260101 130.84072 
L 98.674242 131.324351 
L 101.088384 132.03935 
L 103.502525 132.490444 
L 105.916667 132.641912 
L 108.330808 133.09221 
L 110.744949 133.641056 
L 113.159091 134.296338 
L 115.573232 134.951621 
L 117.987374 135.606903 
L 120.401515 136.219081 
L 122.815657 136.723067 
L 125.229798 137.227052 
L 127.643939 138.213227 
L 130.058081 138.917102 
L 132.472222 139.833919 
L 134.886364 141.157846 
L 137.300505 141.911044 
L 139.714646 142.595001 
L 142.128788 144.290566 
L 144.542929 144.849499 
L 146.957071 145.734343 
L 149.371212 147.189691 
L 151.785354 148.201315 
L 154.199495 149.594024 
L 156.613636 151.165362 
L 159.027778 152.493184 
L 161.441919 154.737122 
L 163.856061 156.666791 
L 166.270202 158.596461 
L 168.684343 160.499838 
L 171.098485 162.118149 
L 173.512626 163.004144 
L 175.926768 164.7367 
L 178.340909 166.990837 
L 180.755051 169.182428 
L 183.169192 171.15271 
L 185.583333 173.114372 
L 187.997475 175.103825 
L 190.411616 177.07407 
L 192.825758 179.704414 
L 195.239899 181.628485 
L 197.65404 183.536462 
L 200.068182 185.221684 
L 202.482323 186.925299 
L 204.896465 188.895544 
L 207.310606 190.86579 
L 209.724747 192.836036 
L 212.138889 194.806282 
L 214.55303 196.826434 
L 216.967172 198.917383 
L 219.381313 200.902851 
L 221.795455 203.094999 
L 224.209596 205.042157 
L 226.623737 206.870769 
L 229.037879 208.931526 
L 231.45202 211.062042 
L 233.866162 213.095584 
L 236.280303 215.136143 
L 238.694444 217.168633 
L 241.108586 219.201123 
L 243.522727 221.233613 
L 245.936869 223.266103 
L 248.35101 225.298593 
L 250.765152 227.317423 
L 253.179293 229.372231 
L 255.593434 231.422701 
L 258.007576 233.468066 
L 260.421717 235.500667 
L 262.835859 237.533269 
L 265.25 239.565871 
L 265.25 106.576254 
L 265.25 106.576254 
L 262.835859 106.572641 
L 260.421717 106.569028 
L 258.007576 106.565414 
L 255.593434 106.561801 
L 253.179293 106.558188 
L 250.765152 106.554575 
L 248.35101 106.550962 
L 245.936869 106.547349 
L 243.522727 106.543735 
L 241.108586 106.189039 
L 238.694444 105.50711 
L 236.280303 104.82518 
L 233.866162 104.143251 
L 231.45202 103.461321 
L 229.037879 102.779392 
L 226.623737 102.097462 
L 224.209596 101.415533 
L 221.795455 100.736855 
L 219.381313 100.422618 
L 216.967172 100.108381 
L 214.55303 99.794144 
L 212.138889 99.479908 
L 209.724747 99.165671 
L 207.310606 98.46941 
L 204.896465 97.701341 
L 202.482323 98.261259 
L 200.068182 97.942092 
L 197.65404 97.196543 
L 195.239899 96.278363 
L 192.825758 95.370736 
L 190.411616 94.469207 
L 187.997475 94.592766 
L 185.583333 93.773084 
L 183.169192 93.413699 
L 180.755051 92.821563 
L 178.340909 92.256947 
L 175.926768 92.039636 
L 173.512626 92.208592 
L 171.098485 91.309127 
L 168.684343 90.399626 
L 166.270202 89.490125 
L 163.856061 88.580623 
L 161.441919 87.671122 
L 159.027778 86.761621 
L 156.613636 85.852119 
L 154.199495 84.930847 
L 151.785354 84.013326 
L 149.371212 83.118713 
L 146.957071 82.261405 
L 144.542929 81.304612 
L 142.128788 80.395111 
L 139.714646 79.654613 
L 137.300505 79.108583 
L 134.886364 78.491582 
L 132.472222 77.583359 
L 130.058081 76.512121 
L 127.643939 75.437511 
L 125.229798 74.216351 
L 122.815657 73.55519 
L 120.401515 72.49623 
L 117.987374 71.300097 
L 115.573232 70.390596 
L 113.159091 69.481094 
L 110.744949 68.571593 
L 108.330808 67.662092 
L 105.916667 66.574285 
L 103.502525 65.217409 
L 101.088384 64.667281 
L 98.674242 63.923406 
L 96.260101 62.473658 
L 93.84596 61.371005 
L 91.431818 60.10365 
L 89.017677 59.038063 
L 86.603535 58.255974 
L 84.189394 57.230816 
L 81.775253 56.699683 
L 79.361111 55.47386 
L 76.94697 54.087683 
L 74.532828 52.372507 
L 72.118687 51.313269 
L 69.704545 50.10601 
L 67.290404 48.699504 
L 64.876263 47.361882 
L 62.462121 46.273563 
L 60.04798 44.750389 
L 57.633838 43.394021 
L 55.219697 42.492042 
L 52.805556 40.736573 
L 50.391414 38.96445 
L 47.977273 37.386051 
L 45.563131 35.967374 
L 43.14899 34.555863 
L 40.734848 33.218941 
L 38.320707 31.935426 
L 35.906566 30.651911 
L 33.492424 29.024521 
L 31.078283 27.328729 
L 28.664141 25.621132 
L 26.25 23.815317 
z
" clip-path="url(#pb120fb3073)" style="fill: #808080; fill-opacity: 0.15"/>
   </g>
   <g id="matplotlib.axis_1">
    <g id="xtick_1">
     <g id="line2d_1">
      <path d="M 44.418968 174.04 
L 44.418968 10.8 
" clip-path="url(#pb120fb3073)" style="fill: none; stroke: #b0b0b0; stroke-opacity: 0.3; stroke-width: 0.8; stroke-linecap: square"/>
     </g>
     <g id="line2d_2">
      <defs>
       <path id="m3fadbebcbc" d="M 0 0 
L 0 3.5 
" style="stroke: #000000; stroke-width: 0.8"/>
      </defs>
      <g>
       <use xlink:href="#m3fadbebcbc" x="44.418968" y="174.04" style="stroke: #000000; stroke-width: 0.8"/>
      </g>
     </g>
     <g id="text_1">
      <!-- 0.4 -->
      <g transform="translate(36.467406 188.638438) scale(0.1 -0.1)">
       <defs>
        <path id="DejaVuSans-30" d="M 2034 4250 
Q 1547 4250 1301 3770 
Q 1056 3291 1056 2328 
Q 1056 1369 1301 889 
Q 1547 409 2034 409 
Q 2525 409 2770 889 
Q 3016 1369 3016 2328 
Q 3016 3291 2770 3770 
Q 2525 4250 2034 4250 
z
M 2034 4750 
Q 2819 4750 3233 4129 
Q 3647 3509 3647 2328 
Q 3647 1150 3233 529 
Q 2819 -91 2034 -91 
Q 1250 -91 836 529 
Q 422 1150 422 2328 
Q 422 3509 836 4129 
Q 1250 4750 2034 4750 
z
" transform="scale(0.015625)"/>
        <path id="DejaVuSans-2e" d="M 684 794 
L 1344 794 
L 1344 0 
L 684 0 
L 684 794 
z
" transform="scale(0.015625)"/>
        <path id="DejaVuSans-34" d="M 2419 4116 
L 825 1625 
L 2419 1625 
L 2419 4116 
z
M 2253 4666 
L 3047 4666 
L 3047 1625 
L 3713 1625 
L 3713 1100 
L 3047 1100 
L 3047 0 
L 2419 0 
L 2419 1100 
L 313 1100 
L 313 1709 
L 2253 4666 
z
" transform="scale(0.015625)"/>
       </defs>
       <use xlink:href="#DejaVuSans-30"/>
       <use xlink:href="#DejaVuSans-2e" transform="translate(63.623047 0)"/>
       <use xlink:href="#DejaVuSans-34" transform="translate(95.410156 0)"/>
      </g>
     </g>
    </g>
    <g id="xtick_2">
     <g id="line2d_3">
      <path d="M 100.061433 174.04 
L 100.061433 10.8 
" clip-path="url(#pb120fb3073)" style="fill: none; stroke: #b0b0b0; stroke-opacity: 0.3; stroke-width: 0.8; stroke-linecap: square"/>
     </g>
     <g id="line2d_4">
      <g>
       <use xlink:href="#m3fadbebcbc" x="100.061433" y="174.04" style="stroke: #000000; stroke-width: 0.8"/>
      </g>
     </g>
     <g id="text_2">
      <!-- 0.5 -->
      <g transform="translate(92.10987 188.638438) scale(0.1 -0.1)">
       <defs>
        <path id="DejaVuSans-35" d="M 691 4666 
L 3169 4666 
L 3169 4134 
L 1269 4134 
L 1269 2991 
Q 1406 3038 1543 3061 
Q 1681 3084 1819 3084 
Q 2600 3084 3056 2656 
Q 3513 2228 3513 1497 
Q 3513 744 3044 326 
Q 2575 -91 1722 -91 
Q 1428 -91 1123 -41 
Q 819 9 494 109 
L 494 744 
Q 775 591 1075 516 
Q 1375 441 1709 441 
Q 2250 441 2565 725 
Q 2881 1009 2881 1497 
Q 2881 1984 2565 2268 
Q 2250 2553 1709 2553 
Q 1456 2553 1204 2497 
Q 953 2441 691 2322 
L 691 4666 
z
" transform="scale(0.015625)"/>
       </defs>
       <use xlink:href="#DejaVuSans-30"/>
       <use xlink:href="#DejaVuSans-2e" transform="translate(63.623047 0)"/>
       <use xlink:href="#DejaVuSans-35" transform="translate(95.410156 0)"/>
      </g>
     </g>
    </g>
    <g id="xtick_3">
     <g id="line2d_5">
      <path d="M 155.703898 174.04 
L 155.703898 10.8 
" clip-path="url(#pb120fb3073)" style="fill: none; stroke: #b0b0b0; stroke-opacity: 0.3; stroke-width: 0.8; stroke-linecap: square"/>
     </g>
     <g id="line2d_6">
      <g>
       <use xlink:href="#m3fadbebcbc" x="155.703898" y="174.04" style="stroke: #000000; stroke-width: 0.8"/>
      </g>
     </g>
     <g id="text_3">
      <!-- 0.6 -->
      <g transform="translate(147.752335 188.638438) scale(0.1 -0.1)">
       <defs>
        <path id="DejaVuSans-36" d="M 2113 2584 
Q 1688 2584 1439 2293 
Q 1191 2003 1191 1497 
Q 1191 994 1439 701 
Q 1688 409 2113 409 
Q 2538 409 2786 701 
Q 3034 994 3034 1497 
Q 3034 2003 2786 2293 
Q 2538 2584 2113 2584 
z
M 3366 4563 
L 3366 3988 
Q 3128 4100 2886 4159 
Q 2644 4219 2406 4219 
Q 1781 4219 1451 3797 
Q 1122 3375 1075 2522 
Q 1259 2794 1537 2939 
Q 1816 3084 2150 3084 
Q 2853 3084 3261 2657 
Q 3669 2231 3669 1497 
Q 3669 778 3244 343 
Q 2819 -91 2113 -91 
Q 1303 -91 875 529 
Q 447 1150 447 2328 
Q 447 3434 972 4092 
Q 1497 4750 2381 4750 
Q 2619 4750 2861 4703 
Q 3103 4656 3366 4563 
z
" transform="scale(0.015625)"/>
       </defs>
       <use xlink:href="#DejaVuSans-30"/>
       <use xlink:href="#DejaVuSans-2e" transform="translate(63.623047 0)"/>
       <use xlink:href="#DejaVuSans-36" transform="translate(95.410156 0)"/>
      </g>
     </g>
    </g>
    <g id="xtick_4">
     <g id="line2d_7">
      <path d="M 211.346362 174.04 
L 211.346362 10.8 
" clip-path="url(#pb120fb3073)" style="fill: none; stroke: #b0b0b0; stroke-opacity: 0.3; stroke-width: 0.8; stroke-linecap: square"/>
     </g>
     <g id="line2d_8">
      <g>
       <use xlink:href="#m3fadbebcbc" x="211.346362" y="174.04" style="stroke: #000000; stroke-width: 0.8"/>
      </g>
     </g>
     <g id="text_4">
      <!-- 0.7 -->
      <g transform="translate(203.3948 188.638438) scale(0.1 -0.1)">
       <defs>
        <path id="DejaVuSans-37" d="M 525 4666 
L 3525 4666 
L 3525 4397 
L 1831 0 
L 1172 0 
L 2766 4134 
L 525 4134 
L 525 4666 
z
" transform="scale(0.015625)"/>
       </defs>
       <use xlink:href="#DejaVuSans-30"/>
       <use xlink:href="#DejaVuSans-2e" transform="translate(63.623047 0)"/>
       <use xlink:href="#DejaVuSans-37" transform="translate(95.410156 0)"/>
      </g>
     </g>
    </g>
    <g id="xtick_5">
     <g id="line2d_9">
      <path d="M 266.988827 174.04 
L 266.988827 10.8 
" clip-path="url(#pb120fb3073)" style="fill: none; stroke: #b0b0b0; stroke-opacity: 0.3; stroke-width: 0.8; stroke-linecap: square"/>
     </g>
     <g id="line2d_10">
      <g>
       <use xlink:href="#m3fadbebcbc" x="266.988827" y="174.04" style="stroke: #000000; stroke-width: 0.8"/>
      </g>
     </g>
     <g id="text_5">
      <!-- 0.8 -->
      <g transform="translate(259.037265 188.638438) scale(0.1 -0.1)">
       <defs>
        <path id="DejaVuSans-38" d="M 2034 2216 
Q 1584 2216 1326 1975 
Q 1069 1734 1069 1313 
Q 1069 891 1326 650 
Q 1584 409 2034 409 
Q 2484 409 2743 651 
Q 3003 894 3003 1313 
Q 3003 1734 2745 1975 
Q 2488 2216 2034 2216 
z
M 1403 2484 
Q 997 2584 770 2862 
Q 544 3141 544 3541 
Q 544 4100 942 4425 
Q 1341 4750 2034 4750 
Q 2731 4750 3128 4425 
Q 3525 4100 3525 3541 
Q 3525 3141 3298 2862 
Q 3072 2584 2669 2484 
Q 3125 2378 3379 2068 
Q 3634 1759 3634 1313 
Q 3634 634 3220 271 
Q 2806 -91 2034 -91 
Q 1263 -91 848 271 
Q 434 634 434 1313 
Q 434 1759 690 2068 
Q 947 2378 1403 2484 
z
M 1172 3481 
Q 1172 3119 1398 2916 
Q 1625 2713 2034 2713 
Q 2441 2713 2670 2916 
Q 2900 3119 2900 3481 
Q 2900 3844 2670 4047 
Q 2441 4250 2034 4250 
Q 1625 4250 1398 4047 
Q 1172 3844 1172 3481 
z
" transform="scale(0.015625)"/>
       </defs>
       <use xlink:href="#DejaVuSans-30"/>
       <use xlink:href="#DejaVuSans-2e" transform="translate(63.623047 0)"/>
       <use xlink:href="#DejaVuSans-38" transform="translate(95.410156 0)"/>
      </g>
     </g>
    </g>
    <g id="text_6">
     <!-- Normalized Number of Forbidden Ancestral Pairs -->
     <g transform="translate(24.185937 202.316563) scale(0.1 -0.1)">
      <defs>
       <path id="DejaVuSans-4e" d="M 628 4666 
L 1478 4666 
L 3547 763 
L 3547 4666 
L 4159 4666 
L 4159 0 
L 3309 0 
L 1241 3903 
L 1241 0 
L 628 0 
L 628 4666 
z
" transform="scale(0.015625)"/>
       <path id="DejaVuSans-6f" d="M 1959 3097 
Q 1497 3097 1228 2736 
Q 959 2375 959 1747 
Q 959 1119 1226 758 
Q 1494 397 1959 397 
Q 2419 397 2687 759 
Q 2956 1122 2956 1747 
Q 2956 2369 2687 2733 
Q 2419 3097 1959 3097 
z
M 1959 3584 
Q 2709 3584 3137 3096 
Q 3566 2609 3566 1747 
Q 3566 888 3137 398 
Q 2709 -91 1959 -91 
Q 1206 -91 779 398 
Q 353 888 353 1747 
Q 353 2609 779 3096 
Q 1206 3584 1959 3584 
z
" transform="scale(0.015625)"/>
       <path id="DejaVuSans-72" d="M 2631 2963 
Q 2534 3019 2420 3045 
Q 2306 3072 2169 3072 
Q 1681 3072 1420 2755 
Q 1159 2438 1159 1844 
L 1159 0 
L 581 0 
L 581 3500 
L 1159 3500 
L 1159 2956 
Q 1341 3275 1631 3429 
Q 1922 3584 2338 3584 
Q 2397 3584 2469 3576 
Q 2541 3569 2628 3553 
L 2631 2963 
z
" transform="scale(0.015625)"/>
       <path id="DejaVuSans-6d" d="M 3328 2828 
Q 3544 3216 3844 3400 
Q 4144 3584 4550 3584 
Q 5097 3584 5394 3201 
Q 5691 2819 5691 2113 
L 5691 0 
L 5113 0 
L 5113 2094 
Q 5113 2597 4934 2840 
Q 4756 3084 4391 3084 
Q 3944 3084 3684 2787 
Q 3425 2491 3425 1978 
L 3425 0 
L 2847 0 
L 2847 2094 
Q 2847 2600 2669 2842 
Q 2491 3084 2119 3084 
Q 1678 3084 1418 2786 
Q 1159 2488 1159 1978 
L 1159 0 
L 581 0 
L 581 3500 
L 1159 3500 
L 1159 2956 
Q 1356 3278 1631 3431 
Q 1906 3584 2284 3584 
Q 2666 3584 2933 3390 
Q 3200 3197 3328 2828 
z
" transform="scale(0.015625)"/>
       <path id="DejaVuSans-61" d="M 2194 1759 
Q 1497 1759 1228 1600 
Q 959 1441 959 1056 
Q 959 750 1161 570 
Q 1363 391 1709 391 
Q 2188 391 2477 730 
Q 2766 1069 2766 1631 
L 2766 1759 
L 2194 1759 
z
M 3341 1997 
L 3341 0 
L 2766 0 
L 2766 531 
Q 2569 213 2275 61 
Q 1981 -91 1556 -91 
Q 1019 -91 701 211 
Q 384 513 384 1019 
Q 384 1609 779 1909 
Q 1175 2209 1959 2209 
L 2766 2209 
L 2766 2266 
Q 2766 2663 2505 2880 
Q 2244 3097 1772 3097 
Q 1472 3097 1187 3025 
Q 903 2953 641 2809 
L 641 3341 
Q 956 3463 1253 3523 
Q 1550 3584 1831 3584 
Q 2591 3584 2966 3190 
Q 3341 2797 3341 1997 
z
" transform="scale(0.015625)"/>
       <path id="DejaVuSans-6c" d="M 603 4863 
L 1178 4863 
L 1178 0 
L 603 0 
L 603 4863 
z
" transform="scale(0.015625)"/>
       <path id="DejaVuSans-69" d="M 603 3500 
L 1178 3500 
L 1178 0 
L 603 0 
L 603 3500 
z
M 603 4863 
L 1178 4863 
L 1178 4134 
L 603 4134 
L 603 4863 
z
" transform="scale(0.015625)"/>
       <path id="DejaVuSans-7a" d="M 353 3500 
L 3084 3500 
L 3084 2975 
L 922 459 
L 3084 459 
L 3084 0 
L 275 0 
L 275 525 
L 2438 3041 
L 353 3041 
L 353 3500 
z
" transform="scale(0.015625)"/>
       <path id="DejaVuSans-65" d="M 3597 1894 
L 3597 1613 
L 953 1613 
Q 991 1019 1311 708 
Q 1631 397 2203 397 
Q 2534 397 2845 478 
Q 3156 559 3463 722 
L 3463 178 
Q 3153 47 2828 -22 
Q 2503 -91 2169 -91 
Q 1331 -91 842 396 
Q 353 884 353 1716 
Q 353 2575 817 3079 
Q 1281 3584 2069 3584 
Q 2775 3584 3186 3129 
Q 3597 2675 3597 1894 
z
M 3022 2063 
Q 3016 2534 2758 2815 
Q 2500 3097 2075 3097 
Q 1594 3097 1305 2825 
Q 1016 2553 972 2059 
L 3022 2063 
z
" transform="scale(0.015625)"/>
       <path id="DejaVuSans-64" d="M 2906 2969 
L 2906 4863 
L 3481 4863 
L 3481 0 
L 2906 0 
L 2906 525 
Q 2725 213 2448 61 
Q 2172 -91 1784 -91 
Q 1150 -91 751 415 
Q 353 922 353 1747 
Q 353 2572 751 3078 
Q 1150 3584 1784 3584 
Q 2172 3584 2448 3432 
Q 2725 3281 2906 2969 
z
M 947 1747 
Q 947 1113 1208 752 
Q 1469 391 1925 391 
Q 2381 391 2643 752 
Q 2906 1113 2906 1747 
Q 2906 2381 2643 2742 
Q 2381 3103 1925 3103 
Q 1469 3103 1208 2742 
Q 947 2381 947 1747 
z
" transform="scale(0.015625)"/>
       <path id="DejaVuSans-20" transform="scale(0.015625)"/>
       <path id="DejaVuSans-75" d="M 544 1381 
L 544 3500 
L 1119 3500 
L 1119 1403 
Q 1119 906 1312 657 
Q 1506 409 1894 409 
Q 2359 409 2629 706 
Q 2900 1003 2900 1516 
L 2900 3500 
L 3475 3500 
L 3475 0 
L 2900 0 
L 2900 538 
Q 2691 219 2414 64 
Q 2138 -91 1772 -91 
Q 1169 -91 856 284 
Q 544 659 544 1381 
z
M 1991 3584 
L 1991 3584 
z
" transform="scale(0.015625)"/>
       <path id="DejaVuSans-62" d="M 3116 1747 
Q 3116 2381 2855 2742 
Q 2594 3103 2138 3103 
Q 1681 3103 1420 2742 
Q 1159 2381 1159 1747 
Q 1159 1113 1420 752 
Q 1681 391 2138 391 
Q 2594 391 2855 752 
Q 3116 1113 3116 1747 
z
M 1159 2969 
Q 1341 3281 1617 3432 
Q 1894 3584 2278 3584 
Q 2916 3584 3314 3078 
Q 3713 2572 3713 1747 
Q 3713 922 3314 415 
Q 2916 -91 2278 -91 
Q 1894 -91 1617 61 
Q 1341 213 1159 525 
L 1159 0 
L 581 0 
L 581 4863 
L 1159 4863 
L 1159 2969 
z
" transform="scale(0.015625)"/>
       <path id="DejaVuSans-66" d="M 2375 4863 
L 2375 4384 
L 1825 4384 
Q 1516 4384 1395 4259 
Q 1275 4134 1275 3809 
L 1275 3500 
L 2222 3500 
L 2222 3053 
L 1275 3053 
L 1275 0 
L 697 0 
L 697 3053 
L 147 3053 
L 147 3500 
L 697 3500 
L 697 3744 
Q 697 4328 969 4595 
Q 1241 4863 1831 4863 
L 2375 4863 
z
" transform="scale(0.015625)"/>
       <path id="DejaVuSans-46" d="M 628 4666 
L 3309 4666 
L 3309 4134 
L 1259 4134 
L 1259 2759 
L 3109 2759 
L 3109 2228 
L 1259 2228 
L 1259 0 
L 628 0 
L 628 4666 
z
" transform="scale(0.015625)"/>
       <path id="DejaVuSans-6e" d="M 3513 2113 
L 3513 0 
L 2938 0 
L 2938 2094 
Q 2938 2591 2744 2837 
Q 2550 3084 2163 3084 
Q 1697 3084 1428 2787 
Q 1159 2491 1159 1978 
L 1159 0 
L 581 0 
L 581 3500 
L 1159 3500 
L 1159 2956 
Q 1366 3272 1645 3428 
Q 1925 3584 2291 3584 
Q 2894 3584 3203 3211 
Q 3513 2838 3513 2113 
z
" transform="scale(0.015625)"/>
       <path id="DejaVuSans-41" d="M 2188 4044 
L 1331 1722 
L 3047 1722 
L 2188 4044 
z
M 1831 4666 
L 2547 4666 
L 4325 0 
L 3669 0 
L 3244 1197 
L 1141 1197 
L 716 0 
L 50 0 
L 1831 4666 
z
" transform="scale(0.015625)"/>
       <path id="DejaVuSans-63" d="M 3122 3366 
L 3122 2828 
Q 2878 2963 2633 3030 
Q 2388 3097 2138 3097 
Q 1578 3097 1268 2742 
Q 959 2388 959 1747 
Q 959 1106 1268 751 
Q 1578 397 2138 397 
Q 2388 397 2633 464 
Q 2878 531 3122 666 
L 3122 134 
Q 2881 22 2623 -34 
Q 2366 -91 2075 -91 
Q 1284 -91 818 406 
Q 353 903 353 1747 
Q 353 2603 823 3093 
Q 1294 3584 2113 3584 
Q 2378 3584 2631 3529 
Q 2884 3475 3122 3366 
z
" transform="scale(0.015625)"/>
       <path id="DejaVuSans-73" d="M 2834 3397 
L 2834 2853 
Q 2591 2978 2328 3040 
Q 2066 3103 1784 3103 
Q 1356 3103 1142 2972 
Q 928 2841 928 2578 
Q 928 2378 1081 2264 
Q 1234 2150 1697 2047 
L 1894 2003 
Q 2506 1872 2764 1633 
Q 3022 1394 3022 966 
Q 3022 478 2636 193 
Q 2250 -91 1575 -91 
Q 1294 -91 989 -36 
Q 684 19 347 128 
L 347 722 
Q 666 556 975 473 
Q 1284 391 1588 391 
Q 1994 391 2212 530 
Q 2431 669 2431 922 
Q 2431 1156 2273 1281 
Q 2116 1406 1581 1522 
L 1381 1569 
Q 847 1681 609 1914 
Q 372 2147 372 2553 
Q 372 3047 722 3315 
Q 1072 3584 1716 3584 
Q 2034 3584 2315 3537 
Q 2597 3491 2834 3397 
z
" transform="scale(0.015625)"/>
       <path id="DejaVuSans-74" d="M 1172 4494 
L 1172 3500 
L 2356 3500 
L 2356 3053 
L 1172 3053 
L 1172 1153 
Q 1172 725 1289 603 
Q 1406 481 1766 481 
L 2356 481 
L 2356 0 
L 1766 0 
Q 1100 0 847 248 
Q 594 497 594 1153 
L 594 3053 
L 172 3053 
L 172 3500 
L 594 3500 
L 594 4494 
L 1172 4494 
z
" transform="scale(0.015625)"/>
       <path id="DejaVuSans-50" d="M 1259 4147 
L 1259 2394 
L 2053 2394 
Q 2494 2394 2734 2622 
Q 2975 2850 2975 3272 
Q 2975 3691 2734 3919 
Q 2494 4147 2053 4147 
L 1259 4147 
z
M 628 4666 
L 2053 4666 
Q 2838 4666 3239 4311 
Q 3641 3956 3641 3272 
Q 3641 2581 3239 2228 
Q 2838 1875 2053 1875 
L 1259 1875 
L 1259 0 
L 628 0 
L 628 4666 
z
" transform="scale(0.015625)"/>
      </defs>
      <use xlink:href="#DejaVuSans-4e"/>
      <use xlink:href="#DejaVuSans-6f" transform="translate(74.804688 0)"/>
      <use xlink:href="#DejaVuSans-72" transform="translate(135.986328 0)"/>
      <use xlink:href="#DejaVuSans-6d" transform="translate(175.349609 0)"/>
      <use xlink:href="#DejaVuSans-61" transform="translate(272.761719 0)"/>
      <use xlink:href="#DejaVuSans-6c" transform="translate(334.041016 0)"/>
      <use xlink:href="#DejaVuSans-69" transform="translate(361.824219 0)"/>
      <use xlink:href="#DejaVuSans-7a" transform="translate(389.607422 0)"/>
      <use xlink:href="#DejaVuSans-65" transform="translate(442.097656 0)"/>
      <use xlink:href="#DejaVuSans-64" transform="translate(503.621094 0)"/>
      <use xlink:href="#DejaVuSans-20" transform="translate(567.097656 0)"/>
      <use xlink:href="#DejaVuSans-4e" transform="translate(598.884766 0)"/>
      <use xlink:href="#DejaVuSans-75" transform="translate(673.689453 0)"/>
      <use xlink:href="#DejaVuSans-6d" transform="translate(737.068359 0)"/>
      <use xlink:href="#DejaVuSans-62" transform="translate(834.480469 0)"/>
      <use xlink:href="#DejaVuSans-65" transform="translate(897.957031 0)"/>
      <use xlink:href="#DejaVuSans-72" transform="translate(959.480469 0)"/>
      <use xlink:href="#DejaVuSans-20" transform="translate(1000.59375 0)"/>
      <use xlink:href="#DejaVuSans-6f" transform="translate(1032.380859 0)"/>
      <use xlink:href="#DejaVuSans-66" transform="translate(1093.5625 0)"/>
      <use xlink:href="#DejaVuSans-20" transform="translate(1128.767578 0)"/>
      <use xlink:href="#DejaVuSans-46" transform="translate(1160.554688 0)"/>
      <use xlink:href="#DejaVuSans-6f" transform="translate(1214.449219 0)"/>
      <use xlink:href="#DejaVuSans-72" transform="translate(1275.630859 0)"/>
      <use xlink:href="#DejaVuSans-62" transform="translate(1316.744141 0)"/>
      <use xlink:href="#DejaVuSans-69" transform="translate(1380.220703 0)"/>
      <use xlink:href="#DejaVuSans-64" transform="translate(1408.003906 0)"/>
      <use xlink:href="#DejaVuSans-64" transform="translate(1471.480469 0)"/>
      <use xlink:href="#DejaVuSans-65" transform="translate(1534.957031 0)"/>
      <use xlink:href="#DejaVuSans-6e" transform="translate(1596.480469 0)"/>
      <use xlink:href="#DejaVuSans-20" transform="translate(1659.859375 0)"/>
      <use xlink:href="#DejaVuSans-41" transform="translate(1691.646484 0)"/>
      <use xlink:href="#DejaVuSans-6e" transform="translate(1760.054688 0)"/>
      <use xlink:href="#DejaVuSans-63" transform="translate(1823.433594 0)"/>
      <use xlink:href="#DejaVuSans-65" transform="translate(1878.414062 0)"/>
      <use xlink:href="#DejaVuSans-73" transform="translate(1939.9375 0)"/>
      <use xlink:href="#DejaVuSans-74" transform="translate(1992.037109 0)"/>
      <use xlink:href="#DejaVuSans-72" transform="translate(2031.246094 0)"/>
      <use xlink:href="#DejaVuSans-61" transform="translate(2072.359375 0)"/>
      <use xlink:href="#DejaVuSans-6c" transform="translate(2133.638672 0)"/>
      <use xlink:href="#DejaVuSans-20" transform="translate(2161.421875 0)"/>
      <use xlink:href="#DejaVuSans-50" transform="translate(2193.208984 0)"/>
      <use xlink:href="#DejaVuSans-61" transform="translate(2249.011719 0)"/>
      <use xlink:href="#DejaVuSans-69" transform="translate(2310.291016 0)"/>
      <use xlink:href="#DejaVuSans-72" transform="translate(2338.074219 0)"/>
      <use xlink:href="#DejaVuSans-73" transform="translate(2379.1875 0)"/>
     </g>
    </g>
   </g>
   <g id="matplotlib.axis_2">
    <g id="ytick_1">
     <g id="line2d_11">
      <path d="M 14.3 170.058537 
L 277.2 170.058537 
" clip-path="url(#pb120fb3073)" style="fill: none; stroke: #b0b0b0; stroke-opacity: 0.3; stroke-width: 0.8; stroke-linecap: square"/>
     </g>
     <g id="line2d_12">
      <defs>
       <path id="m6c0161fda6" d="M 0 0 
L -3.5 0 
" style="stroke: #000000; stroke-width: 0.8"/>
      </defs>
      <g>
       <use xlink:href="#m6c0161fda6" x="14.3" y="170.058537" style="stroke: #000000; stroke-width: 0.8"/>
      </g>
     </g>
    </g>
    <g id="ytick_2">
     <g id="line2d_13">
      <path d="M 14.3 130.243902 
L 277.2 130.243902 
" clip-path="url(#pb120fb3073)" style="fill: none; stroke: #b0b0b0; stroke-opacity: 0.3; stroke-width: 0.8; stroke-linecap: square"/>
     </g>
     <g id="line2d_14">
      <g>
       <use xlink:href="#m6c0161fda6" x="14.3" y="130.243902" style="stroke: #000000; stroke-width: 0.8"/>
      </g>
     </g>
    </g>
    <g id="ytick_3">
     <g id="line2d_15">
      <path d="M 14.3 90.429268 
L 277.2 90.429268 
" clip-path="url(#pb120fb3073)" style="fill: none; stroke: #b0b0b0; stroke-opacity: 0.3; stroke-width: 0.8; stroke-linecap: square"/>
     </g>
     <g id="line2d_16">
      <g>
       <use xlink:href="#m6c0161fda6" x="14.3" y="90.429268" style="stroke: #000000; stroke-width: 0.8"/>
      </g>
     </g>
    </g>
    <g id="ytick_4">
     <g id="line2d_17">
      <path d="M 14.3 50.614634 
L 277.2 50.614634 
" clip-path="url(#pb120fb3073)" style="fill: none; stroke: #b0b0b0; stroke-opacity: 0.3; stroke-width: 0.8; stroke-linecap: square"/>
     </g>
     <g id="line2d_18">
      <g>
       <use xlink:href="#m6c0161fda6" x="14.3" y="50.614634" style="stroke: #000000; stroke-width: 0.8"/>
      </g>
     </g>
    </g>
    <g id="ytick_5">
     <g id="line2d_19">
      <path d="M 14.3 10.8 
L 277.2 10.8 
" clip-path="url(#pb120fb3073)" style="fill: none; stroke: #b0b0b0; stroke-opacity: 0.3; stroke-width: 0.8; stroke-linecap: square"/>
     </g>
     <g id="line2d_20">
      <g>
       <use xlink:href="#m6c0161fda6" x="14.3" y="10.8" style="stroke: #000000; stroke-width: 0.8"/>
      </g>
     </g>
    </g>
   </g>
   <g id="line2d_21"/>
   <g id="line2d_22"/>
   <g id="line2d_23"/>
   <g id="line2d_24"/>
   <g id="line2d_25">
    <path d="M 26.25 56.741857 
L 28.664141 57.896389 
L 31.078283 59.050921 
L 33.492424 60.205454 
L 35.906566 61.359986 
L 38.320707 62.514518 
L 40.734848 63.669051 
L 43.14899 64.823583 
L 45.563131 65.978115 
L 47.977273 67.132648 
L 50.391414 68.28718 
L 52.805556 69.441712 
L 55.219697 70.596245 
L 57.633838 71.750777 
L 60.04798 72.905309 
L 62.462121 74.059841 
L 64.876263 75.214374 
L 67.290404 76.368906 
L 69.704545 77.523438 
L 72.118687 78.677971 
L 74.532828 79.832503 
L 76.94697 80.987035 
L 79.361111 82.141568 
L 81.775253 83.2961 
L 84.189394 84.450632 
L 86.603535 85.605164 
L 89.017677 86.759697 
L 91.431818 87.914229 
L 93.84596 89.068761 
L 96.260101 90.223294 
L 98.674242 91.377826 
L 101.088384 92.532358 
L 103.502525 93.686891 
L 105.916667 94.841423 
L 108.330808 95.995955 
L 110.744949 97.150488 
L 113.159091 98.30502 
L 115.573232 99.459552 
L 117.987374 100.614084 
L 120.401515 101.768617 
L 122.815657 102.923149 
L 125.229798 104.077681 
L 127.643939 105.232214 
L 130.058081 106.386746 
L 132.472222 107.541278 
L 134.886364 108.695811 
L 137.300505 109.850343 
L 139.714646 111.004875 
L 142.128788 112.159407 
L 144.542929 113.31394 
L 146.957071 114.468472 
L 149.371212 115.623004 
L 151.785354 116.777537 
L 154.199495 117.932069 
L 156.613636 119.086601 
L 159.027778 120.241134 
L 161.441919 121.395666 
L 163.856061 122.550198 
L 166.270202 123.704731 
L 168.684343 124.859263 
L 171.098485 126.013795 
L 173.512626 127.168327 
L 175.926768 128.32286 
L 178.340909 129.477392 
L 180.755051 130.631924 
L 183.169192 131.786457 
L 185.583333 132.940989 
L 187.997475 134.095521 
L 190.411616 135.250054 
L 192.825758 136.404586 
L 195.239899 137.559118 
L 197.65404 138.71365 
L 200.068182 139.868183 
L 202.482323 141.022715 
L 204.896465 142.177247 
L 207.310606 143.33178 
L 209.724747 144.486312 
L 212.138889 145.640844 
L 214.55303 146.795377 
L 216.967172 147.949909 
L 219.381313 149.104441 
L 221.795455 150.258974 
L 224.209596 151.413506 
L 226.623737 152.568038 
L 229.037879 153.72257 
L 231.45202 154.877103 
L 233.866162 156.031635 
L 236.280303 157.186167 
L 238.694444 158.3407 
L 241.108586 159.495232 
L 243.522727 160.649764 
L 245.936869 161.804297 
L 248.35101 162.958829 
L 250.765152 164.113361 
L 253.179293 165.267894 
L 255.593434 166.422426 
L 258.007576 167.576958 
L 260.421717 168.73149 
L 262.835859 169.886023 
L 265.25 171.040555 
" clip-path="url(#pb120fb3073)" style="fill: none; stroke-dasharray: 8.325,3.6; stroke-dashoffset: 0; stroke: #808080; stroke-opacity: 0.6; stroke-width: 2.25"/>
   </g>
   <g id="patch_3">
    <path d="M 14.3 174.04 
L 14.3 10.8 
" style="fill: none; stroke: #000000; stroke-width: 0.8; stroke-linejoin: miter; stroke-linecap: square"/>
   </g>
   <g id="patch_4">
    <path d="M 277.2 174.04 
L 277.2 10.8 
" style="fill: none; stroke: #000000; stroke-width: 0.8; stroke-linejoin: miter; stroke-linecap: square"/>
   </g>
   <g id="patch_5">
    <path d="M 14.3 174.04 
L 277.2 174.04 
" style="fill: none; stroke: #000000; stroke-width: 0.8; stroke-linejoin: miter; stroke-linecap: square"/>
   </g>
   <g id="patch_6">
    <path d="M 14.3 10.8 
L 277.2 10.8 
" style="fill: none; stroke: #000000; stroke-width: 0.8; stroke-linejoin: miter; stroke-linecap: square"/>
   </g>
   <g id="text_7">
    <g id="patch_7">
     <path d="M 206.602 45.907875 
L 275.902 45.907875 
L 275.902 15.024344 
L 206.602 15.024344 
z
" style="fill: #ffffff; opacity: 0.7"/>
    </g>
    <!-- $R^2$ = 0.327 -->
    <g transform="translate(210.562 27.320281) scale(0.11 -0.11)">
     <defs>
      <path id="DejaVuSans-Oblique-52" d="M 1613 4147 
L 1294 2491 
L 2106 2491 
Q 2584 2491 2879 2755 
Q 3175 3019 3175 3444 
Q 3175 3784 2976 3965 
Q 2778 4147 2406 4147 
L 1613 4147 
z
M 2772 2241 
Q 2972 2194 3105 2009 
Q 3238 1825 3413 1275 
L 3809 0 
L 3144 0 
L 2778 1197 
Q 2638 1659 2453 1815 
Q 2269 1972 1888 1972 
L 1191 1972 
L 806 0 
L 172 0 
L 1081 4666 
L 2503 4666 
Q 3150 4666 3495 4373 
Q 3841 4081 3841 3531 
Q 3841 3044 3547 2687 
Q 3253 2331 2772 2241 
z
" transform="scale(0.015625)"/>
      <path id="DejaVuSans-32" d="M 1228 531 
L 3431 531 
L 3431 0 
L 469 0 
L 469 531 
Q 828 903 1448 1529 
Q 2069 2156 2228 2338 
Q 2531 2678 2651 2914 
Q 2772 3150 2772 3378 
Q 2772 3750 2511 3984 
Q 2250 4219 1831 4219 
Q 1534 4219 1204 4116 
Q 875 4013 500 3803 
L 500 4441 
Q 881 4594 1212 4672 
Q 1544 4750 1819 4750 
Q 2544 4750 2975 4387 
Q 3406 4025 3406 3419 
Q 3406 3131 3298 2873 
Q 3191 2616 2906 2266 
Q 2828 2175 2409 1742 
Q 1991 1309 1228 531 
z
" transform="scale(0.015625)"/>
      <path id="DejaVuSans-3d" d="M 678 2906 
L 4684 2906 
L 4684 2381 
L 678 2381 
L 678 2906 
z
M 678 1631 
L 4684 1631 
L 4684 1100 
L 678 1100 
L 678 1631 
z
" transform="scale(0.015625)"/>
      <path id="DejaVuSans-33" d="M 2597 2516 
Q 3050 2419 3304 2112 
Q 3559 1806 3559 1356 
Q 3559 666 3084 287 
Q 2609 -91 1734 -91 
Q 1441 -91 1130 -33 
Q 819 25 488 141 
L 488 750 
Q 750 597 1062 519 
Q 1375 441 1716 441 
Q 2309 441 2620 675 
Q 2931 909 2931 1356 
Q 2931 1769 2642 2001 
Q 2353 2234 1838 2234 
L 1294 2234 
L 1294 2753 
L 1863 2753 
Q 2328 2753 2575 2939 
Q 2822 3125 2822 3475 
Q 2822 3834 2567 4026 
Q 2313 4219 1838 4219 
Q 1578 4219 1281 4162 
Q 984 4106 628 3988 
L 628 4550 
Q 988 4650 1302 4700 
Q 1616 4750 1894 4750 
Q 2613 4750 3031 4423 
Q 3450 4097 3450 3541 
Q 3450 3153 3228 2886 
Q 3006 2619 2597 2516 
z
" transform="scale(0.015625)"/>
     </defs>
     <use xlink:href="#DejaVuSans-Oblique-52" transform="translate(0 0.765625)"/>
     <use xlink:href="#DejaVuSans-32" transform="translate(76.499193 39.046875) scale(0.7)"/>
     <use xlink:href="#DejaVuSans-20" transform="translate(123.769701 0.765625)"/>
     <use xlink:href="#DejaVuSans-3d" transform="translate(155.55681 0.765625)"/>
     <use xlink:href="#DejaVuSans-20" transform="translate(239.345872 0.765625)"/>
     <use xlink:href="#DejaVuSans-30" transform="translate(271.132982 0.765625)"/>
     <use xlink:href="#DejaVuSans-2e" transform="translate(334.756029 0.765625)"/>
     <use xlink:href="#DejaVuSans-33" transform="translate(366.543138 0.765625)"/>
     <use xlink:href="#DejaVuSans-32" transform="translate(430.166185 0.765625)"/>
     <use xlink:href="#DejaVuSans-37" transform="translate(493.789232 0.765625)"/>
    </g>
    <!-- $p$ = 0.108 -->
    <g transform="translate(217.162 39.637875) scale(0.11 -0.11)">
     <defs>
      <path id="DejaVuSans-Oblique-70" d="M 3175 2156 
Q 3175 2616 2975 2859 
Q 2775 3103 2400 3103 
Q 2144 3103 1911 2972 
Q 1678 2841 1497 2591 
Q 1319 2344 1212 1994 
Q 1106 1644 1106 1300 
Q 1106 863 1306 627 
Q 1506 391 1875 391 
Q 2147 391 2380 519 
Q 2613 647 2778 891 
Q 2956 1147 3065 1494 
Q 3175 1841 3175 2156 
z
M 1394 2969 
Q 1625 3272 1939 3428 
Q 2253 3584 2638 3584 
Q 3175 3584 3472 3232 
Q 3769 2881 3769 2247 
Q 3769 1728 3584 1258 
Q 3400 788 3053 416 
Q 2822 169 2531 39 
Q 2241 -91 1919 -91 
Q 1547 -91 1294 64 
Q 1041 219 916 525 
L 556 -1331 
L -19 -1331 
L 922 3500 
L 1497 3500 
L 1394 2969 
z
" transform="scale(0.015625)"/>
      <path id="DejaVuSans-31" d="M 794 531 
L 1825 531 
L 1825 4091 
L 703 3866 
L 703 4441 
L 1819 4666 
L 2450 4666 
L 2450 531 
L 3481 531 
L 3481 0 
L 794 0 
L 794 531 
z
" transform="scale(0.015625)"/>
     </defs>
     <use xlink:href="#DejaVuSans-Oblique-70" transform="translate(0 0.78125)"/>
     <use xlink:href="#DejaVuSans-20" transform="translate(63.476562 0.78125)"/>
     <use xlink:href="#DejaVuSans-3d" transform="translate(95.263672 0.78125)"/>
     <use xlink:href="#DejaVuSans-20" transform="translate(179.052734 0.78125)"/>
     <use xlink:href="#DejaVuSans-30" transform="translate(210.839844 0.78125)"/>
     <use xlink:href="#DejaVuSans-2e" transform="translate(274.462891 0.78125)"/>
     <use xlink:href="#DejaVuSans-31" transform="translate(306.25 0.78125)"/>
     <use xlink:href="#DejaVuSans-30" transform="translate(369.873047 0.78125)"/>
     <use xlink:href="#DejaVuSans-38" transform="translate(433.496094 0.78125)"/>
    </g>
   </g>
   <g id="legend_1"/>
  </g>
 </g>
 <defs>
  <clipPath id="pb120fb3073">
   <rect x="14.3" y="10.8" width="262.9" height="163.24"/>
  </clipPath>
 </defs>
</svg>
