<?xml version="1.0" encoding="utf-8" standalone="no"?>
<!DOCTYPE svg PUBLIC "-//W3C//DTD SVG 1.1//EN"
  "http://www.w3.org/Graphics/SVG/1.1/DTD/svg11.dtd">
<svg xmlns:xlink="http://www.w3.org/1999/xlink" width="432pt" height="288pt" viewBox="0 0 432 288" xmlns="http://www.w3.org/2000/svg" version="1.1">
 <metadata>
  <rdf:RDF xmlns:dc="http://purl.org/dc/elements/1.1/" xmlns:cc="http://creativecommons.org/ns#" xmlns:rdf="http://www.w3.org/1999/02/22-rdf-syntax-ns#">
   <cc:Work>
    <dc:type rdf:resource="http://purl.org/dc/dcmitype/StillImage"/>
    <dc:date>2025-11-07T11:24:50.351110</dc:date>
    <dc:format>image/svg+xml</dc:format>
    <dc:creator>
     <cc:Agent>
      <dc:title>Matplotlib v3.10.6, https://matplotlib.org/</dc:title>
     </cc:Agent>
    </dc:creator>
   </cc:Work>
  </rdf:RDF>
 </metadata>
 <defs>
  <style type="text/css">*{stroke-linejoin: round; stroke-linecap: butt}</style>
 </defs>
 <g id="figure_1">
  <g id="patch_1">
   <path d="M 0 288 
L 432 288 
L 432 0 
L 0 0 
z
" style="fill: #ffffff"/>
  </g>
  <g id="axes_1">
   <g id="patch_2">
    <path d="M 242.259379 33.700897 
Q 240.425173 34.910964 239.990829 35.197511 
" clip-path="url(#p88b68e21f7)" style="fill: none; stroke: #555555; stroke-width: 1.5; stroke-linecap: round"/>
    <path d="M 244.431054 34.66422 
L 239.990829 35.197511 
L 242.228331 31.325356 
z
" clip-path="url(#p88b68e21f7)" style="fill: #555555; stroke: #555555; stroke-width: 1.5; stroke-linecap: round"/>
   </g>
   <g id="patch_3">
    <path d="M 268.742097 33.574994 
Q 270.806789 34.909318 271.462965 35.333377 
" clip-path="url(#p88b68e21f7)" style="fill: none; stroke: #555555; stroke-width: 1.5; stroke-linecap: round"/>
    <path d="M 269.189013 31.482514 
L 271.462965 35.333377 
L 267.017904 34.842021 
z
" clip-path="url(#p88b68e21f7)" style="fill: #555555; stroke: #555555; stroke-width: 1.5; stroke-linecap: round"/>
   </g>
   <g id="patch_4">
    <path d="M 225.395389 60.637074 
Q 225.395389 62.649115 225.395389 62.984106 
" clip-path="url(#p88b68e21f7)" style="fill: none; stroke: #555555; stroke-width: 1.5; stroke-linecap: round"/>
    <path d="M 227.395389 58.984106 
L 225.395389 62.984106 
L 223.395389 58.984106 
z
" clip-path="url(#p88b68e21f7)" style="fill: #555555; stroke: #555555; stroke-width: 1.5; stroke-linecap: round"/>
   </g>
   <g id="patch_5">
    <path d="M 225.395389 80.471785 
Q 225.395389 82.483826 225.395389 82.818817 
" clip-path="url(#p88b68e21f7)" style="fill: none; stroke: #555555; stroke-width: 1.5; stroke-linecap: round"/>
    <path d="M 227.395389 78.818817 
L 225.395389 82.818817 
L 223.395389 78.818817 
z
" clip-path="url(#p88b68e21f7)" style="fill: #555555; stroke: #555555; stroke-width: 1.5; stroke-linecap: round"/>
   </g>
   <g id="patch_6">
    <path d="M 225.395389 100.306495 
Q 225.395389 102.318537 225.395389 102.653528 
" clip-path="url(#p88b68e21f7)" style="fill: none; stroke: #555555; stroke-width: 1.5; stroke-linecap: round"/>
    <path d="M 227.395389 98.653528 
L 225.395389 102.653528 
L 223.395389 98.653528 
z
" clip-path="url(#p88b68e21f7)" style="fill: #555555; stroke: #555555; stroke-width: 1.5; stroke-linecap: round"/>
   </g>
   <g id="patch_7">
    <path d="M 225.395389 120.141206 
Q 225.395389 122.153248 225.395389 122.488238 
" clip-path="url(#p88b68e21f7)" style="fill: none; stroke: #555555; stroke-width: 1.5; stroke-linecap: round"/>
    <path d="M 227.395389 118.488238 
L 225.395389 122.488238 
L 223.395389 118.488238 
z
" clip-path="url(#p88b68e21f7)" style="fill: #555555; stroke: #555555; stroke-width: 1.5; stroke-linecap: round"/>
   </g>
   <g id="patch_8">
    <path d="M 197.209221 159.810628 
Q 197.209221 161.822669 197.209221 162.15766 
" clip-path="url(#p88b68e21f7)" style="fill: none; stroke: #555555; stroke-width: 1.5; stroke-linecap: round"/>
    <path d="M 199.209221 158.15766 
L 197.209221 162.15766 
L 195.209221 158.15766 
z
" clip-path="url(#p88b68e21f7)" style="fill: #555555; stroke: #555555; stroke-width: 1.5; stroke-linecap: round"/>
   </g>
   <g id="patch_9">
    <path d="M 197.209221 179.645338 
Q 197.209221 181.65738 197.209221 181.992371 
" clip-path="url(#p88b68e21f7)" style="fill: none; stroke: #555555; stroke-width: 1.5; stroke-linecap: round"/>
    <path d="M 199.209221 177.992371 
L 197.209221 181.992371 
L 195.209221 177.992371 
z
" clip-path="url(#p88b68e21f7)" style="fill: #555555; stroke: #555555; stroke-width: 1.5; stroke-linecap: round"/>
   </g>
   <g id="patch_10">
    <path d="M 197.209221 199.480049 
Q 197.209221 201.492091 197.209221 201.827081 
" clip-path="url(#p88b68e21f7)" style="fill: none; stroke: #555555; stroke-width: 1.5; stroke-linecap: round"/>
    <path d="M 199.209221 197.827081 
L 197.209221 201.827081 
L 195.209221 197.827081 
z
" clip-path="url(#p88b68e21f7)" style="fill: #555555; stroke: #555555; stroke-width: 1.5; stroke-linecap: round"/>
   </g>
   <g id="patch_11">
    <path d="M 181.518795 205.452617 
Q 117.346939 213.421671 54.83935 221.184051 
" clip-path="url(#p88b68e21f7)" style="fill: none; stroke: #555555; stroke-width: 1.5; stroke-linecap: round"/>
    <path d="M 59.055332 222.67586 
L 54.83935 221.184051 
L 58.562387 218.706351 
z
" clip-path="url(#p88b68e21f7)" style="fill: #555555; stroke: #555555; stroke-width: 1.5; stroke-linecap: round"/>
   </g>
   <g id="patch_12">
    <path d="M 181.708798 206.630545 
Q 148.039435 213.421605 116.014016 219.881085 
" clip-path="url(#p88b68e21f7)" style="fill: none; stroke: #555555; stroke-width: 1.5; stroke-linecap: round"/>
    <path d="M 120.330486 221.050736 
L 116.014016 219.881085 
L 119.539619 217.129699 
z
" clip-path="url(#p88b68e21f7)" style="fill: #555555; stroke: #555555; stroke-width: 1.5; stroke-linecap: round"/>
   </g>
   <g id="patch_13">
    <path d="M 183.703043 211.729048 
Q 180.923191 213.421907 179.575696 214.242497 
" clip-path="url(#p88b68e21f7)" style="fill: none; stroke: #555555; stroke-width: 1.5; stroke-linecap: round"/>
    <path d="M 184.032308 213.8702 
L 179.575696 214.242497 
L 181.951826 210.453829 
z
" clip-path="url(#p88b68e21f7)" style="fill: #555555; stroke: #555555; stroke-width: 1.5; stroke-linecap: round"/>
   </g>
   <g id="patch_14">
    <path d="M 210.78062 211.612829 
Q 213.807597 213.421401 215.39492 214.369801 
" clip-path="url(#p88b68e21f7)" style="fill: none; stroke: #555555; stroke-width: 1.5; stroke-linecap: round"/>
    <path d="M 212.986957 210.601285 
L 215.39492 214.369801 
L 210.93533 214.035062 
z
" clip-path="url(#p88b68e21f7)" style="fill: #555555; stroke: #555555; stroke-width: 1.5; stroke-linecap: round"/>
   </g>
   <g id="patch_15">
    <path d="M 212.706338 206.649914 
Q 246.067265 213.421897 277.78466 219.860258 
" clip-path="url(#p88b68e21f7)" style="fill: none; stroke: #555555; stroke-width: 1.5; stroke-linecap: round"/>
    <path d="M 274.262477 217.104495 
L 277.78466 219.860258 
L 273.46674 221.024546 
z
" clip-path="url(#p88b68e21f7)" style="fill: #555555; stroke: #555555; stroke-width: 1.5; stroke-linecap: round"/>
   </g>
   <g id="patch_16">
    <path d="M 212.923857 205.238035 
Q 287.090264 213.42132 359.589736 221.420681 
" clip-path="url(#p88b68e21f7)" style="fill: none; stroke: #555555; stroke-width: 1.5; stroke-linecap: round"/>
    <path d="M 355.833207 218.994061 
L 359.589736 221.420681 
L 355.394522 222.969932 
z
" clip-path="url(#p88b68e21f7)" style="fill: #555555; stroke: #555555; stroke-width: 1.5; stroke-linecap: round"/>
   </g>
   <g id="patch_17">
    <path d="M 281.767725 258.984181 
Q 281.767725 260.996223 281.767725 261.331213 
" clip-path="url(#p88b68e21f7)" style="fill: none; stroke: #555555; stroke-width: 1.5; stroke-linecap: round"/>
    <path d="M 283.767725 257.331213 
L 281.767725 261.331213 
L 279.767725 257.331213 
z
" clip-path="url(#p88b68e21f7)" style="fill: #555555; stroke: #555555; stroke-width: 1.5; stroke-linecap: round"/>
   </g>
   <g id="patch_18">
    <path d="M 98.870813 239.149471 
Q 98.870813 241.161512 98.870813 241.496503 
" clip-path="url(#p88b68e21f7)" style="fill: none; stroke: #555555; stroke-width: 1.5; stroke-linecap: round"/>
    <path d="M 100.870813 237.496503 
L 98.870813 241.496503 
L 96.870813 237.496503 
z
" clip-path="url(#p88b68e21f7)" style="fill: #555555; stroke: #555555; stroke-width: 1.5; stroke-linecap: round"/>
   </g>
   <g id="patch_19">
    <path d="M 164.638538 239.149471 
Q 164.638538 241.161512 164.638538 241.496503 
" clip-path="url(#p88b68e21f7)" style="fill: none; stroke: #555555; stroke-width: 1.5; stroke-linecap: round"/>
    <path d="M 166.638538 237.496503 
L 164.638538 241.496503 
L 162.638538 237.496503 
z
" clip-path="url(#p88b68e21f7)" style="fill: #555555; stroke: #555555; stroke-width: 1.5; stroke-linecap: round"/>
   </g>
   <g id="patch_20">
    <path d="M 238.328959 133.26669 
Q 239.488916 134.082956 239.27737 133.934091 
" clip-path="url(#p88b68e21f7)" style="fill: none; stroke: #555555; stroke-width: 1.5; stroke-linecap: round"/>
    <path d="M 237.157132 129.996504 
L 239.27737 133.934091 
L 234.855158 133.26773 
z
" clip-path="url(#p88b68e21f7)" style="fill: #555555; stroke: #555555; stroke-width: 1.5; stroke-linecap: round"/>
   </g>
   <g id="patch_21">
    <path d="M 212.461819 133.26669 
Q 211.301862 134.082956 211.513408 133.934091 
" clip-path="url(#p88b68e21f7)" style="fill: none; stroke: #555555; stroke-width: 1.5; stroke-linecap: round"/>
    <path d="M 215.935621 133.26773 
L 211.513408 133.934091 
L 213.633647 129.996504 
z
" clip-path="url(#p88b68e21f7)" style="fill: #555555; stroke: #555555; stroke-width: 1.5; stroke-linecap: round"/>
   </g>
   <g id="patch_22">
    <path d="M 226.534336 238.665225 
Q 225.964862 240.919389 225.80616 241.547587 
" clip-path="url(#p88b68e21f7)" style="fill: none; stroke: #555555; stroke-width: 1.5; stroke-linecap: round"/>
    <path d="M 228.724983 238.159303 
L 225.80616 241.547587 
L 224.846826 237.179558 
z
" clip-path="url(#p88b68e21f7)" style="fill: #555555; stroke: #555555; stroke-width: 1.5; stroke-linecap: round"/>
   </g>
   <g id="patch_23">
    <path d="M 309.289724 229.933061 
Q 316.528722 233.255306 322.24352 235.87804 
" clip-path="url(#p88b68e21f7)" style="fill: none; stroke: #555555; stroke-width: 1.5; stroke-linecap: round"/>
    <path d="M 319.442309 232.391893 
L 322.24352 235.87804 
L 317.773876 236.027321 
z
" clip-path="url(#p88b68e21f7)" style="fill: #555555; stroke: #555555; stroke-width: 1.5; stroke-linecap: round"/>
   </g>
   <g id="patch_24">
    <path d="M 286.181677 236.517594 
Q 283.974701 239.845574 282.694588 241.775904 
" clip-path="url(#p88b68e21f7)" style="fill: none; stroke: #555555; stroke-width: 1.5; stroke-linecap: round"/>
    <path d="M 286.572079 239.547662 
L 282.694588 241.775904 
L 283.238489 237.336966 
z
" clip-path="url(#p88b68e21f7)" style="fill: #555555; stroke: #555555; stroke-width: 1.5; stroke-linecap: round"/>
   </g>
   <g id="patch_25">
    <path d="M 387.449645 235.185918 
Q 390.981021 239.179736 393.401512 241.917196 
" clip-path="url(#p88b68e21f7)" style="fill: none; stroke: #555555; stroke-width: 1.5; stroke-linecap: round"/>
    <path d="M 392.250191 237.5958 
L 393.401512 241.917196 
L 389.253603 240.245415 
z
" clip-path="url(#p88b68e21f7)" style="fill: #555555; stroke: #555555; stroke-width: 1.5; stroke-linecap: round"/>
   </g>
   <g id="PathCollection_1">
    <defs>
     <path id="C0_0_90979fbf4b" d="M 0 15.811388 
C 4.193229 15.811388 8.215279 14.145401 11.18034 11.18034 
C 14.145401 8.215279 15.811388 4.193229 15.811388 -0 
C 15.811388 -4.193229 14.145401 -8.215279 11.18034 -11.18034 
C 8.215279 -14.145401 4.193229 -15.811388 0 -15.811388 
C -4.193229 -15.811388 -8.215279 -14.145401 -11.18034 -11.18034 
C -14.145401 -8.215279 -15.811388 -4.193229 -15.811388 0 
C -15.811388 4.193229 -14.145401 8.215279 -11.18034 11.18034 
C -8.215279 14.145401 -4.193229 15.811388 0 15.811388 
z
"/>
    </defs>
    <g clip-path="url(#p88b68e21f7)">
     <use xlink:href="#C0_0_90979fbf4b" x="255.460635" y="24.991736" style="fill: #cccccc; stroke: #cccccc"/>
    </g>
    <g clip-path="url(#p88b68e21f7)">
     <use xlink:href="#C0_0_90979fbf4b" x="225.395389" y="44.826446" style="fill: #cccccc; stroke: #cccccc"/>
    </g>
    <g clip-path="url(#p88b68e21f7)">
     <use xlink:href="#C0_0_90979fbf4b" x="225.395389" y="64.661157" style="fill: #cccccc; stroke: #cccccc"/>
    </g>
    <g clip-path="url(#p88b68e21f7)">
     <use xlink:href="#C0_0_90979fbf4b" x="225.395389" y="84.495868" style="fill: #cccccc; stroke: #cccccc"/>
    </g>
    <g clip-path="url(#p88b68e21f7)">
     <use xlink:href="#C0_0_90979fbf4b" x="225.395389" y="104.330579" style="fill: #cccccc; stroke: #cccccc"/>
    </g>
    <g clip-path="url(#p88b68e21f7)">
     <use xlink:href="#C0_0_90979fbf4b" x="253.581557" y="144" style="fill: #8c564b; stroke: #8c564b"/>
    </g>
    <g clip-path="url(#p88b68e21f7)">
     <use xlink:href="#C0_0_90979fbf4b" x="197.209221" y="144" style="fill: #8c564b; stroke: #8c564b"/>
    </g>
    <g clip-path="url(#p88b68e21f7)">
     <use xlink:href="#C0_0_90979fbf4b" x="197.209221" y="163.834711" style="fill: #8c564b; stroke: #8c564b"/>
    </g>
    <g clip-path="url(#p88b68e21f7)">
     <use xlink:href="#C0_0_90979fbf4b" x="197.209221" y="183.669421" style="fill: #8c564b; stroke: #8c564b"/>
    </g>
    <g clip-path="url(#p88b68e21f7)">
     <use xlink:href="#C0_0_90979fbf4b" x="197.209221" y="203.504132" style="fill: #8c564b; stroke: #8c564b"/>
    </g>
    <g clip-path="url(#p88b68e21f7)">
     <use xlink:href="#C0_0_90979fbf4b" x="164.638538" y="243.173554" style="fill: #d62728; stroke: #d62728"/>
    </g>
    <g clip-path="url(#p88b68e21f7)">
     <use xlink:href="#C0_0_90979fbf4b" x="98.870813" y="243.173554" style="fill: #1f77b4; stroke: #1f77b4"/>
    </g>
    <g clip-path="url(#p88b68e21f7)">
     <use xlink:href="#C0_0_90979fbf4b" x="394.512397" y="243.173554" style="fill: #17becf; stroke: #17becf"/>
    </g>
    <g clip-path="url(#p88b68e21f7)">
     <use xlink:href="#C0_0_90979fbf4b" x="37.487603" y="223.338843" style="fill: #8c564b; stroke: #8c564b"/>
    </g>
    <g clip-path="url(#p88b68e21f7)">
     <use xlink:href="#C0_0_90979fbf4b" x="225.395389" y="243.173554" style="fill: #e377c2; stroke: #e377c2"/>
    </g>
    <g clip-path="url(#p88b68e21f7)">
     <use xlink:href="#C0_0_90979fbf4b" x="338.140061" y="243.173554" style="fill: #bcbd22; stroke: #bcbd22"/>
    </g>
    <g clip-path="url(#p88b68e21f7)">
     <use xlink:href="#C0_0_90979fbf4b" x="281.767725" y="243.173554" style="fill: #bcbd22; stroke: #bcbd22"/>
    </g>
    <g clip-path="url(#p88b68e21f7)">
     <use xlink:href="#C0_0_90979fbf4b" x="281.767725" y="263.008264" style="fill: #bcbd22; stroke: #bcbd22"/>
    </g>
    <g clip-path="url(#p88b68e21f7)">
     <use xlink:href="#C0_0_90979fbf4b" x="98.870813" y="223.338843" style="fill: #1f77b4; stroke: #1f77b4"/>
    </g>
    <g clip-path="url(#p88b68e21f7)">
     <use xlink:href="#C0_0_90979fbf4b" x="286.15224" y="44.826446" style="fill: #ff7f0e; stroke: #ff7f0e"/>
    </g>
    <g clip-path="url(#p88b68e21f7)">
     <use xlink:href="#C0_0_90979fbf4b" x="164.638538" y="223.338843" style="fill: #d62728; stroke: #d62728"/>
    </g>
    <g clip-path="url(#p88b68e21f7)">
     <use xlink:href="#C0_0_90979fbf4b" x="225.395389" y="124.165289" style="fill: #8c564b; stroke: #8c564b"/>
    </g>
    <g clip-path="url(#p88b68e21f7)">
     <use xlink:href="#C0_0_90979fbf4b" x="230.406264" y="223.338843" style="fill: #e377c2; stroke: #e377c2"/>
    </g>
    <g clip-path="url(#p88b68e21f7)">
     <use xlink:href="#C0_0_90979fbf4b" x="294.92127" y="223.338843" style="fill: #bcbd22; stroke: #bcbd22"/>
    </g>
    <g clip-path="url(#p88b68e21f7)">
     <use xlink:href="#C0_0_90979fbf4b" x="376.974337" y="223.338843" style="fill: #17becf; stroke: #17becf"/>
    </g>
   </g>
   <g id="text_1">
    <g clip-path="url(#p88b68e21f7)">
     <!-- root -->
     <g transform="translate(247.252588 26.923298) scale(0.07 -0.07)">
      <defs>
       <path id="DejaVuSans-Bold-72" d="M 3138 2547 
Q 2991 2616 2845 2648 
Q 2700 2681 2553 2681 
Q 2122 2681 1889 2404 
Q 1656 2128 1656 1613 
L 1656 0 
L 538 0 
L 538 3500 
L 1656 3500 
L 1656 2925 
Q 1872 3269 2151 3426 
Q 2431 3584 2822 3584 
Q 2878 3584 2943 3579 
Q 3009 3575 3134 3559 
L 3138 2547 
z
" transform="scale(0.015625)"/>
       <path id="DejaVuSans-Bold-6f" d="M 2203 2784 
Q 1831 2784 1636 2517 
Q 1441 2250 1441 1747 
Q 1441 1244 1636 976 
Q 1831 709 2203 709 
Q 2569 709 2762 976 
Q 2956 1244 2956 1747 
Q 2956 2250 2762 2517 
Q 2569 2784 2203 2784 
z
M 2203 3584 
Q 3106 3584 3614 3096 
Q 4122 2609 4122 1747 
Q 4122 884 3614 396 
Q 3106 -91 2203 -91 
Q 1297 -91 786 396 
Q 275 884 275 1747 
Q 275 2609 786 3096 
Q 1297 3584 2203 3584 
z
" transform="scale(0.015625)"/>
       <path id="DejaVuSans-Bold-74" d="M 1759 4494 
L 1759 3500 
L 2913 3500 
L 2913 2700 
L 1759 2700 
L 1759 1216 
Q 1759 972 1856 886 
Q 1953 800 2241 800 
L 2816 800 
L 2816 0 
L 1856 0 
Q 1194 0 917 276 
Q 641 553 641 1216 
L 641 2700 
L 84 2700 
L 84 3500 
L 641 3500 
L 641 4494 
L 1759 4494 
z
" transform="scale(0.015625)"/>
      </defs>
      <use xlink:href="#DejaVuSans-Bold-72"/>
      <use xlink:href="#DejaVuSans-Bold-6f" transform="translate(49.316406 0)"/>
      <use xlink:href="#DejaVuSans-Bold-6f" transform="translate(118.017578 0)"/>
      <use xlink:href="#DejaVuSans-Bold-74" transform="translate(186.71875 0)"/>
     </g>
    </g>
   </g>
   <g id="text_2">
    <g clip-path="url(#p88b68e21f7)">
     <!-- 0 -->
     <g transform="translate(222.960155 46.758009) scale(0.07 -0.07)">
      <defs>
       <path id="DejaVuSans-Bold-30" d="M 2944 2338 
Q 2944 3213 2780 3570 
Q 2616 3928 2228 3928 
Q 1841 3928 1675 3570 
Q 1509 3213 1509 2338 
Q 1509 1453 1675 1090 
Q 1841 728 2228 728 
Q 2613 728 2778 1090 
Q 2944 1453 2944 2338 
z
M 4147 2328 
Q 4147 1169 3647 539 
Q 3147 -91 2228 -91 
Q 1306 -91 806 539 
Q 306 1169 306 2328 
Q 306 3491 806 4120 
Q 1306 4750 2228 4750 
Q 3147 4750 3647 4120 
Q 4147 3491 4147 2328 
z
" transform="scale(0.015625)"/>
      </defs>
      <use xlink:href="#DejaVuSans-Bold-30"/>
     </g>
    </g>
   </g>
   <g id="text_3">
    <g clip-path="url(#p88b68e21f7)">
     <!-- 7 -->
     <g transform="translate(222.960155 66.59272) scale(0.07 -0.07)">
      <defs>
       <path id="DejaVuSans-Bold-37" d="M 428 4666 
L 3944 4666 
L 3944 3988 
L 2125 0 
L 953 0 
L 2675 3781 
L 428 3781 
L 428 4666 
z
" transform="scale(0.015625)"/>
      </defs>
      <use xlink:href="#DejaVuSans-Bold-37"/>
     </g>
    </g>
   </g>
   <g id="text_4">
    <g clip-path="url(#p88b68e21f7)">
     <!-- 9 -->
     <g transform="translate(222.960155 86.42743) scale(0.07 -0.07)">
      <defs>
       <path id="DejaVuSans-Bold-39" d="M 641 103 
L 641 966 
Q 928 831 1190 764 
Q 1453 697 1709 697 
Q 2247 697 2547 995 
Q 2847 1294 2900 1881 
Q 2688 1725 2447 1647 
Q 2206 1569 1925 1569 
Q 1209 1569 770 1986 
Q 331 2403 331 3084 
Q 331 3838 820 4291 
Q 1309 4744 2131 4744 
Q 3044 4744 3544 4128 
Q 4044 3513 4044 2388 
Q 4044 1231 3459 570 
Q 2875 -91 1856 -91 
Q 1528 -91 1228 -42 
Q 928 6 641 103 
z
M 2125 2350 
Q 2441 2350 2600 2554 
Q 2759 2759 2759 3169 
Q 2759 3575 2600 3781 
Q 2441 3988 2125 3988 
Q 1809 3988 1650 3781 
Q 1491 3575 1491 3169 
Q 1491 2759 1650 2554 
Q 1809 2350 2125 2350 
z
" transform="scale(0.015625)"/>
      </defs>
      <use xlink:href="#DejaVuSans-Bold-39"/>
     </g>
    </g>
   </g>
   <g id="text_5">
    <g clip-path="url(#p88b68e21f7)">
     <!-- 14 -->
     <g transform="translate(220.524921 106.262141) scale(0.07 -0.07)">
      <defs>
       <path id="DejaVuSans-Bold-31" d="M 750 831 
L 1813 831 
L 1813 3847 
L 722 3622 
L 722 4441 
L 1806 4666 
L 2950 4666 
L 2950 831 
L 4013 831 
L 4013 0 
L 750 0 
L 750 831 
z
" transform="scale(0.015625)"/>
       <path id="DejaVuSans-Bold-34" d="M 2356 3675 
L 1038 1722 
L 2356 1722 
L 2356 3675 
z
M 2156 4666 
L 3494 4666 
L 3494 1722 
L 4159 1722 
L 4159 850 
L 3494 850 
L 3494 0 
L 2356 0 
L 2356 850 
L 288 850 
L 288 1881 
L 2156 4666 
z
" transform="scale(0.015625)"/>
      </defs>
      <use xlink:href="#DejaVuSans-Bold-31"/>
      <use xlink:href="#DejaVuSans-Bold-34" transform="translate(69.580078 0)"/>
     </g>
    </g>
   </g>
   <g id="text_6">
    <g clip-path="url(#p88b68e21f7)">
     <!-- 12 -->
     <g transform="translate(248.711088 145.931563) scale(0.07 -0.07)">
      <defs>
       <path id="DejaVuSans-Bold-32" d="M 1844 884 
L 3897 884 
L 3897 0 
L 506 0 
L 506 884 
L 2209 2388 
Q 2438 2594 2547 2791 
Q 2656 2988 2656 3200 
Q 2656 3528 2436 3728 
Q 2216 3928 1850 3928 
Q 1569 3928 1234 3808 
Q 900 3688 519 3450 
L 519 4475 
Q 925 4609 1322 4679 
Q 1719 4750 2100 4750 
Q 2938 4750 3402 4381 
Q 3866 4013 3866 3353 
Q 3866 2972 3669 2642 
Q 3472 2313 2841 1759 
L 1844 884 
z
" transform="scale(0.015625)"/>
      </defs>
      <use xlink:href="#DejaVuSans-Bold-31"/>
      <use xlink:href="#DejaVuSans-Bold-32" transform="translate(69.580078 0)"/>
     </g>
    </g>
   </g>
   <g id="text_7">
    <g clip-path="url(#p88b68e21f7)">
     <!-- 13 -->
     <g transform="translate(192.338753 145.931563) scale(0.07 -0.07)">
      <defs>
       <path id="DejaVuSans-Bold-33" d="M 2981 2516 
Q 3453 2394 3698 2092 
Q 3944 1791 3944 1325 
Q 3944 631 3412 270 
Q 2881 -91 1863 -91 
Q 1503 -91 1142 -33 
Q 781 25 428 141 
L 428 1069 
Q 766 900 1098 814 
Q 1431 728 1753 728 
Q 2231 728 2486 893 
Q 2741 1059 2741 1369 
Q 2741 1688 2480 1852 
Q 2219 2016 1709 2016 
L 1228 2016 
L 1228 2791 
L 1734 2791 
Q 2188 2791 2409 2933 
Q 2631 3075 2631 3366 
Q 2631 3634 2415 3781 
Q 2200 3928 1806 3928 
Q 1516 3928 1219 3862 
Q 922 3797 628 3669 
L 628 4550 
Q 984 4650 1334 4700 
Q 1684 4750 2022 4750 
Q 2931 4750 3382 4451 
Q 3834 4153 3834 3553 
Q 3834 3144 3618 2883 
Q 3403 2622 2981 2516 
z
" transform="scale(0.015625)"/>
      </defs>
      <use xlink:href="#DejaVuSans-Bold-31"/>
      <use xlink:href="#DejaVuSans-Bold-33" transform="translate(69.580078 0)"/>
     </g>
    </g>
   </g>
   <g id="text_8">
    <g clip-path="url(#p88b68e21f7)">
     <!-- 6 -->
     <g transform="translate(194.773987 165.766273) scale(0.07 -0.07)">
      <defs>
       <path id="DejaVuSans-Bold-36" d="M 2316 2303 
Q 2000 2303 1842 2098 
Q 1684 1894 1684 1484 
Q 1684 1075 1842 870 
Q 2000 666 2316 666 
Q 2634 666 2792 870 
Q 2950 1075 2950 1484 
Q 2950 1894 2792 2098 
Q 2634 2303 2316 2303 
z
M 3803 4544 
L 3803 3681 
Q 3506 3822 3243 3889 
Q 2981 3956 2731 3956 
Q 2194 3956 1894 3657 
Q 1594 3359 1544 2772 
Q 1750 2925 1990 3001 
Q 2231 3078 2516 3078 
Q 3231 3078 3670 2659 
Q 4109 2241 4109 1563 
Q 4109 813 3618 361 
Q 3128 -91 2303 -91 
Q 1394 -91 895 523 
Q 397 1138 397 2266 
Q 397 3422 980 4083 
Q 1563 4744 2578 4744 
Q 2900 4744 3203 4694 
Q 3506 4644 3803 4544 
z
" transform="scale(0.015625)"/>
      </defs>
      <use xlink:href="#DejaVuSans-Bold-36"/>
     </g>
    </g>
   </g>
   <g id="text_9">
    <g clip-path="url(#p88b68e21f7)">
     <!-- 16 -->
     <g transform="translate(192.338753 185.600984) scale(0.07 -0.07)">
      <use xlink:href="#DejaVuSans-Bold-31"/>
      <use xlink:href="#DejaVuSans-Bold-36" transform="translate(69.580078 0)"/>
     </g>
    </g>
   </g>
   <g id="text_10">
    <g clip-path="url(#p88b68e21f7)">
     <!-- 5 -->
     <g transform="translate(194.773987 205.435695) scale(0.07 -0.07)">
      <defs>
       <path id="DejaVuSans-Bold-35" d="M 678 4666 
L 3669 4666 
L 3669 3781 
L 1638 3781 
L 1638 3059 
Q 1775 3097 1914 3117 
Q 2053 3138 2203 3138 
Q 3056 3138 3531 2711 
Q 4006 2284 4006 1522 
Q 4006 766 3489 337 
Q 2972 -91 2053 -91 
Q 1656 -91 1267 -14 
Q 878 63 494 219 
L 494 1166 
Q 875 947 1217 837 
Q 1559 728 1863 728 
Q 2300 728 2551 942 
Q 2803 1156 2803 1522 
Q 2803 1891 2551 2103 
Q 2300 2316 1863 2316 
Q 1603 2316 1309 2248 
Q 1016 2181 678 2041 
L 678 4666 
z
" transform="scale(0.015625)"/>
      </defs>
      <use xlink:href="#DejaVuSans-Bold-35"/>
     </g>
    </g>
   </g>
   <g id="text_11">
    <g clip-path="url(#p88b68e21f7)">
     <!-- 1 -->
     <g transform="translate(162.203304 245.105116) scale(0.07 -0.07)">
      <use xlink:href="#DejaVuSans-Bold-31"/>
     </g>
    </g>
   </g>
   <g id="text_12">
    <g clip-path="url(#p88b68e21f7)">
     <!-- 3 -->
     <g transform="translate(96.435579 245.105116) scale(0.07 -0.07)">
      <use xlink:href="#DejaVuSans-Bold-33"/>
     </g>
    </g>
   </g>
   <g id="text_13">
    <g clip-path="url(#p88b68e21f7)">
     <!-- 4 -->
     <g transform="translate(392.077162 245.105116) scale(0.07 -0.07)">
      <use xlink:href="#DejaVuSans-Bold-34"/>
     </g>
    </g>
   </g>
   <g id="text_14">
    <g clip-path="url(#p88b68e21f7)">
     <!-- 8 -->
     <g transform="translate(35.052369 225.270405) scale(0.07 -0.07)">
      <defs>
       <path id="DejaVuSans-Bold-38" d="M 2228 2088 
Q 1891 2088 1709 1903 
Q 1528 1719 1528 1375 
Q 1528 1031 1709 848 
Q 1891 666 2228 666 
Q 2563 666 2741 848 
Q 2919 1031 2919 1375 
Q 2919 1722 2741 1905 
Q 2563 2088 2228 2088 
z
M 1350 2484 
Q 925 2613 709 2878 
Q 494 3144 494 3541 
Q 494 4131 934 4440 
Q 1375 4750 2228 4750 
Q 3075 4750 3515 4442 
Q 3956 4134 3956 3541 
Q 3956 3144 3739 2878 
Q 3522 2613 3097 2484 
Q 3572 2353 3814 2058 
Q 4056 1763 4056 1313 
Q 4056 619 3595 264 
Q 3134 -91 2228 -91 
Q 1319 -91 855 264 
Q 391 619 391 1313 
Q 391 1763 633 2058 
Q 875 2353 1350 2484 
z
M 1631 3419 
Q 1631 3141 1786 2991 
Q 1941 2841 2228 2841 
Q 2509 2841 2662 2991 
Q 2816 3141 2816 3419 
Q 2816 3697 2662 3845 
Q 2509 3994 2228 3994 
Q 1941 3994 1786 3844 
Q 1631 3694 1631 3419 
z
" transform="scale(0.015625)"/>
      </defs>
      <use xlink:href="#DejaVuSans-Bold-38"/>
     </g>
    </g>
   </g>
   <g id="text_15">
    <g clip-path="url(#p88b68e21f7)">
     <!-- 10 -->
     <g transform="translate(220.524921 245.105116) scale(0.07 -0.07)">
      <use xlink:href="#DejaVuSans-Bold-31"/>
      <use xlink:href="#DejaVuSans-Bold-30" transform="translate(69.580078 0)"/>
     </g>
    </g>
   </g>
   <g id="text_16">
    <g clip-path="url(#p88b68e21f7)">
     <!-- 11 -->
     <g transform="translate(333.269592 245.105116) scale(0.07 -0.07)">
      <use xlink:href="#DejaVuSans-Bold-31"/>
      <use xlink:href="#DejaVuSans-Bold-31" transform="translate(69.580078 0)"/>
     </g>
    </g>
   </g>
   <g id="text_17">
    <g clip-path="url(#p88b68e21f7)">
     <!-- 15 -->
     <g transform="translate(276.897256 245.105116) scale(0.07 -0.07)">
      <use xlink:href="#DejaVuSans-Bold-31"/>
      <use xlink:href="#DejaVuSans-Bold-35" transform="translate(69.580078 0)"/>
     </g>
    </g>
   </g>
   <g id="text_18">
    <g clip-path="url(#p88b68e21f7)">
     <!-- 17 -->
     <g transform="translate(276.897256 264.939827) scale(0.07 -0.07)">
      <use xlink:href="#DejaVuSans-Bold-31"/>
      <use xlink:href="#DejaVuSans-Bold-37" transform="translate(69.580078 0)"/>
     </g>
    </g>
   </g>
   <g id="text_19">
    <g clip-path="url(#p88b68e21f7)">
     <!-- CN_A -->
     <g transform="translate(88.914407 225.111265) scale(0.07 -0.07)">
      <defs>
       <path id="DejaVuSans-Bold-43" d="M 4288 256 
Q 3956 84 3597 -3 
Q 3238 -91 2847 -91 
Q 1681 -91 1000 561 
Q 319 1213 319 2328 
Q 319 3447 1000 4098 
Q 1681 4750 2847 4750 
Q 3238 4750 3597 4662 
Q 3956 4575 4288 4403 
L 4288 3438 
Q 3953 3666 3628 3772 
Q 3303 3878 2944 3878 
Q 2300 3878 1931 3465 
Q 1563 3053 1563 2328 
Q 1563 1606 1931 1193 
Q 2300 781 2944 781 
Q 3303 781 3628 887 
Q 3953 994 4288 1222 
L 4288 256 
z
" transform="scale(0.015625)"/>
       <path id="DejaVuSans-Bold-4e" d="M 588 4666 
L 1931 4666 
L 3628 1466 
L 3628 4666 
L 4769 4666 
L 4769 0 
L 3425 0 
L 1728 3200 
L 1728 0 
L 588 0 
L 588 4666 
z
" transform="scale(0.015625)"/>
       <path id="DejaVuSans-Bold-5f" d="M 3200 -916 
L 3200 -1509 
L 0 -1509 
L 0 -916 
L 3200 -916 
z
" transform="scale(0.015625)"/>
       <path id="DejaVuSans-Bold-41" d="M 3419 850 
L 1538 850 
L 1241 0 
L 31 0 
L 1759 4666 
L 3194 4666 
L 4922 0 
L 3713 0 
L 3419 850 
z
M 1838 1716 
L 3116 1716 
L 2478 3572 
L 1838 1716 
z
" transform="scale(0.015625)"/>
      </defs>
      <use xlink:href="#DejaVuSans-Bold-43"/>
      <use xlink:href="#DejaVuSans-Bold-4e" transform="translate(73.388672 0)"/>
      <use xlink:href="#DejaVuSans-Bold-5f" transform="translate(157.080078 0)"/>
      <use xlink:href="#DejaVuSans-Bold-41" transform="translate(207.080078 0)"/>
     </g>
    </g>
   </g>
   <g id="text_20">
    <g clip-path="url(#p88b68e21f7)">
     <!-- CN_B -->
     <g transform="translate(276.236849 46.598868) scale(0.07 -0.07)">
      <defs>
       <path id="DejaVuSans-Bold-42" d="M 2456 2859 
Q 2741 2859 2887 2984 
Q 3034 3109 3034 3353 
Q 3034 3594 2887 3720 
Q 2741 3847 2456 3847 
L 1791 3847 
L 1791 2859 
L 2456 2859 
z
M 2497 819 
Q 2859 819 3042 972 
Q 3225 1125 3225 1434 
Q 3225 1738 3044 1889 
Q 2863 2041 2497 2041 
L 1791 2041 
L 1791 819 
L 2497 819 
z
M 3616 2497 
Q 4003 2384 4215 2081 
Q 4428 1778 4428 1338 
Q 4428 663 3972 331 
Q 3516 0 2584 0 
L 588 0 
L 588 4666 
L 2394 4666 
Q 3366 4666 3802 4372 
Q 4238 4078 4238 3431 
Q 4238 3091 4078 2852 
Q 3919 2613 3616 2497 
z
" transform="scale(0.015625)"/>
      </defs>
      <use xlink:href="#DejaVuSans-Bold-43"/>
      <use xlink:href="#DejaVuSans-Bold-4e" transform="translate(73.388672 0)"/>
      <use xlink:href="#DejaVuSans-Bold-5f" transform="translate(157.080078 0)"/>
      <use xlink:href="#DejaVuSans-Bold-42" transform="translate(207.080078 0)"/>
     </g>
    </g>
   </g>
   <g id="text_21">
    <g clip-path="url(#p88b68e21f7)">
     <!-- CN_C -->
     <g transform="translate(154.822132 225.111265) scale(0.07 -0.07)">
      <use xlink:href="#DejaVuSans-Bold-43"/>
      <use xlink:href="#DejaVuSans-Bold-4e" transform="translate(73.388672 0)"/>
      <use xlink:href="#DejaVuSans-Bold-5f" transform="translate(157.080078 0)"/>
      <use xlink:href="#DejaVuSans-Bold-43" transform="translate(207.080078 0)"/>
     </g>
    </g>
   </g>
   <g id="text_22">
    <g clip-path="url(#p88b68e21f7)">
     <!-- CN_D -->
     <g transform="translate(215.242108 125.937711) scale(0.07 -0.07)">
      <defs>
       <path id="DejaVuSans-Bold-44" d="M 1791 3756 
L 1791 909 
L 2222 909 
Q 2959 909 3348 1275 
Q 3738 1641 3738 2338 
Q 3738 3031 3350 3393 
Q 2963 3756 2222 3756 
L 1791 3756 
z
M 588 4666 
L 1856 4666 
Q 2919 4666 3439 4514 
Q 3959 4363 4331 4000 
Q 4659 3684 4818 3271 
Q 4978 2859 4978 2338 
Q 4978 1809 4818 1395 
Q 4659 981 4331 666 
Q 3956 303 3431 151 
Q 2906 0 1856 0 
L 588 0 
L 588 4666 
z
" transform="scale(0.015625)"/>
      </defs>
      <use xlink:href="#DejaVuSans-Bold-43"/>
      <use xlink:href="#DejaVuSans-Bold-4e" transform="translate(73.388672 0)"/>
      <use xlink:href="#DejaVuSans-Bold-5f" transform="translate(157.080078 0)"/>
      <use xlink:href="#DejaVuSans-Bold-44" transform="translate(207.080078 0)"/>
     </g>
    </g>
   </g>
   <g id="text_23">
    <g clip-path="url(#p88b68e21f7)">
     <!-- CN_H -->
     <g transform="translate(220.229467 225.111265) scale(0.07 -0.07)">
      <defs>
       <path id="DejaVuSans-Bold-48" d="M 588 4666 
L 1791 4666 
L 1791 2888 
L 3566 2888 
L 3566 4666 
L 4769 4666 
L 4769 0 
L 3566 0 
L 3566 1978 
L 1791 1978 
L 1791 0 
L 588 0 
L 588 4666 
z
" transform="scale(0.015625)"/>
      </defs>
      <use xlink:href="#DejaVuSans-Bold-43"/>
      <use xlink:href="#DejaVuSans-Bold-4e" transform="translate(73.388672 0)"/>
      <use xlink:href="#DejaVuSans-Bold-5f" transform="translate(157.080078 0)"/>
      <use xlink:href="#DejaVuSans-Bold-48" transform="translate(207.080078 0)"/>
     </g>
    </g>
   </g>
   <g id="text_24">
    <g clip-path="url(#p88b68e21f7)">
     <!-- CN_J -->
     <g transform="translate(286.371426 225.111265) scale(0.07 -0.07)">
      <defs>
       <path id="DejaVuSans-Bold-4a" d="M 588 4666 
L 1791 4666 
L 1791 453 
Q 1791 -419 1317 -850 
Q 844 -1281 -116 -1281 
L -359 -1281 
L -359 -372 
L -172 -372 
Q 203 -372 395 -162 
Q 588 47 588 453 
L 588 4666 
z
" transform="scale(0.015625)"/>
      </defs>
      <use xlink:href="#DejaVuSans-Bold-43"/>
      <use xlink:href="#DejaVuSans-Bold-4e" transform="translate(73.388672 0)"/>
      <use xlink:href="#DejaVuSans-Bold-5f" transform="translate(157.080078 0)"/>
      <use xlink:href="#DejaVuSans-Bold-4a" transform="translate(207.080078 0)"/>
     </g>
    </g>
   </g>
   <g id="text_25">
    <g clip-path="url(#p88b68e21f7)">
     <!-- CN_K -->
     <g transform="translate(367.014649 225.111265) scale(0.07 -0.07)">
      <defs>
       <path id="DejaVuSans-Bold-4b" d="M 588 4666 
L 1791 4666 
L 1791 2963 
L 3525 4666 
L 4922 4666 
L 2675 2456 
L 5153 0 
L 3647 0 
L 1791 1838 
L 1791 0 
L 588 0 
L 588 4666 
z
" transform="scale(0.015625)"/>
      </defs>
      <use xlink:href="#DejaVuSans-Bold-43"/>
      <use xlink:href="#DejaVuSans-Bold-4e" transform="translate(73.388672 0)"/>
      <use xlink:href="#DejaVuSans-Bold-5f" transform="translate(157.080078 0)"/>
      <use xlink:href="#DejaVuSans-Bold-4b" transform="translate(207.080078 0)"/>
     </g>
    </g>
   </g>
  </g>
 </g>
 <defs>
  <clipPath id="p88b68e21f7">
   <rect x="0" y="0" width="432" height="288"/>
  </clipPath>
 </defs>
</svg>
