<?xml version="1.0" encoding="utf-8" standalone="no"?>
<!DOCTYPE svg PUBLIC "-//W3C//DTD SVG 1.1//EN"
  "http://www.w3.org/Graphics/SVG/1.1/DTD/svg11.dtd">
<svg xmlns:xlink="http://www.w3.org/1999/xlink" width="432pt" height="288pt" viewBox="0 0 432 288" xmlns="http://www.w3.org/2000/svg" version="1.1">
 <metadata>
  <rdf:RDF xmlns:dc="http://purl.org/dc/elements/1.1/" xmlns:cc="http://creativecommons.org/ns#" xmlns:rdf="http://www.w3.org/1999/02/22-rdf-syntax-ns#">
   <cc:Work>
    <dc:type rdf:resource="http://purl.org/dc/dcmitype/StillImage"/>
    <dc:date>2025-11-05T14:44:54.953744</dc:date>
    <dc:format>image/svg+xml</dc:format>
    <dc:creator>
     <cc:Agent>
      <dc:title>Matplotlib v3.10.6, https://matplotlib.org/</dc:title>
     </cc:Agent>
    </dc:creator>
   </cc:Work>
  </rdf:RDF>
 </metadata>
 <defs>
  <style type="text/css">*{stroke-linejoin: round; stroke-linecap: butt}</style>
 </defs>
 <g id="figure_1">
  <g id="patch_1">
   <path d="M 0 288 
L 432 288 
L 432 0 
L 0 0 
z
" style="fill: #ffffff"/>
  </g>
  <g id="axes_1">
   <g id="patch_2">
    <path d="M 323.9884 40.800749 
Q 323.9884 46.119383 323.9884 49.760966 
" clip-path="url(#p80ea70c817)" style="fill: none; stroke: #555555; stroke-width: 1.5; stroke-linecap: round"/>
    <path d="M 325.9884 45.760966 
L 323.9884 49.760966 
L 321.9884 45.760966 
z
" clip-path="url(#p80ea70c817)" style="fill: #555555; stroke: #555555; stroke-width: 1.5; stroke-linecap: round"/>
   </g>
   <g id="patch_3">
    <path d="M 309.18542 56.989088 
Q 288.72706 64.66091 269.838973 71.743885 
" clip-path="url(#p80ea70c817)" style="fill: none; stroke: #555555; stroke-width: 1.5; stroke-linecap: round"/>
    <path d="M 274.286535 72.212061 
L 269.838973 71.743885 
L 272.882052 68.466741 
z
" clip-path="url(#p80ea70c817)" style="fill: #555555; stroke: #555555; stroke-width: 1.5; stroke-linecap: round"/>
   </g>
   <g id="patch_4">
    <path d="M 338.79138 56.989088 
Q 359.24974 64.66091 378.137827 71.743885 
" clip-path="url(#p80ea70c817)" style="fill: none; stroke: #555555; stroke-width: 1.5; stroke-linecap: round"/>
    <path d="M 375.094749 68.466741 
L 378.137827 71.743885 
L 373.690265 72.212061 
z
" clip-path="url(#p80ea70c817)" style="fill: #555555; stroke: #555555; stroke-width: 1.5; stroke-linecap: round"/>
   </g>
   <g id="patch_5">
    <path d="M 238.700074 83.538675 
Q 218.939277 91.106578 200.744607 98.074692 
" clip-path="url(#p80ea70c817)" style="fill: none; stroke: #555555; stroke-width: 1.5; stroke-linecap: round"/>
    <path d="M 205.195327 98.511829 
L 200.744607 98.074692 
L 203.764748 94.776398 
z
" clip-path="url(#p80ea70c817)" style="fill: #555555; stroke: #555555; stroke-width: 1.5; stroke-linecap: round"/>
   </g>
   <g id="patch_6">
    <path d="M 268.267384 83.435369 
Q 288.725744 91.107191 307.613831 98.190166 
" clip-path="url(#p80ea70c817)" style="fill: none; stroke: #555555; stroke-width: 1.5; stroke-linecap: round"/>
    <path d="M 304.570752 94.913022 
L 307.613831 98.190166 
L 303.166269 98.658342 
z
" clip-path="url(#p80ea70c817)" style="fill: #555555; stroke: #555555; stroke-width: 1.5; stroke-linecap: round"/>
   </g>
   <g id="patch_7">
    <path d="M 169.464847 109.503939 
Q 146.207959 117.554643 124.535855 125.056752 
" clip-path="url(#p80ea70c817)" style="fill: none; stroke: #555555; stroke-width: 1.5; stroke-linecap: round"/>
    <path d="M 128.970026 125.638241 
L 124.535855 125.056752 
L 127.661548 121.858308 
z
" clip-path="url(#p80ea70c817)" style="fill: #555555; stroke: #555555; stroke-width: 1.5; stroke-linecap: round"/>
   </g>
   <g id="patch_8">
    <path d="M 199.383425 109.415967 
Q 223.347736 117.554723 245.724076 125.154172 
" clip-path="url(#p80ea70c817)" style="fill: none; stroke: #555555; stroke-width: 1.5; stroke-linecap: round"/>
    <path d="M 242.579707 121.974087 
L 245.724076 125.154172 
L 241.293387 125.761617 
z
" clip-path="url(#p80ea70c817)" style="fill: #555555; stroke: #555555; stroke-width: 1.5; stroke-linecap: round"/>
   </g>
   <g id="patch_9">
    <path d="M 247.476923 162.774212 
Q 227.018563 170.446034 208.130476 177.529009 
" clip-path="url(#p80ea70c817)" style="fill: none; stroke: #555555; stroke-width: 1.5; stroke-linecap: round"/>
    <path d="M 212.578039 177.997185 
L 208.130476 177.529009 
L 211.173555 174.251865 
z
" clip-path="url(#p80ea70c817)" style="fill: #555555; stroke: #555555; stroke-width: 1.5; stroke-linecap: round"/>
   </g>
   <g id="patch_10">
    <path d="M 277.118843 162.674135 
Q 298.274379 170.445492 317.855715 177.638577 
" clip-path="url(#p80ea70c817)" style="fill: none; stroke: #555555; stroke-width: 1.5; stroke-linecap: round"/>
    <path d="M 314.790663 174.381976 
L 317.855715 177.638577 
L 313.411403 178.136658 
z
" clip-path="url(#p80ea70c817)" style="fill: #555555; stroke: #555555; stroke-width: 1.5; stroke-linecap: round"/>
   </g>
   <g id="patch_11">
    <path d="M 176.205437 186.525665 
Q 119.763157 196.892741 64.970335 206.956851 
" clip-path="url(#p80ea70c817)" style="fill: none; stroke: #555555; stroke-width: 1.5; stroke-linecap: round"/>
    <path d="M 69.26583 208.20133 
L 64.970335 206.956851 
L 68.543215 204.267143 
z
" clip-path="url(#p80ea70c817)" style="fill: #555555; stroke: #555555; stroke-width: 1.5; stroke-linecap: round"/>
   </g>
   <g id="patch_12">
    <path d="M 191.755907 199.478435 
Q 191.755907 204.797069 191.755907 208.438651 
" clip-path="url(#p80ea70c817)" style="fill: none; stroke: #555555; stroke-width: 1.5; stroke-linecap: round"/>
    <path d="M 193.755907 204.438651 
L 191.755907 208.438651 
L 189.755907 204.438651 
z
" clip-path="url(#p80ea70c817)" style="fill: #555555; stroke: #555555; stroke-width: 1.5; stroke-linecap: round"/>
   </g>
   <g id="patch_13">
    <path d="M 207.328575 186.417517 
Q 266.689398 196.89287 324.398688 207.076778 
" clip-path="url(#p80ea70c817)" style="fill: none; stroke: #555555; stroke-width: 1.5; stroke-linecap: round"/>
    <path d="M 320.807121 204.412075 
L 324.398688 207.076778 
L 320.111985 208.35121 
z
" clip-path="url(#p80ea70c817)" style="fill: #555555; stroke: #555555; stroke-width: 1.5; stroke-linecap: round"/>
   </g>
   <g id="patch_14">
    <path d="M 47.772353 225.924716 
Q 47.772353 231.24335 47.772353 234.884932 
" clip-path="url(#p80ea70c817)" style="fill: none; stroke: #555555; stroke-width: 1.5; stroke-linecap: round"/>
    <path d="M 49.772353 230.884932 
L 47.772353 234.884932 
L 45.772353 230.884932 
z
" clip-path="url(#p80ea70c817)" style="fill: #555555; stroke: #555555; stroke-width: 1.5; stroke-linecap: round"/>
   </g>
   <g id="patch_15">
    <path d="M 176.168067 239.234214 
Q 114.621416 249.785182 54.727704 260.052787 
" clip-path="url(#p80ea70c817)" style="fill: none; stroke: #555555; stroke-width: 1.5; stroke-linecap: round"/>
    <path d="M 59.008123 261.348168 
L 54.727704 260.052787 
L 58.332261 257.40568 
z
" clip-path="url(#p80ea70c817)" style="fill: #555555; stroke: #555555; stroke-width: 1.5; stroke-linecap: round"/>
   </g>
   <g id="patch_16">
    <path d="M 191.755907 252.370997 
Q 191.755907 257.689631 191.755907 261.331213 
" clip-path="url(#p80ea70c817)" style="fill: none; stroke: #555555; stroke-width: 1.5; stroke-linecap: round"/>
    <path d="M 193.755907 257.331213 
L 191.755907 261.331213 
L 189.755907 257.331213 
z
" clip-path="url(#p80ea70c817)" style="fill: #555555; stroke: #555555; stroke-width: 1.5; stroke-linecap: round"/>
   </g>
   <g id="patch_17">
    <path d="M 207.340412 239.208387 
Q 269.62317 249.784617 330.252545 260.080087 
" clip-path="url(#p80ea70c817)" style="fill: none; stroke: #555555; stroke-width: 1.5; stroke-linecap: round"/>
    <path d="M 326.643825 257.43866 
L 330.252545 260.080087 
L 325.974171 261.382207 
z
" clip-path="url(#p80ea70c817)" style="fill: #555555; stroke: #555555; stroke-width: 1.5; stroke-linecap: round"/>
   </g>
   <g id="patch_18">
    <path d="M 262.279903 146.585873 
Q 262.279903 151.904507 262.279903 155.54609 
" clip-path="url(#p80ea70c817)" style="fill: none; stroke: #555555; stroke-width: 1.5; stroke-linecap: round"/>
    <path d="M 264.279903 151.54609 
L 262.279903 155.54609 
L 260.279903 151.54609 
z
" clip-path="url(#p80ea70c817)" style="fill: #555555; stroke: #555555; stroke-width: 1.5; stroke-linecap: round"/>
   </g>
   <g id="patch_19">
    <path d="M 207.264009 213.217297 
Q 257.873194 223.339051 306.837896 233.131911 
" clip-path="url(#p80ea70c817)" style="fill: none; stroke: #555555; stroke-width: 1.5; stroke-linecap: round"/>
    <path d="M 303.307801 230.38629 
L 306.837896 233.131911 
L 302.523342 234.308614 
z
" clip-path="url(#p80ea70c817)" style="fill: #555555; stroke: #555555; stroke-width: 1.5; stroke-linecap: round"/>
   </g>
   <g id="patch_20">
    <path d="M 191.755907 225.924716 
Q 191.755907 231.24335 191.755907 234.884932 
" clip-path="url(#p80ea70c817)" style="fill: none; stroke: #555555; stroke-width: 1.5; stroke-linecap: round"/>
    <path d="M 193.755907 230.884932 
L 191.755907 234.884932 
L 189.755907 230.884932 
z
" clip-path="url(#p80ea70c817)" style="fill: #555555; stroke: #555555; stroke-width: 1.5; stroke-linecap: round"/>
   </g>
   <g id="PathCollection_1">
    <defs>
     <path id="C0_0_c634834b8b" d="M 0 15.811388 
C 4.193229 15.811388 8.215279 14.145401 11.18034 11.18034 
C 14.145401 8.215279 15.811388 4.193229 15.811388 -0 
C 15.811388 -4.193229 14.145401 -8.215279 11.18034 -11.18034 
C 8.215279 -14.145401 4.193229 -15.811388 0 -15.811388 
C -4.193229 -15.811388 -8.215279 -14.145401 -11.18034 -11.18034 
C -14.145401 -8.215279 -15.811388 -4.193229 -15.811388 0 
C -15.811388 4.193229 -14.145401 8.215279 -11.18034 11.18034 
C -8.215279 14.145401 -4.193229 15.811388 0 15.811388 
z
"/>
    </defs>
    <g clip-path="url(#p80ea70c817)">
     <use xlink:href="#C0_0_c634834b8b" x="323.9884" y="24.991736" style="fill: #cccccc; stroke: #cccccc"/>
    </g>
    <g clip-path="url(#p80ea70c817)">
     <use xlink:href="#C0_0_c634834b8b" x="323.9884" y="51.438017" style="fill: #cccccc; stroke: #cccccc"/>
    </g>
    <g clip-path="url(#p80ea70c817)">
     <use xlink:href="#C0_0_c634834b8b" x="253.464404" y="77.884298" style="fill: #cccccc; stroke: #cccccc"/>
    </g>
    <g clip-path="url(#p80ea70c817)">
     <use xlink:href="#C0_0_c634834b8b" x="184.409657" y="104.330579" style="fill: #cccccc; stroke: #cccccc"/>
    </g>
    <g clip-path="url(#p80ea70c817)">
     <use xlink:href="#C0_0_c634834b8b" x="262.279903" y="157.22314" style="fill: #2ca02c; stroke: #2ca02c"/>
    </g>
    <g clip-path="url(#p80ea70c817)">
     <use xlink:href="#C0_0_c634834b8b" x="191.755907" y="183.669421" style="fill: #2ca02c; stroke: #2ca02c"/>
    </g>
    <g clip-path="url(#p80ea70c817)">
     <use xlink:href="#C0_0_c634834b8b" x="47.772353" y="210.115702" style="fill: #2ca02c; stroke: #2ca02c"/>
    </g>
    <g clip-path="url(#p80ea70c817)">
     <use xlink:href="#C0_0_c634834b8b" x="323.9884" y="236.561983" style="fill: #d62728; stroke: #d62728"/>
    </g>
    <g clip-path="url(#p80ea70c817)">
     <use xlink:href="#C0_0_c634834b8b" x="191.755907" y="236.561983" style="fill: #d62728; stroke: #d62728"/>
    </g>
    <g clip-path="url(#p80ea70c817)">
     <use xlink:href="#C0_0_c634834b8b" x="108.0116" y="130.77686" style="fill: #1f77b4; stroke: #1f77b4"/>
    </g>
    <g clip-path="url(#p80ea70c817)">
     <use xlink:href="#C0_0_c634834b8b" x="37.487603" y="263.008264" style="fill: #ff7f0e; stroke: #ff7f0e"/>
    </g>
    <g clip-path="url(#p80ea70c817)">
     <use xlink:href="#C0_0_c634834b8b" x="262.279903" y="130.77686" style="fill: #2ca02c; stroke: #2ca02c"/>
    </g>
    <g clip-path="url(#p80ea70c817)">
     <use xlink:href="#C0_0_c634834b8b" x="191.755907" y="210.115702" style="fill: #d62728; stroke: #d62728"/>
    </g>
    <g clip-path="url(#p80ea70c817)">
     <use xlink:href="#C0_0_c634834b8b" x="334.27315" y="183.669421" style="fill: #9467bd; stroke: #9467bd"/>
    </g>
    <g clip-path="url(#p80ea70c817)">
     <use xlink:href="#C0_0_c634834b8b" x="394.512397" y="77.884298" style="fill: #8c564b; stroke: #8c564b"/>
    </g>
    <g clip-path="url(#p80ea70c817)">
     <use xlink:href="#C0_0_c634834b8b" x="191.755907" y="263.008264" style="fill: #e377c2; stroke: #e377c2"/>
    </g>
    <g clip-path="url(#p80ea70c817)">
     <use xlink:href="#C0_0_c634834b8b" x="347.496399" y="263.008264" style="fill: #7f7f7f; stroke: #7f7f7f"/>
    </g>
    <g clip-path="url(#p80ea70c817)">
     <use xlink:href="#C0_0_c634834b8b" x="341.619399" y="210.115702" style="fill: #bcbd22; stroke: #bcbd22"/>
    </g>
    <g clip-path="url(#p80ea70c817)">
     <use xlink:href="#C0_0_c634834b8b" x="323.9884" y="104.330579" style="fill: #17becf; stroke: #17becf"/>
    </g>
    <g clip-path="url(#p80ea70c817)">
     <use xlink:href="#C0_0_c634834b8b" x="47.772353" y="236.561983" style="fill: #17becf; stroke: #17becf"/>
    </g>
   </g>
   <g id="text_1">
    <g clip-path="url(#p80ea70c817)">
     <!-- root -->
     <g transform="translate(315.780353 26.923298) scale(0.07 -0.07)">
      <defs>
       <path id="DejaVuSans-Bold-72" d="M 3138 2547 
Q 2991 2616 2845 2648 
Q 2700 2681 2553 2681 
Q 2122 2681 1889 2404 
Q 1656 2128 1656 1613 
L 1656 0 
L 538 0 
L 538 3500 
L 1656 3500 
L 1656 2925 
Q 1872 3269 2151 3426 
Q 2431 3584 2822 3584 
Q 2878 3584 2943 3579 
Q 3009 3575 3134 3559 
L 3138 2547 
z
" transform="scale(0.015625)"/>
       <path id="DejaVuSans-Bold-6f" d="M 2203 2784 
Q 1831 2784 1636 2517 
Q 1441 2250 1441 1747 
Q 1441 1244 1636 976 
Q 1831 709 2203 709 
Q 2569 709 2762 976 
Q 2956 1244 2956 1747 
Q 2956 2250 2762 2517 
Q 2569 2784 2203 2784 
z
M 2203 3584 
Q 3106 3584 3614 3096 
Q 4122 2609 4122 1747 
Q 4122 884 3614 396 
Q 3106 -91 2203 -91 
Q 1297 -91 786 396 
Q 275 884 275 1747 
Q 275 2609 786 3096 
Q 1297 3584 2203 3584 
z
" transform="scale(0.015625)"/>
       <path id="DejaVuSans-Bold-74" d="M 1759 4494 
L 1759 3500 
L 2913 3500 
L 2913 2700 
L 1759 2700 
L 1759 1216 
Q 1759 972 1856 886 
Q 1953 800 2241 800 
L 2816 800 
L 2816 0 
L 1856 0 
Q 1194 0 917 276 
Q 641 553 641 1216 
L 641 2700 
L 84 2700 
L 84 3500 
L 641 3500 
L 641 4494 
L 1759 4494 
z
" transform="scale(0.015625)"/>
      </defs>
      <use xlink:href="#DejaVuSans-Bold-72"/>
      <use xlink:href="#DejaVuSans-Bold-6f" transform="translate(49.316406 0)"/>
      <use xlink:href="#DejaVuSans-Bold-6f" transform="translate(118.017578 0)"/>
      <use xlink:href="#DejaVuSans-Bold-74" transform="translate(186.71875 0)"/>
     </g>
    </g>
   </g>
   <g id="text_2">
    <g clip-path="url(#p80ea70c817)">
     <!-- 5 -->
     <g transform="translate(321.553166 53.369579) scale(0.07 -0.07)">
      <defs>
       <path id="DejaVuSans-Bold-35" d="M 678 4666 
L 3669 4666 
L 3669 3781 
L 1638 3781 
L 1638 3059 
Q 1775 3097 1914 3117 
Q 2053 3138 2203 3138 
Q 3056 3138 3531 2711 
Q 4006 2284 4006 1522 
Q 4006 766 3489 337 
Q 2972 -91 2053 -91 
Q 1656 -91 1267 -14 
Q 878 63 494 219 
L 494 1166 
Q 875 947 1217 837 
Q 1559 728 1863 728 
Q 2300 728 2551 942 
Q 2803 1156 2803 1522 
Q 2803 1891 2551 2103 
Q 2300 2316 1863 2316 
Q 1603 2316 1309 2248 
Q 1016 2181 678 2041 
L 678 4666 
z
" transform="scale(0.015625)"/>
      </defs>
      <use xlink:href="#DejaVuSans-Bold-35"/>
     </g>
    </g>
   </g>
   <g id="text_3">
    <g clip-path="url(#p80ea70c817)">
     <!-- 3 -->
     <g transform="translate(251.029169 79.81586) scale(0.07 -0.07)">
      <defs>
       <path id="DejaVuSans-Bold-33" d="M 2981 2516 
Q 3453 2394 3698 2092 
Q 3944 1791 3944 1325 
Q 3944 631 3412 270 
Q 2881 -91 1863 -91 
Q 1503 -91 1142 -33 
Q 781 25 428 141 
L 428 1069 
Q 766 900 1098 814 
Q 1431 728 1753 728 
Q 2231 728 2486 893 
Q 2741 1059 2741 1369 
Q 2741 1688 2480 1852 
Q 2219 2016 1709 2016 
L 1228 2016 
L 1228 2791 
L 1734 2791 
Q 2188 2791 2409 2933 
Q 2631 3075 2631 3366 
Q 2631 3634 2415 3781 
Q 2200 3928 1806 3928 
Q 1516 3928 1219 3862 
Q 922 3797 628 3669 
L 628 4550 
Q 984 4650 1334 4700 
Q 1684 4750 2022 4750 
Q 2931 4750 3382 4451 
Q 3834 4153 3834 3553 
Q 3834 3144 3618 2883 
Q 3403 2622 2981 2516 
z
" transform="scale(0.015625)"/>
      </defs>
      <use xlink:href="#DejaVuSans-Bold-33"/>
     </g>
    </g>
   </g>
   <g id="text_4">
    <g clip-path="url(#p80ea70c817)">
     <!-- 1 -->
     <g transform="translate(181.974423 106.262141) scale(0.07 -0.07)">
      <defs>
       <path id="DejaVuSans-Bold-31" d="M 750 831 
L 1813 831 
L 1813 3847 
L 722 3622 
L 722 4441 
L 1806 4666 
L 2950 4666 
L 2950 831 
L 4013 831 
L 4013 0 
L 750 0 
L 750 831 
z
" transform="scale(0.015625)"/>
      </defs>
      <use xlink:href="#DejaVuSans-Bold-31"/>
     </g>
    </g>
   </g>
   <g id="text_5">
    <g clip-path="url(#p80ea70c817)">
     <!-- 4 -->
     <g transform="translate(259.844669 159.154703) scale(0.07 -0.07)">
      <defs>
       <path id="DejaVuSans-Bold-34" d="M 2356 3675 
L 1038 1722 
L 2356 1722 
L 2356 3675 
z
M 2156 4666 
L 3494 4666 
L 3494 1722 
L 4159 1722 
L 4159 850 
L 3494 850 
L 3494 0 
L 2356 0 
L 2356 850 
L 288 850 
L 288 1881 
L 2156 4666 
z
" transform="scale(0.015625)"/>
      </defs>
      <use xlink:href="#DejaVuSans-Bold-34"/>
     </g>
    </g>
   </g>
   <g id="text_6">
    <g clip-path="url(#p80ea70c817)">
     <!-- 14 -->
     <g transform="translate(186.885438 185.600984) scale(0.07 -0.07)">
      <use xlink:href="#DejaVuSans-Bold-31"/>
      <use xlink:href="#DejaVuSans-Bold-34" transform="translate(69.580078 0)"/>
     </g>
    </g>
   </g>
   <g id="text_7">
    <g clip-path="url(#p80ea70c817)">
     <!-- 2 -->
     <g transform="translate(45.337118 212.047265) scale(0.07 -0.07)">
      <defs>
       <path id="DejaVuSans-Bold-32" d="M 1844 884 
L 3897 884 
L 3897 0 
L 506 0 
L 506 884 
L 2209 2388 
Q 2438 2594 2547 2791 
Q 2656 2988 2656 3200 
Q 2656 3528 2436 3728 
Q 2216 3928 1850 3928 
Q 1569 3928 1234 3808 
Q 900 3688 519 3450 
L 519 4475 
Q 925 4609 1322 4679 
Q 1719 4750 2100 4750 
Q 2938 4750 3402 4381 
Q 3866 4013 3866 3353 
Q 3866 2972 3669 2642 
Q 3472 2313 2841 1759 
L 1844 884 
z
" transform="scale(0.015625)"/>
      </defs>
      <use xlink:href="#DejaVuSans-Bold-32"/>
     </g>
    </g>
   </g>
   <g id="text_8">
    <g clip-path="url(#p80ea70c817)">
     <!-- 7 -->
     <g transform="translate(321.553166 238.493546) scale(0.07 -0.07)">
      <defs>
       <path id="DejaVuSans-Bold-37" d="M 428 4666 
L 3944 4666 
L 3944 3988 
L 2125 0 
L 953 0 
L 2675 3781 
L 428 3781 
L 428 4666 
z
" transform="scale(0.015625)"/>
      </defs>
      <use xlink:href="#DejaVuSans-Bold-37"/>
     </g>
    </g>
   </g>
   <g id="text_9">
    <g clip-path="url(#p80ea70c817)">
     <!-- 15 -->
     <g transform="translate(186.885438 238.493546) scale(0.07 -0.07)">
      <use xlink:href="#DejaVuSans-Bold-31"/>
      <use xlink:href="#DejaVuSans-Bold-35" transform="translate(69.580078 0)"/>
     </g>
    </g>
   </g>
   <g id="text_10">
    <g clip-path="url(#p80ea70c817)">
     <!-- CN_A -->
     <g transform="translate(98.055193 132.549281) scale(0.07 -0.07)">
      <defs>
       <path id="DejaVuSans-Bold-43" d="M 4288 256 
Q 3956 84 3597 -3 
Q 3238 -91 2847 -91 
Q 1681 -91 1000 561 
Q 319 1213 319 2328 
Q 319 3447 1000 4098 
Q 1681 4750 2847 4750 
Q 3238 4750 3597 4662 
Q 3956 4575 4288 4403 
L 4288 3438 
Q 3953 3666 3628 3772 
Q 3303 3878 2944 3878 
Q 2300 3878 1931 3465 
Q 1563 3053 1563 2328 
Q 1563 1606 1931 1193 
Q 2300 781 2944 781 
Q 3303 781 3628 887 
Q 3953 994 4288 1222 
L 4288 256 
z
" transform="scale(0.015625)"/>
       <path id="DejaVuSans-Bold-4e" d="M 588 4666 
L 1931 4666 
L 3628 1466 
L 3628 4666 
L 4769 4666 
L 4769 0 
L 3425 0 
L 1728 3200 
L 1728 0 
L 588 0 
L 588 4666 
z
" transform="scale(0.015625)"/>
       <path id="DejaVuSans-Bold-5f" d="M 3200 -916 
L 3200 -1509 
L 0 -1509 
L 0 -916 
L 3200 -916 
z
" transform="scale(0.015625)"/>
       <path id="DejaVuSans-Bold-41" d="M 3419 850 
L 1538 850 
L 1241 0 
L 31 0 
L 1759 4666 
L 3194 4666 
L 4922 0 
L 3713 0 
L 3419 850 
z
M 1838 1716 
L 3116 1716 
L 2478 3572 
L 1838 1716 
z
" transform="scale(0.015625)"/>
      </defs>
      <use xlink:href="#DejaVuSans-Bold-43"/>
      <use xlink:href="#DejaVuSans-Bold-4e" transform="translate(73.388672 0)"/>
      <use xlink:href="#DejaVuSans-Bold-5f" transform="translate(157.080078 0)"/>
      <use xlink:href="#DejaVuSans-Bold-41" transform="translate(207.080078 0)"/>
     </g>
    </g>
   </g>
   <g id="text_11">
    <g clip-path="url(#p80ea70c817)">
     <!-- CN_B -->
     <g transform="translate(27.572213 264.780686) scale(0.07 -0.07)">
      <defs>
       <path id="DejaVuSans-Bold-42" d="M 2456 2859 
Q 2741 2859 2887 2984 
Q 3034 3109 3034 3353 
Q 3034 3594 2887 3720 
Q 2741 3847 2456 3847 
L 1791 3847 
L 1791 2859 
L 2456 2859 
z
M 2497 819 
Q 2859 819 3042 972 
Q 3225 1125 3225 1434 
Q 3225 1738 3044 1889 
Q 2863 2041 2497 2041 
L 1791 2041 
L 1791 819 
L 2497 819 
z
M 3616 2497 
Q 4003 2384 4215 2081 
Q 4428 1778 4428 1338 
Q 4428 663 3972 331 
Q 3516 0 2584 0 
L 588 0 
L 588 4666 
L 2394 4666 
Q 3366 4666 3802 4372 
Q 4238 4078 4238 3431 
Q 4238 3091 4078 2852 
Q 3919 2613 3616 2497 
z
" transform="scale(0.015625)"/>
      </defs>
      <use xlink:href="#DejaVuSans-Bold-43"/>
      <use xlink:href="#DejaVuSans-Bold-4e" transform="translate(73.388672 0)"/>
      <use xlink:href="#DejaVuSans-Bold-5f" transform="translate(157.080078 0)"/>
      <use xlink:href="#DejaVuSans-Bold-42" transform="translate(207.080078 0)"/>
     </g>
    </g>
   </g>
   <g id="text_12">
    <g clip-path="url(#p80ea70c817)">
     <!-- CN_C -->
     <g transform="translate(252.463497 132.549281) scale(0.07 -0.07)">
      <use xlink:href="#DejaVuSans-Bold-43"/>
      <use xlink:href="#DejaVuSans-Bold-4e" transform="translate(73.388672 0)"/>
      <use xlink:href="#DejaVuSans-Bold-5f" transform="translate(157.080078 0)"/>
      <use xlink:href="#DejaVuSans-Bold-43" transform="translate(207.080078 0)"/>
     </g>
    </g>
   </g>
   <g id="text_13">
    <g clip-path="url(#p80ea70c817)">
     <!-- CN_D -->
     <g transform="translate(181.602626 211.888124) scale(0.07 -0.07)">
      <defs>
       <path id="DejaVuSans-Bold-44" d="M 1791 3756 
L 1791 909 
L 2222 909 
Q 2959 909 3348 1275 
Q 3738 1641 3738 2338 
Q 3738 3031 3350 3393 
Q 2963 3756 2222 3756 
L 1791 3756 
z
M 588 4666 
L 1856 4666 
Q 2919 4666 3439 4514 
Q 3959 4363 4331 4000 
Q 4659 3684 4818 3271 
Q 4978 2859 4978 2338 
Q 4978 1809 4818 1395 
Q 4659 981 4331 666 
Q 3956 303 3431 151 
Q 2906 0 1856 0 
L 588 0 
L 588 4666 
z
" transform="scale(0.015625)"/>
      </defs>
      <use xlink:href="#DejaVuSans-Bold-43"/>
      <use xlink:href="#DejaVuSans-Bold-4e" transform="translate(73.388672 0)"/>
      <use xlink:href="#DejaVuSans-Bold-5f" transform="translate(157.080078 0)"/>
      <use xlink:href="#DejaVuSans-Bold-44" transform="translate(207.080078 0)"/>
     </g>
    </g>
   </g>
   <g id="text_14">
    <g clip-path="url(#p80ea70c817)">
     <!-- CN_E -->
     <g transform="translate(324.634478 185.441843) scale(0.07 -0.07)">
      <defs>
       <path id="DejaVuSans-Bold-45" d="M 588 4666 
L 3834 4666 
L 3834 3756 
L 1791 3756 
L 1791 2888 
L 3713 2888 
L 3713 1978 
L 1791 1978 
L 1791 909 
L 3903 909 
L 3903 0 
L 588 0 
L 588 4666 
z
" transform="scale(0.015625)"/>
      </defs>
      <use xlink:href="#DejaVuSans-Bold-43"/>
      <use xlink:href="#DejaVuSans-Bold-4e" transform="translate(73.388672 0)"/>
      <use xlink:href="#DejaVuSans-Bold-5f" transform="translate(157.080078 0)"/>
      <use xlink:href="#DejaVuSans-Bold-45" transform="translate(207.080078 0)"/>
     </g>
    </g>
   </g>
   <g id="text_15">
    <g clip-path="url(#p80ea70c817)">
     <!-- CN_F -->
     <g transform="translate(384.873725 79.656719) scale(0.07 -0.07)">
      <defs>
       <path id="DejaVuSans-Bold-46" d="M 588 4666 
L 3834 4666 
L 3834 3756 
L 1791 3756 
L 1791 2888 
L 3713 2888 
L 3713 1978 
L 1791 1978 
L 1791 0 
L 588 0 
L 588 4666 
z
" transform="scale(0.015625)"/>
      </defs>
      <use xlink:href="#DejaVuSans-Bold-43"/>
      <use xlink:href="#DejaVuSans-Bold-4e" transform="translate(73.388672 0)"/>
      <use xlink:href="#DejaVuSans-Bold-5f" transform="translate(157.080078 0)"/>
      <use xlink:href="#DejaVuSans-Bold-46" transform="translate(207.080078 0)"/>
     </g>
    </g>
   </g>
   <g id="text_16">
    <g clip-path="url(#p80ea70c817)">
     <!-- CN_G -->
     <g transform="translate(181.635438 264.780686) scale(0.07 -0.07)">
      <defs>
       <path id="DejaVuSans-Bold-47" d="M 4781 347 
Q 4331 128 3847 18 
Q 3363 -91 2847 -91 
Q 1681 -91 1000 561 
Q 319 1213 319 2328 
Q 319 3456 1012 4103 
Q 1706 4750 2913 4750 
Q 3378 4750 3804 4662 
Q 4231 4575 4609 4403 
L 4609 3438 
Q 4219 3659 3833 3768 
Q 3447 3878 3059 3878 
Q 2341 3878 1952 3476 
Q 1563 3075 1563 2328 
Q 1563 1588 1938 1184 
Q 2313 781 3003 781 
Q 3191 781 3352 804 
Q 3513 828 3641 878 
L 3641 1784 
L 2906 1784 
L 2906 2591 
L 4781 2591 
L 4781 347 
z
" transform="scale(0.015625)"/>
      </defs>
      <use xlink:href="#DejaVuSans-Bold-43"/>
      <use xlink:href="#DejaVuSans-Bold-4e" transform="translate(73.388672 0)"/>
      <use xlink:href="#DejaVuSans-Bold-5f" transform="translate(157.080078 0)"/>
      <use xlink:href="#DejaVuSans-Bold-47" transform="translate(207.080078 0)"/>
     </g>
    </g>
   </g>
   <g id="text_17">
    <g clip-path="url(#p80ea70c817)">
     <!-- CN_H -->
     <g transform="translate(337.319602 264.780686) scale(0.07 -0.07)">
      <defs>
       <path id="DejaVuSans-Bold-48" d="M 588 4666 
L 1791 4666 
L 1791 2888 
L 3566 2888 
L 3566 4666 
L 4769 4666 
L 4769 0 
L 3566 0 
L 3566 1978 
L 1791 1978 
L 1791 0 
L 588 0 
L 588 4666 
z
" transform="scale(0.015625)"/>
      </defs>
      <use xlink:href="#DejaVuSans-Bold-43"/>
      <use xlink:href="#DejaVuSans-Bold-4e" transform="translate(73.388672 0)"/>
      <use xlink:href="#DejaVuSans-Bold-5f" transform="translate(157.080078 0)"/>
      <use xlink:href="#DejaVuSans-Bold-48" transform="translate(207.080078 0)"/>
     </g>
    </g>
   </g>
   <g id="text_18">
    <g clip-path="url(#p80ea70c817)">
     <!-- CN_I -->
     <g transform="translate(333.069556 211.888124) scale(0.07 -0.07)">
      <defs>
       <path id="DejaVuSans-Bold-49" d="M 588 4666 
L 1791 4666 
L 1791 0 
L 588 0 
L 588 4666 
z
" transform="scale(0.015625)"/>
      </defs>
      <use xlink:href="#DejaVuSans-Bold-43"/>
      <use xlink:href="#DejaVuSans-Bold-4e" transform="translate(73.388672 0)"/>
      <use xlink:href="#DejaVuSans-Bold-5f" transform="translate(157.080078 0)"/>
      <use xlink:href="#DejaVuSans-Bold-49" transform="translate(207.080078 0)"/>
     </g>
    </g>
   </g>
   <g id="text_19">
    <g clip-path="url(#p80ea70c817)">
     <!-- CN_J -->
     <g transform="translate(315.438557 106.103) scale(0.07 -0.07)">
      <defs>
       <path id="DejaVuSans-Bold-4a" d="M 588 4666 
L 1791 4666 
L 1791 453 
Q 1791 -419 1317 -850 
Q 844 -1281 -116 -1281 
L -359 -1281 
L -359 -372 
L -172 -372 
Q 203 -372 395 -162 
Q 588 47 588 453 
L 588 4666 
z
" transform="scale(0.015625)"/>
      </defs>
      <use xlink:href="#DejaVuSans-Bold-43"/>
      <use xlink:href="#DejaVuSans-Bold-4e" transform="translate(73.388672 0)"/>
      <use xlink:href="#DejaVuSans-Bold-5f" transform="translate(157.080078 0)"/>
      <use xlink:href="#DejaVuSans-Bold-4a" transform="translate(207.080078 0)"/>
     </g>
    </g>
   </g>
   <g id="text_20">
    <g clip-path="url(#p80ea70c817)">
     <!-- CN_K -->
     <g transform="translate(37.812665 238.334405) scale(0.07 -0.07)">
      <defs>
       <path id="DejaVuSans-Bold-4b" d="M 588 4666 
L 1791 4666 
L 1791 2963 
L 3525 4666 
L 4922 4666 
L 2675 2456 
L 5153 0 
L 3647 0 
L 1791 1838 
L 1791 0 
L 588 0 
L 588 4666 
z
" transform="scale(0.015625)"/>
      </defs>
      <use xlink:href="#DejaVuSans-Bold-43"/>
      <use xlink:href="#DejaVuSans-Bold-4e" transform="translate(73.388672 0)"/>
      <use xlink:href="#DejaVuSans-Bold-5f" transform="translate(157.080078 0)"/>
      <use xlink:href="#DejaVuSans-Bold-4b" transform="translate(207.080078 0)"/>
     </g>
    </g>
   </g>
  </g>
 </g>
 <defs>
  <clipPath id="p80ea70c817">
   <rect x="0" y="0" width="432" height="288"/>
  </clipPath>
 </defs>
</svg>
