<?xml version="1.0" encoding="utf-8" standalone="no"?>
<!DOCTYPE svg PUBLIC "-//W3C//DTD SVG 1.1//EN"
  "http://www.w3.org/Graphics/SVG/1.1/DTD/svg11.dtd">
<svg xmlns:xlink="http://www.w3.org/1999/xlink" width="432pt" height="288pt" viewBox="0 0 432 288" xmlns="http://www.w3.org/2000/svg" version="1.1">
 <metadata>
  <rdf:RDF xmlns:dc="http://purl.org/dc/elements/1.1/" xmlns:cc="http://creativecommons.org/ns#" xmlns:rdf="http://www.w3.org/1999/02/22-rdf-syntax-ns#">
   <cc:Work>
    <dc:type rdf:resource="http://purl.org/dc/dcmitype/StillImage"/>
    <dc:date>2025-11-13T23:10:53.752428</dc:date>
    <dc:format>image/svg+xml</dc:format>
    <dc:creator>
     <cc:Agent>
      <dc:title>Matplotlib v3.10.6, https://matplotlib.org/</dc:title>
     </cc:Agent>
    </dc:creator>
   </cc:Work>
  </rdf:RDF>
 </metadata>
 <defs>
  <style type="text/css">*{stroke-linejoin: round; stroke-linecap: butt}</style>
 </defs>
 <g id="figure_1">
  <g id="patch_1">
   <path d="M 0 288 
L 432 288 
L 432 0 
L 0 0 
z
" style="fill: #ffffff"/>
  </g>
  <g id="axes_1">
   <g id="patch_2">
    <path d="M 185.431377 40.800426 
Q 185.431377 48.793713 185.431377 55.10995 
" clip-path="url(#pbd7d0b2069)" style="fill: none; stroke: #555555; stroke-width: 1.5; stroke-linecap: round"/>
    <path d="M 187.431377 51.10995 
L 185.431377 55.10995 
L 183.431377 51.10995 
z
" clip-path="url(#pbd7d0b2069)" style="fill: #555555; stroke: #555555; stroke-width: 1.5; stroke-linecap: round"/>
   </g>
   <g id="patch_3">
    <path d="M 177.133402 86.056108 
Q 170.75798 96.398389 165.262591 105.31307 
" clip-path="url(#pbd7d0b2069)" style="fill: none; stroke: #555555; stroke-width: 1.5; stroke-linecap: round"/>
    <path d="M 169.064105 102.957547 
L 165.262591 105.31307 
L 165.65908 100.858545 
z
" clip-path="url(#pbd7d0b2069)" style="fill: #555555; stroke: #555555; stroke-width: 1.5; stroke-linecap: round"/>
   </g>
   <g id="patch_4">
    <path d="M 197.905354 82.308045 
Q 215.997237 96.395495 232.765903 109.452606 
" clip-path="url(#pbd7d0b2069)" style="fill: none; stroke: #555555; stroke-width: 1.5; stroke-linecap: round"/>
    <path d="M 230.838595 105.417078 
L 232.765903 109.452606 
L 228.381096 108.573135 
z
" clip-path="url(#pbd7d0b2069)" style="fill: #555555; stroke: #555555; stroke-width: 1.5; stroke-linecap: round"/>
   </g>
   <g id="patch_5">
    <path d="M 143.755271 130.097301 
Q 126.435608 144.000551 110.423749 156.853968 
" clip-path="url(#pbd7d0b2069)" style="fill: none; stroke: #555555; stroke-width: 1.5; stroke-linecap: round"/>
    <path d="M 114.795043 155.909621 
L 110.423749 156.853968 
L 112.291048 152.790325 
z
" clip-path="url(#pbd7d0b2069)" style="fill: #555555; stroke: #555555; stroke-width: 1.5; stroke-linecap: round"/>
   </g>
   <g id="patch_6">
    <path d="M 156.086672 136.007038 
Q 156.086672 144.000325 156.086672 150.316561 
" clip-path="url(#pbd7d0b2069)" style="fill: none; stroke: #555555; stroke-width: 1.5; stroke-linecap: round"/>
    <path d="M 158.086672 146.316561 
L 156.086672 150.316561 
L 154.086672 146.316561 
z
" clip-path="url(#pbd7d0b2069)" style="fill: #555555; stroke: #555555; stroke-width: 1.5; stroke-linecap: round"/>
   </g>
   <g id="patch_7">
    <path d="M 155.883648 231.213649 
Q 155.780994 239.206937 155.699876 245.523311 
" clip-path="url(#pbd7d0b2069)" style="fill: none; stroke: #555555; stroke-width: 1.5; stroke-linecap: round"/>
    <path d="M 157.751077 241.549324 
L 155.699876 245.523311 
L 153.751406 241.497958 
z
" clip-path="url(#pbd7d0b2069)" style="fill: #555555; stroke: #555555; stroke-width: 1.5; stroke-linecap: round"/>
   </g>
   <g id="patch_8">
    <path d="M 84.455022 177.700607 
Q 67.136073 191.603857 51.124908 204.457248 
" clip-path="url(#pbd7d0b2069)" style="fill: none; stroke: #555555; stroke-width: 1.5; stroke-linecap: round"/>
    <path d="M 55.496182 203.512813 
L 51.124908 204.457248 
L 52.992124 200.393567 
z
" clip-path="url(#pbd7d0b2069)" style="fill: #555555; stroke: #555555; stroke-width: 1.5; stroke-linecap: round"/>
   </g>
   <g id="patch_9">
    <path d="M 96.785915 183.610343 
Q 96.785915 191.603631 96.785915 197.919867 
" clip-path="url(#pbd7d0b2069)" style="fill: none; stroke: #555555; stroke-width: 1.5; stroke-linecap: round"/>
    <path d="M 98.785915 193.919867 
L 96.785915 197.919867 
L 94.785915 193.919867 
z
" clip-path="url(#pbd7d0b2069)" style="fill: #555555; stroke: #555555; stroke-width: 1.5; stroke-linecap: round"/>
   </g>
   <g id="patch_10">
    <path d="M 37.487603 231.213649 
Q 37.487603 239.206937 37.487603 245.523173 
" clip-path="url(#pbd7d0b2069)" style="fill: none; stroke: #555555; stroke-width: 1.5; stroke-linecap: round"/>
    <path d="M 39.487603 241.523173 
L 37.487603 245.523173 
L 35.487603 241.523173 
z
" clip-path="url(#pbd7d0b2069)" style="fill: #555555; stroke: #555555; stroke-width: 1.5; stroke-linecap: round"/>
   </g>
   <g id="patch_11">
    <path d="M 246.566178 136.007038 
Q 246.566178 144.000325 246.566178 150.316561 
" clip-path="url(#pbd7d0b2069)" style="fill: none; stroke: #555555; stroke-width: 1.5; stroke-linecap: round"/>
    <path d="M 248.566178 146.316561 
L 246.566178 150.316561 
L 244.566178 146.316561 
z
" clip-path="url(#pbd7d0b2069)" style="fill: #555555; stroke: #555555; stroke-width: 1.5; stroke-linecap: round"/>
   </g>
   <g id="patch_12">
    <path d="M 260.557256 127.559369 
Q 291.804581 143.99929 321.567734 159.658355 
" clip-path="url(#pbd7d0b2069)" style="fill: none; stroke: #555555; stroke-width: 1.5; stroke-linecap: round"/>
    <path d="M 318.959004 156.025928 
L 321.567734 159.658355 
L 317.096554 159.565883 
z
" clip-path="url(#pbd7d0b2069)" style="fill: #555555; stroke: #555555; stroke-width: 1.5; stroke-linecap: round"/>
   </g>
   <g id="patch_13">
    <path d="M 237.90182 181.030282 
Q 230.976693 191.603474 224.970437 200.773749 
" clip-path="url(#pbd7d0b2069)" style="fill: none; stroke: #555555; stroke-width: 1.5; stroke-linecap: round"/>
    <path d="M 228.835146 198.52341 
L 224.970437 200.773749 
L 225.488991 196.331778 
z
" clip-path="url(#pbd7d0b2069)" style="fill: #555555; stroke: #555555; stroke-width: 1.5; stroke-linecap: round"/>
   </g>
   <g id="patch_14">
    <path d="M 255.346097 180.948928 
Q 262.460236 191.601823 268.643008 200.860064 
" clip-path="url(#pbd7d0b2069)" style="fill: none; stroke: #555555; stroke-width: 1.5; stroke-linecap: round"/>
    <path d="M 268.084789 196.422904 
L 268.643008 200.860064 
L 264.758348 198.644344 
z
" clip-path="url(#pbd7d0b2069)" style="fill: #555555; stroke: #555555; stroke-width: 1.5; stroke-linecap: round"/>
   </g>
   <g id="patch_15">
    <path d="M 337.045684 183.610343 
Q 337.045684 191.603631 337.045684 197.919867 
" clip-path="url(#pbd7d0b2069)" style="fill: none; stroke: #555555; stroke-width: 1.5; stroke-linecap: round"/>
    <path d="M 339.045684 193.919867 
L 337.045684 197.919867 
L 335.045684 193.919867 
z
" clip-path="url(#pbd7d0b2069)" style="fill: #555555; stroke: #555555; stroke-width: 1.5; stroke-linecap: round"/>
   </g>
   <g id="patch_16">
    <path d="M 349.220181 177.886557 
Q 365.777659 191.602162 381.04364 204.247937 
" clip-path="url(#pbd7d0b2069)" style="fill: none; stroke: #555555; stroke-width: 1.5; stroke-linecap: round"/>
    <path d="M 379.239084 200.156046 
L 381.04364 204.247937 
L 376.687393 203.236447 
z
" clip-path="url(#pbd7d0b2069)" style="fill: #555555; stroke: #555555; stroke-width: 1.5; stroke-linecap: round"/>
   </g>
   <g id="patch_17">
    <path d="M 328.381326 228.633587 
Q 321.456199 239.20678 315.449942 248.377054 
" clip-path="url(#pbd7d0b2069)" style="fill: none; stroke: #555555; stroke-width: 1.5; stroke-linecap: round"/>
    <path d="M 319.314651 246.126716 
L 315.449942 248.377054 
L 315.968497 243.935084 
z
" clip-path="url(#pbd7d0b2069)" style="fill: #555555; stroke: #555555; stroke-width: 1.5; stroke-linecap: round"/>
   </g>
   <g id="patch_18">
    <path d="M 346.167956 228.319796 
Q 353.858438 239.20758 360.581374 248.725562 
" clip-path="url(#pbd7d0b2069)" style="fill: none; stroke: #555555; stroke-width: 1.5; stroke-linecap: round"/>
    <path d="M 359.907225 244.30453 
L 360.581374 248.725562 
L 356.640059 246.612262 
z
" clip-path="url(#pbd7d0b2069)" style="fill: #555555; stroke: #555555; stroke-width: 1.5; stroke-linecap: round"/>
   </g>
   <g id="patch_19">
    <path d="M 156.086672 183.610343 
Q 156.086672 191.603631 156.086672 197.919867 
" clip-path="url(#pbd7d0b2069)" style="fill: none; stroke: #555555; stroke-width: 1.5; stroke-linecap: round"/>
    <path d="M 158.086672 193.919867 
L 156.086672 197.919867 
L 154.086672 193.919867 
z
" clip-path="url(#pbd7d0b2069)" style="fill: #555555; stroke: #555555; stroke-width: 1.5; stroke-linecap: round"/>
   </g>
   <g id="patch_20">
    <path d="M 215.387429 231.213649 
Q 215.387429 239.206937 215.387429 245.523173 
" clip-path="url(#pbd7d0b2069)" style="fill: none; stroke: #555555; stroke-width: 1.5; stroke-linecap: round"/>
    <path d="M 217.387429 241.523173 
L 215.387429 245.523173 
L 213.387429 241.523173 
z
" clip-path="url(#pbd7d0b2069)" style="fill: #555555; stroke: #555555; stroke-width: 1.5; stroke-linecap: round"/>
   </g>
   <g id="PathCollection_1">
    <defs>
     <path id="C0_0_5c0a43ee48" d="M 0 15.811388 
C 4.193229 15.811388 8.215279 14.145401 11.18034 11.18034 
C 14.145401 8.215279 15.811388 4.193229 15.811388 -0 
C 15.811388 -4.193229 14.145401 -8.215279 11.18034 -11.18034 
C 8.215279 -14.145401 4.193229 -15.811388 0 -15.811388 
C -4.193229 -15.811388 -8.215279 -14.145401 -11.18034 -11.18034 
C -14.145401 -8.215279 -15.811388 -4.193229 -15.811388 0 
C -15.811388 4.193229 -14.145401 8.215279 -11.18034 11.18034 
C -8.215279 14.145401 -4.193229 15.811388 0 15.811388 
z
"/>
    </defs>
    <g clip-path="url(#pbd7d0b2069)">
     <use xlink:href="#C0_0_5c0a43ee48" x="185.431377" y="24.991736" style="fill: #cccccc; stroke: #cccccc"/>
    </g>
    <g clip-path="url(#pbd7d0b2069)">
     <use xlink:href="#C0_0_5c0a43ee48" x="185.431377" y="72.595041" style="fill: #cccccc; stroke: #cccccc"/>
    </g>
    <g clip-path="url(#pbd7d0b2069)">
     <use xlink:href="#C0_0_5c0a43ee48" x="156.086672" y="120.198347" style="fill: #cccccc; stroke: #cccccc"/>
    </g>
    <g clip-path="url(#pbd7d0b2069)">
     <use xlink:href="#C0_0_5c0a43ee48" x="156.086672" y="215.404959" style="fill: #2ca02c; stroke: #2ca02c"/>
    </g>
    <g clip-path="url(#pbd7d0b2069)">
     <use xlink:href="#C0_0_5c0a43ee48" x="96.785915" y="167.801653" style="fill: #cccccc; stroke: #cccccc"/>
    </g>
    <g clip-path="url(#pbd7d0b2069)">
     <use xlink:href="#C0_0_5c0a43ee48" x="37.487603" y="215.404959" style="fill: #cccccc; stroke: #cccccc"/>
    </g>
    <g clip-path="url(#pbd7d0b2069)">
     <use xlink:href="#C0_0_5c0a43ee48" x="246.566178" y="120.198347" style="fill: #cccccc; stroke: #cccccc"/>
    </g>
    <g clip-path="url(#pbd7d0b2069)">
     <use xlink:href="#C0_0_5c0a43ee48" x="246.566178" y="167.801653" style="fill: #cccccc; stroke: #cccccc"/>
    </g>
    <g clip-path="url(#pbd7d0b2069)">
     <use xlink:href="#C0_0_5c0a43ee48" x="215.387429" y="263.008264" style="fill: #8c564b; stroke: #8c564b"/>
    </g>
    <g clip-path="url(#pbd7d0b2069)">
     <use xlink:href="#C0_0_5c0a43ee48" x="337.045684" y="167.801653" style="fill: #cccccc; stroke: #cccccc"/>
    </g>
    <g clip-path="url(#pbd7d0b2069)">
     <use xlink:href="#C0_0_5c0a43ee48" x="337.045684" y="215.404959" style="fill: #cccccc; stroke: #cccccc"/>
    </g>
    <g clip-path="url(#pbd7d0b2069)">
     <use xlink:href="#C0_0_5c0a43ee48" x="37.487603" y="263.008264" style="fill: #1f77b4; stroke: #1f77b4"/>
    </g>
    <g clip-path="url(#pbd7d0b2069)">
     <use xlink:href="#C0_0_5c0a43ee48" x="96.785915" y="215.404959" style="fill: #ff7f0e; stroke: #ff7f0e"/>
    </g>
    <g clip-path="url(#pbd7d0b2069)">
     <use xlink:href="#C0_0_5c0a43ee48" x="156.086672" y="167.801653" style="fill: #2ca02c; stroke: #2ca02c"/>
    </g>
    <g clip-path="url(#pbd7d0b2069)">
     <use xlink:href="#C0_0_5c0a43ee48" x="155.475324" y="263.008264" style="fill: #d62728; stroke: #d62728"/>
    </g>
    <g clip-path="url(#pbd7d0b2069)">
     <use xlink:href="#C0_0_5c0a43ee48" x="215.387429" y="215.404959" style="fill: #8c564b; stroke: #8c564b"/>
    </g>
    <g clip-path="url(#pbd7d0b2069)">
     <use xlink:href="#C0_0_5c0a43ee48" x="278.356274" y="215.404959" style="fill: #e377c2; stroke: #e377c2"/>
    </g>
    <g clip-path="url(#pbd7d0b2069)">
     <use xlink:href="#C0_0_5c0a43ee48" x="305.866935" y="263.008264" style="fill: #7f7f7f; stroke: #7f7f7f"/>
    </g>
    <g clip-path="url(#pbd7d0b2069)">
     <use xlink:href="#C0_0_5c0a43ee48" x="370.669824" y="263.008264" style="fill: #bcbd22; stroke: #bcbd22"/>
    </g>
    <g clip-path="url(#pbd7d0b2069)">
     <use xlink:href="#C0_0_5c0a43ee48" x="394.512397" y="215.404959" style="fill: #17becf; stroke: #17becf"/>
    </g>
   </g>
   <g id="text_1">
    <g clip-path="url(#pbd7d0b2069)">
     <!-- root -->
     <g transform="translate(177.22333 26.923298) scale(0.07 -0.07)">
      <defs>
       <path id="DejaVuSans-Bold-72" d="M 3138 2547 
Q 2991 2616 2845 2648 
Q 2700 2681 2553 2681 
Q 2122 2681 1889 2404 
Q 1656 2128 1656 1613 
L 1656 0 
L 538 0 
L 538 3500 
L 1656 3500 
L 1656 2925 
Q 1872 3269 2151 3426 
Q 2431 3584 2822 3584 
Q 2878 3584 2943 3579 
Q 3009 3575 3134 3559 
L 3138 2547 
z
" transform="scale(0.015625)"/>
       <path id="DejaVuSans-Bold-6f" d="M 2203 2784 
Q 1831 2784 1636 2517 
Q 1441 2250 1441 1747 
Q 1441 1244 1636 976 
Q 1831 709 2203 709 
Q 2569 709 2762 976 
Q 2956 1244 2956 1747 
Q 2956 2250 2762 2517 
Q 2569 2784 2203 2784 
z
M 2203 3584 
Q 3106 3584 3614 3096 
Q 4122 2609 4122 1747 
Q 4122 884 3614 396 
Q 3106 -91 2203 -91 
Q 1297 -91 786 396 
Q 275 884 275 1747 
Q 275 2609 786 3096 
Q 1297 3584 2203 3584 
z
" transform="scale(0.015625)"/>
       <path id="DejaVuSans-Bold-74" d="M 1759 4494 
L 1759 3500 
L 2913 3500 
L 2913 2700 
L 1759 2700 
L 1759 1216 
Q 1759 972 1856 886 
Q 1953 800 2241 800 
L 2816 800 
L 2816 0 
L 1856 0 
Q 1194 0 917 276 
Q 641 553 641 1216 
L 641 2700 
L 84 2700 
L 84 3500 
L 641 3500 
L 641 4494 
L 1759 4494 
z
" transform="scale(0.015625)"/>
      </defs>
      <use xlink:href="#DejaVuSans-Bold-72"/>
      <use xlink:href="#DejaVuSans-Bold-6f" transform="translate(49.316406 0)"/>
      <use xlink:href="#DejaVuSans-Bold-6f" transform="translate(118.017578 0)"/>
      <use xlink:href="#DejaVuSans-Bold-74" transform="translate(186.71875 0)"/>
     </g>
    </g>
   </g>
   <g id="text_2">
    <g clip-path="url(#pbd7d0b2069)">
     <!-- 2 -->
     <g transform="translate(182.996142 74.526604) scale(0.07 -0.07)">
      <defs>
       <path id="DejaVuSans-Bold-32" d="M 1844 884 
L 3897 884 
L 3897 0 
L 506 0 
L 506 884 
L 2209 2388 
Q 2438 2594 2547 2791 
Q 2656 2988 2656 3200 
Q 2656 3528 2436 3728 
Q 2216 3928 1850 3928 
Q 1569 3928 1234 3808 
Q 900 3688 519 3450 
L 519 4475 
Q 925 4609 1322 4679 
Q 1719 4750 2100 4750 
Q 2938 4750 3402 4381 
Q 3866 4013 3866 3353 
Q 3866 2972 3669 2642 
Q 3472 2313 2841 1759 
L 1844 884 
z
" transform="scale(0.015625)"/>
      </defs>
      <use xlink:href="#DejaVuSans-Bold-32"/>
     </g>
    </g>
   </g>
   <g id="text_3">
    <g clip-path="url(#pbd7d0b2069)">
     <!-- 3 -->
     <g transform="translate(153.651438 122.12991) scale(0.07 -0.07)">
      <defs>
       <path id="DejaVuSans-Bold-33" d="M 2981 2516 
Q 3453 2394 3698 2092 
Q 3944 1791 3944 1325 
Q 3944 631 3412 270 
Q 2881 -91 1863 -91 
Q 1503 -91 1142 -33 
Q 781 25 428 141 
L 428 1069 
Q 766 900 1098 814 
Q 1431 728 1753 728 
Q 2231 728 2486 893 
Q 2741 1059 2741 1369 
Q 2741 1688 2480 1852 
Q 2219 2016 1709 2016 
L 1228 2016 
L 1228 2791 
L 1734 2791 
Q 2188 2791 2409 2933 
Q 2631 3075 2631 3366 
Q 2631 3634 2415 3781 
Q 2200 3928 1806 3928 
Q 1516 3928 1219 3862 
Q 922 3797 628 3669 
L 628 4550 
Q 984 4650 1334 4700 
Q 1684 4750 2022 4750 
Q 2931 4750 3382 4451 
Q 3834 4153 3834 3553 
Q 3834 3144 3618 2883 
Q 3403 2622 2981 2516 
z
" transform="scale(0.015625)"/>
      </defs>
      <use xlink:href="#DejaVuSans-Bold-33"/>
     </g>
    </g>
   </g>
   <g id="text_4">
    <g clip-path="url(#pbd7d0b2069)">
     <!-- 5 -->
     <g transform="translate(153.651438 217.336521) scale(0.07 -0.07)">
      <defs>
       <path id="DejaVuSans-Bold-35" d="M 678 4666 
L 3669 4666 
L 3669 3781 
L 1638 3781 
L 1638 3059 
Q 1775 3097 1914 3117 
Q 2053 3138 2203 3138 
Q 3056 3138 3531 2711 
Q 4006 2284 4006 1522 
Q 4006 766 3489 337 
Q 2972 -91 2053 -91 
Q 1656 -91 1267 -14 
Q 878 63 494 219 
L 494 1166 
Q 875 947 1217 837 
Q 1559 728 1863 728 
Q 2300 728 2551 942 
Q 2803 1156 2803 1522 
Q 2803 1891 2551 2103 
Q 2300 2316 1863 2316 
Q 1603 2316 1309 2248 
Q 1016 2181 678 2041 
L 678 4666 
z
" transform="scale(0.015625)"/>
      </defs>
      <use xlink:href="#DejaVuSans-Bold-35"/>
     </g>
    </g>
   </g>
   <g id="text_5">
    <g clip-path="url(#pbd7d0b2069)">
     <!-- 7 -->
     <g transform="translate(94.350681 169.733215) scale(0.07 -0.07)">
      <defs>
       <path id="DejaVuSans-Bold-37" d="M 428 4666 
L 3944 4666 
L 3944 3988 
L 2125 0 
L 953 0 
L 2675 3781 
L 428 3781 
L 428 4666 
z
" transform="scale(0.015625)"/>
      </defs>
      <use xlink:href="#DejaVuSans-Bold-37"/>
     </g>
    </g>
   </g>
   <g id="text_6">
    <g clip-path="url(#pbd7d0b2069)">
     <!-- 10 -->
     <g transform="translate(32.617135 217.336521) scale(0.07 -0.07)">
      <defs>
       <path id="DejaVuSans-Bold-31" d="M 750 831 
L 1813 831 
L 1813 3847 
L 722 3622 
L 722 4441 
L 1806 4666 
L 2950 4666 
L 2950 831 
L 4013 831 
L 4013 0 
L 750 0 
L 750 831 
z
" transform="scale(0.015625)"/>
       <path id="DejaVuSans-Bold-30" d="M 2944 2338 
Q 2944 3213 2780 3570 
Q 2616 3928 2228 3928 
Q 1841 3928 1675 3570 
Q 1509 3213 1509 2338 
Q 1509 1453 1675 1090 
Q 1841 728 2228 728 
Q 2613 728 2778 1090 
Q 2944 1453 2944 2338 
z
M 4147 2328 
Q 4147 1169 3647 539 
Q 3147 -91 2228 -91 
Q 1306 -91 806 539 
Q 306 1169 306 2328 
Q 306 3491 806 4120 
Q 1306 4750 2228 4750 
Q 3147 4750 3647 4120 
Q 4147 3491 4147 2328 
z
" transform="scale(0.015625)"/>
      </defs>
      <use xlink:href="#DejaVuSans-Bold-31"/>
      <use xlink:href="#DejaVuSans-Bold-30" transform="translate(69.580078 0)"/>
     </g>
    </g>
   </g>
   <g id="text_7">
    <g clip-path="url(#pbd7d0b2069)">
     <!-- 11 -->
     <g transform="translate(241.695709 122.12991) scale(0.07 -0.07)">
      <use xlink:href="#DejaVuSans-Bold-31"/>
      <use xlink:href="#DejaVuSans-Bold-31" transform="translate(69.580078 0)"/>
     </g>
    </g>
   </g>
   <g id="text_8">
    <g clip-path="url(#pbd7d0b2069)">
     <!-- 1 -->
     <g transform="translate(244.130944 169.733215) scale(0.07 -0.07)">
      <use xlink:href="#DejaVuSans-Bold-31"/>
     </g>
    </g>
   </g>
   <g id="text_9">
    <g clip-path="url(#pbd7d0b2069)">
     <!-- 4 -->
     <g transform="translate(212.952195 264.939827) scale(0.07 -0.07)">
      <defs>
       <path id="DejaVuSans-Bold-34" d="M 2356 3675 
L 1038 1722 
L 2356 1722 
L 2356 3675 
z
M 2156 4666 
L 3494 4666 
L 3494 1722 
L 4159 1722 
L 4159 850 
L 3494 850 
L 3494 0 
L 2356 0 
L 2356 850 
L 288 850 
L 288 1881 
L 2156 4666 
z
" transform="scale(0.015625)"/>
      </defs>
      <use xlink:href="#DejaVuSans-Bold-34"/>
     </g>
    </g>
   </g>
   <g id="text_10">
    <g clip-path="url(#pbd7d0b2069)">
     <!-- 6 -->
     <g transform="translate(334.610449 169.733215) scale(0.07 -0.07)">
      <defs>
       <path id="DejaVuSans-Bold-36" d="M 2316 2303 
Q 2000 2303 1842 2098 
Q 1684 1894 1684 1484 
Q 1684 1075 1842 870 
Q 2000 666 2316 666 
Q 2634 666 2792 870 
Q 2950 1075 2950 1484 
Q 2950 1894 2792 2098 
Q 2634 2303 2316 2303 
z
M 3803 4544 
L 3803 3681 
Q 3506 3822 3243 3889 
Q 2981 3956 2731 3956 
Q 2194 3956 1894 3657 
Q 1594 3359 1544 2772 
Q 1750 2925 1990 3001 
Q 2231 3078 2516 3078 
Q 3231 3078 3670 2659 
Q 4109 2241 4109 1563 
Q 4109 813 3618 361 
Q 3128 -91 2303 -91 
Q 1394 -91 895 523 
Q 397 1138 397 2266 
Q 397 3422 980 4083 
Q 1563 4744 2578 4744 
Q 2900 4744 3203 4694 
Q 3506 4644 3803 4544 
z
" transform="scale(0.015625)"/>
      </defs>
      <use xlink:href="#DejaVuSans-Bold-36"/>
     </g>
    </g>
   </g>
   <g id="text_11">
    <g clip-path="url(#pbd7d0b2069)">
     <!-- 0 -->
     <g transform="translate(334.610449 217.336521) scale(0.07 -0.07)">
      <use xlink:href="#DejaVuSans-Bold-30"/>
     </g>
    </g>
   </g>
   <g id="text_12">
    <g clip-path="url(#pbd7d0b2069)">
     <!-- CN_A -->
     <g transform="translate(27.531197 264.780686) scale(0.07 -0.07)">
      <defs>
       <path id="DejaVuSans-Bold-43" d="M 4288 256 
Q 3956 84 3597 -3 
Q 3238 -91 2847 -91 
Q 1681 -91 1000 561 
Q 319 1213 319 2328 
Q 319 3447 1000 4098 
Q 1681 4750 2847 4750 
Q 3238 4750 3597 4662 
Q 3956 4575 4288 4403 
L 4288 3438 
Q 3953 3666 3628 3772 
Q 3303 3878 2944 3878 
Q 2300 3878 1931 3465 
Q 1563 3053 1563 2328 
Q 1563 1606 1931 1193 
Q 2300 781 2944 781 
Q 3303 781 3628 887 
Q 3953 994 4288 1222 
L 4288 256 
z
" transform="scale(0.015625)"/>
       <path id="DejaVuSans-Bold-4e" d="M 588 4666 
L 1931 4666 
L 3628 1466 
L 3628 4666 
L 4769 4666 
L 4769 0 
L 3425 0 
L 1728 3200 
L 1728 0 
L 588 0 
L 588 4666 
z
" transform="scale(0.015625)"/>
       <path id="DejaVuSans-Bold-5f" d="M 3200 -916 
L 3200 -1509 
L 0 -1509 
L 0 -916 
L 3200 -916 
z
" transform="scale(0.015625)"/>
       <path id="DejaVuSans-Bold-41" d="M 3419 850 
L 1538 850 
L 1241 0 
L 31 0 
L 1759 4666 
L 3194 4666 
L 4922 0 
L 3713 0 
L 3419 850 
z
M 1838 1716 
L 3116 1716 
L 2478 3572 
L 1838 1716 
z
" transform="scale(0.015625)"/>
      </defs>
      <use xlink:href="#DejaVuSans-Bold-43"/>
      <use xlink:href="#DejaVuSans-Bold-4e" transform="translate(73.388672 0)"/>
      <use xlink:href="#DejaVuSans-Bold-5f" transform="translate(157.080078 0)"/>
      <use xlink:href="#DejaVuSans-Bold-41" transform="translate(207.080078 0)"/>
     </g>
    </g>
   </g>
   <g id="text_13">
    <g clip-path="url(#pbd7d0b2069)">
     <!-- CN_B -->
     <g transform="translate(86.870524 217.177381) scale(0.07 -0.07)">
      <defs>
       <path id="DejaVuSans-Bold-42" d="M 2456 2859 
Q 2741 2859 2887 2984 
Q 3034 3109 3034 3353 
Q 3034 3594 2887 3720 
Q 2741 3847 2456 3847 
L 1791 3847 
L 1791 2859 
L 2456 2859 
z
M 2497 819 
Q 2859 819 3042 972 
Q 3225 1125 3225 1434 
Q 3225 1738 3044 1889 
Q 2863 2041 2497 2041 
L 1791 2041 
L 1791 819 
L 2497 819 
z
M 3616 2497 
Q 4003 2384 4215 2081 
Q 4428 1778 4428 1338 
Q 4428 663 3972 331 
Q 3516 0 2584 0 
L 588 0 
L 588 4666 
L 2394 4666 
Q 3366 4666 3802 4372 
Q 4238 4078 4238 3431 
Q 4238 3091 4078 2852 
Q 3919 2613 3616 2497 
z
" transform="scale(0.015625)"/>
      </defs>
      <use xlink:href="#DejaVuSans-Bold-43"/>
      <use xlink:href="#DejaVuSans-Bold-4e" transform="translate(73.388672 0)"/>
      <use xlink:href="#DejaVuSans-Bold-5f" transform="translate(157.080078 0)"/>
      <use xlink:href="#DejaVuSans-Bold-42" transform="translate(207.080078 0)"/>
     </g>
    </g>
   </g>
   <g id="text_14">
    <g clip-path="url(#pbd7d0b2069)">
     <!-- CN_C -->
     <g transform="translate(146.270266 169.574075) scale(0.07 -0.07)">
      <use xlink:href="#DejaVuSans-Bold-43"/>
      <use xlink:href="#DejaVuSans-Bold-4e" transform="translate(73.388672 0)"/>
      <use xlink:href="#DejaVuSans-Bold-5f" transform="translate(157.080078 0)"/>
      <use xlink:href="#DejaVuSans-Bold-43" transform="translate(207.080078 0)"/>
     </g>
    </g>
   </g>
   <g id="text_15">
    <g clip-path="url(#pbd7d0b2069)">
     <!-- CN_D -->
     <g transform="translate(145.322043 264.780686) scale(0.07 -0.07)">
      <defs>
       <path id="DejaVuSans-Bold-44" d="M 1791 3756 
L 1791 909 
L 2222 909 
Q 2959 909 3348 1275 
Q 3738 1641 3738 2338 
Q 3738 3031 3350 3393 
Q 2963 3756 2222 3756 
L 1791 3756 
z
M 588 4666 
L 1856 4666 
Q 2919 4666 3439 4514 
Q 3959 4363 4331 4000 
Q 4659 3684 4818 3271 
Q 4978 2859 4978 2338 
Q 4978 1809 4818 1395 
Q 4659 981 4331 666 
Q 3956 303 3431 151 
Q 2906 0 1856 0 
L 588 0 
L 588 4666 
z
" transform="scale(0.015625)"/>
      </defs>
      <use xlink:href="#DejaVuSans-Bold-43"/>
      <use xlink:href="#DejaVuSans-Bold-4e" transform="translate(73.388672 0)"/>
      <use xlink:href="#DejaVuSans-Bold-5f" transform="translate(157.080078 0)"/>
      <use xlink:href="#DejaVuSans-Bold-44" transform="translate(207.080078 0)"/>
     </g>
    </g>
   </g>
   <g id="text_16">
    <g clip-path="url(#pbd7d0b2069)">
     <!-- CN_E -->
     <g transform="translate(205.748757 217.177381) scale(0.07 -0.07)">
      <defs>
       <path id="DejaVuSans-Bold-45" d="M 588 4666 
L 3834 4666 
L 3834 3756 
L 1791 3756 
L 1791 2888 
L 3713 2888 
L 3713 1978 
L 1791 1978 
L 1791 909 
L 3903 909 
L 3903 0 
L 588 0 
L 588 4666 
z
" transform="scale(0.015625)"/>
      </defs>
      <use xlink:href="#DejaVuSans-Bold-43"/>
      <use xlink:href="#DejaVuSans-Bold-4e" transform="translate(73.388672 0)"/>
      <use xlink:href="#DejaVuSans-Bold-5f" transform="translate(157.080078 0)"/>
      <use xlink:href="#DejaVuSans-Bold-45" transform="translate(207.080078 0)"/>
     </g>
    </g>
   </g>
   <g id="text_17">
    <g clip-path="url(#pbd7d0b2069)">
     <!-- CN_F -->
     <g transform="translate(268.717603 217.177381) scale(0.07 -0.07)">
      <defs>
       <path id="DejaVuSans-Bold-46" d="M 588 4666 
L 3834 4666 
L 3834 3756 
L 1791 3756 
L 1791 2888 
L 3713 2888 
L 3713 1978 
L 1791 1978 
L 1791 0 
L 588 0 
L 588 4666 
z
" transform="scale(0.015625)"/>
      </defs>
      <use xlink:href="#DejaVuSans-Bold-43"/>
      <use xlink:href="#DejaVuSans-Bold-4e" transform="translate(73.388672 0)"/>
      <use xlink:href="#DejaVuSans-Bold-5f" transform="translate(157.080078 0)"/>
      <use xlink:href="#DejaVuSans-Bold-46" transform="translate(207.080078 0)"/>
     </g>
    </g>
   </g>
   <g id="text_18">
    <g clip-path="url(#pbd7d0b2069)">
     <!-- CN_G -->
     <g transform="translate(295.746466 264.780686) scale(0.07 -0.07)">
      <defs>
       <path id="DejaVuSans-Bold-47" d="M 4781 347 
Q 4331 128 3847 18 
Q 3363 -91 2847 -91 
Q 1681 -91 1000 561 
Q 319 1213 319 2328 
Q 319 3456 1012 4103 
Q 1706 4750 2913 4750 
Q 3378 4750 3804 4662 
Q 4231 4575 4609 4403 
L 4609 3438 
Q 4219 3659 3833 3768 
Q 3447 3878 3059 3878 
Q 2341 3878 1952 3476 
Q 1563 3075 1563 2328 
Q 1563 1588 1938 1184 
Q 2313 781 3003 781 
Q 3191 781 3352 804 
Q 3513 828 3641 878 
L 3641 1784 
L 2906 1784 
L 2906 2591 
L 4781 2591 
L 4781 347 
z
" transform="scale(0.015625)"/>
      </defs>
      <use xlink:href="#DejaVuSans-Bold-43"/>
      <use xlink:href="#DejaVuSans-Bold-4e" transform="translate(73.388672 0)"/>
      <use xlink:href="#DejaVuSans-Bold-5f" transform="translate(157.080078 0)"/>
      <use xlink:href="#DejaVuSans-Bold-47" transform="translate(207.080078 0)"/>
     </g>
    </g>
   </g>
   <g id="text_19">
    <g clip-path="url(#pbd7d0b2069)">
     <!-- CN_H -->
     <g transform="translate(360.493027 264.780686) scale(0.07 -0.07)">
      <defs>
       <path id="DejaVuSans-Bold-48" d="M 588 4666 
L 1791 4666 
L 1791 2888 
L 3566 2888 
L 3566 4666 
L 4769 4666 
L 4769 0 
L 3566 0 
L 3566 1978 
L 1791 1978 
L 1791 0 
L 588 0 
L 588 4666 
z
" transform="scale(0.015625)"/>
      </defs>
      <use xlink:href="#DejaVuSans-Bold-43"/>
      <use xlink:href="#DejaVuSans-Bold-4e" transform="translate(73.388672 0)"/>
      <use xlink:href="#DejaVuSans-Bold-5f" transform="translate(157.080078 0)"/>
      <use xlink:href="#DejaVuSans-Bold-48" transform="translate(207.080078 0)"/>
     </g>
    </g>
   </g>
   <g id="text_20">
    <g clip-path="url(#pbd7d0b2069)">
     <!-- CN_I -->
     <g transform="translate(385.962553 217.177381) scale(0.07 -0.07)">
      <defs>
       <path id="DejaVuSans-Bold-49" d="M 588 4666 
L 1791 4666 
L 1791 0 
L 588 0 
L 588 4666 
z
" transform="scale(0.015625)"/>
      </defs>
      <use xlink:href="#DejaVuSans-Bold-43"/>
      <use xlink:href="#DejaVuSans-Bold-4e" transform="translate(73.388672 0)"/>
      <use xlink:href="#DejaVuSans-Bold-5f" transform="translate(157.080078 0)"/>
      <use xlink:href="#DejaVuSans-Bold-49" transform="translate(207.080078 0)"/>
     </g>
    </g>
   </g>
  </g>
 </g>
 <defs>
  <clipPath id="pbd7d0b2069">
   <rect x="0" y="0" width="432" height="288"/>
  </clipPath>
 </defs>
</svg>
