<?xml version="1.0" encoding="utf-8" standalone="no"?>
<!DOCTYPE svg PUBLIC "-//W3C//DTD SVG 1.1//EN"
  "http://www.w3.org/Graphics/SVG/1.1/DTD/svg11.dtd">
<svg xmlns:xlink="http://www.w3.org/1999/xlink" width="864pt" height="1728pt" viewBox="0 0 864 1728" xmlns="http://www.w3.org/2000/svg" version="1.1">
 <metadata>
  <rdf:RDF xmlns:dc="http://purl.org/dc/elements/1.1/" xmlns:cc="http://creativecommons.org/ns#" xmlns:rdf="http://www.w3.org/1999/02/22-rdf-syntax-ns#">
   <cc:Work>
    <dc:type rdf:resource="http://purl.org/dc/dcmitype/StillImage"/>
    <dc:date>2025-11-09T17:02:44.241724</dc:date>
    <dc:format>image/svg+xml</dc:format>
    <dc:creator>
     <cc:Agent>
      <dc:title>Matplotlib v3.10.6, https://matplotlib.org/</dc:title>
     </cc:Agent>
    </dc:creator>
   </cc:Work>
  </rdf:RDF>
 </metadata>
 <defs>
  <style type="text/css">*{stroke-linejoin: round; stroke-linecap: butt}</style>
 </defs>
 <g id="figure_1">
  <g id="patch_1">
   <path d="M 0 1728 
L 864 1728 
L 864 0 
L 0 0 
z
" style="fill: #ffffff"/>
  </g>
  <g id="axes_1">
   <g id="patch_2">
    <path d="M 243.486867 169.951886 
Q 164.231541 328.462538 85.476215 485.973189 
" clip-path="url(#p441c2cd971)" style="fill: none; stroke: #000000; stroke-linecap: round"/>
    <path d="M 92.631633 480.606626 
L 85.476215 485.973189 
L 85.476215 477.028917 
z
" clip-path="url(#p441c2cd971)" style="stroke: #000000; stroke-linecap: round"/>
   </g>
   <g id="patch_3">
    <path d="M 263.48834 169.951886 
Q 342.743666 328.462538 421.498991 485.973189 
" clip-path="url(#p441c2cd971)" style="fill: none; stroke: #000000; stroke-linecap: round"/>
    <path d="M 421.498991 477.028917 
L 421.498991 485.973189 
L 414.343574 480.606626 
z
" clip-path="url(#p441c2cd971)" style="stroke: #000000; stroke-linecap: round"/>
   </g>
   <g id="patch_4">
    <path d="M 421.999264 526.97668 
Q 342.743938 685.487331 263.988612 842.997983 
" clip-path="url(#p441c2cd971)" style="fill: none; stroke: #000000; stroke-linecap: round"/>
    <path d="M 271.144029 837.63142 
L 263.988612 842.997983 
L 263.988612 834.053711 
z
" clip-path="url(#p441c2cd971)" style="stroke: #000000; stroke-linecap: round"/>
   </g>
   <g id="patch_5">
    <path d="M 442.000736 526.97668 
Q 521.256062 685.487331 600.011388 842.997983 
" clip-path="url(#p441c2cd971)" style="fill: none; stroke: #000000; stroke-linecap: round"/>
    <path d="M 600.011388 834.053711 
L 600.011388 842.997983 
L 592.855971 837.63142 
z
" clip-path="url(#p441c2cd971)" style="stroke: #000000; stroke-linecap: round"/>
   </g>
   <g id="patch_6">
    <path d="M 600.51166 884.001473 
Q 521.256334 1042.512125 442.501009 1200.022776 
" clip-path="url(#p441c2cd971)" style="fill: none; stroke: #000000; stroke-linecap: round"/>
    <path d="M 449.656426 1194.656213 
L 442.501009 1200.022776 
L 442.501009 1191.078504 
z
" clip-path="url(#p441c2cd971)" style="stroke: #000000; stroke-linecap: round"/>
   </g>
   <g id="patch_7">
    <path d="M 620.513133 884.001473 
Q 699.768459 1042.512125 778.523785 1200.022776 
" clip-path="url(#p441c2cd971)" style="fill: none; stroke: #000000; stroke-linecap: round"/>
    <path d="M 778.523785 1191.078504 
L 778.523785 1200.022776 
L 771.368367 1194.656213 
z
" clip-path="url(#p441c2cd971)" style="stroke: #000000; stroke-linecap: round"/>
   </g>
   <g id="patch_8">
    <path d="M 432 1243.385149 
Q 432 1399.537801 432 1554.572418 
" clip-path="url(#p441c2cd971)" style="fill: none; stroke: #000000; stroke-linecap: round"/>
    <path d="M 436 1546.572418 
L 432 1554.572418 
L 428 1546.572418 
z
" clip-path="url(#p441c2cd971)" style="stroke: #000000; stroke-linecap: round"/>
   </g>
   <g id="PathCollection_1">
    <defs>
     <path id="C0_0_0faa782177" d="M 0 22.36068 
C 5.930122 22.36068 11.618159 20.004617 15.811388 15.811388 
C 20.004617 11.618159 22.36068 5.930122 22.36068 -0 
C 22.36068 -5.930122 20.004617 -11.618159 15.811388 -15.811388 
C 11.618159 -20.004617 5.930122 -22.36068 0 -22.36068 
C -5.930122 -22.36068 -11.618159 -20.004617 -15.811388 -15.811388 
C -20.004617 -11.618159 -22.36068 -5.930122 -22.36068 0 
C -22.36068 5.930122 -20.004617 11.618159 -15.811388 15.811388 
C -11.618159 20.004617 -5.930122 22.36068 0 22.36068 
z
"/>
    </defs>
    <g clip-path="url(#p441c2cd971)">
     <use xlink:href="#C0_0_0faa782177" x="253.487603" y="149.950413" style="fill: #17becf; stroke: #17becf"/>
    </g>
    <g clip-path="url(#p441c2cd971)">
     <use xlink:href="#C0_0_0faa782177" x="74.975207" y="506.975207" style="fill: #8c564b; stroke: #8c564b"/>
    </g>
    <g clip-path="url(#p441c2cd971)">
     <use xlink:href="#C0_0_0faa782177" x="432" y="506.975207" style="fill: #1f77b4; stroke: #1f77b4"/>
    </g>
    <g clip-path="url(#p441c2cd971)">
     <use xlink:href="#C0_0_0faa782177" x="253.487603" y="864" style="fill: #1f77b4; stroke: #1f77b4"/>
    </g>
    <g clip-path="url(#p441c2cd971)">
     <use xlink:href="#C0_0_0faa782177" x="610.512397" y="864" style="fill: #1f77b4; stroke: #1f77b4"/>
    </g>
    <g clip-path="url(#p441c2cd971)">
     <use xlink:href="#C0_0_0faa782177" x="432" y="1221.024793" style="fill: #8c564b; stroke: #8c564b"/>
    </g>
    <g clip-path="url(#p441c2cd971)">
     <use xlink:href="#C0_0_0faa782177" x="432" y="1578.049587" style="fill: #1f77b4; stroke: #1f77b4"/>
    </g>
    <g clip-path="url(#p441c2cd971)">
     <use xlink:href="#C0_0_0faa782177" x="789.024793" y="1221.024793" style="fill: #1f77b4; stroke: #1f77b4"/>
    </g>
   </g>
   <g id="text_1">
    <g clip-path="url(#p441c2cd971)">
     <!-- root -->
     <g transform="translate(238.454791 154.089476) scale(0.15 -0.15)">
      <defs>
       <path id="DejaVuSans-72" d="M 2631 2963 
Q 2534 3019 2420 3045 
Q 2306 3072 2169 3072 
Q 1681 3072 1420 2755 
Q 1159 2438 1159 1844 
L 1159 0 
L 581 0 
L 581 3500 
L 1159 3500 
L 1159 2956 
Q 1341 3275 1631 3429 
Q 1922 3584 2338 3584 
Q 2397 3584 2469 3576 
Q 2541 3569 2628 3553 
L 2631 2963 
z
" transform="scale(0.015625)"/>
       <path id="DejaVuSans-6f" d="M 1959 3097 
Q 1497 3097 1228 2736 
Q 959 2375 959 1747 
Q 959 1119 1226 758 
Q 1494 397 1959 397 
Q 2419 397 2687 759 
Q 2956 1122 2956 1747 
Q 2956 2369 2687 2733 
Q 2419 3097 1959 3097 
z
M 1959 3584 
Q 2709 3584 3137 3096 
Q 3566 2609 3566 1747 
Q 3566 888 3137 398 
Q 2709 -91 1959 -91 
Q 1206 -91 779 398 
Q 353 888 353 1747 
Q 353 2609 779 3096 
Q 1206 3584 1959 3584 
z
" transform="scale(0.015625)"/>
       <path id="DejaVuSans-74" d="M 1172 4494 
L 1172 3500 
L 2356 3500 
L 2356 3053 
L 1172 3053 
L 1172 1153 
Q 1172 725 1289 603 
Q 1406 481 1766 481 
L 2356 481 
L 2356 0 
L 1766 0 
Q 1100 0 847 248 
Q 594 497 594 1153 
L 594 3053 
L 172 3053 
L 172 3500 
L 594 3500 
L 594 4494 
L 1172 4494 
z
" transform="scale(0.015625)"/>
      </defs>
      <use xlink:href="#DejaVuSans-72"/>
      <use xlink:href="#DejaVuSans-6f" transform="translate(38.863281 0)"/>
      <use xlink:href="#DejaVuSans-6f" transform="translate(100.044922 0)"/>
      <use xlink:href="#DejaVuSans-74" transform="translate(161.226562 0)"/>
     </g>
    </g>
   </g>
   <g id="text_2">
    <g clip-path="url(#p441c2cd971)">
     <!-- d1 -->
     <g transform="translate(65.442003 511.114269) scale(0.15 -0.15)">
      <defs>
       <path id="DejaVuSans-64" d="M 2906 2969 
L 2906 4863 
L 3481 4863 
L 3481 0 
L 2906 0 
L 2906 525 
Q 2725 213 2448 61 
Q 2172 -91 1784 -91 
Q 1150 -91 751 415 
Q 353 922 353 1747 
Q 353 2572 751 3078 
Q 1150 3584 1784 3584 
Q 2172 3584 2448 3432 
Q 2725 3281 2906 2969 
z
M 947 1747 
Q 947 1113 1208 752 
Q 1469 391 1925 391 
Q 2381 391 2643 752 
Q 2906 1113 2906 1747 
Q 2906 2381 2643 2742 
Q 2381 3103 1925 3103 
Q 1469 3103 1208 2742 
Q 947 2381 947 1747 
z
" transform="scale(0.015625)"/>
       <path id="DejaVuSans-31" d="M 794 531 
L 1825 531 
L 1825 4091 
L 703 3866 
L 703 4441 
L 1819 4666 
L 2450 4666 
L 2450 531 
L 3481 531 
L 3481 0 
L 794 0 
L 794 531 
z
" transform="scale(0.015625)"/>
      </defs>
      <use xlink:href="#DejaVuSans-64"/>
      <use xlink:href="#DejaVuSans-31" transform="translate(63.476562 0)"/>
     </g>
    </g>
   </g>
   <g id="text_3">
    <g clip-path="url(#p441c2cd971)">
     <!-- c0 -->
     <g transform="translate(423.104297 511.114269) scale(0.15 -0.15)">
      <defs>
       <path id="DejaVuSans-63" d="M 3122 3366 
L 3122 2828 
Q 2878 2963 2633 3030 
Q 2388 3097 2138 3097 
Q 1578 3097 1268 2742 
Q 959 2388 959 1747 
Q 959 1106 1268 751 
Q 1578 397 2138 397 
Q 2388 397 2633 464 
Q 2878 531 3122 666 
L 3122 134 
Q 2881 22 2623 -34 
Q 2366 -91 2075 -91 
Q 1284 -91 818 406 
Q 353 903 353 1747 
Q 353 2603 823 3093 
Q 1294 3584 2113 3584 
Q 2378 3584 2631 3529 
Q 2884 3475 3122 3366 
z
" transform="scale(0.015625)"/>
       <path id="DejaVuSans-30" d="M 2034 4250 
Q 1547 4250 1301 3770 
Q 1056 3291 1056 2328 
Q 1056 1369 1301 889 
Q 1547 409 2034 409 
Q 2525 409 2770 889 
Q 3016 1369 3016 2328 
Q 3016 3291 2770 3770 
Q 2525 4250 2034 4250 
z
M 2034 4750 
Q 2819 4750 3233 4129 
Q 3647 3509 3647 2328 
Q 3647 1150 3233 529 
Q 2819 -91 2034 -91 
Q 1250 -91 836 529 
Q 422 1150 422 2328 
Q 422 3509 836 4129 
Q 1250 4750 2034 4750 
z
" transform="scale(0.015625)"/>
      </defs>
      <use xlink:href="#DejaVuSans-63"/>
      <use xlink:href="#DejaVuSans-30" transform="translate(54.980469 0)"/>
     </g>
    </g>
   </g>
   <g id="text_4">
    <g clip-path="url(#p441c2cd971)">
     <!-- c1 -->
     <g transform="translate(244.5919 868.139063) scale(0.15 -0.15)">
      <use xlink:href="#DejaVuSans-63"/>
      <use xlink:href="#DejaVuSans-31" transform="translate(54.980469 0)"/>
     </g>
    </g>
   </g>
   <g id="text_5">
    <g clip-path="url(#p441c2cd971)">
     <!-- c2 -->
     <g transform="translate(601.616694 868.139063) scale(0.15 -0.15)">
      <defs>
       <path id="DejaVuSans-32" d="M 1228 531 
L 3431 531 
L 3431 0 
L 469 0 
L 469 531 
Q 828 903 1448 1529 
Q 2069 2156 2228 2338 
Q 2531 2678 2651 2914 
Q 2772 3150 2772 3378 
Q 2772 3750 2511 3984 
Q 2250 4219 1831 4219 
Q 1534 4219 1204 4116 
Q 875 4013 500 3803 
L 500 4441 
Q 881 4594 1212 4672 
Q 1544 4750 1819 4750 
Q 2544 4750 2975 4387 
Q 3406 4025 3406 3419 
Q 3406 3131 3298 2873 
Q 3191 2616 2906 2266 
Q 2828 2175 2409 1742 
Q 1991 1309 1228 531 
z
" transform="scale(0.015625)"/>
      </defs>
      <use xlink:href="#DejaVuSans-63"/>
      <use xlink:href="#DejaVuSans-32" transform="translate(54.980469 0)"/>
     </g>
    </g>
   </g>
   <g id="text_6">
    <g clip-path="url(#p441c2cd971)">
     <!-- d2 -->
     <g transform="translate(422.466797 1225.163856) scale(0.15 -0.15)">
      <use xlink:href="#DejaVuSans-64"/>
      <use xlink:href="#DejaVuSans-32" transform="translate(63.476562 0)"/>
     </g>
    </g>
   </g>
   <g id="text_7">
    <g clip-path="url(#p441c2cd971)">
     <!-- c3 -->
     <g transform="translate(423.104297 1582.188649) scale(0.15 -0.15)">
      <defs>
       <path id="DejaVuSans-33" d="M 2597 2516 
Q 3050 2419 3304 2112 
Q 3559 1806 3559 1356 
Q 3559 666 3084 287 
Q 2609 -91 1734 -91 
Q 1441 -91 1130 -33 
Q 819 25 488 141 
L 488 750 
Q 750 597 1062 519 
Q 1375 441 1716 441 
Q 2309 441 2620 675 
Q 2931 909 2931 1356 
Q 2931 1769 2642 2001 
Q 2353 2234 1838 2234 
L 1294 2234 
L 1294 2753 
L 1863 2753 
Q 2328 2753 2575 2939 
Q 2822 3125 2822 3475 
Q 2822 3834 2567 4026 
Q 2313 4219 1838 4219 
Q 1578 4219 1281 4162 
Q 984 4106 628 3988 
L 628 4550 
Q 988 4650 1302 4700 
Q 1616 4750 1894 4750 
Q 2613 4750 3031 4423 
Q 3450 4097 3450 3541 
Q 3450 3153 3228 2886 
Q 3006 2619 2597 2516 
z
" transform="scale(0.015625)"/>
      </defs>
      <use xlink:href="#DejaVuSans-63"/>
      <use xlink:href="#DejaVuSans-33" transform="translate(54.980469 0)"/>
     </g>
    </g>
   </g>
   <g id="text_8">
    <g clip-path="url(#p441c2cd971)">
     <!-- c4 -->
     <g transform="translate(780.12909 1225.163856) scale(0.15 -0.15)">
      <defs>
       <path id="DejaVuSans-34" d="M 2419 4116 
L 825 1625 
L 2419 1625 
L 2419 4116 
z
M 2253 4666 
L 3047 4666 
L 3047 1625 
L 3713 1625 
L 3713 1100 
L 3047 1100 
L 3047 0 
L 2419 0 
L 2419 1100 
L 313 1100 
L 313 1709 
L 2253 4666 
z
" transform="scale(0.015625)"/>
      </defs>
      <use xlink:href="#DejaVuSans-63"/>
      <use xlink:href="#DejaVuSans-34" transform="translate(54.980469 0)"/>
     </g>
    </g>
   </g>
  </g>
 </g>
 <defs>
  <clipPath id="p441c2cd971">
   <rect x="0" y="0" width="864" height="1728"/>
  </clipPath>
 </defs>
</svg>
