<?xml version="1.0" encoding="utf-8" standalone="no"?>
<!DOCTYPE svg PUBLIC "-//W3C//DTD SVG 1.1//EN"
  "http://www.w3.org/Graphics/SVG/1.1/DTD/svg11.dtd">
<svg xmlns:xlink="http://www.w3.org/1999/xlink" width="432pt" height="288pt" viewBox="0 0 432 288" xmlns="http://www.w3.org/2000/svg" version="1.1">
 <metadata>
  <rdf:RDF xmlns:dc="http://purl.org/dc/elements/1.1/" xmlns:cc="http://creativecommons.org/ns#" xmlns:rdf="http://www.w3.org/1999/02/22-rdf-syntax-ns#">
   <cc:Work>
    <dc:type rdf:resource="http://purl.org/dc/dcmitype/StillImage"/>
    <dc:date>2025-11-05T12:00:48.173262</dc:date>
    <dc:format>image/svg+xml</dc:format>
    <dc:creator>
     <cc:Agent>
      <dc:title>Matplotlib v3.10.6, https://matplotlib.org/</dc:title>
     </cc:Agent>
    </dc:creator>
   </cc:Work>
  </rdf:RDF>
 </metadata>
 <defs>
  <style type="text/css">*{stroke-linejoin: round; stroke-linecap: butt}</style>
 </defs>
 <g id="figure_1">
  <g id="patch_1">
   <path d="M 0 288 
L 432 288 
L 432 0 
L 0 0 
z
" style="fill: #ffffff"/>
  </g>
  <g id="axes_1">
   <g id="patch_2">
    <path d="M 261.086807 40.801671 
Q 261.086807 41.994217 261.086807 41.509711 
" clip-path="url(#pe1be3652f2)" style="fill: none; stroke: #555555; stroke-width: 1.5; stroke-linecap: round"/>
    <path d="M 263.086807 37.509711 
L 261.086807 41.509711 
L 259.086807 37.509711 
z
" clip-path="url(#pe1be3652f2)" style="fill: #555555; stroke: #555555; stroke-width: 1.5; stroke-linecap: round"/>
   </g>
   <g id="patch_3">
    <path d="M 207.151346 102.64056 
Q 197.593785 109.998289 189.365109 116.332998 
" clip-path="url(#pe1be3652f2)" style="fill: none; stroke: #555555; stroke-width: 1.5; stroke-linecap: round"/>
    <path d="M 193.754703 115.477742 
L 189.365109 116.332998 
L 191.31466 112.308169 
z
" clip-path="url(#pe1be3652f2)" style="fill: #555555; stroke: #555555; stroke-width: 1.5; stroke-linecap: round"/>
   </g>
   <g id="patch_4">
    <path d="M 233.861456 99.984126 
Q 254.183667 109.996743 273.001506 119.268167 
" clip-path="url(#pe1be3652f2)" style="fill: none; stroke: #555555; stroke-width: 1.5; stroke-linecap: round"/>
    <path d="M 270.297297 115.706251 
L 273.001506 119.268167 
L 268.529447 119.294385 
z
" clip-path="url(#pe1be3652f2)" style="fill: #555555; stroke: #555555; stroke-width: 1.5; stroke-linecap: round"/>
   </g>
   <g id="patch_5">
    <path d="M 160.167521 130.803954 
Q 106.962661 143.999114 55.38554 156.790583 
" clip-path="url(#pe1be3652f2)" style="fill: none; stroke: #555555; stroke-width: 1.5; stroke-linecap: round"/>
    <path d="M 59.749352 157.768918 
L 55.38554 156.790583 
L 58.786495 153.886534 
z
" clip-path="url(#pe1be3652f2)" style="fill: #555555; stroke: #555555; stroke-width: 1.5; stroke-linecap: round"/>
   </g>
   <g id="patch_6">
    <path d="M 162.622308 136.157292 
Q 151.587073 143.999099 141.918881 150.869466 
" clip-path="url(#pe1be3652f2)" style="fill: none; stroke: #555555; stroke-width: 1.5; stroke-linecap: round"/>
    <path d="M 146.337976 150.182737 
L 141.918881 150.869466 
L 144.020955 146.922152 
z
" clip-path="url(#pe1be3652f2)" style="fill: #555555; stroke: #555555; stroke-width: 1.5; stroke-linecap: round"/>
   </g>
   <g id="patch_7">
    <path d="M 188.398482 136.157292 
Q 199.433716 143.999099 209.101908 150.869466 
" clip-path="url(#pe1be3652f2)" style="fill: none; stroke: #555555; stroke-width: 1.5; stroke-linecap: round"/>
    <path d="M 206.999835 146.922152 
L 209.101908 150.869466 
L 204.682813 150.182737 
z
" clip-path="url(#pe1be3652f2)" style="fill: #555555; stroke: #555555; stroke-width: 1.5; stroke-linecap: round"/>
   </g>
   <g id="patch_8">
    <path d="M 126.806864 210.788574 
Q 126.741027 212.00499 126.765826 211.546806 
" clip-path="url(#pe1be3652f2)" style="fill: none; stroke: #555555; stroke-width: 1.5; stroke-linecap: round"/>
    <path d="M 128.979083 207.660742 
L 126.765826 211.546806 
L 124.984929 207.444561 
z
" clip-path="url(#pe1be3652f2)" style="fill: #555555; stroke: #555555; stroke-width: 1.5; stroke-linecap: round"/>
   </g>
   <g id="patch_9">
    <path d="M 37.980154 176.802815 
Q 37.947746 178.000348 37.960706 177.521444 
" clip-path="url(#pe1be3652f2)" style="fill: none; stroke: #555555; stroke-width: 1.5; stroke-linecap: round"/>
    <path d="M 40.068183 173.577013 
L 37.960706 177.521444 
L 36.069647 173.468804 
z
" clip-path="url(#pe1be3652f2)" style="fill: #555555; stroke: #555555; stroke-width: 1.5; stroke-linecap: round"/>
   </g>
   <g id="patch_10">
    <path d="M 309.795392 176.362843 
Q 309.395804 178.003461 309.393076 178.014662 
" clip-path="url(#pe1be3652f2)" style="fill: none; stroke: #555555; stroke-width: 1.5; stroke-linecap: round"/>
    <path d="M 312.282836 174.601556 
L 309.393076 178.014662 
L 308.396448 173.654991 
z
" clip-path="url(#pe1be3652f2)" style="fill: #555555; stroke: #555555; stroke-width: 1.5; stroke-linecap: round"/>
   </g>
   <g id="patch_11">
    <path d="M 328.11434 167.122394 
Q 354.024739 178.002406 378.388877 188.233129 
" clip-path="url(#pe1be3652f2)" style="fill: none; stroke: #555555; stroke-width: 1.5; stroke-linecap: round"/>
    <path d="M 375.475151 184.84046 
L 378.388877 188.233129 
L 373.926506 188.528508 
z
" clip-path="url(#pe1be3652f2)" style="fill: #555555; stroke: #555555; stroke-width: 1.5; stroke-linecap: round"/>
   </g>
   <g id="patch_12">
    <path d="M 394.512397 244.815839 
Q 394.512397 246.008384 394.512397 245.523879 
" clip-path="url(#pe1be3652f2)" style="fill: none; stroke: #555555; stroke-width: 1.5; stroke-linecap: round"/>
    <path d="M 396.512397 241.523879 
L 394.512397 245.523879 
L 392.512397 241.523879 
z
" clip-path="url(#pe1be3652f2)" style="fill: #555555; stroke: #555555; stroke-width: 1.5; stroke-linecap: round"/>
   </g>
   <g id="patch_13">
    <path d="M 215.01216 210.788574 
Q 215.077998 212.00499 215.053199 211.546806 
" clip-path="url(#pe1be3652f2)" style="fill: none; stroke: #555555; stroke-width: 1.5; stroke-linecap: round"/>
    <path d="M 216.834095 207.444561 
L 215.053199 211.546806 
L 212.839941 207.660742 
z
" clip-path="url(#pe1be3652f2)" style="fill: #555555; stroke: #555555; stroke-width: 1.5; stroke-linecap: round"/>
   </g>
   <g id="patch_14">
    <path d="M 125.820865 244.815839 
Q 125.820865 246.008384 125.820865 245.523879 
" clip-path="url(#pe1be3652f2)" style="fill: none; stroke: #555555; stroke-width: 1.5; stroke-linecap: round"/>
    <path d="M 127.820865 241.523879 
L 125.820865 245.523879 
L 123.820865 241.523879 
z
" clip-path="url(#pe1be3652f2)" style="fill: #555555; stroke: #555555; stroke-width: 1.5; stroke-linecap: round"/>
   </g>
   <g id="patch_15">
    <path d="M 298.019503 139.764232 
Q 301.113694 143.998919 303.218478 146.879511 
" clip-path="url(#pe1be3652f2)" style="fill: none; stroke: #555555; stroke-width: 1.5; stroke-linecap: round"/>
    <path d="M 302.473457 142.469869 
L 303.218478 146.879511 
L 299.243752 144.829742 
z
" clip-path="url(#pe1be3652f2)" style="fill: #555555; stroke: #555555; stroke-width: 1.5; stroke-linecap: round"/>
   </g>
   <g id="patch_16">
    <path d="M 394.512397 210.813478 
Q 394.512397 212.006023 394.512397 211.521518 
" clip-path="url(#pe1be3652f2)" style="fill: none; stroke: #555555; stroke-width: 1.5; stroke-linecap: round"/>
    <path d="M 396.512397 207.521518 
L 394.512397 211.521518 
L 392.512397 207.521518 
z
" clip-path="url(#pe1be3652f2)" style="fill: #555555; stroke: #555555; stroke-width: 1.5; stroke-linecap: round"/>
   </g>
   <g id="patch_17">
    <path d="M 273.306497 69.028363 
Q 281.791827 75.996139 288.981082 81.899635 
" clip-path="url(#pe1be3652f2)" style="fill: none; stroke: #555555; stroke-width: 1.5; stroke-linecap: round"/>
    <path d="M 287.15899 77.815522 
L 288.981082 81.899635 
L 284.620536 80.906841 
z
" clip-path="url(#pe1be3652f2)" style="fill: #555555; stroke: #555555; stroke-width: 1.5; stroke-linecap: round"/>
   </g>
   <g id="patch_18">
    <path d="M 248.867117 69.028363 
Q 240.381788 75.996139 233.192533 81.899635 
" clip-path="url(#pe1be3652f2)" style="fill: none; stroke: #555555; stroke-width: 1.5; stroke-linecap: round"/>
    <path d="M 237.553078 80.906841 
L 233.192533 81.899635 
L 235.014625 77.815522 
z
" clip-path="url(#pe1be3652f2)" style="fill: #555555; stroke: #555555; stroke-width: 1.5; stroke-linecap: round"/>
   </g>
   <g id="patch_19">
    <path d="M 127.661218 176.811116 
Q 127.661218 178.003662 127.661218 177.519156 
" clip-path="url(#pe1be3652f2)" style="fill: none; stroke: #555555; stroke-width: 1.5; stroke-linecap: round"/>
    <path d="M 129.661218 173.519156 
L 127.661218 177.519156 
L 125.661218 173.519156 
z
" clip-path="url(#pe1be3652f2)" style="fill: #555555; stroke: #555555; stroke-width: 1.5; stroke-linecap: round"/>
   </g>
   <g id="patch_20">
    <path d="M 142.377358 166.786189 
Q 170.909473 178.002346 197.880803 188.604948 
" clip-path="url(#pe1be3652f2)" style="fill: none; stroke: #555555; stroke-width: 1.5; stroke-linecap: round"/>
    <path d="M 194.889819 185.280189 
L 197.880803 188.604948 
L 193.426406 189.00288 
z
" clip-path="url(#pe1be3652f2)" style="fill: #555555; stroke: #555555; stroke-width: 1.5; stroke-linecap: round"/>
   </g>
   <g id="PathCollection_1">
    <defs>
     <path id="C0_0_ccf1391f9f" d="M 0 15.811388 
C 4.193229 15.811388 8.215279 14.145401 11.18034 11.18034 
C 14.145401 8.215279 15.811388 4.193229 15.811388 -0 
C 15.811388 -4.193229 14.145401 -8.215279 11.18034 -11.18034 
C 8.215279 -14.145401 4.193229 -15.811388 0 -15.811388 
C -4.193229 -15.811388 -8.215279 -14.145401 -11.18034 -11.18034 
C -14.145401 -8.215279 -15.811388 -4.193229 -15.811388 0 
C -15.811388 4.193229 -14.145401 8.215279 -11.18034 11.18034 
C -8.215279 14.145401 -4.193229 15.811388 0 15.811388 
z
"/>
    </defs>
    <g clip-path="url(#pe1be3652f2)">
     <use xlink:href="#C0_0_ccf1391f9f" x="261.086807" y="24.991736" style="fill: #cccccc; stroke: #cccccc"/>
    </g>
    <g clip-path="url(#pe1be3652f2)">
     <use xlink:href="#C0_0_ccf1391f9f" x="302.494749" y="92.996458" style="fill: #9467bd; stroke: #9467bd"/>
    </g>
    <g clip-path="url(#pe1be3652f2)">
     <use xlink:href="#C0_0_ccf1391f9f" x="219.678866" y="92.996458" style="fill: #9467bd; stroke: #9467bd"/>
    </g>
    <g clip-path="url(#pe1be3652f2)">
     <use xlink:href="#C0_0_ccf1391f9f" x="175.510395" y="126.998819" style="fill: #9467bd; stroke: #9467bd"/>
    </g>
    <g clip-path="url(#pe1be3652f2)">
     <use xlink:href="#C0_0_ccf1391f9f" x="127.661218" y="195.003542" style="fill: #7f7f7f; stroke: #7f7f7f"/>
    </g>
    <g clip-path="url(#pe1be3652f2)">
     <use xlink:href="#C0_0_ccf1391f9f" x="38.40778" y="161.001181" style="fill: #9467bd; stroke: #9467bd"/>
    </g>
    <g clip-path="url(#pe1be3652f2)">
     <use xlink:href="#C0_0_ccf1391f9f" x="313.536866" y="161.001181" style="fill: #ff7f0e; stroke: #ff7f0e"/>
    </g>
    <g clip-path="url(#pe1be3652f2)">
     <use xlink:href="#C0_0_ccf1391f9f" x="305.255278" y="195.003542" style="fill: #ff7f0e; stroke: #ff7f0e"/>
    </g>
    <g clip-path="url(#pe1be3652f2)">
     <use xlink:href="#C0_0_ccf1391f9f" x="394.512397" y="229.005903" style="fill: #2ca02c; stroke: #2ca02c"/>
    </g>
    <g clip-path="url(#pe1be3652f2)">
     <use xlink:href="#C0_0_ccf1391f9f" x="394.512397" y="263.008264" style="fill: #2ca02c; stroke: #2ca02c"/>
    </g>
    <g clip-path="url(#pe1be3652f2)">
     <use xlink:href="#C0_0_ccf1391f9f" x="214.157807" y="195.003542" style="fill: #7f7f7f; stroke: #7f7f7f"/>
    </g>
    <g clip-path="url(#pe1be3652f2)">
     <use xlink:href="#C0_0_ccf1391f9f" x="125.820865" y="229.005903" style="fill: #7f7f7f; stroke: #7f7f7f"/>
    </g>
    <g clip-path="url(#pe1be3652f2)">
     <use xlink:href="#C0_0_ccf1391f9f" x="215.99816" y="229.005903" style="fill: #1f77b4; stroke: #1f77b4"/>
    </g>
    <g clip-path="url(#pe1be3652f2)">
     <use xlink:href="#C0_0_ccf1391f9f" x="288.692102" y="126.998819" style="fill: #ff7f0e; stroke: #ff7f0e"/>
    </g>
    <g clip-path="url(#pe1be3652f2)">
     <use xlink:href="#C0_0_ccf1391f9f" x="394.512397" y="195.003542" style="fill: #2ca02c; stroke: #2ca02c"/>
    </g>
    <g clip-path="url(#pe1be3652f2)">
     <use xlink:href="#C0_0_ccf1391f9f" x="261.086807" y="58.994097" style="fill: #9467bd; stroke: #9467bd"/>
    </g>
    <g clip-path="url(#pe1be3652f2)">
     <use xlink:href="#C0_0_ccf1391f9f" x="125.820865" y="263.008264" style="fill: #8c564b; stroke: #8c564b"/>
    </g>
    <g clip-path="url(#pe1be3652f2)">
     <use xlink:href="#C0_0_ccf1391f9f" x="127.661218" y="161.001181" style="fill: #7f7f7f; stroke: #7f7f7f"/>
    </g>
    <g clip-path="url(#pe1be3652f2)">
     <use xlink:href="#C0_0_ccf1391f9f" x="37.487603" y="195.003542" style="fill: #bcbd22; stroke: #bcbd22"/>
    </g>
    <g clip-path="url(#pe1be3652f2)">
     <use xlink:href="#C0_0_ccf1391f9f" x="223.359571" y="161.001181" style="fill: #17becf; stroke: #17becf"/>
    </g>
   </g>
   <g id="text_1">
    <g clip-path="url(#pe1be3652f2)">
     <!-- root -->
     <g transform="translate(252.87876 26.923298) scale(0.07 -0.07)">
      <defs>
       <path id="DejaVuSans-Bold-72" d="M 3138 2547 
Q 2991 2616 2845 2648 
Q 2700 2681 2553 2681 
Q 2122 2681 1889 2404 
Q 1656 2128 1656 1613 
L 1656 0 
L 538 0 
L 538 3500 
L 1656 3500 
L 1656 2925 
Q 1872 3269 2151 3426 
Q 2431 3584 2822 3584 
Q 2878 3584 2943 3579 
Q 3009 3575 3134 3559 
L 3138 2547 
z
" transform="scale(0.015625)"/>
       <path id="DejaVuSans-Bold-6f" d="M 2203 2784 
Q 1831 2784 1636 2517 
Q 1441 2250 1441 1747 
Q 1441 1244 1636 976 
Q 1831 709 2203 709 
Q 2569 709 2762 976 
Q 2956 1244 2956 1747 
Q 2956 2250 2762 2517 
Q 2569 2784 2203 2784 
z
M 2203 3584 
Q 3106 3584 3614 3096 
Q 4122 2609 4122 1747 
Q 4122 884 3614 396 
Q 3106 -91 2203 -91 
Q 1297 -91 786 396 
Q 275 884 275 1747 
Q 275 2609 786 3096 
Q 1297 3584 2203 3584 
z
" transform="scale(0.015625)"/>
       <path id="DejaVuSans-Bold-74" d="M 1759 4494 
L 1759 3500 
L 2913 3500 
L 2913 2700 
L 1759 2700 
L 1759 1216 
Q 1759 972 1856 886 
Q 1953 800 2241 800 
L 2816 800 
L 2816 0 
L 1856 0 
Q 1194 0 917 276 
Q 641 553 641 1216 
L 641 2700 
L 84 2700 
L 84 3500 
L 641 3500 
L 641 4494 
L 1759 4494 
z
" transform="scale(0.015625)"/>
      </defs>
      <use xlink:href="#DejaVuSans-Bold-72"/>
      <use xlink:href="#DejaVuSans-Bold-6f" transform="translate(49.316406 0)"/>
      <use xlink:href="#DejaVuSans-Bold-6f" transform="translate(118.017578 0)"/>
      <use xlink:href="#DejaVuSans-Bold-74" transform="translate(186.71875 0)"/>
     </g>
    </g>
   </g>
   <g id="text_2">
    <g clip-path="url(#pe1be3652f2)">
     <!-- 11 -->
     <g transform="translate(297.62428 94.928021) scale(0.07 -0.07)">
      <defs>
       <path id="DejaVuSans-Bold-31" d="M 750 831 
L 1813 831 
L 1813 3847 
L 722 3622 
L 722 4441 
L 1806 4666 
L 2950 4666 
L 2950 831 
L 4013 831 
L 4013 0 
L 750 0 
L 750 831 
z
" transform="scale(0.015625)"/>
      </defs>
      <use xlink:href="#DejaVuSans-Bold-31"/>
      <use xlink:href="#DejaVuSans-Bold-31" transform="translate(69.580078 0)"/>
     </g>
    </g>
   </g>
   <g id="text_3">
    <g clip-path="url(#pe1be3652f2)">
     <!-- 12 -->
     <g transform="translate(214.808397 94.928021) scale(0.07 -0.07)">
      <defs>
       <path id="DejaVuSans-Bold-32" d="M 1844 884 
L 3897 884 
L 3897 0 
L 506 0 
L 506 884 
L 2209 2388 
Q 2438 2594 2547 2791 
Q 2656 2988 2656 3200 
Q 2656 3528 2436 3728 
Q 2216 3928 1850 3928 
Q 1569 3928 1234 3808 
Q 900 3688 519 3450 
L 519 4475 
Q 925 4609 1322 4679 
Q 1719 4750 2100 4750 
Q 2938 4750 3402 4381 
Q 3866 4013 3866 3353 
Q 3866 2972 3669 2642 
Q 3472 2313 2841 1759 
L 1844 884 
z
" transform="scale(0.015625)"/>
      </defs>
      <use xlink:href="#DejaVuSans-Bold-31"/>
      <use xlink:href="#DejaVuSans-Bold-32" transform="translate(69.580078 0)"/>
     </g>
    </g>
   </g>
   <g id="text_4">
    <g clip-path="url(#pe1be3652f2)">
     <!-- 0 -->
     <g transform="translate(173.07516 128.930382) scale(0.07 -0.07)">
      <defs>
       <path id="DejaVuSans-Bold-30" d="M 2944 2338 
Q 2944 3213 2780 3570 
Q 2616 3928 2228 3928 
Q 1841 3928 1675 3570 
Q 1509 3213 1509 2338 
Q 1509 1453 1675 1090 
Q 1841 728 2228 728 
Q 2613 728 2778 1090 
Q 2944 1453 2944 2338 
z
M 4147 2328 
Q 4147 1169 3647 539 
Q 3147 -91 2228 -91 
Q 1306 -91 806 539 
Q 306 1169 306 2328 
Q 306 3491 806 4120 
Q 1306 4750 2228 4750 
Q 3147 4750 3647 4120 
Q 4147 3491 4147 2328 
z
" transform="scale(0.015625)"/>
      </defs>
      <use xlink:href="#DejaVuSans-Bold-30"/>
     </g>
    </g>
   </g>
   <g id="text_5">
    <g clip-path="url(#pe1be3652f2)">
     <!-- 6 -->
     <g transform="translate(125.225983 196.935104) scale(0.07 -0.07)">
      <defs>
       <path id="DejaVuSans-Bold-36" d="M 2316 2303 
Q 2000 2303 1842 2098 
Q 1684 1894 1684 1484 
Q 1684 1075 1842 870 
Q 2000 666 2316 666 
Q 2634 666 2792 870 
Q 2950 1075 2950 1484 
Q 2950 1894 2792 2098 
Q 2634 2303 2316 2303 
z
M 3803 4544 
L 3803 3681 
Q 3506 3822 3243 3889 
Q 2981 3956 2731 3956 
Q 2194 3956 1894 3657 
Q 1594 3359 1544 2772 
Q 1750 2925 1990 3001 
Q 2231 3078 2516 3078 
Q 3231 3078 3670 2659 
Q 4109 2241 4109 1563 
Q 4109 813 3618 361 
Q 3128 -91 2303 -91 
Q 1394 -91 895 523 
Q 397 1138 397 2266 
Q 397 3422 980 4083 
Q 1563 4744 2578 4744 
Q 2900 4744 3203 4694 
Q 3506 4644 3803 4544 
z
" transform="scale(0.015625)"/>
      </defs>
      <use xlink:href="#DejaVuSans-Bold-36"/>
     </g>
    </g>
   </g>
   <g id="text_6">
    <g clip-path="url(#pe1be3652f2)">
     <!-- 7 -->
     <g transform="translate(35.972545 162.932743) scale(0.07 -0.07)">
      <defs>
       <path id="DejaVuSans-Bold-37" d="M 428 4666 
L 3944 4666 
L 3944 3988 
L 2125 0 
L 953 0 
L 2675 3781 
L 428 3781 
L 428 4666 
z
" transform="scale(0.015625)"/>
      </defs>
      <use xlink:href="#DejaVuSans-Bold-37"/>
     </g>
    </g>
   </g>
   <g id="text_7">
    <g clip-path="url(#pe1be3652f2)">
     <!-- 9 -->
     <g transform="translate(311.101632 162.932743) scale(0.07 -0.07)">
      <defs>
       <path id="DejaVuSans-Bold-39" d="M 641 103 
L 641 966 
Q 928 831 1190 764 
Q 1453 697 1709 697 
Q 2247 697 2547 995 
Q 2847 1294 2900 1881 
Q 2688 1725 2447 1647 
Q 2206 1569 1925 1569 
Q 1209 1569 770 1986 
Q 331 2403 331 3084 
Q 331 3838 820 4291 
Q 1309 4744 2131 4744 
Q 3044 4744 3544 4128 
Q 4044 3513 4044 2388 
Q 4044 1231 3459 570 
Q 2875 -91 1856 -91 
Q 1528 -91 1228 -42 
Q 928 6 641 103 
z
M 2125 2350 
Q 2441 2350 2600 2554 
Q 2759 2759 2759 3169 
Q 2759 3575 2600 3781 
Q 2441 3988 2125 3988 
Q 1809 3988 1650 3781 
Q 1491 3575 1491 3169 
Q 1491 2759 1650 2554 
Q 1809 2350 2125 2350 
z
" transform="scale(0.015625)"/>
      </defs>
      <use xlink:href="#DejaVuSans-Bold-39"/>
     </g>
    </g>
   </g>
   <g id="text_8">
    <g clip-path="url(#pe1be3652f2)">
     <!-- 1 -->
     <g transform="translate(302.820044 196.935104) scale(0.07 -0.07)">
      <use xlink:href="#DejaVuSans-Bold-31"/>
     </g>
    </g>
   </g>
   <g id="text_9">
    <g clip-path="url(#pe1be3652f2)">
     <!-- 4 -->
     <g transform="translate(392.077162 230.937466) scale(0.07 -0.07)">
      <defs>
       <path id="DejaVuSans-Bold-34" d="M 2356 3675 
L 1038 1722 
L 2356 1722 
L 2356 3675 
z
M 2156 4666 
L 3494 4666 
L 3494 1722 
L 4159 1722 
L 4159 850 
L 3494 850 
L 3494 0 
L 2356 0 
L 2356 850 
L 288 850 
L 288 1881 
L 2156 4666 
z
" transform="scale(0.015625)"/>
      </defs>
      <use xlink:href="#DejaVuSans-Bold-34"/>
     </g>
    </g>
   </g>
   <g id="text_10">
    <g clip-path="url(#pe1be3652f2)">
     <!-- 2 -->
     <g transform="translate(392.077162 264.939827) scale(0.07 -0.07)">
      <use xlink:href="#DejaVuSans-Bold-32"/>
     </g>
    </g>
   </g>
   <g id="text_11">
    <g clip-path="url(#pe1be3652f2)">
     <!-- 10 -->
     <g transform="translate(209.287338 196.935104) scale(0.07 -0.07)">
      <use xlink:href="#DejaVuSans-Bold-31"/>
      <use xlink:href="#DejaVuSans-Bold-30" transform="translate(69.580078 0)"/>
     </g>
    </g>
   </g>
   <g id="text_12">
    <g clip-path="url(#pe1be3652f2)">
     <!-- 13 -->
     <g transform="translate(120.950396 230.937466) scale(0.07 -0.07)">
      <defs>
       <path id="DejaVuSans-Bold-33" d="M 2981 2516 
Q 3453 2394 3698 2092 
Q 3944 1791 3944 1325 
Q 3944 631 3412 270 
Q 2881 -91 1863 -91 
Q 1503 -91 1142 -33 
Q 781 25 428 141 
L 428 1069 
Q 766 900 1098 814 
Q 1431 728 1753 728 
Q 2231 728 2486 893 
Q 2741 1059 2741 1369 
Q 2741 1688 2480 1852 
Q 2219 2016 1709 2016 
L 1228 2016 
L 1228 2791 
L 1734 2791 
Q 2188 2791 2409 2933 
Q 2631 3075 2631 3366 
Q 2631 3634 2415 3781 
Q 2200 3928 1806 3928 
Q 1516 3928 1219 3862 
Q 922 3797 628 3669 
L 628 4550 
Q 984 4650 1334 4700 
Q 1684 4750 2022 4750 
Q 2931 4750 3382 4451 
Q 3834 4153 3834 3553 
Q 3834 3144 3618 2883 
Q 3403 2622 2981 2516 
z
" transform="scale(0.015625)"/>
      </defs>
      <use xlink:href="#DejaVuSans-Bold-31"/>
      <use xlink:href="#DejaVuSans-Bold-33" transform="translate(69.580078 0)"/>
     </g>
    </g>
   </g>
   <g id="text_13">
    <g clip-path="url(#pe1be3652f2)">
     <!-- CN_A -->
     <g transform="translate(206.041753 230.778325) scale(0.07 -0.07)">
      <defs>
       <path id="DejaVuSans-Bold-43" d="M 4288 256 
Q 3956 84 3597 -3 
Q 3238 -91 2847 -91 
Q 1681 -91 1000 561 
Q 319 1213 319 2328 
Q 319 3447 1000 4098 
Q 1681 4750 2847 4750 
Q 3238 4750 3597 4662 
Q 3956 4575 4288 4403 
L 4288 3438 
Q 3953 3666 3628 3772 
Q 3303 3878 2944 3878 
Q 2300 3878 1931 3465 
Q 1563 3053 1563 2328 
Q 1563 1606 1931 1193 
Q 2300 781 2944 781 
Q 3303 781 3628 887 
Q 3953 994 4288 1222 
L 4288 256 
z
" transform="scale(0.015625)"/>
       <path id="DejaVuSans-Bold-4e" d="M 588 4666 
L 1931 4666 
L 3628 1466 
L 3628 4666 
L 4769 4666 
L 4769 0 
L 3425 0 
L 1728 3200 
L 1728 0 
L 588 0 
L 588 4666 
z
" transform="scale(0.015625)"/>
       <path id="DejaVuSans-Bold-5f" d="M 3200 -916 
L 3200 -1509 
L 0 -1509 
L 0 -916 
L 3200 -916 
z
" transform="scale(0.015625)"/>
       <path id="DejaVuSans-Bold-41" d="M 3419 850 
L 1538 850 
L 1241 0 
L 31 0 
L 1759 4666 
L 3194 4666 
L 4922 0 
L 3713 0 
L 3419 850 
z
M 1838 1716 
L 3116 1716 
L 2478 3572 
L 1838 1716 
z
" transform="scale(0.015625)"/>
      </defs>
      <use xlink:href="#DejaVuSans-Bold-43"/>
      <use xlink:href="#DejaVuSans-Bold-4e" transform="translate(73.388672 0)"/>
      <use xlink:href="#DejaVuSans-Bold-5f" transform="translate(157.080078 0)"/>
      <use xlink:href="#DejaVuSans-Bold-41" transform="translate(207.080078 0)"/>
     </g>
    </g>
   </g>
   <g id="text_14">
    <g clip-path="url(#pe1be3652f2)">
     <!-- CN_B -->
     <g transform="translate(278.776711 128.771241) scale(0.07 -0.07)">
      <defs>
       <path id="DejaVuSans-Bold-42" d="M 2456 2859 
Q 2741 2859 2887 2984 
Q 3034 3109 3034 3353 
Q 3034 3594 2887 3720 
Q 2741 3847 2456 3847 
L 1791 3847 
L 1791 2859 
L 2456 2859 
z
M 2497 819 
Q 2859 819 3042 972 
Q 3225 1125 3225 1434 
Q 3225 1738 3044 1889 
Q 2863 2041 2497 2041 
L 1791 2041 
L 1791 819 
L 2497 819 
z
M 3616 2497 
Q 4003 2384 4215 2081 
Q 4428 1778 4428 1338 
Q 4428 663 3972 331 
Q 3516 0 2584 0 
L 588 0 
L 588 4666 
L 2394 4666 
Q 3366 4666 3802 4372 
Q 4238 4078 4238 3431 
Q 4238 3091 4078 2852 
Q 3919 2613 3616 2497 
z
" transform="scale(0.015625)"/>
      </defs>
      <use xlink:href="#DejaVuSans-Bold-43"/>
      <use xlink:href="#DejaVuSans-Bold-4e" transform="translate(73.388672 0)"/>
      <use xlink:href="#DejaVuSans-Bold-5f" transform="translate(157.080078 0)"/>
      <use xlink:href="#DejaVuSans-Bold-42" transform="translate(207.080078 0)"/>
     </g>
    </g>
   </g>
   <g id="text_15">
    <g clip-path="url(#pe1be3652f2)">
     <!-- CN_C -->
     <g transform="translate(384.69599 196.775964) scale(0.07 -0.07)">
      <use xlink:href="#DejaVuSans-Bold-43"/>
      <use xlink:href="#DejaVuSans-Bold-4e" transform="translate(73.388672 0)"/>
      <use xlink:href="#DejaVuSans-Bold-5f" transform="translate(157.080078 0)"/>
      <use xlink:href="#DejaVuSans-Bold-43" transform="translate(207.080078 0)"/>
     </g>
    </g>
   </g>
   <g id="text_16">
    <g clip-path="url(#pe1be3652f2)">
     <!-- CN_D -->
     <g transform="translate(250.933526 60.766519) scale(0.07 -0.07)">
      <defs>
       <path id="DejaVuSans-Bold-44" d="M 1791 3756 
L 1791 909 
L 2222 909 
Q 2959 909 3348 1275 
Q 3738 1641 3738 2338 
Q 3738 3031 3350 3393 
Q 2963 3756 2222 3756 
L 1791 3756 
z
M 588 4666 
L 1856 4666 
Q 2919 4666 3439 4514 
Q 3959 4363 4331 4000 
Q 4659 3684 4818 3271 
Q 4978 2859 4978 2338 
Q 4978 1809 4818 1395 
Q 4659 981 4331 666 
Q 3956 303 3431 151 
Q 2906 0 1856 0 
L 588 0 
L 588 4666 
z
" transform="scale(0.015625)"/>
      </defs>
      <use xlink:href="#DejaVuSans-Bold-43"/>
      <use xlink:href="#DejaVuSans-Bold-4e" transform="translate(73.388672 0)"/>
      <use xlink:href="#DejaVuSans-Bold-5f" transform="translate(157.080078 0)"/>
      <use xlink:href="#DejaVuSans-Bold-44" transform="translate(207.080078 0)"/>
     </g>
    </g>
   </g>
   <g id="text_17">
    <g clip-path="url(#pe1be3652f2)">
     <!-- CN_E -->
     <g transform="translate(116.182193 264.780686) scale(0.07 -0.07)">
      <defs>
       <path id="DejaVuSans-Bold-45" d="M 588 4666 
L 3834 4666 
L 3834 3756 
L 1791 3756 
L 1791 2888 
L 3713 2888 
L 3713 1978 
L 1791 1978 
L 1791 909 
L 3903 909 
L 3903 0 
L 588 0 
L 588 4666 
z
" transform="scale(0.015625)"/>
      </defs>
      <use xlink:href="#DejaVuSans-Bold-43"/>
      <use xlink:href="#DejaVuSans-Bold-4e" transform="translate(73.388672 0)"/>
      <use xlink:href="#DejaVuSans-Bold-5f" transform="translate(157.080078 0)"/>
      <use xlink:href="#DejaVuSans-Bold-45" transform="translate(207.080078 0)"/>
     </g>
    </g>
   </g>
   <g id="text_18">
    <g clip-path="url(#pe1be3652f2)">
     <!-- CN_F -->
     <g transform="translate(118.022546 162.773603) scale(0.07 -0.07)">
      <defs>
       <path id="DejaVuSans-Bold-46" d="M 588 4666 
L 3834 4666 
L 3834 3756 
L 1791 3756 
L 1791 2888 
L 3713 2888 
L 3713 1978 
L 1791 1978 
L 1791 0 
L 588 0 
L 588 4666 
z
" transform="scale(0.015625)"/>
      </defs>
      <use xlink:href="#DejaVuSans-Bold-43"/>
      <use xlink:href="#DejaVuSans-Bold-4e" transform="translate(73.388672 0)"/>
      <use xlink:href="#DejaVuSans-Bold-5f" transform="translate(157.080078 0)"/>
      <use xlink:href="#DejaVuSans-Bold-46" transform="translate(207.080078 0)"/>
     </g>
    </g>
   </g>
   <g id="text_19">
    <g clip-path="url(#pe1be3652f2)">
     <!-- CN_G -->
     <g transform="translate(27.367135 196.775964) scale(0.07 -0.07)">
      <defs>
       <path id="DejaVuSans-Bold-47" d="M 4781 347 
Q 4331 128 3847 18 
Q 3363 -91 2847 -91 
Q 1681 -91 1000 561 
Q 319 1213 319 2328 
Q 319 3456 1012 4103 
Q 1706 4750 2913 4750 
Q 3378 4750 3804 4662 
Q 4231 4575 4609 4403 
L 4609 3438 
Q 4219 3659 3833 3768 
Q 3447 3878 3059 3878 
Q 2341 3878 1952 3476 
Q 1563 3075 1563 2328 
Q 1563 1588 1938 1184 
Q 2313 781 3003 781 
Q 3191 781 3352 804 
Q 3513 828 3641 878 
L 3641 1784 
L 2906 1784 
L 2906 2591 
L 4781 2591 
L 4781 347 
z
" transform="scale(0.015625)"/>
      </defs>
      <use xlink:href="#DejaVuSans-Bold-43"/>
      <use xlink:href="#DejaVuSans-Bold-4e" transform="translate(73.388672 0)"/>
      <use xlink:href="#DejaVuSans-Bold-5f" transform="translate(157.080078 0)"/>
      <use xlink:href="#DejaVuSans-Bold-47" transform="translate(207.080078 0)"/>
     </g>
    </g>
   </g>
   <g id="text_20">
    <g clip-path="url(#pe1be3652f2)">
     <!-- CN_H -->
     <g transform="translate(213.182775 162.773603) scale(0.07 -0.07)">
      <defs>
       <path id="DejaVuSans-Bold-48" d="M 588 4666 
L 1791 4666 
L 1791 2888 
L 3566 2888 
L 3566 4666 
L 4769 4666 
L 4769 0 
L 3566 0 
L 3566 1978 
L 1791 1978 
L 1791 0 
L 588 0 
L 588 4666 
z
" transform="scale(0.015625)"/>
      </defs>
      <use xlink:href="#DejaVuSans-Bold-43"/>
      <use xlink:href="#DejaVuSans-Bold-4e" transform="translate(73.388672 0)"/>
      <use xlink:href="#DejaVuSans-Bold-5f" transform="translate(157.080078 0)"/>
      <use xlink:href="#DejaVuSans-Bold-48" transform="translate(207.080078 0)"/>
     </g>
    </g>
   </g>
  </g>
 </g>
 <defs>
  <clipPath id="pe1be3652f2">
   <rect x="0" y="0" width="432" height="288"/>
  </clipPath>
 </defs>
</svg>
