<?xml version="1.0" encoding="utf-8" standalone="no"?>
<!DOCTYPE svg PUBLIC "-//W3C//DTD SVG 1.1//EN"
  "http://www.w3.org/Graphics/SVG/1.1/DTD/svg11.dtd">
<svg xmlns:xlink="http://www.w3.org/1999/xlink" width="432pt" height="288pt" viewBox="0 0 432 288" xmlns="http://www.w3.org/2000/svg" version="1.1">
 <metadata>
  <rdf:RDF xmlns:dc="http://purl.org/dc/elements/1.1/" xmlns:cc="http://creativecommons.org/ns#" xmlns:rdf="http://www.w3.org/1999/02/22-rdf-syntax-ns#">
   <cc:Work>
    <dc:type rdf:resource="http://purl.org/dc/dcmitype/StillImage"/>
    <dc:date>2025-11-12T01:26:46.848421</dc:date>
    <dc:format>image/svg+xml</dc:format>
    <dc:creator>
     <cc:Agent>
      <dc:title>Matplotlib v3.10.7, https://matplotlib.org/</dc:title>
     </cc:Agent>
    </dc:creator>
   </cc:Work>
  </rdf:RDF>
 </metadata>
 <defs>
  <style type="text/css">*{stroke-linejoin: round; stroke-linecap: butt}</style>
 </defs>
 <g id="figure_1">
  <g id="patch_1">
   <path d="M 0 288 
L 432 288 
L 432 0 
L 0 0 
z
" style="fill: #ffffff"/>
  </g>
  <g id="axes_1">
   <g id="patch_2">
    <path d="M 109.741761 40.800426 
Q 109.741761 44.796907 109.741761 47.116337 
" clip-path="url(#pfd38b7c5ec)" style="fill: none; stroke: #555555; stroke-width: 1.5; stroke-linecap: round"/>
    <path d="M 111.741761 43.116337 
L 109.741761 47.116337 
L 107.741761 43.116337 
z
" clip-path="url(#pfd38b7c5ec)" style="fill: #555555; stroke: #555555; stroke-width: 1.5; stroke-linecap: round"/>
   </g>
   <g id="patch_3">
    <path d="M 109.741761 64.602079 
Q 109.741761 68.59856 109.741761 70.91799 
" clip-path="url(#pfd38b7c5ec)" style="fill: none; stroke: #555555; stroke-width: 1.5; stroke-linecap: round"/>
    <path d="M 111.741761 66.91799 
L 109.741761 70.91799 
L 107.741761 66.91799 
z
" clip-path="url(#pfd38b7c5ec)" style="fill: #555555; stroke: #555555; stroke-width: 1.5; stroke-linecap: round"/>
   </g>
   <g id="patch_4">
    <path d="M 109.741761 88.403732 
Q 109.741761 92.400213 109.741761 94.719643 
" clip-path="url(#pfd38b7c5ec)" style="fill: none; stroke: #555555; stroke-width: 1.5; stroke-linecap: round"/>
    <path d="M 111.741761 90.719643 
L 109.741761 94.719643 
L 107.741761 90.719643 
z
" clip-path="url(#pfd38b7c5ec)" style="fill: #555555; stroke: #555555; stroke-width: 1.5; stroke-linecap: round"/>
   </g>
   <g id="patch_5">
    <path d="M 109.741761 112.205385 
Q 109.741761 116.201866 109.741761 118.521296 
" clip-path="url(#pfd38b7c5ec)" style="fill: none; stroke: #555555; stroke-width: 1.5; stroke-linecap: round"/>
    <path d="M 111.741761 114.521296 
L 109.741761 118.521296 
L 107.741761 114.521296 
z
" clip-path="url(#pfd38b7c5ec)" style="fill: #555555; stroke: #555555; stroke-width: 1.5; stroke-linecap: round"/>
   </g>
   <g id="patch_6">
    <path d="M 38.958483 159.564631 
Q 38.223043 163.683142 37.78241 166.150717 
" clip-path="url(#pfd38b7c5ec)" style="fill: none; stroke: #555555; stroke-width: 1.5; stroke-linecap: round"/>
    <path d="M 40.45442 162.564583 
L 37.78241 166.150717 
L 36.516708 161.861428 
z
" clip-path="url(#pfd38b7c5ec)" style="fill: #555555; stroke: #555555; stroke-width: 1.5; stroke-linecap: round"/>
   </g>
   <g id="patch_7">
    <path d="M 174.916428 159.808691 
Q 174.916428 163.805172 174.916428 166.124602 
" clip-path="url(#pfd38b7c5ec)" style="fill: none; stroke: #555555; stroke-width: 1.5; stroke-linecap: round"/>
    <path d="M 176.916428 162.124602 
L 174.916428 166.124602 
L 172.916428 162.124602 
z
" clip-path="url(#pfd38b7c5ec)" style="fill: #555555; stroke: #555555; stroke-width: 1.5; stroke-linecap: round"/>
   </g>
   <g id="patch_8">
    <path d="M 190.496248 146.670858 
Q 244.334756 155.900427 296.520327 164.846631 
" clip-path="url(#pfd38b7c5ec)" style="fill: none; stroke: #555555; stroke-width: 1.5; stroke-linecap: round"/>
    <path d="M 292.915771 162.199524 
L 296.520327 164.846631 
L 292.239908 166.142012 
z
" clip-path="url(#pfd38b7c5ec)" style="fill: #555555; stroke: #555555; stroke-width: 1.5; stroke-linecap: round"/>
   </g>
   <g id="patch_9">
    <path d="M 298.805021 196.730017 
Q 279.049425 203.503445 260.880226 209.732958 
" clip-path="url(#pfd38b7c5ec)" style="fill: none; stroke: #555555; stroke-width: 1.5; stroke-linecap: round"/>
    <path d="M 265.312661 210.327537 
L 260.880226 209.732958 
L 264.01535 206.543758 
z
" clip-path="url(#pfd38b7c5ec)" style="fill: #555555; stroke: #555555; stroke-width: 1.5; stroke-linecap: round"/>
   </g>
   <g id="patch_10">
    <path d="M 328.710479 196.730017 
Q 348.466075 203.503445 366.635274 209.732958 
" clip-path="url(#pfd38b7c5ec)" style="fill: none; stroke: #555555; stroke-width: 1.5; stroke-linecap: round"/>
    <path d="M 363.50015 206.543758 
L 366.635274 209.732958 
L 362.202839 210.327537 
z
" clip-path="url(#pfd38b7c5ec)" style="fill: #555555; stroke: #555555; stroke-width: 1.5; stroke-linecap: round"/>
   </g>
   <g id="patch_11">
    <path d="M 174.916428 183.610343 
Q 174.916428 187.606825 174.916428 189.926255 
" clip-path="url(#pfd38b7c5ec)" style="fill: none; stroke: #555555; stroke-width: 1.5; stroke-linecap: round"/>
    <path d="M 176.916428 185.926255 
L 174.916428 189.926255 
L 172.916428 185.926255 
z
" clip-path="url(#pfd38b7c5ec)" style="fill: #555555; stroke: #555555; stroke-width: 1.5; stroke-linecap: round"/>
   </g>
   <g id="patch_12">
    <path d="M 228.756792 218.075817 
Q 174.916635 227.305385 122.729418 236.251598 
" clip-path="url(#pfd38b7c5ec)" style="fill: none; stroke: #555555; stroke-width: 1.5; stroke-linecap: round"/>
    <path d="M 127.009831 237.547001 
L 122.729418 236.251598 
L 126.333988 233.604509 
z
" clip-path="url(#pfd38b7c5ec)" style="fill: #555555; stroke: #555555; stroke-width: 1.5; stroke-linecap: round"/>
   </g>
   <g id="patch_13">
    <path d="M 244.337089 231.213649 
Q 244.337089 235.21013 244.337089 237.529561 
" clip-path="url(#pfd38b7c5ec)" style="fill: none; stroke: #555555; stroke-width: 1.5; stroke-linecap: round"/>
    <path d="M 246.337089 233.529561 
L 244.337089 237.529561 
L 242.337089 233.529561 
z
" clip-path="url(#pfd38b7c5ec)" style="fill: #555555; stroke: #555555; stroke-width: 1.5; stroke-linecap: round"/>
   </g>
   <g id="patch_14">
    <path d="M 389.975759 229.679558 
Q 392.244078 234.443085 393.791383 237.692465 
" clip-path="url(#pfd38b7c5ec)" style="fill: none; stroke: #555555; stroke-width: 1.5; stroke-linecap: round"/>
    <path d="M 393.877391 233.221156 
L 393.791383 237.692465 
L 390.265941 234.940874 
z
" clip-path="url(#pfd38b7c5ec)" style="fill: #555555; stroke: #555555; stroke-width: 1.5; stroke-linecap: round"/>
   </g>
   <g id="patch_15">
    <path d="M 90.67766 244.737184 
Q 73.614142 251.10764 58.121753 256.891534 
" clip-path="url(#pfd38b7c5ec)" style="fill: none; stroke: #555555; stroke-width: 1.5; stroke-linecap: round"/>
    <path d="M 62.568629 257.366183 
L 58.121753 256.891534 
L 61.169598 253.618822 
z
" clip-path="url(#pfd38b7c5ec)" style="fill: #555555; stroke: #555555; stroke-width: 1.5; stroke-linecap: round"/>
   </g>
   <g id="patch_16">
    <path d="M 120.30636 244.737184 
Q 137.371015 251.10764 152.864529 256.891568 
" clip-path="url(#pfd38b7c5ec)" style="fill: none; stroke: #555555; stroke-width: 1.5; stroke-linecap: round"/>
    <path d="M 149.816613 253.618923 
L 152.864529 256.891568 
L 148.417664 257.366314 
z
" clip-path="url(#pfd38b7c5ec)" style="fill: #555555; stroke: #555555; stroke-width: 1.5; stroke-linecap: round"/>
   </g>
   <g id="patch_17">
    <path d="M 94.820248 125.420939 
Q 75.74214 132.098356 58.24693 138.221753 
" clip-path="url(#pfd38b7c5ec)" style="fill: none; stroke: #555555; stroke-width: 1.5; stroke-linecap: round"/>
    <path d="M 62.683066 138.788051 
L 58.24693 138.221753 
L 61.36165 135.012623 
z
" clip-path="url(#pfd38b7c5ec)" style="fill: #555555; stroke: #555555; stroke-width: 1.5; stroke-linecap: round"/>
   </g>
   <g id="patch_18">
    <path d="M 124.591433 125.621417 
Q 142.328352 132.098903 158.489981 138.001096 
" clip-path="url(#pfd38b7c5ec)" style="fill: none; stroke: #555555; stroke-width: 1.5; stroke-linecap: round"/>
    <path d="M 155.418772 134.7503 
L 158.489981 138.001096 
L 154.046619 138.507586 
z
" clip-path="url(#pfd38b7c5ec)" style="fill: #555555; stroke: #555555; stroke-width: 1.5; stroke-linecap: round"/>
   </g>
   <g id="patch_19">
    <path d="M 313.75775 183.610343 
Q 313.75775 187.606825 313.75775 189.926255 
" clip-path="url(#pfd38b7c5ec)" style="fill: none; stroke: #555555; stroke-width: 1.5; stroke-linecap: round"/>
    <path d="M 315.75775 185.926255 
L 313.75775 189.926255 
L 311.75775 185.926255 
z
" clip-path="url(#pfd38b7c5ec)" style="fill: #555555; stroke: #555555; stroke-width: 1.5; stroke-linecap: round"/>
   </g>
   <g id="PathCollection_1">
    <defs>
     <path id="C0_0_5d83a6f860" d="M 0 15.811388 
C 4.193229 15.811388 8.215279 14.145401 11.18034 11.18034 
C 14.145401 8.215279 15.811388 4.193229 15.811388 -0 
C 15.811388 -4.193229 14.145401 -8.215279 11.18034 -11.18034 
C 8.215279 -14.145401 4.193229 -15.811388 0 -15.811388 
C -4.193229 -15.811388 -8.215279 -14.145401 -11.18034 -11.18034 
C -14.145401 -8.215279 -15.811388 -4.193229 -15.811388 0 
C -15.811388 4.193229 -14.145401 8.215279 -11.18034 11.18034 
C -8.215279 14.145401 -4.193229 15.811388 0 15.811388 
z
"/>
    </defs>
    <g clip-path="url(#pfd38b7c5ec)">
     <use xlink:href="#C0_0_5d83a6f860" x="109.741761" y="24.991736" style="fill: #cccccc; stroke: #cccccc"/>
    </g>
    <g clip-path="url(#pfd38b7c5ec)">
     <use xlink:href="#C0_0_5d83a6f860" x="109.741761" y="48.793388" style="fill: #cccccc; stroke: #cccccc"/>
    </g>
    <g clip-path="url(#pfd38b7c5ec)">
     <use xlink:href="#C0_0_5d83a6f860" x="109.741761" y="72.595041" style="fill: #cccccc; stroke: #cccccc"/>
    </g>
    <g clip-path="url(#pfd38b7c5ec)">
     <use xlink:href="#C0_0_5d83a6f860" x="109.741761" y="96.396694" style="fill: #cccccc; stroke: #cccccc"/>
    </g>
    <g clip-path="url(#pfd38b7c5ec)">
     <use xlink:href="#C0_0_5d83a6f860" x="41.737848" y="144" style="fill: #1f77b4; stroke: #1f77b4"/>
    </g>
    <g clip-path="url(#pfd38b7c5ec)">
     <use xlink:href="#C0_0_5d83a6f860" x="174.916428" y="144" style="fill: #1f77b4; stroke: #1f77b4"/>
    </g>
    <g clip-path="url(#pfd38b7c5ec)">
     <use xlink:href="#C0_0_5d83a6f860" x="313.75775" y="191.603306" style="fill: #17becf; stroke: #17becf"/>
    </g>
    <g clip-path="url(#pfd38b7c5ec)">
     <use xlink:href="#C0_0_5d83a6f860" x="174.916428" y="167.801653" style="fill: #1f77b4; stroke: #1f77b4"/>
    </g>
    <g clip-path="url(#pfd38b7c5ec)">
     <use xlink:href="#C0_0_5d83a6f860" x="174.916428" y="191.603306" style="fill: #1f77b4; stroke: #1f77b4"/>
    </g>
    <g clip-path="url(#pfd38b7c5ec)">
     <use xlink:href="#C0_0_5d83a6f860" x="244.337089" y="215.404959" style="fill: #17becf; stroke: #17becf"/>
    </g>
    <g clip-path="url(#pfd38b7c5ec)">
     <use xlink:href="#C0_0_5d83a6f860" x="383.178411" y="215.404959" style="fill: #17becf; stroke: #17becf"/>
    </g>
    <g clip-path="url(#pfd38b7c5ec)">
     <use xlink:href="#C0_0_5d83a6f860" x="105.491516" y="239.206612" style="fill: #17becf; stroke: #17becf"/>
    </g>
    <g clip-path="url(#pfd38b7c5ec)">
     <use xlink:href="#C0_0_5d83a6f860" x="41.737848" y="263.008264" style="fill: #17becf; stroke: #17becf"/>
    </g>
    <g clip-path="url(#pfd38b7c5ec)">
     <use xlink:href="#C0_0_5d83a6f860" x="169.249435" y="263.008264" style="fill: #17becf; stroke: #17becf"/>
    </g>
    <g clip-path="url(#pfd38b7c5ec)">
     <use xlink:href="#C0_0_5d83a6f860" x="109.741761" y="120.198347" style="fill: #1f77b4; stroke: #1f77b4"/>
    </g>
    <g clip-path="url(#pfd38b7c5ec)">
     <use xlink:href="#C0_0_5d83a6f860" x="37.487603" y="167.801653" style="fill: #2ca02c; stroke: #2ca02c"/>
    </g>
    <g clip-path="url(#pfd38b7c5ec)">
     <use xlink:href="#C0_0_5d83a6f860" x="394.512397" y="239.206612" style="fill: #8c564b; stroke: #8c564b"/>
    </g>
    <g clip-path="url(#pfd38b7c5ec)">
     <use xlink:href="#C0_0_5d83a6f860" x="244.337089" y="239.206612" style="fill: #7f7f7f; stroke: #7f7f7f"/>
    </g>
    <g clip-path="url(#pfd38b7c5ec)">
     <use xlink:href="#C0_0_5d83a6f860" x="313.75775" y="167.801653" style="fill: #17becf; stroke: #17becf"/>
    </g>
   </g>
   <g id="text_1">
    <g clip-path="url(#pfd38b7c5ec)">
     <!-- root -->
     <g transform="translate(101.533714 26.923298) scale(0.07 -0.07)">
      <defs>
       <path id="DejaVuSans-Bold-72" d="M 3138 2547 
Q 2991 2616 2845 2648 
Q 2700 2681 2553 2681 
Q 2122 2681 1889 2404 
Q 1656 2128 1656 1613 
L 1656 0 
L 538 0 
L 538 3500 
L 1656 3500 
L 1656 2925 
Q 1872 3269 2151 3426 
Q 2431 3584 2822 3584 
Q 2878 3584 2943 3579 
Q 3009 3575 3134 3559 
L 3138 2547 
z
" transform="scale(0.015625)"/>
       <path id="DejaVuSans-Bold-6f" d="M 2203 2784 
Q 1831 2784 1636 2517 
Q 1441 2250 1441 1747 
Q 1441 1244 1636 976 
Q 1831 709 2203 709 
Q 2569 709 2762 976 
Q 2956 1244 2956 1747 
Q 2956 2250 2762 2517 
Q 2569 2784 2203 2784 
z
M 2203 3584 
Q 3106 3584 3614 3096 
Q 4122 2609 4122 1747 
Q 4122 884 3614 396 
Q 3106 -91 2203 -91 
Q 1297 -91 786 396 
Q 275 884 275 1747 
Q 275 2609 786 3096 
Q 1297 3584 2203 3584 
z
" transform="scale(0.015625)"/>
       <path id="DejaVuSans-Bold-74" d="M 1759 4494 
L 1759 3500 
L 2913 3500 
L 2913 2700 
L 1759 2700 
L 1759 1216 
Q 1759 972 1856 886 
Q 1953 800 2241 800 
L 2816 800 
L 2816 0 
L 1856 0 
Q 1194 0 917 276 
Q 641 553 641 1216 
L 641 2700 
L 84 2700 
L 84 3500 
L 641 3500 
L 641 4494 
L 1759 4494 
z
" transform="scale(0.015625)"/>
      </defs>
      <use xlink:href="#DejaVuSans-Bold-72"/>
      <use xlink:href="#DejaVuSans-Bold-6f" transform="translate(49.316406 0)"/>
      <use xlink:href="#DejaVuSans-Bold-6f" transform="translate(118.017578 0)"/>
      <use xlink:href="#DejaVuSans-Bold-74" transform="translate(186.71875 0)"/>
     </g>
    </g>
   </g>
   <g id="text_2">
    <g clip-path="url(#pfd38b7c5ec)">
     <!-- 3 -->
     <g transform="translate(107.306526 50.724951) scale(0.07 -0.07)">
      <defs>
       <path id="DejaVuSans-Bold-33" d="M 2981 2516 
Q 3453 2394 3698 2092 
Q 3944 1791 3944 1325 
Q 3944 631 3412 270 
Q 2881 -91 1863 -91 
Q 1503 -91 1142 -33 
Q 781 25 428 141 
L 428 1069 
Q 766 900 1098 814 
Q 1431 728 1753 728 
Q 2231 728 2486 893 
Q 2741 1059 2741 1369 
Q 2741 1688 2480 1852 
Q 2219 2016 1709 2016 
L 1228 2016 
L 1228 2791 
L 1734 2791 
Q 2188 2791 2409 2933 
Q 2631 3075 2631 3366 
Q 2631 3634 2415 3781 
Q 2200 3928 1806 3928 
Q 1516 3928 1219 3862 
Q 922 3797 628 3669 
L 628 4550 
Q 984 4650 1334 4700 
Q 1684 4750 2022 4750 
Q 2931 4750 3382 4451 
Q 3834 4153 3834 3553 
Q 3834 3144 3618 2883 
Q 3403 2622 2981 2516 
z
" transform="scale(0.015625)"/>
      </defs>
      <use xlink:href="#DejaVuSans-Bold-33"/>
     </g>
    </g>
   </g>
   <g id="text_3">
    <g clip-path="url(#pfd38b7c5ec)">
     <!-- 5 -->
     <g transform="translate(107.306526 74.526604) scale(0.07 -0.07)">
      <defs>
       <path id="DejaVuSans-Bold-35" d="M 678 4666 
L 3669 4666 
L 3669 3781 
L 1638 3781 
L 1638 3059 
Q 1775 3097 1914 3117 
Q 2053 3138 2203 3138 
Q 3056 3138 3531 2711 
Q 4006 2284 4006 1522 
Q 4006 766 3489 337 
Q 2972 -91 2053 -91 
Q 1656 -91 1267 -14 
Q 878 63 494 219 
L 494 1166 
Q 875 947 1217 837 
Q 1559 728 1863 728 
Q 2300 728 2551 942 
Q 2803 1156 2803 1522 
Q 2803 1891 2551 2103 
Q 2300 2316 1863 2316 
Q 1603 2316 1309 2248 
Q 1016 2181 678 2041 
L 678 4666 
z
" transform="scale(0.015625)"/>
      </defs>
      <use xlink:href="#DejaVuSans-Bold-35"/>
     </g>
    </g>
   </g>
   <g id="text_4">
    <g clip-path="url(#pfd38b7c5ec)">
     <!-- 13 -->
     <g transform="translate(104.871292 98.328257) scale(0.07 -0.07)">
      <defs>
       <path id="DejaVuSans-Bold-31" d="M 750 831 
L 1813 831 
L 1813 3847 
L 722 3622 
L 722 4441 
L 1806 4666 
L 2950 4666 
L 2950 831 
L 4013 831 
L 4013 0 
L 750 0 
L 750 831 
z
" transform="scale(0.015625)"/>
      </defs>
      <use xlink:href="#DejaVuSans-Bold-31"/>
      <use xlink:href="#DejaVuSans-Bold-33" transform="translate(69.580078 0)"/>
     </g>
    </g>
   </g>
   <g id="text_5">
    <g clip-path="url(#pfd38b7c5ec)">
     <!-- 10 -->
     <g transform="translate(36.867379 145.931563) scale(0.07 -0.07)">
      <defs>
       <path id="DejaVuSans-Bold-30" d="M 2944 2338 
Q 2944 3213 2780 3570 
Q 2616 3928 2228 3928 
Q 1841 3928 1675 3570 
Q 1509 3213 1509 2338 
Q 1509 1453 1675 1090 
Q 1841 728 2228 728 
Q 2613 728 2778 1090 
Q 2944 1453 2944 2338 
z
M 4147 2328 
Q 4147 1169 3647 539 
Q 3147 -91 2228 -91 
Q 1306 -91 806 539 
Q 306 1169 306 2328 
Q 306 3491 806 4120 
Q 1306 4750 2228 4750 
Q 3147 4750 3647 4120 
Q 4147 3491 4147 2328 
z
" transform="scale(0.015625)"/>
      </defs>
      <use xlink:href="#DejaVuSans-Bold-31"/>
      <use xlink:href="#DejaVuSans-Bold-30" transform="translate(69.580078 0)"/>
     </g>
    </g>
   </g>
   <g id="text_6">
    <g clip-path="url(#pfd38b7c5ec)">
     <!-- 12 -->
     <g transform="translate(170.045959 145.931563) scale(0.07 -0.07)">
      <defs>
       <path id="DejaVuSans-Bold-32" d="M 1844 884 
L 3897 884 
L 3897 0 
L 506 0 
L 506 884 
L 2209 2388 
Q 2438 2594 2547 2791 
Q 2656 2988 2656 3200 
Q 2656 3528 2436 3728 
Q 2216 3928 1850 3928 
Q 1569 3928 1234 3808 
Q 900 3688 519 3450 
L 519 4475 
Q 925 4609 1322 4679 
Q 1719 4750 2100 4750 
Q 2938 4750 3402 4381 
Q 3866 4013 3866 3353 
Q 3866 2972 3669 2642 
Q 3472 2313 2841 1759 
L 1844 884 
z
" transform="scale(0.015625)"/>
      </defs>
      <use xlink:href="#DejaVuSans-Bold-31"/>
      <use xlink:href="#DejaVuSans-Bold-32" transform="translate(69.580078 0)"/>
     </g>
    </g>
   </g>
   <g id="text_7">
    <g clip-path="url(#pfd38b7c5ec)">
     <!-- 0 -->
     <g transform="translate(311.322516 193.534868) scale(0.07 -0.07)">
      <use xlink:href="#DejaVuSans-Bold-30"/>
     </g>
    </g>
   </g>
   <g id="text_8">
    <g clip-path="url(#pfd38b7c5ec)">
     <!-- 6 -->
     <g transform="translate(172.481193 169.733215) scale(0.07 -0.07)">
      <defs>
       <path id="DejaVuSans-Bold-36" d="M 2316 2303 
Q 2000 2303 1842 2098 
Q 1684 1894 1684 1484 
Q 1684 1075 1842 870 
Q 2000 666 2316 666 
Q 2634 666 2792 870 
Q 2950 1075 2950 1484 
Q 2950 1894 2792 2098 
Q 2634 2303 2316 2303 
z
M 3803 4544 
L 3803 3681 
Q 3506 3822 3243 3889 
Q 2981 3956 2731 3956 
Q 2194 3956 1894 3657 
Q 1594 3359 1544 2772 
Q 1750 2925 1990 3001 
Q 2231 3078 2516 3078 
Q 3231 3078 3670 2659 
Q 4109 2241 4109 1563 
Q 4109 813 3618 361 
Q 3128 -91 2303 -91 
Q 1394 -91 895 523 
Q 397 1138 397 2266 
Q 397 3422 980 4083 
Q 1563 4744 2578 4744 
Q 2900 4744 3203 4694 
Q 3506 4644 3803 4544 
z
" transform="scale(0.015625)"/>
      </defs>
      <use xlink:href="#DejaVuSans-Bold-36"/>
     </g>
    </g>
   </g>
   <g id="text_9">
    <g clip-path="url(#pfd38b7c5ec)">
     <!-- 4 -->
     <g transform="translate(172.481193 193.534868) scale(0.07 -0.07)">
      <defs>
       <path id="DejaVuSans-Bold-34" d="M 2356 3675 
L 1038 1722 
L 2356 1722 
L 2356 3675 
z
M 2156 4666 
L 3494 4666 
L 3494 1722 
L 4159 1722 
L 4159 850 
L 3494 850 
L 3494 0 
L 2356 0 
L 2356 850 
L 288 850 
L 288 1881 
L 2156 4666 
z
" transform="scale(0.015625)"/>
      </defs>
      <use xlink:href="#DejaVuSans-Bold-34"/>
     </g>
    </g>
   </g>
   <g id="text_10">
    <g clip-path="url(#pfd38b7c5ec)">
     <!-- 8 -->
     <g transform="translate(241.901854 217.336521) scale(0.07 -0.07)">
      <defs>
       <path id="DejaVuSans-Bold-38" d="M 2228 2088 
Q 1891 2088 1709 1903 
Q 1528 1719 1528 1375 
Q 1528 1031 1709 848 
Q 1891 666 2228 666 
Q 2563 666 2741 848 
Q 2919 1031 2919 1375 
Q 2919 1722 2741 1905 
Q 2563 2088 2228 2088 
z
M 1350 2484 
Q 925 2613 709 2878 
Q 494 3144 494 3541 
Q 494 4131 934 4440 
Q 1375 4750 2228 4750 
Q 3075 4750 3515 4442 
Q 3956 4134 3956 3541 
Q 3956 3144 3739 2878 
Q 3522 2613 3097 2484 
Q 3572 2353 3814 2058 
Q 4056 1763 4056 1313 
Q 4056 619 3595 264 
Q 3134 -91 2228 -91 
Q 1319 -91 855 264 
Q 391 619 391 1313 
Q 391 1763 633 2058 
Q 875 2353 1350 2484 
z
M 1631 3419 
Q 1631 3141 1786 2991 
Q 1941 2841 2228 2841 
Q 2509 2841 2662 2991 
Q 2816 3141 2816 3419 
Q 2816 3697 2662 3845 
Q 2509 3994 2228 3994 
Q 1941 3994 1786 3844 
Q 1631 3694 1631 3419 
z
" transform="scale(0.015625)"/>
      </defs>
      <use xlink:href="#DejaVuSans-Bold-38"/>
     </g>
    </g>
   </g>
   <g id="text_11">
    <g clip-path="url(#pfd38b7c5ec)">
     <!-- 9 -->
     <g transform="translate(380.743177 217.336521) scale(0.07 -0.07)">
      <defs>
       <path id="DejaVuSans-Bold-39" d="M 641 103 
L 641 966 
Q 928 831 1190 764 
Q 1453 697 1709 697 
Q 2247 697 2547 995 
Q 2847 1294 2900 1881 
Q 2688 1725 2447 1647 
Q 2206 1569 1925 1569 
Q 1209 1569 770 1986 
Q 331 2403 331 3084 
Q 331 3838 820 4291 
Q 1309 4744 2131 4744 
Q 3044 4744 3544 4128 
Q 4044 3513 4044 2388 
Q 4044 1231 3459 570 
Q 2875 -91 1856 -91 
Q 1528 -91 1228 -42 
Q 928 6 641 103 
z
M 2125 2350 
Q 2441 2350 2600 2554 
Q 2759 2759 2759 3169 
Q 2759 3575 2600 3781 
Q 2441 3988 2125 3988 
Q 1809 3988 1650 3781 
Q 1491 3575 1491 3169 
Q 1491 2759 1650 2554 
Q 1809 2350 2125 2350 
z
" transform="scale(0.015625)"/>
      </defs>
      <use xlink:href="#DejaVuSans-Bold-39"/>
     </g>
    </g>
   </g>
   <g id="text_12">
    <g clip-path="url(#pfd38b7c5ec)">
     <!-- 11 -->
     <g transform="translate(100.621048 241.138174) scale(0.07 -0.07)">
      <use xlink:href="#DejaVuSans-Bold-31"/>
      <use xlink:href="#DejaVuSans-Bold-31" transform="translate(69.580078 0)"/>
     </g>
    </g>
   </g>
   <g id="text_13">
    <g clip-path="url(#pfd38b7c5ec)">
     <!-- 1 -->
     <g transform="translate(39.302613 264.939827) scale(0.07 -0.07)">
      <use xlink:href="#DejaVuSans-Bold-31"/>
     </g>
    </g>
   </g>
   <g id="text_14">
    <g clip-path="url(#pfd38b7c5ec)">
     <!-- 14 -->
     <g transform="translate(164.378966 264.939827) scale(0.07 -0.07)">
      <use xlink:href="#DejaVuSans-Bold-31"/>
      <use xlink:href="#DejaVuSans-Bold-34" transform="translate(69.580078 0)"/>
     </g>
    </g>
   </g>
   <g id="text_15">
    <g clip-path="url(#pfd38b7c5ec)">
     <!-- CN_A -->
     <g transform="translate(99.785355 121.970769) scale(0.07 -0.07)">
      <defs>
       <path id="DejaVuSans-Bold-43" d="M 4288 256 
Q 3956 84 3597 -3 
Q 3238 -91 2847 -91 
Q 1681 -91 1000 561 
Q 319 1213 319 2328 
Q 319 3447 1000 4098 
Q 1681 4750 2847 4750 
Q 3238 4750 3597 4662 
Q 3956 4575 4288 4403 
L 4288 3438 
Q 3953 3666 3628 3772 
Q 3303 3878 2944 3878 
Q 2300 3878 1931 3465 
Q 1563 3053 1563 2328 
Q 1563 1606 1931 1193 
Q 2300 781 2944 781 
Q 3303 781 3628 887 
Q 3953 994 4288 1222 
L 4288 256 
z
" transform="scale(0.015625)"/>
       <path id="DejaVuSans-Bold-4e" d="M 588 4666 
L 1931 4666 
L 3628 1466 
L 3628 4666 
L 4769 4666 
L 4769 0 
L 3425 0 
L 1728 3200 
L 1728 0 
L 588 0 
L 588 4666 
z
" transform="scale(0.015625)"/>
       <path id="DejaVuSans-Bold-5f" d="M 3200 -916 
L 3200 -1509 
L 0 -1509 
L 0 -916 
L 3200 -916 
z
" transform="scale(0.015625)"/>
       <path id="DejaVuSans-Bold-41" d="M 3419 850 
L 1538 850 
L 1241 0 
L 31 0 
L 1759 4666 
L 3194 4666 
L 4922 0 
L 3713 0 
L 3419 850 
z
M 1838 1716 
L 3116 1716 
L 2478 3572 
L 1838 1716 
z
" transform="scale(0.015625)"/>
      </defs>
      <use xlink:href="#DejaVuSans-Bold-43"/>
      <use xlink:href="#DejaVuSans-Bold-4e" transform="translate(73.388672 0)"/>
      <use xlink:href="#DejaVuSans-Bold-5f" transform="translate(157.080078 0)"/>
      <use xlink:href="#DejaVuSans-Bold-41" transform="translate(207.080078 0)"/>
     </g>
    </g>
   </g>
   <g id="text_16">
    <g clip-path="url(#pfd38b7c5ec)">
     <!-- CN_C -->
     <g transform="translate(27.671197 169.574075) scale(0.07 -0.07)">
      <use xlink:href="#DejaVuSans-Bold-43"/>
      <use xlink:href="#DejaVuSans-Bold-4e" transform="translate(73.388672 0)"/>
      <use xlink:href="#DejaVuSans-Bold-5f" transform="translate(157.080078 0)"/>
      <use xlink:href="#DejaVuSans-Bold-43" transform="translate(207.080078 0)"/>
     </g>
    </g>
   </g>
   <g id="text_17">
    <g clip-path="url(#pfd38b7c5ec)">
     <!-- CN_D -->
     <g transform="translate(384.359115 240.979033) scale(0.07 -0.07)">
      <defs>
       <path id="DejaVuSans-Bold-44" d="M 1791 3756 
L 1791 909 
L 2222 909 
Q 2959 909 3348 1275 
Q 3738 1641 3738 2338 
Q 3738 3031 3350 3393 
Q 2963 3756 2222 3756 
L 1791 3756 
z
M 588 4666 
L 1856 4666 
Q 2919 4666 3439 4514 
Q 3959 4363 4331 4000 
Q 4659 3684 4818 3271 
Q 4978 2859 4978 2338 
Q 4978 1809 4818 1395 
Q 4659 981 4331 666 
Q 3956 303 3431 151 
Q 2906 0 1856 0 
L 588 0 
L 588 4666 
z
" transform="scale(0.015625)"/>
      </defs>
      <use xlink:href="#DejaVuSans-Bold-43"/>
      <use xlink:href="#DejaVuSans-Bold-4e" transform="translate(73.388672 0)"/>
      <use xlink:href="#DejaVuSans-Bold-5f" transform="translate(157.080078 0)"/>
      <use xlink:href="#DejaVuSans-Bold-44" transform="translate(207.080078 0)"/>
     </g>
    </g>
   </g>
   <g id="text_18">
    <g clip-path="url(#pfd38b7c5ec)">
     <!-- CN_G -->
     <g transform="translate(234.21662 240.979033) scale(0.07 -0.07)">
      <defs>
       <path id="DejaVuSans-Bold-47" d="M 4781 347 
Q 4331 128 3847 18 
Q 3363 -91 2847 -91 
Q 1681 -91 1000 561 
Q 319 1213 319 2328 
Q 319 3456 1012 4103 
Q 1706 4750 2913 4750 
Q 3378 4750 3804 4662 
Q 4231 4575 4609 4403 
L 4609 3438 
Q 4219 3659 3833 3768 
Q 3447 3878 3059 3878 
Q 2341 3878 1952 3476 
Q 1563 3075 1563 2328 
Q 1563 1588 1938 1184 
Q 2313 781 3003 781 
Q 3191 781 3352 804 
Q 3513 828 3641 878 
L 3641 1784 
L 2906 1784 
L 2906 2591 
L 4781 2591 
L 4781 347 
z
" transform="scale(0.015625)"/>
      </defs>
      <use xlink:href="#DejaVuSans-Bold-43"/>
      <use xlink:href="#DejaVuSans-Bold-4e" transform="translate(73.388672 0)"/>
      <use xlink:href="#DejaVuSans-Bold-5f" transform="translate(157.080078 0)"/>
      <use xlink:href="#DejaVuSans-Bold-47" transform="translate(207.080078 0)"/>
     </g>
    </g>
   </g>
   <g id="text_19">
    <g clip-path="url(#pfd38b7c5ec)">
     <!-- CN_H -->
     <g transform="translate(303.580953 169.574075) scale(0.07 -0.07)">
      <defs>
       <path id="DejaVuSans-Bold-48" d="M 588 4666 
L 1791 4666 
L 1791 2888 
L 3566 2888 
L 3566 4666 
L 4769 4666 
L 4769 0 
L 3566 0 
L 3566 1978 
L 1791 1978 
L 1791 0 
L 588 0 
L 588 4666 
z
" transform="scale(0.015625)"/>
      </defs>
      <use xlink:href="#DejaVuSans-Bold-43"/>
      <use xlink:href="#DejaVuSans-Bold-4e" transform="translate(73.388672 0)"/>
      <use xlink:href="#DejaVuSans-Bold-5f" transform="translate(157.080078 0)"/>
      <use xlink:href="#DejaVuSans-Bold-48" transform="translate(207.080078 0)"/>
     </g>
    </g>
   </g>
  </g>
 </g>
 <defs>
  <clipPath id="pfd38b7c5ec">
   <rect x="0" y="0" width="432" height="288"/>
  </clipPath>
 </defs>
</svg>
