<?xml version="1.0" encoding="utf-8" standalone="no"?>
<!DOCTYPE svg PUBLIC "-//W3C//DTD SVG 1.1//EN"
  "http://www.w3.org/Graphics/SVG/1.1/DTD/svg11.dtd">
<svg xmlns:xlink="http://www.w3.org/1999/xlink" width="432pt" height="288pt" viewBox="0 0 432 288" xmlns="http://www.w3.org/2000/svg" version="1.1">
 <metadata>
  <rdf:RDF xmlns:dc="http://purl.org/dc/elements/1.1/" xmlns:cc="http://creativecommons.org/ns#" xmlns:rdf="http://www.w3.org/1999/02/22-rdf-syntax-ns#">
   <cc:Work>
    <dc:type rdf:resource="http://purl.org/dc/dcmitype/StillImage"/>
    <dc:date>2025-11-12T23:44:10.198323</dc:date>
    <dc:format>image/svg+xml</dc:format>
    <dc:creator>
     <cc:Agent>
      <dc:title>Matplotlib v3.10.7, https://matplotlib.org/</dc:title>
     </cc:Agent>
    </dc:creator>
   </cc:Work>
  </rdf:RDF>
 </metadata>
 <defs>
  <style type="text/css">*{stroke-linejoin: round; stroke-linecap: butt}</style>
 </defs>
 <g id="figure_1">
  <g id="patch_1">
   <path d="M 0 288 
L 432 288 
L 432 0 
L 0 0 
z
" style="fill: #ffffff"/>
  </g>
  <g id="axes_1">
   <g id="patch_2">
    <path d="M 305.845285 40.801395 
Q 305.845285 40.830449 305.845285 39.182453 
" clip-path="url(#p1b3d8ce972)" style="fill: none; stroke: #555555; stroke-width: 1.5; stroke-linecap: round"/>
    <path d="M 307.845285 35.182453 
L 305.845285 39.182453 
L 303.845285 35.182453 
z
" clip-path="url(#p1b3d8ce972)" style="fill: #555555; stroke: #555555; stroke-width: 1.5; stroke-linecap: round"/>
   </g>
   <g id="patch_3">
    <path d="M 305.845285 56.669163 
Q 305.845285 56.698218 305.845285 55.050222 
" clip-path="url(#p1b3d8ce972)" style="fill: none; stroke: #555555; stroke-width: 1.5; stroke-linecap: round"/>
    <path d="M 307.845285 51.050222 
L 305.845285 55.050222 
L 303.845285 51.050222 
z
" clip-path="url(#p1b3d8ce972)" style="fill: #555555; stroke: #555555; stroke-width: 1.5; stroke-linecap: round"/>
   </g>
   <g id="patch_4">
    <path d="M 305.845285 72.536932 
Q 305.845285 72.565987 305.845285 70.91799 
" clip-path="url(#p1b3d8ce972)" style="fill: none; stroke: #555555; stroke-width: 1.5; stroke-linecap: round"/>
    <path d="M 307.845285 66.91799 
L 305.845285 70.91799 
L 303.845285 66.91799 
z
" clip-path="url(#p1b3d8ce972)" style="fill: #555555; stroke: #555555; stroke-width: 1.5; stroke-linecap: round"/>
   </g>
   <g id="patch_5">
    <path d="M 305.845285 88.4047 
Q 305.845285 88.433755 305.845285 86.785759 
" clip-path="url(#p1b3d8ce972)" style="fill: none; stroke: #555555; stroke-width: 1.5; stroke-linecap: round"/>
    <path d="M 307.845285 82.785759 
L 305.845285 86.785759 
L 303.845285 82.785759 
z
" clip-path="url(#p1b3d8ce972)" style="fill: #555555; stroke: #555555; stroke-width: 1.5; stroke-linecap: round"/>
   </g>
   <g id="patch_6">
    <path d="M 305.845285 104.272469 
Q 305.845285 104.301524 305.845285 102.653528 
" clip-path="url(#p1b3d8ce972)" style="fill: none; stroke: #555555; stroke-width: 1.5; stroke-linecap: round"/>
    <path d="M 307.845285 98.653528 
L 305.845285 102.653528 
L 303.845285 98.653528 
z
" clip-path="url(#p1b3d8ce972)" style="fill: #555555; stroke: #555555; stroke-width: 1.5; stroke-linecap: round"/>
   </g>
   <g id="patch_7">
    <path d="M 305.845285 120.140238 
Q 305.845285 120.169292 305.845285 118.521296 
" clip-path="url(#p1b3d8ce972)" style="fill: none; stroke: #555555; stroke-width: 1.5; stroke-linecap: round"/>
    <path d="M 307.845285 114.521296 
L 305.845285 118.521296 
L 303.845285 114.521296 
z
" clip-path="url(#p1b3d8ce972)" style="fill: #555555; stroke: #555555; stroke-width: 1.5; stroke-linecap: round"/>
   </g>
   <g id="patch_8">
    <path d="M 305.845285 136.008006 
Q 305.845285 136.037061 305.845285 134.389065 
" clip-path="url(#p1b3d8ce972)" style="fill: none; stroke: #555555; stroke-width: 1.5; stroke-linecap: round"/>
    <path d="M 307.845285 130.389065 
L 305.845285 134.389065 
L 303.845285 130.389065 
z
" clip-path="url(#p1b3d8ce972)" style="fill: #555555; stroke: #555555; stroke-width: 1.5; stroke-linecap: round"/>
   </g>
   <g id="patch_9">
    <path d="M 305.845285 151.875775 
Q 305.845285 151.90483 305.845285 150.256833 
" clip-path="url(#p1b3d8ce972)" style="fill: none; stroke: #555555; stroke-width: 1.5; stroke-linecap: round"/>
    <path d="M 307.845285 146.256833 
L 305.845285 150.256833 
L 303.845285 146.256833 
z
" clip-path="url(#p1b3d8ce972)" style="fill: #555555; stroke: #555555; stroke-width: 1.5; stroke-linecap: round"/>
   </g>
   <g id="patch_10">
    <path d="M 291.275349 158.072185 
Q 287.014298 159.867362 284.298739 161.011424 
" clip-path="url(#p1b3d8ce972)" style="fill: none; stroke: #555555; stroke-width: 1.5; stroke-linecap: round"/>
    <path d="M 288.761456 161.301533 
L 284.298739 161.011424 
L 287.208456 157.615316 
z
" clip-path="url(#p1b3d8ce972)" style="fill: #555555; stroke: #555555; stroke-width: 1.5; stroke-linecap: round"/>
   </g>
   <g id="patch_11">
    <path d="M 320.46297 157.966619 
Q 325.069441 159.867715 328.125691 161.129033 
" clip-path="url(#p1b3d8ce972)" style="fill: none; stroke: #555555; stroke-width: 1.5; stroke-linecap: round"/>
    <path d="M 325.191178 157.754327 
L 328.125691 161.129033 
L 323.665219 161.45182 
z
" clip-path="url(#p1b3d8ce972)" style="fill: #555555; stroke: #555555; stroke-width: 1.5; stroke-linecap: round"/>
   </g>
   <g id="patch_12">
    <path d="M 253.653876 174.052299 
Q 249.739866 175.736352 247.366365 176.757581 
" clip-path="url(#p1b3d8ce972)" style="fill: none; stroke: #555555; stroke-width: 1.5; stroke-linecap: round"/>
    <path d="M 251.831154 177.013818 
L 247.366365 176.757581 
L 250.250228 173.339492 
z
" clip-path="url(#p1b3d8ce972)" style="fill: #555555; stroke: #555555; stroke-width: 1.5; stroke-linecap: round"/>
   </g>
   <g id="patch_13">
    <path d="M 282.708883 174.052299 
Q 286.622893 175.736352 288.996395 176.757581 
" clip-path="url(#p1b3d8ce972)" style="fill: none; stroke: #555555; stroke-width: 1.5; stroke-linecap: round"/>
    <path d="M 286.112532 173.339492 
L 288.996395 176.757581 
L 284.531605 177.013818 
z
" clip-path="url(#p1b3d8ce972)" style="fill: #555555; stroke: #555555; stroke-width: 1.5; stroke-linecap: round"/>
   </g>
   <g id="patch_14">
    <path d="M 216.884212 190.148631 
Q 213.649168 191.602414 211.943814 192.368775 
" clip-path="url(#p1b3d8ce972)" style="fill: none; stroke: #555555; stroke-width: 1.5; stroke-linecap: round"/>
    <path d="M 216.412135 192.553443 
L 211.943814 192.368775 
L 214.772541 188.904919 
z
" clip-path="url(#p1b3d8ce972)" style="fill: #555555; stroke: #555555; stroke-width: 1.5; stroke-linecap: round"/>
   </g>
   <g id="patch_15">
    <path d="M 246.824745 186.687726 
Q 272.103811 191.603132 295.736658 196.198438 
" clip-path="url(#p1b3d8ce972)" style="fill: none; stroke: #555555; stroke-width: 1.5; stroke-linecap: round"/>
    <path d="M 292.191939 193.471725 
L 295.736658 196.198438 
L 291.428455 197.398185 
z
" clip-path="url(#p1b3d8ce972)" style="fill: #555555; stroke: #555555; stroke-width: 1.5; stroke-linecap: round"/>
   </g>
   <g id="patch_16">
    <path d="M 180.25689 201.112442 
Q 116.738761 207.47119 54.889342 213.662885 
" clip-path="url(#p1b3d8ce972)" style="fill: none; stroke: #555555; stroke-width: 1.5; stroke-linecap: round"/>
    <path d="M 59.068671 215.254493 
L 54.889342 213.662885 
L 58.670225 211.274387 
z
" clip-path="url(#p1b3d8ce972)" style="fill: #555555; stroke: #555555; stroke-width: 1.5; stroke-linecap: round"/>
   </g>
   <g id="patch_17">
    <path d="M 180.466196 202.527408 
Q 154.798494 207.47085 130.777579 212.097131 
" clip-path="url(#p1b3d8ce972)" style="fill: none; stroke: #555555; stroke-width: 1.5; stroke-linecap: round"/>
    <path d="M 135.083633 213.304566 
L 130.777579 212.097131 
L 134.327159 209.376749 
z
" clip-path="url(#p1b3d8ce972)" style="fill: #555555; stroke: #555555; stroke-width: 1.5; stroke-linecap: round"/>
   </g>
   <g id="patch_18">
    <path d="M 195.992227 215.346849 
Q 195.992227 215.375904 195.992227 213.727908 
" clip-path="url(#p1b3d8ce972)" style="fill: none; stroke: #555555; stroke-width: 1.5; stroke-linecap: round"/>
    <path d="M 197.992227 209.727908 
L 195.992227 213.727908 
L 193.992227 209.727908 
z
" clip-path="url(#p1b3d8ce972)" style="fill: #555555; stroke: #555555; stroke-width: 1.5; stroke-linecap: round"/>
   </g>
   <g id="patch_19">
    <path d="M 211.514834 202.555495 
Q 236.793899 207.470901 260.426746 212.066207 
" clip-path="url(#p1b3d8ce972)" style="fill: none; stroke: #555555; stroke-width: 1.5; stroke-linecap: round"/>
    <path d="M 256.882027 209.339493 
L 260.426746 212.066207 
L 256.118544 213.265954 
z
" clip-path="url(#p1b3d8ce972)" style="fill: #555555; stroke: #555555; stroke-width: 1.5; stroke-linecap: round"/>
   </g>
   <g id="patch_20">
    <path d="M 37.487603 231.214618 
Q 37.487603 231.243673 37.487603 229.595676 
" clip-path="url(#p1b3d8ce972)" style="fill: none; stroke: #555555; stroke-width: 1.5; stroke-linecap: round"/>
    <path d="M 39.487603 225.595676 
L 37.487603 229.595676 
L 35.487603 225.595676 
z
" clip-path="url(#p1b3d8ce972)" style="fill: #555555; stroke: #555555; stroke-width: 1.5; stroke-linecap: round"/>
   </g>
   <g id="patch_21">
    <path d="M 181.574301 237.751937 
Q 178.339256 239.20572 176.633902 239.972081 
" clip-path="url(#p1b3d8ce972)" style="fill: none; stroke: #555555; stroke-width: 1.5; stroke-linecap: round"/>
    <path d="M 181.102224 240.156749 
L 176.633902 239.972081 
L 179.462629 236.508225 
z
" clip-path="url(#p1b3d8ce972)" style="fill: #555555; stroke: #555555; stroke-width: 1.5; stroke-linecap: round"/>
   </g>
   <g id="patch_22">
    <path d="M 210.410154 237.751937 
Q 213.645198 239.20572 215.350552 239.972081 
" clip-path="url(#p1b3d8ce972)" style="fill: none; stroke: #555555; stroke-width: 1.5; stroke-linecap: round"/>
    <path d="M 212.521825 236.508225 
L 215.350552 239.972081 
L 210.88223 240.156749 
z
" clip-path="url(#p1b3d8ce972)" style="fill: #555555; stroke: #555555; stroke-width: 1.5; stroke-linecap: round"/>
   </g>
   <g id="patch_23">
    <path d="M 231.302139 262.950155 
Q 231.302139 262.97921 231.302139 261.331213 
" clip-path="url(#p1b3d8ce972)" style="fill: none; stroke: #555555; stroke-width: 1.5; stroke-linecap: round"/>
    <path d="M 233.302139 257.331213 
L 231.302139 261.331213 
L 229.302139 257.331213 
z
" clip-path="url(#p1b3d8ce972)" style="fill: #555555; stroke: #555555; stroke-width: 1.5; stroke-linecap: round"/>
   </g>
   <g id="patch_24">
    <path d="M 327.863358 204.663417 
Q 336.055831 207.471402 342.661854 209.735628 
" clip-path="url(#p1b3d8ce972)" style="fill: none; stroke: #555555; stroke-width: 1.5; stroke-linecap: round"/>
    <path d="M 339.526418 206.546734 
L 342.661854 209.735628 
L 338.229477 210.33064 
z
" clip-path="url(#p1b3d8ce972)" style="fill: #555555; stroke: #555555; stroke-width: 1.5; stroke-linecap: round"/>
   </g>
   <g id="patch_25">
    <path d="M 113.602433 231.214618 
Q 113.602433 231.243673 113.602433 229.595676 
" clip-path="url(#p1b3d8ce972)" style="fill: none; stroke: #555555; stroke-width: 1.5; stroke-linecap: round"/>
    <path d="M 115.602433 225.595676 
L 113.602433 229.595676 
L 111.602433 225.595676 
z
" clip-path="url(#p1b3d8ce972)" style="fill: #555555; stroke: #555555; stroke-width: 1.5; stroke-linecap: round"/>
   </g>
   <g id="patch_26">
    <path d="M 344.784559 221.884168 
Q 341.549514 223.337951 339.84416 224.104313 
" clip-path="url(#p1b3d8ce972)" style="fill: none; stroke: #555555; stroke-width: 1.5; stroke-linecap: round"/>
    <path d="M 344.312482 224.28898 
L 339.84416 224.104313 
L 342.672887 220.640456 
z
" clip-path="url(#p1b3d8ce972)" style="fill: #555555; stroke: #555555; stroke-width: 1.5; stroke-linecap: round"/>
   </g>
   <g id="patch_27">
    <path d="M 373.620412 221.884168 
Q 376.855456 223.337951 378.56081 224.104313 
" clip-path="url(#p1b3d8ce972)" style="fill: none; stroke: #555555; stroke-width: 1.5; stroke-linecap: round"/>
    <path d="M 375.732083 220.640456 
L 378.56081 224.104313 
L 374.092488 224.28898 
z
" clip-path="url(#p1b3d8ce972)" style="fill: #555555; stroke: #555555; stroke-width: 1.5; stroke-linecap: round"/>
   </g>
   <g id="patch_28">
    <path d="M 195.992227 231.214618 
Q 195.992227 231.243673 195.992227 229.595676 
" clip-path="url(#p1b3d8ce972)" style="fill: none; stroke: #555555; stroke-width: 1.5; stroke-linecap: round"/>
    <path d="M 197.992227 225.595676 
L 195.992227 229.595676 
L 193.992227 225.595676 
z
" clip-path="url(#p1b3d8ce972)" style="fill: #555555; stroke: #555555; stroke-width: 1.5; stroke-linecap: round"/>
   </g>
   <g id="PathCollection_1">
    <defs>
     <path id="C0_0_86c68b87d3" d="M 0 15.811388 
C 4.193229 15.811388 8.215279 14.145401 11.18034 11.18034 
C 14.145401 8.215279 15.811388 4.193229 15.811388 -0 
C 15.811388 -4.193229 14.145401 -8.215279 11.18034 -11.18034 
C 8.215279 -14.145401 4.193229 -15.811388 0 -15.811388 
C -4.193229 -15.811388 -8.215279 -14.145401 -11.18034 -11.18034 
C -14.145401 -8.215279 -15.811388 -4.193229 -15.811388 0 
C -15.811388 4.193229 -14.145401 8.215279 -11.18034 11.18034 
C -8.215279 14.145401 -4.193229 15.811388 0 15.811388 
z
"/>
    </defs>
    <g clip-path="url(#p1b3d8ce972)">
     <use xlink:href="#C0_0_86c68b87d3" x="305.845285" y="24.991736" style="fill: #cccccc; stroke: #cccccc"/>
    </g>
    <g clip-path="url(#p1b3d8ce972)">
     <use xlink:href="#C0_0_86c68b87d3" x="305.845285" y="40.859504" style="fill: #cccccc; stroke: #cccccc"/>
    </g>
    <g clip-path="url(#p1b3d8ce972)">
     <use xlink:href="#C0_0_86c68b87d3" x="305.845285" y="56.727273" style="fill: #cccccc; stroke: #cccccc"/>
    </g>
    <g clip-path="url(#p1b3d8ce972)">
     <use xlink:href="#C0_0_86c68b87d3" x="305.845285" y="72.595041" style="fill: #cccccc; stroke: #cccccc"/>
    </g>
    <g clip-path="url(#p1b3d8ce972)">
     <use xlink:href="#C0_0_86c68b87d3" x="305.845285" y="88.46281" style="fill: #cccccc; stroke: #cccccc"/>
    </g>
    <g clip-path="url(#p1b3d8ce972)">
     <use xlink:href="#C0_0_86c68b87d3" x="305.845285" y="104.330579" style="fill: #cccccc; stroke: #cccccc"/>
    </g>
    <g clip-path="url(#p1b3d8ce972)">
     <use xlink:href="#C0_0_86c68b87d3" x="305.845285" y="120.198347" style="fill: #cccccc; stroke: #cccccc"/>
    </g>
    <g clip-path="url(#p1b3d8ce972)">
     <use xlink:href="#C0_0_86c68b87d3" x="305.845285" y="136.066116" style="fill: #cccccc; stroke: #cccccc"/>
    </g>
    <g clip-path="url(#p1b3d8ce972)">
     <use xlink:href="#C0_0_86c68b87d3" x="305.845285" y="151.933884" style="fill: #cccccc; stroke: #cccccc"/>
    </g>
    <g clip-path="url(#p1b3d8ce972)">
     <use xlink:href="#C0_0_86c68b87d3" x="268.18138" y="167.801653" style="fill: #cccccc; stroke: #cccccc"/>
    </g>
    <g clip-path="url(#p1b3d8ce972)">
     <use xlink:href="#C0_0_86c68b87d3" x="231.302139" y="183.669421" style="fill: #cccccc; stroke: #cccccc"/>
    </g>
    <g clip-path="url(#p1b3d8ce972)">
     <use xlink:href="#C0_0_86c68b87d3" x="195.992227" y="199.53719" style="fill: #cccccc; stroke: #cccccc"/>
    </g>
    <g clip-path="url(#p1b3d8ce972)">
     <use xlink:href="#C0_0_86c68b87d3" x="37.487603" y="215.404959" style="fill: #cccccc; stroke: #cccccc"/>
    </g>
    <g clip-path="url(#p1b3d8ce972)">
     <use xlink:href="#C0_0_86c68b87d3" x="195.992227" y="231.272727" style="fill: #8c564b; stroke: #8c564b"/>
    </g>
    <g clip-path="url(#p1b3d8ce972)">
     <use xlink:href="#C0_0_86c68b87d3" x="160.682316" y="247.140496" style="fill: #8c564b; stroke: #8c564b"/>
    </g>
    <g clip-path="url(#p1b3d8ce972)">
     <use xlink:href="#C0_0_86c68b87d3" x="231.302139" y="247.140496" style="fill: #8c564b; stroke: #8c564b"/>
    </g>
    <g clip-path="url(#p1b3d8ce972)">
     <use xlink:href="#C0_0_86c68b87d3" x="312.907268" y="199.53719" style="fill: #cccccc; stroke: #cccccc"/>
    </g>
    <g clip-path="url(#p1b3d8ce972)">
     <use xlink:href="#C0_0_86c68b87d3" x="323.892574" y="231.272727" style="fill: #9467bd; stroke: #9467bd"/>
    </g>
    <g clip-path="url(#p1b3d8ce972)">
     <use xlink:href="#C0_0_86c68b87d3" x="113.602433" y="231.272727" style="fill: #1f77b4; stroke: #1f77b4"/>
    </g>
    <g clip-path="url(#p1b3d8ce972)">
     <use xlink:href="#C0_0_86c68b87d3" x="394.512397" y="231.272727" style="fill: #9467bd; stroke: #9467bd"/>
    </g>
    <g clip-path="url(#p1b3d8ce972)">
     <use xlink:href="#C0_0_86c68b87d3" x="113.602433" y="215.404959" style="fill: #1f77b4; stroke: #1f77b4"/>
    </g>
    <g clip-path="url(#p1b3d8ce972)">
     <use xlink:href="#C0_0_86c68b87d3" x="37.487603" y="231.272727" style="fill: #ff7f0e; stroke: #ff7f0e"/>
    </g>
    <g clip-path="url(#p1b3d8ce972)">
     <use xlink:href="#C0_0_86c68b87d3" x="344.293856" y="167.801653" style="fill: #2ca02c; stroke: #2ca02c"/>
    </g>
    <g clip-path="url(#p1b3d8ce972)">
     <use xlink:href="#C0_0_86c68b87d3" x="359.202485" y="215.404959" style="fill: #9467bd; stroke: #9467bd"/>
    </g>
    <g clip-path="url(#p1b3d8ce972)">
     <use xlink:href="#C0_0_86c68b87d3" x="195.992227" y="215.404959" style="fill: #8c564b; stroke: #8c564b"/>
    </g>
    <g clip-path="url(#p1b3d8ce972)">
     <use xlink:href="#C0_0_86c68b87d3" x="231.302139" y="263.008264" style="fill: #7f7f7f; stroke: #7f7f7f"/>
    </g>
    <g clip-path="url(#p1b3d8ce972)">
     <use xlink:href="#C0_0_86c68b87d3" x="305.060621" y="183.669421" style="fill: #bcbd22; stroke: #bcbd22"/>
    </g>
    <g clip-path="url(#p1b3d8ce972)">
     <use xlink:href="#C0_0_86c68b87d3" x="277.597356" y="215.404959" style="fill: #17becf; stroke: #17becf"/>
    </g>
   </g>
   <g id="text_1">
    <g clip-path="url(#p1b3d8ce972)">
     <!-- root -->
     <g transform="translate(297.637238 26.923298) scale(0.07 -0.07)">
      <defs>
       <path id="DejaVuSans-Bold-72" d="M 3138 2547 
Q 2991 2616 2845 2648 
Q 2700 2681 2553 2681 
Q 2122 2681 1889 2404 
Q 1656 2128 1656 1613 
L 1656 0 
L 538 0 
L 538 3500 
L 1656 3500 
L 1656 2925 
Q 1872 3269 2151 3426 
Q 2431 3584 2822 3584 
Q 2878 3584 2943 3579 
Q 3009 3575 3134 3559 
L 3138 2547 
z
" transform="scale(0.015625)"/>
       <path id="DejaVuSans-Bold-6f" d="M 2203 2784 
Q 1831 2784 1636 2517 
Q 1441 2250 1441 1747 
Q 1441 1244 1636 976 
Q 1831 709 2203 709 
Q 2569 709 2762 976 
Q 2956 1244 2956 1747 
Q 2956 2250 2762 2517 
Q 2569 2784 2203 2784 
z
M 2203 3584 
Q 3106 3584 3614 3096 
Q 4122 2609 4122 1747 
Q 4122 884 3614 396 
Q 3106 -91 2203 -91 
Q 1297 -91 786 396 
Q 275 884 275 1747 
Q 275 2609 786 3096 
Q 1297 3584 2203 3584 
z
" transform="scale(0.015625)"/>
       <path id="DejaVuSans-Bold-74" d="M 1759 4494 
L 1759 3500 
L 2913 3500 
L 2913 2700 
L 1759 2700 
L 1759 1216 
Q 1759 972 1856 886 
Q 1953 800 2241 800 
L 2816 800 
L 2816 0 
L 1856 0 
Q 1194 0 917 276 
Q 641 553 641 1216 
L 641 2700 
L 84 2700 
L 84 3500 
L 641 3500 
L 641 4494 
L 1759 4494 
z
" transform="scale(0.015625)"/>
      </defs>
      <use xlink:href="#DejaVuSans-Bold-72"/>
      <use xlink:href="#DejaVuSans-Bold-6f" transform="translate(49.316406 0)"/>
      <use xlink:href="#DejaVuSans-Bold-6f" transform="translate(118.017578 0)"/>
      <use xlink:href="#DejaVuSans-Bold-74" transform="translate(186.71875 0)"/>
     </g>
    </g>
   </g>
   <g id="text_2">
    <g clip-path="url(#p1b3d8ce972)">
     <!-- 3 -->
     <g transform="translate(303.410051 42.791067) scale(0.07 -0.07)">
      <defs>
       <path id="DejaVuSans-Bold-33" d="M 2981 2516 
Q 3453 2394 3698 2092 
Q 3944 1791 3944 1325 
Q 3944 631 3412 270 
Q 2881 -91 1863 -91 
Q 1503 -91 1142 -33 
Q 781 25 428 141 
L 428 1069 
Q 766 900 1098 814 
Q 1431 728 1753 728 
Q 2231 728 2486 893 
Q 2741 1059 2741 1369 
Q 2741 1688 2480 1852 
Q 2219 2016 1709 2016 
L 1228 2016 
L 1228 2791 
L 1734 2791 
Q 2188 2791 2409 2933 
Q 2631 3075 2631 3366 
Q 2631 3634 2415 3781 
Q 2200 3928 1806 3928 
Q 1516 3928 1219 3862 
Q 922 3797 628 3669 
L 628 4550 
Q 984 4650 1334 4700 
Q 1684 4750 2022 4750 
Q 2931 4750 3382 4451 
Q 3834 4153 3834 3553 
Q 3834 3144 3618 2883 
Q 3403 2622 2981 2516 
z
" transform="scale(0.015625)"/>
      </defs>
      <use xlink:href="#DejaVuSans-Bold-33"/>
     </g>
    </g>
   </g>
   <g id="text_3">
    <g clip-path="url(#p1b3d8ce972)">
     <!-- 18 -->
     <g transform="translate(300.974817 58.658835) scale(0.07 -0.07)">
      <defs>
       <path id="DejaVuSans-Bold-31" d="M 750 831 
L 1813 831 
L 1813 3847 
L 722 3622 
L 722 4441 
L 1806 4666 
L 2950 4666 
L 2950 831 
L 4013 831 
L 4013 0 
L 750 0 
L 750 831 
z
" transform="scale(0.015625)"/>
       <path id="DejaVuSans-Bold-38" d="M 2228 2088 
Q 1891 2088 1709 1903 
Q 1528 1719 1528 1375 
Q 1528 1031 1709 848 
Q 1891 666 2228 666 
Q 2563 666 2741 848 
Q 2919 1031 2919 1375 
Q 2919 1722 2741 1905 
Q 2563 2088 2228 2088 
z
M 1350 2484 
Q 925 2613 709 2878 
Q 494 3144 494 3541 
Q 494 4131 934 4440 
Q 1375 4750 2228 4750 
Q 3075 4750 3515 4442 
Q 3956 4134 3956 3541 
Q 3956 3144 3739 2878 
Q 3522 2613 3097 2484 
Q 3572 2353 3814 2058 
Q 4056 1763 4056 1313 
Q 4056 619 3595 264 
Q 3134 -91 2228 -91 
Q 1319 -91 855 264 
Q 391 619 391 1313 
Q 391 1763 633 2058 
Q 875 2353 1350 2484 
z
M 1631 3419 
Q 1631 3141 1786 2991 
Q 1941 2841 2228 2841 
Q 2509 2841 2662 2991 
Q 2816 3141 2816 3419 
Q 2816 3697 2662 3845 
Q 2509 3994 2228 3994 
Q 1941 3994 1786 3844 
Q 1631 3694 1631 3419 
z
" transform="scale(0.015625)"/>
      </defs>
      <use xlink:href="#DejaVuSans-Bold-31"/>
      <use xlink:href="#DejaVuSans-Bold-38" transform="translate(69.580078 0)"/>
     </g>
    </g>
   </g>
   <g id="text_4">
    <g clip-path="url(#p1b3d8ce972)">
     <!-- 5 -->
     <g transform="translate(303.410051 74.526604) scale(0.07 -0.07)">
      <defs>
       <path id="DejaVuSans-Bold-35" d="M 678 4666 
L 3669 4666 
L 3669 3781 
L 1638 3781 
L 1638 3059 
Q 1775 3097 1914 3117 
Q 2053 3138 2203 3138 
Q 3056 3138 3531 2711 
Q 4006 2284 4006 1522 
Q 4006 766 3489 337 
Q 2972 -91 2053 -91 
Q 1656 -91 1267 -14 
Q 878 63 494 219 
L 494 1166 
Q 875 947 1217 837 
Q 1559 728 1863 728 
Q 2300 728 2551 942 
Q 2803 1156 2803 1522 
Q 2803 1891 2551 2103 
Q 2300 2316 1863 2316 
Q 1603 2316 1309 2248 
Q 1016 2181 678 2041 
L 678 4666 
z
" transform="scale(0.015625)"/>
      </defs>
      <use xlink:href="#DejaVuSans-Bold-35"/>
     </g>
    </g>
   </g>
   <g id="text_5">
    <g clip-path="url(#p1b3d8ce972)">
     <!-- 4 -->
     <g transform="translate(303.410051 90.394372) scale(0.07 -0.07)">
      <defs>
       <path id="DejaVuSans-Bold-34" d="M 2356 3675 
L 1038 1722 
L 2356 1722 
L 2356 3675 
z
M 2156 4666 
L 3494 4666 
L 3494 1722 
L 4159 1722 
L 4159 850 
L 3494 850 
L 3494 0 
L 2356 0 
L 2356 850 
L 288 850 
L 288 1881 
L 2156 4666 
z
" transform="scale(0.015625)"/>
      </defs>
      <use xlink:href="#DejaVuSans-Bold-34"/>
     </g>
    </g>
   </g>
   <g id="text_6">
    <g clip-path="url(#p1b3d8ce972)">
     <!-- 13 -->
     <g transform="translate(300.974817 106.262141) scale(0.07 -0.07)">
      <use xlink:href="#DejaVuSans-Bold-31"/>
      <use xlink:href="#DejaVuSans-Bold-33" transform="translate(69.580078 0)"/>
     </g>
    </g>
   </g>
   <g id="text_7">
    <g clip-path="url(#p1b3d8ce972)">
     <!-- 17 -->
     <g transform="translate(300.974817 122.12991) scale(0.07 -0.07)">
      <defs>
       <path id="DejaVuSans-Bold-37" d="M 428 4666 
L 3944 4666 
L 3944 3988 
L 2125 0 
L 953 0 
L 2675 3781 
L 428 3781 
L 428 4666 
z
" transform="scale(0.015625)"/>
      </defs>
      <use xlink:href="#DejaVuSans-Bold-31"/>
      <use xlink:href="#DejaVuSans-Bold-37" transform="translate(69.580078 0)"/>
     </g>
    </g>
   </g>
   <g id="text_8">
    <g clip-path="url(#p1b3d8ce972)">
     <!-- 6 -->
     <g transform="translate(303.410051 137.997678) scale(0.07 -0.07)">
      <defs>
       <path id="DejaVuSans-Bold-36" d="M 2316 2303 
Q 2000 2303 1842 2098 
Q 1684 1894 1684 1484 
Q 1684 1075 1842 870 
Q 2000 666 2316 666 
Q 2634 666 2792 870 
Q 2950 1075 2950 1484 
Q 2950 1894 2792 2098 
Q 2634 2303 2316 2303 
z
M 3803 4544 
L 3803 3681 
Q 3506 3822 3243 3889 
Q 2981 3956 2731 3956 
Q 2194 3956 1894 3657 
Q 1594 3359 1544 2772 
Q 1750 2925 1990 3001 
Q 2231 3078 2516 3078 
Q 3231 3078 3670 2659 
Q 4109 2241 4109 1563 
Q 4109 813 3618 361 
Q 3128 -91 2303 -91 
Q 1394 -91 895 523 
Q 397 1138 397 2266 
Q 397 3422 980 4083 
Q 1563 4744 2578 4744 
Q 2900 4744 3203 4694 
Q 3506 4644 3803 4544 
z
" transform="scale(0.015625)"/>
      </defs>
      <use xlink:href="#DejaVuSans-Bold-36"/>
     </g>
    </g>
   </g>
   <g id="text_9">
    <g clip-path="url(#p1b3d8ce972)">
     <!-- 0 -->
     <g transform="translate(303.410051 153.865447) scale(0.07 -0.07)">
      <defs>
       <path id="DejaVuSans-Bold-30" d="M 2944 2338 
Q 2944 3213 2780 3570 
Q 2616 3928 2228 3928 
Q 1841 3928 1675 3570 
Q 1509 3213 1509 2338 
Q 1509 1453 1675 1090 
Q 1841 728 2228 728 
Q 2613 728 2778 1090 
Q 2944 1453 2944 2338 
z
M 4147 2328 
Q 4147 1169 3647 539 
Q 3147 -91 2228 -91 
Q 1306 -91 806 539 
Q 306 1169 306 2328 
Q 306 3491 806 4120 
Q 1306 4750 2228 4750 
Q 3147 4750 3647 4120 
Q 4147 3491 4147 2328 
z
" transform="scale(0.015625)"/>
      </defs>
      <use xlink:href="#DejaVuSans-Bold-30"/>
     </g>
    </g>
   </g>
   <g id="text_10">
    <g clip-path="url(#p1b3d8ce972)">
     <!-- 10 -->
     <g transform="translate(263.310911 169.733215) scale(0.07 -0.07)">
      <use xlink:href="#DejaVuSans-Bold-31"/>
      <use xlink:href="#DejaVuSans-Bold-30" transform="translate(69.580078 0)"/>
     </g>
    </g>
   </g>
   <g id="text_11">
    <g clip-path="url(#p1b3d8ce972)">
     <!-- 15 -->
     <g transform="translate(226.43167 185.600984) scale(0.07 -0.07)">
      <use xlink:href="#DejaVuSans-Bold-31"/>
      <use xlink:href="#DejaVuSans-Bold-35" transform="translate(69.580078 0)"/>
     </g>
    </g>
   </g>
   <g id="text_12">
    <g clip-path="url(#p1b3d8ce972)">
     <!-- 9 -->
     <g transform="translate(193.556993 201.468753) scale(0.07 -0.07)">
      <defs>
       <path id="DejaVuSans-Bold-39" d="M 641 103 
L 641 966 
Q 928 831 1190 764 
Q 1453 697 1709 697 
Q 2247 697 2547 995 
Q 2847 1294 2900 1881 
Q 2688 1725 2447 1647 
Q 2206 1569 1925 1569 
Q 1209 1569 770 1986 
Q 331 2403 331 3084 
Q 331 3838 820 4291 
Q 1309 4744 2131 4744 
Q 3044 4744 3544 4128 
Q 4044 3513 4044 2388 
Q 4044 1231 3459 570 
Q 2875 -91 1856 -91 
Q 1528 -91 1228 -42 
Q 928 6 641 103 
z
M 2125 2350 
Q 2441 2350 2600 2554 
Q 2759 2759 2759 3169 
Q 2759 3575 2600 3781 
Q 2441 3988 2125 3988 
Q 1809 3988 1650 3781 
Q 1491 3575 1491 3169 
Q 1491 2759 1650 2554 
Q 1809 2350 2125 2350 
z
" transform="scale(0.015625)"/>
      </defs>
      <use xlink:href="#DejaVuSans-Bold-39"/>
     </g>
    </g>
   </g>
   <g id="text_13">
    <g clip-path="url(#p1b3d8ce972)">
     <!-- 7 -->
     <g transform="translate(35.052369 217.336521) scale(0.07 -0.07)">
      <use xlink:href="#DejaVuSans-Bold-37"/>
     </g>
    </g>
   </g>
   <g id="text_14">
    <g clip-path="url(#p1b3d8ce972)">
     <!-- 11 -->
     <g transform="translate(191.121758 233.20429) scale(0.07 -0.07)">
      <use xlink:href="#DejaVuSans-Bold-31"/>
      <use xlink:href="#DejaVuSans-Bold-31" transform="translate(69.580078 0)"/>
     </g>
    </g>
   </g>
   <g id="text_15">
    <g clip-path="url(#p1b3d8ce972)">
     <!-- 1 -->
     <g transform="translate(158.247081 249.072058) scale(0.07 -0.07)">
      <use xlink:href="#DejaVuSans-Bold-31"/>
     </g>
    </g>
   </g>
   <g id="text_16">
    <g clip-path="url(#p1b3d8ce972)">
     <!-- 8 -->
     <g transform="translate(228.866904 249.072058) scale(0.07 -0.07)">
      <use xlink:href="#DejaVuSans-Bold-38"/>
     </g>
    </g>
   </g>
   <g id="text_17">
    <g clip-path="url(#p1b3d8ce972)">
     <!-- 14 -->
     <g transform="translate(308.036799 201.468753) scale(0.07 -0.07)">
      <use xlink:href="#DejaVuSans-Bold-31"/>
      <use xlink:href="#DejaVuSans-Bold-34" transform="translate(69.580078 0)"/>
     </g>
    </g>
   </g>
   <g id="text_18">
    <g clip-path="url(#p1b3d8ce972)">
     <!-- 2 -->
     <g transform="translate(321.457339 233.20429) scale(0.07 -0.07)">
      <defs>
       <path id="DejaVuSans-Bold-32" d="M 1844 884 
L 3897 884 
L 3897 0 
L 506 0 
L 506 884 
L 2209 2388 
Q 2438 2594 2547 2791 
Q 2656 2988 2656 3200 
Q 2656 3528 2436 3728 
Q 2216 3928 1850 3928 
Q 1569 3928 1234 3808 
Q 900 3688 519 3450 
L 519 4475 
Q 925 4609 1322 4679 
Q 1719 4750 2100 4750 
Q 2938 4750 3402 4381 
Q 3866 4013 3866 3353 
Q 3866 2972 3669 2642 
Q 3472 2313 2841 1759 
L 1844 884 
z
" transform="scale(0.015625)"/>
      </defs>
      <use xlink:href="#DejaVuSans-Bold-32"/>
     </g>
    </g>
   </g>
   <g id="text_19">
    <g clip-path="url(#p1b3d8ce972)">
     <!-- 16 -->
     <g transform="translate(108.731965 233.20429) scale(0.07 -0.07)">
      <use xlink:href="#DejaVuSans-Bold-31"/>
      <use xlink:href="#DejaVuSans-Bold-36" transform="translate(69.580078 0)"/>
     </g>
    </g>
   </g>
   <g id="text_20">
    <g clip-path="url(#p1b3d8ce972)">
     <!-- 19 -->
     <g transform="translate(389.641928 233.20429) scale(0.07 -0.07)">
      <use xlink:href="#DejaVuSans-Bold-31"/>
      <use xlink:href="#DejaVuSans-Bold-39" transform="translate(69.580078 0)"/>
     </g>
    </g>
   </g>
   <g id="text_21">
    <g clip-path="url(#p1b3d8ce972)">
     <!-- CN_A -->
     <g transform="translate(103.646027 217.177381) scale(0.07 -0.07)">
      <defs>
       <path id="DejaVuSans-Bold-43" d="M 4288 256 
Q 3956 84 3597 -3 
Q 3238 -91 2847 -91 
Q 1681 -91 1000 561 
Q 319 1213 319 2328 
Q 319 3447 1000 4098 
Q 1681 4750 2847 4750 
Q 3238 4750 3597 4662 
Q 3956 4575 4288 4403 
L 4288 3438 
Q 3953 3666 3628 3772 
Q 3303 3878 2944 3878 
Q 2300 3878 1931 3465 
Q 1563 3053 1563 2328 
Q 1563 1606 1931 1193 
Q 2300 781 2944 781 
Q 3303 781 3628 887 
Q 3953 994 4288 1222 
L 4288 256 
z
" transform="scale(0.015625)"/>
       <path id="DejaVuSans-Bold-4e" d="M 588 4666 
L 1931 4666 
L 3628 1466 
L 3628 4666 
L 4769 4666 
L 4769 0 
L 3425 0 
L 1728 3200 
L 1728 0 
L 588 0 
L 588 4666 
z
" transform="scale(0.015625)"/>
       <path id="DejaVuSans-Bold-5f" d="M 3200 -916 
L 3200 -1509 
L 0 -1509 
L 0 -916 
L 3200 -916 
z
" transform="scale(0.015625)"/>
       <path id="DejaVuSans-Bold-41" d="M 3419 850 
L 1538 850 
L 1241 0 
L 31 0 
L 1759 4666 
L 3194 4666 
L 4922 0 
L 3713 0 
L 3419 850 
z
M 1838 1716 
L 3116 1716 
L 2478 3572 
L 1838 1716 
z
" transform="scale(0.015625)"/>
      </defs>
      <use xlink:href="#DejaVuSans-Bold-43"/>
      <use xlink:href="#DejaVuSans-Bold-4e" transform="translate(73.388672 0)"/>
      <use xlink:href="#DejaVuSans-Bold-5f" transform="translate(157.080078 0)"/>
      <use xlink:href="#DejaVuSans-Bold-41" transform="translate(207.080078 0)"/>
     </g>
    </g>
   </g>
   <g id="text_22">
    <g clip-path="url(#p1b3d8ce972)">
     <!-- CN_B -->
     <g transform="translate(27.572213 233.045149) scale(0.07 -0.07)">
      <defs>
       <path id="DejaVuSans-Bold-42" d="M 2456 2859 
Q 2741 2859 2887 2984 
Q 3034 3109 3034 3353 
Q 3034 3594 2887 3720 
Q 2741 3847 2456 3847 
L 1791 3847 
L 1791 2859 
L 2456 2859 
z
M 2497 819 
Q 2859 819 3042 972 
Q 3225 1125 3225 1434 
Q 3225 1738 3044 1889 
Q 2863 2041 2497 2041 
L 1791 2041 
L 1791 819 
L 2497 819 
z
M 3616 2497 
Q 4003 2384 4215 2081 
Q 4428 1778 4428 1338 
Q 4428 663 3972 331 
Q 3516 0 2584 0 
L 588 0 
L 588 4666 
L 2394 4666 
Q 3366 4666 3802 4372 
Q 4238 4078 4238 3431 
Q 4238 3091 4078 2852 
Q 3919 2613 3616 2497 
z
" transform="scale(0.015625)"/>
      </defs>
      <use xlink:href="#DejaVuSans-Bold-43"/>
      <use xlink:href="#DejaVuSans-Bold-4e" transform="translate(73.388672 0)"/>
      <use xlink:href="#DejaVuSans-Bold-5f" transform="translate(157.080078 0)"/>
      <use xlink:href="#DejaVuSans-Bold-42" transform="translate(207.080078 0)"/>
     </g>
    </g>
   </g>
   <g id="text_23">
    <g clip-path="url(#p1b3d8ce972)">
     <!-- CN_C -->
     <g transform="translate(334.47745 169.574075) scale(0.07 -0.07)">
      <use xlink:href="#DejaVuSans-Bold-43"/>
      <use xlink:href="#DejaVuSans-Bold-4e" transform="translate(73.388672 0)"/>
      <use xlink:href="#DejaVuSans-Bold-5f" transform="translate(157.080078 0)"/>
      <use xlink:href="#DejaVuSans-Bold-43" transform="translate(207.080078 0)"/>
     </g>
    </g>
   </g>
   <g id="text_24">
    <g clip-path="url(#p1b3d8ce972)">
     <!-- CN_D -->
     <g transform="translate(349.049204 217.177381) scale(0.07 -0.07)">
      <defs>
       <path id="DejaVuSans-Bold-44" d="M 1791 3756 
L 1791 909 
L 2222 909 
Q 2959 909 3348 1275 
Q 3738 1641 3738 2338 
Q 3738 3031 3350 3393 
Q 2963 3756 2222 3756 
L 1791 3756 
z
M 588 4666 
L 1856 4666 
Q 2919 4666 3439 4514 
Q 3959 4363 4331 4000 
Q 4659 3684 4818 3271 
Q 4978 2859 4978 2338 
Q 4978 1809 4818 1395 
Q 4659 981 4331 666 
Q 3956 303 3431 151 
Q 2906 0 1856 0 
L 588 0 
L 588 4666 
z
" transform="scale(0.015625)"/>
      </defs>
      <use xlink:href="#DejaVuSans-Bold-43"/>
      <use xlink:href="#DejaVuSans-Bold-4e" transform="translate(73.388672 0)"/>
      <use xlink:href="#DejaVuSans-Bold-5f" transform="translate(157.080078 0)"/>
      <use xlink:href="#DejaVuSans-Bold-44" transform="translate(207.080078 0)"/>
     </g>
    </g>
   </g>
   <g id="text_25">
    <g clip-path="url(#p1b3d8ce972)">
     <!-- CN_E -->
     <g transform="translate(186.353555 217.177381) scale(0.07 -0.07)">
      <defs>
       <path id="DejaVuSans-Bold-45" d="M 588 4666 
L 3834 4666 
L 3834 3756 
L 1791 3756 
L 1791 2888 
L 3713 2888 
L 3713 1978 
L 1791 1978 
L 1791 909 
L 3903 909 
L 3903 0 
L 588 0 
L 588 4666 
z
" transform="scale(0.015625)"/>
      </defs>
      <use xlink:href="#DejaVuSans-Bold-43"/>
      <use xlink:href="#DejaVuSans-Bold-4e" transform="translate(73.388672 0)"/>
      <use xlink:href="#DejaVuSans-Bold-5f" transform="translate(157.080078 0)"/>
      <use xlink:href="#DejaVuSans-Bold-45" transform="translate(207.080078 0)"/>
     </g>
    </g>
   </g>
   <g id="text_26">
    <g clip-path="url(#p1b3d8ce972)">
     <!-- CN_F -->
     <g transform="translate(221.663467 264.780686) scale(0.07 -0.07)">
      <defs>
       <path id="DejaVuSans-Bold-46" d="M 588 4666 
L 3834 4666 
L 3834 3756 
L 1791 3756 
L 1791 2888 
L 3713 2888 
L 3713 1978 
L 1791 1978 
L 1791 0 
L 588 0 
L 588 4666 
z
" transform="scale(0.015625)"/>
      </defs>
      <use xlink:href="#DejaVuSans-Bold-43"/>
      <use xlink:href="#DejaVuSans-Bold-4e" transform="translate(73.388672 0)"/>
      <use xlink:href="#DejaVuSans-Bold-5f" transform="translate(157.080078 0)"/>
      <use xlink:href="#DejaVuSans-Bold-46" transform="translate(207.080078 0)"/>
     </g>
    </g>
   </g>
   <g id="text_27">
    <g clip-path="url(#p1b3d8ce972)">
     <!-- CN_J -->
     <g transform="translate(296.510777 185.441843) scale(0.07 -0.07)">
      <defs>
       <path id="DejaVuSans-Bold-4a" d="M 588 4666 
L 1791 4666 
L 1791 453 
Q 1791 -419 1317 -850 
Q 844 -1281 -116 -1281 
L -359 -1281 
L -359 -372 
L -172 -372 
Q 203 -372 395 -162 
Q 588 47 588 453 
L 588 4666 
z
" transform="scale(0.015625)"/>
      </defs>
      <use xlink:href="#DejaVuSans-Bold-43"/>
      <use xlink:href="#DejaVuSans-Bold-4e" transform="translate(73.388672 0)"/>
      <use xlink:href="#DejaVuSans-Bold-5f" transform="translate(157.080078 0)"/>
      <use xlink:href="#DejaVuSans-Bold-4a" transform="translate(207.080078 0)"/>
     </g>
    </g>
   </g>
   <g id="text_28">
    <g clip-path="url(#p1b3d8ce972)">
     <!-- CN_L -->
     <g transform="translate(268.119465 217.177381) scale(0.07 -0.07)">
      <defs>
       <path id="DejaVuSans-Bold-4c" d="M 588 4666 
L 1791 4666 
L 1791 909 
L 3903 909 
L 3903 0 
L 588 0 
L 588 4666 
z
" transform="scale(0.015625)"/>
      </defs>
      <use xlink:href="#DejaVuSans-Bold-43"/>
      <use xlink:href="#DejaVuSans-Bold-4e" transform="translate(73.388672 0)"/>
      <use xlink:href="#DejaVuSans-Bold-5f" transform="translate(157.080078 0)"/>
      <use xlink:href="#DejaVuSans-Bold-4c" transform="translate(207.080078 0)"/>
     </g>
    </g>
   </g>
  </g>
 </g>
 <defs>
  <clipPath id="p1b3d8ce972">
   <rect x="0" y="0" width="432" height="288"/>
  </clipPath>
 </defs>
</svg>
